<svg width="151" height="109" viewBox="0 0 151 109" fill="none" xmlns="http://www.w3.org/2000/svg">
<rect width="151" height="109" rx="16" fill="white"/>
<g clip-path="url(#clip0_69_512)">
<path d="M103.233 13.6583C106.681 13.6532 110.129 13.6229 113.577 13.6583C115.005 13.6735 115.962 14.5141 116.651 15.7042C116.782 15.9321 116.762 16.2308 117 16.403C117 24.1865 117 31.9649 117 39.7484C116.646 40.3966 116.392 41.1106 115.81 41.6221C114.98 42.3563 113.993 42.6298 112.919 42.6399C111.096 42.6602 109.269 42.6602 107.441 42.6703C107.385 42.6703 107.329 42.6703 107.274 42.6703C105.978 42.6501 104.687 42.6247 103.39 42.6045C103.679 42.1335 104.266 42.1588 104.651 41.8196C105.704 40.903 106.135 39.7433 106.135 38.3861C106.135 31.7471 106.099 25.1081 106.155 18.4692C106.18 16.1954 105.522 14.4635 103.233 13.6583Z" fill="#F7B84B"/>
<path d="M53.7972 96.0001C52.6732 95.357 52.6782 94.2834 52.8706 93.2402C53.3769 90.4094 55.8731 88.3838 58.754 88.3838C60.0198 88.3838 61.2805 88.3838 62.5463 88.3838C66.4905 88.3838 70.4346 88.3889 74.3738 88.3889C74.3839 88.6269 74.5763 88.6522 74.7434 88.7433C76.2522 89.5587 77.3306 90.6981 77.6648 92.4604C77.8876 93.6403 77.7104 94.8202 77.7813 96.0001C69.7866 96.0001 61.7919 96.0001 53.7972 96.0001Z" fill="#2156A3"/>
<path d="M77.7805 96.0001C77.7097 94.8201 77.8869 93.6402 77.6641 92.4603C77.3299 90.698 76.2515 89.5586 74.7427 88.7433C74.5756 88.6521 74.3832 88.6268 74.373 88.3888C75.8869 88.3837 77.4008 88.3837 78.9147 88.3787C80.6564 88.4647 82.4234 88.1558 84.1449 88.5559C86.717 89.1535 88.6106 91.5994 88.6511 94.177C88.6663 95.0936 88.2815 95.6456 87.5018 96.0001C84.2664 96.0001 81.0209 96.0001 77.7805 96.0001Z" fill="#2156A3"/>
<path d="M64.6674 79.79C56.136 79.79 47.6047 79.7647 39.0733 79.8002C36.2632 79.8103 33.8684 77.7037 34.0152 74.7311C34.076 73.4904 34.0355 72.2497 34.0355 71.0039C36.7898 70.9988 39.5492 70.9938 42.3036 70.9836C43.1592 70.9836 44.0098 70.9887 44.8655 70.9887C48.1565 70.9988 51.4425 71.0191 54.7336 71.014C60.6372 71.014 66.5408 70.9988 72.4444 70.9938C73.3001 70.9887 74.1608 70.9887 75.0165 70.9836C77.7759 70.9938 80.5353 70.9988 83.2947 71.009C87.6743 71.0039 92.0489 71.0039 96.4285 70.9988L96.4184 71.0242C96.4184 72.589 96.4184 74.1588 96.4184 75.7236C96.0184 77.4859 95.026 78.762 93.3349 79.4558C93.0159 79.5622 92.6514 79.5368 92.3729 79.7749C87.1781 79.7799 81.9783 79.7799 76.7835 79.785C72.7482 79.7951 68.7078 79.79 64.6674 79.79Z" fill="#2156A3"/>
<path d="M103.395 42.5995C104.691 42.6198 105.982 42.6451 107.278 42.6653C107.324 42.721 107.37 42.7767 107.415 42.8274C107.415 52.1756 107.41 61.5188 107.41 70.8671C107.364 70.9177 107.319 70.9633 107.273 71.014C103.709 71.019 100.144 71.0292 96.58 71.0342C96.5243 71.0241 96.4737 71.0241 96.418 71.0292L96.4281 71.0038C96.423 61.6708 96.423 52.3377 96.418 43.0046C96.5749 42.8882 96.7369 42.7717 96.8939 42.6552C97.5572 42.5438 98.2255 42.5337 98.8938 42.5438C100.403 42.5691 101.896 42.5843 103.395 42.5995Z" fill="#DEEFFF"/>
<path d="M64.6672 79.79C68.7076 79.79 72.7479 79.79 76.7883 79.7951C77.2086 82.1499 77.9731 84.4186 78.5098 86.743C78.6364 87.2899 78.7832 87.8368 78.9199 88.3838C77.406 88.3888 75.8921 88.3888 74.3783 88.3939C70.4341 88.3939 66.4899 88.3888 62.5508 88.3888C63.2292 85.6846 63.9077 82.9804 64.5862 80.2711C64.6165 80.1091 64.6368 79.9521 64.6672 79.79Z" fill="#2156A3"/>
<path d="M96.5803 71.0393C100.145 71.0342 103.709 71.0241 107.274 71.019L107.355 71.0342L107.436 71.0292C107.441 72.4522 107.456 73.8752 107.441 75.2982C107.425 77.0605 106.215 79.3039 103.38 79.7849C103.142 79.5267 102.823 79.6381 102.545 79.633C99.7548 79.6229 96.9651 79.633 94.1753 79.6229C93.8917 79.6229 93.5778 79.7292 93.3398 79.4659C95.0309 78.7721 96.0233 77.496 96.4233 75.7337C96.6714 75.5261 96.5803 75.2374 96.5803 74.9791C96.5853 73.6675 96.5803 72.3509 96.5803 71.0393Z" fill="#2156A3"/>
<path d="M93.3399 79.4658C93.5779 79.7292 93.8918 79.6228 94.1753 79.6228C96.9651 79.6329 99.7549 79.6228 102.545 79.6329C102.828 79.6329 103.142 79.5215 103.38 79.7849C99.7144 79.7849 96.0436 79.7849 92.3779 79.7849C92.6564 79.5519 93.0209 79.5722 93.3399 79.4658Z" fill="#2156A3"/>
<path d="M107.416 42.8325C107.37 42.7768 107.325 42.7211 107.279 42.6704C107.335 42.6704 107.391 42.6704 107.446 42.6704C107.436 42.7211 107.426 42.7768 107.416 42.8325Z" fill="#9BC3F8"/>
<path d="M107.435 71.0291L107.354 71.0341L107.273 71.0189C107.319 70.9683 107.365 70.9227 107.41 70.8721C107.43 70.9227 107.435 70.9734 107.435 71.0291Z" fill="#9BC3F8"/>
<path d="M96.4234 43.0097C96.4285 52.3428 96.4285 61.6759 96.4336 71.0089C92.054 71.014 87.6794 71.014 83.2998 71.0191C83.3049 69.0491 83.3605 67.0741 83.3049 65.1042C83.2137 61.8885 82.1656 58.9666 80.3328 56.3383C77.8316 52.753 74.4089 50.4995 70.1913 49.4259C69.6546 49.0815 69.0876 48.7676 68.5863 48.3827C67.5484 47.5826 66.5256 47.456 65.4674 48.3067C64.8193 47.851 64.4345 47.2433 64.2675 46.4634C64.0801 45.5772 64.2472 44.6859 64.1611 43.7997C64.4497 43.3591 65.0269 43.273 65.3257 42.8527C66.0902 42.6907 66.6927 42.2805 67.1636 41.6627C68.2673 41.6728 69.366 41.7234 70.4698 41.6829C72.4546 41.6019 74.0191 39.6725 73.9279 38.1026C73.8419 36.6037 73.9127 35.0946 73.9127 33.5906C74.1456 31.8384 74.176 30.0761 73.8722 28.3341C73.7051 27.377 73.0824 26.8857 72.1811 26.7895C72.1204 25.3766 72.0951 23.9638 72.1913 22.5509C76.3734 22.5458 80.5505 22.5458 84.7327 22.5408C84.7377 27.934 84.7428 33.3272 84.758 38.7205C84.763 40.579 85.8364 41.9766 87.6085 42.4729C87.8414 42.5388 88.0642 42.6198 88.292 42.6957C88.4287 43.0553 88.4439 43.43 88.4439 43.8098C88.4389 46.1545 88.4389 48.4992 88.4439 50.8489C88.4439 51.1882 88.3629 51.5882 88.8034 51.7402C89.254 51.8971 89.4819 51.5933 89.7249 51.2793C91.335 49.2233 92.9451 47.1622 94.5906 45.1316C95.1779 44.4074 95.6387 43.5617 96.4234 43.0097Z" fill="#DEEFFF"/>
<path d="M42.3033 70.9886C39.5489 70.9937 36.7895 70.9988 34.0352 71.0089C34.0402 68.806 34.0402 66.6032 34.0453 64.3952C34.0858 64.2686 34.1567 64.1471 34.1668 64.0205C34.3288 62.086 34.901 60.2579 35.7667 58.5462C38.1667 53.7961 41.9843 50.783 47.1436 49.4714C49.0727 51.4312 50.9967 53.391 52.9358 55.3458C53.7308 56.1509 54.475 56.1712 55.356 55.447C56.2725 54.6976 57.2294 53.9936 58.0749 53.1733C58.5863 52.677 58.9103 52.7985 59.3458 53.1682C60.2926 53.9683 61.2394 54.7583 62.2014 55.5331C63.0267 56.1965 63.7102 56.1357 64.495 55.3913C65.2545 54.6672 65.9228 53.8468 66.7633 53.2087C66.9962 53.467 67.219 53.7303 67.462 53.9835C68.5911 55.1634 69.6493 56.3991 70.3378 57.9031C70.1201 57.9082 69.9075 57.9132 69.6898 57.9132C68.267 57.9284 67.5784 58.6273 67.5683 60.0553C67.5683 60.2984 67.5632 60.5415 67.5683 60.7846C67.5886 61.8986 68.2772 62.5975 69.3759 62.6228C70.2923 62.6431 71.2036 62.6532 72.1201 62.6684C72.358 63.8838 72.4745 65.1143 72.4542 66.35C72.4542 67.8996 72.4492 69.4492 72.4492 71.0038C66.5456 71.014 60.6419 71.0241 54.7383 71.0241C51.4473 71.0241 48.1613 71.0089 44.8703 70.9988C44.8753 69.8188 44.8804 68.6389 44.8804 67.4539C44.8804 66.4158 44.4348 65.8638 43.6095 65.8537C42.8096 65.8436 42.3134 66.436 42.3033 67.4489C42.2881 68.6237 42.3033 69.8087 42.3033 70.9886Z" fill="#F06548"/>
<path d="M88.2918 42.6958C88.064 42.6199 87.8361 42.5388 87.6083 42.473C85.8362 41.9767 84.7628 40.579 84.7577 38.7205C84.7425 33.3273 84.7425 27.9341 84.7324 22.5408C84.7375 20.8444 84.7425 19.1429 84.7527 17.4464C84.7679 15.2689 86.3577 13.6484 88.5196 13.6484C93.4208 13.6433 98.3269 13.6534 103.228 13.6585C105.517 14.4637 106.175 16.1956 106.16 18.4693C106.109 25.1083 106.139 31.7473 106.139 38.3863C106.139 39.7435 105.709 40.9031 104.656 41.8197C104.271 42.154 103.679 42.1337 103.395 42.6047C101.896 42.5895 100.398 42.5743 98.8991 42.549C98.2307 42.5388 97.5624 42.549 96.8991 42.6604C96.7624 42.4882 96.57 42.5085 96.3827 42.5085C93.8815 42.5085 91.3803 42.5085 88.8791 42.5085C88.6614 42.5085 88.4386 42.4831 88.2918 42.6958ZM100.636 30.3496C100.636 32.4006 100.631 34.4515 100.636 36.5025C100.636 37.4748 101.102 38.0571 101.876 38.0926C102.575 38.123 103.182 37.4444 103.188 36.5329C103.203 32.4563 103.203 28.3848 103.188 24.3082C103.182 23.4169 102.62 22.789 101.922 22.8143C101.177 22.8396 100.59 23.5233 100.621 24.3588C100.681 26.3541 100.636 28.3544 100.636 30.3496ZM103.157 19.6341C103.147 18.9757 102.494 18.3529 101.831 18.3731C101.172 18.3934 100.636 18.9707 100.641 19.6543C100.646 20.3684 101.228 20.9355 101.932 20.9153C102.545 20.9001 103.162 20.2519 103.157 19.6341Z" fill="#F7B84B"/>
<path d="M47.1389 49.4714C41.9846 50.7779 38.162 53.791 35.7621 58.5411C34.8963 60.2578 34.3241 62.0809 34.1621 64.0154C34.152 64.142 34.0811 64.2635 34.0406 64.3901C34.0355 61.6656 34.0203 58.9412 34.0203 56.2117C34.0203 46.6102 34.0608 37.0037 34.0001 27.3971C33.9849 24.6828 36.1772 22.3533 38.8708 22.5204C40.967 22.647 43.0783 22.5407 45.1845 22.5407C45.1896 23.9536 45.1947 25.3664 45.1997 26.7844C44.1618 26.9768 43.4428 27.7972 43.4327 28.8505C43.4175 30.0861 43.4226 31.3268 43.4327 32.5625C43.4428 33.8994 44.4403 34.8767 45.7871 34.8919C46.4605 34.897 47.1339 34.8919 47.8022 34.8919C48.1009 38.4722 49.5945 41.3638 52.6831 43.3337C52.8856 43.4654 53.1387 43.592 53.1438 43.8553C53.159 45.4455 53.4932 47.1267 51.9894 48.3269C51.2401 47.9268 50.5211 47.3445 49.6047 47.9268C48.7844 48.4434 47.9591 48.9548 47.1389 49.4714Z" fill="#DEEFFF"/>
<path d="M45.1949 26.7794C45.1898 25.3665 45.1848 23.9537 45.1797 22.5357C45.2911 21.2545 45.1442 19.9632 45.4885 18.687C46.3797 15.4055 49.291 13.0659 52.6833 13.0102C54.4047 12.9798 56.1262 13.0153 57.8477 13.0203C57.8426 13.233 57.9742 13.3698 58.1059 13.5065C60.3286 15.7549 61.245 18.5098 61.2551 21.6191C61.2501 21.6596 61.2501 21.7002 61.24 21.7407C59.0527 22.0496 56.9262 21.8622 54.7591 21.3254C51.9491 20.6266 50.096 22.2825 50.0909 25.1994C50.0909 26.3085 50.1061 27.4124 50.0859 28.5214C50.0707 29.4532 49.4884 29.8887 48.5821 29.6811C48.3188 29.6204 48.0657 29.5292 47.8075 29.4482C47.534 29.3418 47.2657 29.2102 46.9822 29.1342C45.7923 28.8 45.1898 28.0252 45.1949 26.7794Z" fill="#756E78"/>
<path d="M61.2553 21.6189C61.2452 18.5096 60.3287 15.7548 58.106 13.5063C57.9693 13.3696 57.8427 13.2329 57.8478 13.0252C60.03 13.0202 62.2072 12.9847 64.3894 13.0151C66.1007 13.0354 67.4171 14.3267 67.5842 16.0535C67.6855 17.0866 67.9184 17.3196 68.9816 17.436C70.9563 17.6538 72.1157 18.935 72.1461 20.9404C72.1562 21.4772 72.1765 22.0139 72.1917 22.5507C72.0955 23.9636 72.1157 25.3765 72.1815 26.7894C72.2018 28.0807 71.5537 28.8403 70.3234 29.1644C70.0449 29.2404 69.7816 29.3822 69.5082 29.4936C69.4019 29.5138 69.2956 29.5239 69.1892 29.5543C67.7817 29.9595 67.2602 29.5797 67.2551 28.1364C67.2551 27.0071 67.2652 25.8728 67.2551 24.7435C67.2399 22.8495 66.1007 21.5329 64.2628 21.1986C63.2046 21.0062 62.2578 21.4772 61.2553 21.6189Z" fill="#665E66"/>
<path d="M70.3334 57.8981C69.6448 56.3941 68.5866 55.1585 67.4575 53.9786C67.2195 53.7304 66.9917 53.462 66.7588 53.2038C67.7309 52.2061 68.703 51.2035 69.6701 50.2058C69.8929 49.9779 70.1713 49.7855 70.1916 49.4209C74.4092 50.4945 77.8319 52.748 80.3331 56.3333C82.1659 58.9616 83.214 61.8785 83.3051 65.0992C83.3608 67.0692 83.3051 69.0441 83.3001 71.0141C80.5407 71.0039 77.7812 70.9938 75.0218 70.9887C75.0218 69.7582 75.0573 68.5225 75.0168 67.292C74.9813 66.0715 73.9079 65.5145 72.8801 66.1424C72.7434 66.2235 72.5966 66.2792 72.4548 66.3501C72.4751 65.1094 72.3586 63.8839 72.1207 62.6634C72.9814 62.6482 73.8472 62.628 74.7079 62.6229C75.4775 62.6178 75.999 62.2279 76.2572 61.5392C76.4699 60.9568 76.5357 60.339 76.4091 59.7111C76.156 58.4653 75.513 57.9235 74.2219 57.9184C72.9257 57.9083 71.6295 57.9032 70.3334 57.8981Z" fill="#F06548"/>
<path d="M42.3033 70.9888C42.2983 69.8089 42.2882 68.6289 42.2983 67.4439C42.3084 66.4311 42.8046 65.8386 43.6046 65.8488C44.4299 65.8589 44.8754 66.4109 44.8754 67.449C44.8754 68.6289 44.8704 69.8089 44.8653 70.9938C44.0147 70.9938 43.159 70.9888 42.3033 70.9888Z" fill="#F06548"/>
<path d="M72.4543 66.3499C72.596 66.279 72.7429 66.2233 72.8796 66.1423C73.9074 65.5194 74.9808 66.0714 75.0162 67.2918C75.0517 68.5224 75.0213 69.758 75.0213 70.9886C74.1656 70.9937 73.3049 70.9937 72.4492 70.9987C72.4492 69.4491 72.4492 67.8995 72.4543 66.3499Z" fill="#F06548"/>
<path d="M96.58 71.0392C96.58 72.3507 96.5851 73.6674 96.5749 74.979C96.5749 75.2373 96.6661 75.5208 96.418 75.7335C96.418 74.1687 96.418 72.5989 96.418 71.0341C96.4737 71.029 96.5294 71.029 96.58 71.0392Z" fill="#2156A3"/>
<path d="M88.292 42.6957C88.4388 42.488 88.6616 42.5083 88.8742 42.5083C91.3754 42.5083 93.8766 42.5083 96.3778 42.5083C96.5652 42.5083 96.7576 42.488 96.8943 42.6602C96.7373 42.7767 96.5753 42.8932 96.4183 43.0096C95.6335 43.5667 95.1728 44.4073 94.5855 45.1315C92.94 47.1622 91.3349 49.2232 89.7198 51.2793C89.4717 51.5932 89.2439 51.892 88.7983 51.7401C88.3578 51.5882 88.4388 51.1881 88.4388 50.8488C88.4338 48.5042 88.4338 46.1595 88.4388 43.8098C88.4439 43.43 88.4287 43.0552 88.292 42.6957Z" fill="#F7B84B"/>
<path d="M47.8169 29.4432C48.0752 29.5192 48.3283 29.6154 48.5916 29.6762C49.4979 29.8888 50.0751 29.4533 50.0954 28.5165C50.1156 27.4075 50.1004 26.3035 50.1004 25.1945C50.1055 22.2776 51.9586 20.6216 54.7686 21.3205C56.9357 21.8572 59.0571 22.0446 61.2494 21.7357C61.057 27.1948 61.7355 32.6842 60.7634 38.123C59.6495 38.7054 59.0672 39.5916 59.1634 40.8779C57.9888 42.3616 56.4344 43.3694 54.637 44.3316C56.5914 45.1367 58.4141 45.2127 60.2672 45.0253C61.6494 44.8835 62.8697 44.2404 64.1608 43.7998C64.2519 44.686 64.0848 45.5773 64.2671 46.4635C64.4291 47.2434 64.819 47.8511 65.467 48.3068C63.3557 49.659 61.2393 51.006 59.1331 52.3733C58.8394 52.5657 58.6014 52.5657 58.323 52.3885C56.2116 51.0313 54.1003 49.6792 51.989 48.3271C53.4927 47.1269 53.1535 45.4457 53.1434 43.8555C53.1434 43.5871 52.8902 43.4656 52.6826 43.3339C49.5941 41.3691 48.1005 38.4724 47.8018 34.8921C47.8018 33.0741 47.8119 31.2561 47.8169 29.4432Z" fill="#FEDCCD"/>
<path d="M51.9843 48.3219C54.0956 49.674 56.2069 51.0261 58.3183 52.3833C58.5967 52.5656 58.8347 52.5605 59.1284 52.3681C61.2346 51.0008 63.351 49.6537 65.4623 48.3016C66.5256 47.4458 67.5484 47.5775 68.5812 48.3776C69.0876 48.7675 69.6496 49.0764 70.1863 49.4208C70.166 49.7854 69.8875 49.9778 69.6647 50.2057C68.6977 51.2084 67.7256 52.206 66.7534 53.2037C65.913 53.8468 65.2446 54.6621 64.4852 55.3863C63.7004 56.1307 63.0219 56.1915 62.1916 55.5281C61.2296 54.7533 60.2777 53.9633 59.3359 53.1631C58.9005 52.7935 58.5765 52.6719 58.0651 53.1682C57.2246 53.9937 56.2626 54.6925 55.3462 55.442C54.4601 56.1661 53.7209 56.1408 52.926 55.3407C50.9919 53.391 49.0628 51.4262 47.1338 49.4664C47.954 48.9498 48.7742 48.4384 49.5894 47.9168C50.516 47.3395 51.2349 47.9218 51.9843 48.3219Z" fill="#F06548"/>
<path d="M59.1587 40.8778C59.0625 39.5916 59.6448 38.7053 60.7587 38.123C62.0042 37.8698 63.2599 38.0217 64.5105 37.9761C65.5636 37.9356 66.4395 38.28 67.1129 39.1105C67.4623 39.9562 67.5635 40.8069 67.1534 41.6628C66.6825 42.2806 66.08 42.6908 65.3155 42.8528C64.2978 42.8427 63.27 42.7718 62.2574 42.8427C60.7182 42.9541 59.7005 42.316 59.1587 40.8778Z" fill="#FECF64"/>
<path d="M69.5078 29.4886C69.7812 29.3772 70.0394 29.2304 70.323 29.1595C71.5483 28.8354 72.2014 28.0758 72.1812 26.7844C73.0824 26.8857 73.7052 27.3719 73.8722 28.329C74.1811 30.071 74.1507 31.8282 73.9127 33.5855C73.2799 34.3704 72.5811 35.0287 71.4622 34.8819C70.8293 34.8869 70.1964 34.892 69.5635 34.8971C69.5433 33.0942 69.5281 31.2914 69.5078 29.4886Z" fill="#0AB39C"/>
<path d="M71.4575 34.887C72.5815 35.0338 73.2802 34.3755 73.908 33.5906C73.908 35.0946 73.8371 36.6037 73.9232 38.1027C74.0143 39.6725 72.4498 41.6019 70.4651 41.683C69.3664 41.7285 68.2626 41.6728 67.1588 41.6627C67.5639 40.8069 67.4626 39.9561 67.1133 39.1104C67.5892 39.1104 68.0652 39.1053 68.5411 39.1053C69.1031 39.1104 69.66 39.1256 70.222 39.1104C70.9866 39.0902 71.4423 38.6243 71.4524 37.8495C71.4726 36.862 71.4625 35.8745 71.4575 34.887Z" fill="#E9F1FE"/>
<path d="M59.1591 40.8779C59.7008 42.3161 60.7135 42.9542 62.2678 42.8428C63.2805 42.7719 64.3032 42.8428 65.326 42.8529C65.0222 43.2732 64.445 43.3593 64.1615 43.7999C62.8754 44.2354 61.6501 44.8836 60.2679 45.0254C58.4148 45.2128 56.5921 45.1419 54.6377 44.3316C56.43 43.3694 57.9895 42.3617 59.1591 40.8779Z" fill="#FECABD"/>
<path d="M70.3331 57.8982C71.6293 57.9033 72.9255 57.9083 74.2216 57.9134C75.5127 57.9184 76.1557 58.4603 76.4089 59.7061C76.5355 60.334 76.4747 60.9518 76.257 61.5342C76.0038 62.2229 75.4823 62.6128 74.7077 62.6179C73.8469 62.623 72.9811 62.6432 72.1204 62.6584C71.204 62.6432 70.2926 62.6331 69.3762 62.6128C68.2775 62.5875 67.5889 61.8887 67.5687 60.7746C67.5636 60.5315 67.5687 60.2884 67.5687 60.0454C67.5737 58.6122 68.2674 57.9134 69.6901 57.9033C69.9028 57.9083 70.1154 57.9033 70.3331 57.8982Z" fill="#F7B84B"/>
<path d="M100.636 30.3495C100.636 28.3543 100.681 26.354 100.615 24.3588C100.585 23.5232 101.177 22.8395 101.917 22.8142C102.62 22.7889 103.182 23.4168 103.182 24.3081C103.198 28.3847 103.198 32.4562 103.182 36.5328C103.177 37.4443 102.57 38.1178 101.871 38.0925C101.096 38.0621 100.636 37.4797 100.631 36.5024C100.636 34.4514 100.636 32.4005 100.636 30.3495Z" fill="#E9F1FE"/>
<path d="M103.158 19.634C103.168 20.2518 102.55 20.9 101.938 20.9152C101.234 20.9355 100.652 20.3632 100.647 19.6542C100.641 18.9757 101.178 18.3984 101.836 18.373C102.489 18.3528 103.148 18.9757 103.158 19.634Z" fill="#E9F1FE"/>
<path d="M47.8173 29.443C47.8122 31.2559 47.8021 33.0739 47.797 34.8869C47.1236 34.8869 46.4502 34.8919 45.7819 34.8869C44.4301 34.8767 43.4377 33.8943 43.4276 32.5574C43.4174 31.3218 43.4124 30.0811 43.4276 28.8454C43.4427 27.7921 44.1566 26.9717 45.1946 26.7793C45.1895 28.0251 45.792 28.7999 46.992 29.129C47.2755 29.205 47.5439 29.3367 47.8173 29.443Z" fill="#0AB39C"/>
<path d="M68.5457 39.1055C68.0698 39.1055 67.5938 39.1105 67.1179 39.1105C66.4445 38.2851 65.5686 37.9407 64.5155 37.9762C63.2649 38.0218 62.0041 37.8698 60.7637 38.123C61.7358 32.6842 61.0523 27.1998 61.2497 21.7357C61.2548 21.6952 61.2599 21.6547 61.2599 21.6142C62.2624 21.4775 63.2092 21.0014 64.2674 21.1939C66.1053 21.5281 67.2445 22.8448 67.2597 24.7387C67.2698 25.868 67.2597 27.0023 67.2597 28.1316C67.2597 29.5749 67.7812 29.9547 69.1938 29.5496C69.2951 29.5192 69.4064 29.5091 69.5128 29.4888C69.533 31.2916 69.5482 33.0944 69.5685 34.8972C69.5178 36.3709 69.1482 37.7685 68.5457 39.1055Z" fill="#FECABD"/>
<path d="M68.5459 39.1053C69.1484 37.7684 69.518 36.3758 69.5636 34.9022C70.1965 34.8971 70.8294 34.892 71.4623 34.887C71.4623 35.8745 71.4724 36.8619 71.4623 37.8494C71.4521 38.6242 70.9965 39.0901 70.2319 39.1104C69.6699 39.1256 69.1079 39.1053 68.5459 39.1053Z" fill="#495057"/>
</g>
<defs>
<clipPath id="clip0_69_512">
<rect width="83" height="83" fill="white" transform="translate(34 13)"/>
</clipPath>
</defs>
</svg>
