<svg width="152" height="110" viewBox="0 0 152 110" fill="none" xmlns="http://www.w3.org/2000/svg">
<rect width="151.161" height="110" rx="16" fill="white"/>
<g clip-path="url(#clip0_68_97)">
<path d="M33 85.5699C33 66.9808 33 48.3917 33 29.8026C56.3411 29.8004 79.68 29.7981 103.021 29.7959C103.411 29.7959 103.803 29.7713 104.193 29.7578C104.202 30.0939 104.215 30.4277 104.215 30.7638C104.215 40.8033 104.215 50.8405 104.215 60.88C103.879 60.889 103.545 60.9024 103.209 60.9024C93.2549 60.9047 83.3005 60.9002 73.3462 60.9069C70.1042 60.9091 67.6599 62.8942 67.176 66.042C66.9878 67.2743 67.0931 68.5513 67.0662 69.8082C60.2171 69.806 53.368 69.7926 46.5167 69.806C43.9558 69.8105 41.9596 71.6813 41.8969 74.0629C41.8274 76.6775 43.7318 78.6872 46.3509 78.6939C53.256 78.7118 60.1611 78.7029 67.0684 78.7051C67.0863 79.7044 67.102 80.7014 67.1199 81.7006C67.102 83.1591 67.0841 84.6177 67.0662 86.0762C56.6189 86.0762 46.1694 86.0717 35.7222 86.0785C34.7789 86.0807 33.8335 86.1457 33 85.5699ZM59.7287 46.1042C59.7175 43.6733 59.7152 41.2424 59.6951 38.8115C59.6839 37.3821 58.8818 36.2596 57.6338 35.8675C55.7182 35.2693 53.8295 36.6047 53.7915 38.6412C53.7444 41.1259 53.7556 43.6128 53.7422 46.0997C50.0208 46.0997 46.2994 46.093 42.5757 46.1042C41.3143 46.1087 40.64 46.9533 40.9626 48.1497C42.1299 52.4649 43.3151 56.7733 44.5092 61.0817C44.7915 62.1011 45.206 62.3968 46.2635 62.3968C53.2313 62.4013 60.1992 62.4013 67.167 62.3968C68.2312 62.3968 68.6703 62.063 68.9616 61.01C70.1289 56.7822 71.2894 52.5522 72.4388 48.32C72.8241 46.8973 72.2013 46.1042 70.7271 46.102C67.0617 46.0997 63.3941 46.1042 59.7287 46.1042ZM88.588 46.0997C91.2138 46.0997 93.8396 46.102 96.4677 46.0997C97.6372 46.0975 98.166 45.6427 98.1817 44.6412C98.1951 43.7204 97.5678 43.1289 96.4901 43.093C95.7082 43.0661 94.9263 43.0863 94.1444 43.0863C89.7015 43.0863 85.2587 43.0796 80.8181 43.0908C79.671 43.093 79.0145 43.68 79.0213 44.6188C79.028 45.6516 79.559 46.0997 80.7979 46.0997C83.3924 46.0997 85.9891 46.0997 88.588 46.0997ZM88.6687 37.1961C86.0115 37.1961 83.3543 37.1872 80.6971 37.2006C79.485 37.2073 78.8779 37.8683 79.0235 38.9728C79.1198 39.7144 79.8256 40.2051 80.8584 40.2096C83.0406 40.2208 85.2206 40.2118 87.4028 40.2118C90.423 40.2118 93.4431 40.2163 96.4655 40.2096C97.6014 40.2073 98.2511 39.5509 98.1794 38.5247C98.1189 37.6621 97.5476 37.2029 96.4722 37.1984C93.871 37.1894 91.2698 37.1961 88.6687 37.1961ZM88.5701 51.9854C91.2273 51.9854 93.8822 51.9899 96.5394 51.9832C97.6395 51.9809 98.1861 51.488 98.1794 50.5358C98.1727 49.5926 97.626 49.1154 96.5125 49.1154C91.2273 49.1109 85.942 49.1109 80.6568 49.1154C79.559 49.1154 79.0101 49.6128 79.0168 50.5627C79.0235 51.5059 79.5702 51.9809 80.6837 51.9832C83.314 51.9899 85.942 51.9854 88.5701 51.9854Z" fill="#DEEFFF" fill-opacity="0.5"/>
<path d="M104.195 29.7579C103.805 29.7713 103.413 29.796 103.023 29.796C79.68 29.8004 56.3411 29.8027 33 29.8049C33 25.4383 33 21.0694 33 16.7027C33.2778 16.5392 33.2397 16.2255 33.3293 15.9791C33.8939 14.4466 34.8977 13.3107 36.3629 12.5982C36.8469 12.363 37.3667 12.1972 37.8708 12C58.362 12 78.8555 12 99.3467 12C99.3758 12.0426 99.396 12.1143 99.4363 12.1255C102.768 13.1762 104.184 15.1075 104.186 18.6116C104.188 22.3263 104.193 26.0432 104.195 29.7579ZM56.7041 20.9529C56.7265 19.286 55.4158 17.9283 53.7735 17.9148C52.1716 17.9014 50.8273 19.2255 50.8027 20.8364C50.778 22.4965 52.0999 23.8632 53.7422 23.8767C55.3463 23.8879 56.6816 22.5705 56.7041 20.9529ZM41.9305 17.9126C40.3308 17.8879 38.9283 19.2658 38.9126 20.8789C38.8969 22.4405 40.2501 23.8431 41.814 23.8856C43.4361 23.9282 44.8789 22.51 44.8834 20.8677C44.8856 19.3196 43.5033 17.9372 41.9305 17.9126ZM62.6928 20.8969C62.6928 22.557 64.0393 23.908 65.6704 23.8856C67.2432 23.8655 68.5964 22.4831 68.5964 20.8969C68.5964 19.2792 67.1984 17.8924 65.5852 17.9103C63.9923 17.926 62.6928 19.2703 62.6928 20.8969Z" fill="#2156A3"/>
<path d="M67.071 69.8084C67.0979 68.5515 66.9926 67.2744 67.1808 66.0421C67.6648 62.8943 70.1091 60.9093 73.351 60.907C83.3054 60.9003 93.2598 60.9048 103.214 60.9025C103.55 60.9025 103.884 60.8868 104.22 60.8801C107.101 60.8891 109.98 60.8846 112.862 60.9115C115.232 60.9339 117.06 61.9555 118.261 64.0078C118.577 64.5478 118.761 65.1661 119.003 65.7486C119.003 71.0675 119.003 76.3863 119.003 81.7052C101.711 81.7029 84.4189 81.703 67.1248 81.7007C67.1069 80.7015 67.0912 79.7045 67.0733 78.7052C67.0733 75.7411 67.0733 72.7747 67.071 69.8084ZM81.2957 68.7643C81.1814 68.6948 81.0291 68.65 80.9552 68.5492C79.5907 66.7143 77.124 66.535 75.54 67.3214C73.6109 68.2804 72.6789 70.2677 73.1741 72.4185C73.6042 74.2848 75.6117 76.0324 78.0336 75.7075C79.3667 75.5282 80.3301 74.7844 81.2419 73.9039C82.407 75.2706 83.814 75.9898 85.6668 75.6806C87.504 75.3737 89.097 73.7784 89.2762 71.9838C89.5048 69.7075 88.4047 67.839 86.4062 67.1176C84.5175 66.4342 82.4003 67.1153 81.2957 68.7643Z" fill="#F2D45B"/>
<path d="M67.1241 81.7029C84.4159 81.7051 101.708 81.7051 119.002 81.7074C119.002 84.6737 119.002 87.6423 119.002 90.6087C118.639 90.6042 118.274 90.5975 117.911 90.5975C100.982 90.5953 84.0552 90.5953 67.1263 90.593C67.1084 89.0874 67.0882 87.5818 67.0703 86.0763C67.0882 84.62 67.1062 83.1614 67.1241 81.7029Z" fill="#464F5D"/>
<path d="M72.136 97.9999C70.6976 97.5989 69.3915 97.0052 68.4169 95.7953C67.1734 94.2516 66.9874 92.4705 67.1241 90.5952C84.053 90.5975 100.98 90.5975 117.909 90.5997C118.272 90.5997 118.637 90.6064 119 90.6109C119 91.3951 119 92.1792 119 92.9634C118.711 93.6467 118.574 94.3861 118.198 95.0448C117.248 96.7094 115.726 97.5227 113.961 98.0022C100.019 97.9999 86.0784 97.9999 72.136 97.9999Z" fill="#F2D45B"/>
<path d="M59.7288 46.1043C63.3942 46.1043 67.0596 46.1021 70.7272 46.1043C72.2015 46.1066 72.8243 46.8997 72.4389 48.3224C71.2896 52.5546 70.129 56.7846 68.9618 61.0123C68.6705 62.0654 68.2314 62.3992 67.1672 62.3992C60.1993 62.4037 53.2315 62.4037 46.2637 62.3992C45.2062 62.3992 44.7917 62.1035 44.5094 61.084C43.3152 56.7756 42.1323 52.4672 40.9627 48.1521C40.6379 46.9557 41.3145 46.1111 42.5759 46.1066C46.2973 46.0954 50.0187 46.1021 53.7423 46.1021C53.7535 47.4733 53.7602 48.8422 53.7759 50.2133C53.7804 50.6592 53.7782 51.1028 53.935 51.5375C54.4234 52.8884 55.7431 53.6838 57.1859 53.4822C58.5548 53.2895 59.6415 52.0908 59.6863 50.6345C59.7333 49.1245 59.7176 47.6144 59.7288 46.1043Z" fill="#2196F3"/>
<path d="M67.0705 69.8083C67.0705 72.7746 67.0727 75.741 67.0727 78.7074C60.1676 78.7051 53.2625 78.7141 46.3552 78.6962C43.7361 78.6895 41.8339 76.6798 41.9011 74.0651C41.9639 71.6835 43.9601 69.8128 46.521 69.8083C53.3723 69.7926 60.2214 69.806 67.0705 69.8083Z" fill="#0AB39C"/>
<path d="M59.7287 46.1043C59.7175 47.6143 59.7332 49.1244 59.6861 50.6345C59.6391 52.0908 58.5525 53.2894 57.1858 53.4821C55.7429 53.686 54.4233 52.8884 53.9349 51.5374C53.778 51.105 53.7803 50.6591 53.7758 50.2133C53.7624 48.8421 53.7534 47.4732 53.7422 46.102C53.7556 43.6151 53.7422 41.1282 53.7915 38.6435C53.8296 36.607 55.7183 35.2694 57.6339 35.8699C58.8818 36.2597 59.6839 37.3844 59.6951 38.8138C59.7153 41.2425 59.7197 43.6734 59.7287 46.1043Z" fill="#F7B84B"/>
<path d="M88.5879 46.0998C85.989 46.0998 83.39 46.102 80.7933 46.0998C79.5544 46.0998 79.0234 45.6517 79.0167 44.6188C79.0099 43.6801 79.6686 43.0931 80.8135 43.0908C85.2563 43.0796 89.6992 43.0864 94.1398 43.0864C94.9217 43.0864 95.7058 43.0662 96.4855 43.0931C97.5632 43.1289 98.1905 43.7204 98.1771 44.6412C98.1636 45.6427 97.6349 46.0998 96.4631 46.0998C93.8418 46.102 91.2137 46.0998 88.5879 46.0998Z" fill="white"/>
<path d="M88.6688 37.1963C91.27 37.1963 93.8712 37.1896 96.4724 37.1985C97.5478 37.203 98.1191 37.6623 98.1796 38.5249C98.2513 39.551 97.5993 40.2075 96.4656 40.2097C93.4455 40.2187 90.4254 40.2119 87.403 40.2119C85.2208 40.2119 83.0408 40.2187 80.8586 40.2097C79.8257 40.2052 79.12 39.7146 79.0237 38.973C78.8803 37.8684 79.4852 37.2052 80.6973 37.2008C83.3545 37.1873 86.0117 37.1963 88.6688 37.1963Z" fill="white"/>
<path d="M88.57 51.9854C85.9419 51.9854 83.3139 51.9899 80.6836 51.9832C79.5701 51.981 79.0234 51.506 79.0167 50.5628C79.0099 49.6128 79.5589 49.1154 80.6567 49.1154C85.9419 49.1109 91.2272 49.1109 96.5124 49.1154C97.6259 49.1154 98.1726 49.5926 98.1793 50.5359C98.186 51.4881 97.6394 51.981 96.5393 51.9832C93.8843 51.9899 91.2272 51.9854 88.57 51.9854Z" fill="white"/>
<path d="M56.7037 20.9529C56.6813 22.5705 55.346 23.8879 53.7396 23.8767C52.0973 23.8655 50.7777 22.4988 50.8001 20.8364C50.8225 19.2278 52.169 17.9037 53.7709 17.9149C55.4154 17.9283 56.7261 19.286 56.7037 20.9529Z" fill="#EFD25B"/>
<path d="M41.9301 17.9124C43.5052 17.9371 44.8875 19.3194 44.8831 20.8654C44.8786 22.5076 43.4357 23.9258 41.8136 23.8833C40.2498 23.8407 38.8966 22.4404 38.9122 20.8766C38.9279 19.2657 40.3305 17.8878 41.9301 17.9124Z" fill="#FC5364"/>
<path d="M62.6924 20.8969C62.6924 19.2703 63.9918 17.926 65.5848 17.9103C67.1979 17.8924 68.596 19.2815 68.596 20.8969C68.596 22.4831 67.2428 23.8655 65.67 23.8856C64.0389 23.908 62.6924 22.557 62.6924 20.8969Z" fill="#64DAB7"/>
<path d="M81.2391 73.9062C80.3272 74.7867 79.3638 75.5283 78.0308 75.7098C75.6088 76.0369 73.6014 74.2871 73.1712 72.4208C72.6761 70.27 73.6081 68.2827 75.5371 67.3238C77.1211 66.5374 79.5879 66.7166 80.9523 68.5515C81.0263 68.6524 81.1786 68.6949 81.2929 68.7666C82.1286 70.4873 82.1151 72.2012 81.2391 73.9062Z" fill="#F19C1F"/>
<path d="M81.2393 73.906C82.1153 72.2011 82.1265 70.4871 81.293 68.7664C82.3976 67.1175 84.5148 66.4341 86.4035 67.1197C88.3998 67.8434 89.4998 69.7097 89.2735 71.986C89.0943 73.7806 87.5013 75.3758 85.6642 75.6827C83.8113 75.9919 82.4043 75.2705 81.2393 73.906Z" fill="#E54D3C"/>
</g>
<defs>
<clipPath id="clip0_68_97">
<rect width="86" height="86" fill="white" transform="translate(33 12)"/>
</clipPath>
</defs>
</svg>
