<svg width="151" height="110" viewBox="0 0 151 110" fill="none" xmlns="http://www.w3.org/2000/svg">
<rect width="151" height="110" rx="16" fill="white"/>
<g clip-path="url(#clip0_69_515)">
<path d="M111.068 42.2989C112.738 42.3011 114.409 42.3276 116.078 42.2989C116.917 42.2835 117.571 42.5328 118 43.2719C118 50.1514 118 57.0287 118 63.9082C117.671 64.8481 117.343 65.788 117.014 66.7257C116.917 66.6022 116.799 66.611 116.648 66.6331C114.012 66.9993 111.374 67.3523 108.735 67.712C106.667 67.9944 104.601 68.2768 102.536 68.5659C99.8728 68.9365 97.2101 69.316 94.5473 69.6889C92.0465 70.0375 89.5435 70.3795 87.0427 70.7281C84.4332 71.0922 81.8259 71.465 79.2186 71.8313C77.0174 72.1424 74.8162 72.4535 72.615 72.758C70.8487 73.0029 69.0846 73.3934 67.3116 73.4464C63.9499 73.5456 60.8766 71.7783 59.4676 68.3364C58.7397 66.5603 58.0763 64.7576 57.3862 62.9661C55.267 57.4634 53.1302 51.9651 51.0421 46.4491C50.5295 45.0966 49.8527 43.7971 49.582 42.3563C49.9193 42.3298 50.2566 42.3033 50.5939 42.2747C51.9874 42.2791 53.3809 42.2835 54.7722 42.2879C57.1399 42.2857 59.5097 42.2835 61.8774 42.2813C63.0956 42.2813 64.316 42.2835 65.5342 42.2835C66.1422 42.2835 66.7502 42.2813 67.356 42.2813C67.5224 42.2813 67.6866 42.2813 67.8531 42.2813C72.4375 42.2813 77.0241 42.2813 81.6085 42.2791C84.2712 42.2769 86.9362 42.2747 89.599 42.2725C91.4297 42.2725 93.2625 42.2747 95.0932 42.2747C96.9172 42.2769 98.739 42.2791 100.563 42.2813C104.064 42.2879 107.566 42.2923 111.068 42.2989ZM66.4551 72.0122C67.5069 71.9968 67.9951 71.1981 67.7044 70.1478C66.3553 65.2607 65.0216 60.3714 63.6703 55.4865C62.9269 52.7925 62.1791 50.0985 61.3958 47.4155C61.1451 46.5572 60.4439 46.2131 59.6673 46.4491C58.9594 46.6632 58.6243 47.3317 58.8529 48.1679C59.7449 51.4466 60.6503 54.7208 61.549 57.9973C62.7228 62.2777 63.8878 66.5603 65.0705 70.8384C65.268 71.5577 65.6629 72.0961 66.4551 72.0122ZM76.6579 69.4065C76.6491 69.3381 76.6313 69.1461 76.6003 68.9564C75.8414 64.3914 75.0847 59.8264 74.3214 55.2636C73.8909 52.6976 73.456 50.1316 73.0033 47.57C72.8835 46.8882 72.5129 46.4138 71.734 46.3984C70.6689 46.3741 70.1674 47.1441 70.3938 48.426C70.7754 50.5839 71.1438 52.7439 71.5055 54.904C72.3398 59.8727 73.1653 64.8437 74.0041 69.8103C74.1438 70.6354 74.7607 71.101 75.5152 71.0017C76.2275 70.9046 76.669 70.3398 76.6579 69.4065ZM85.7735 67.7605C85.6226 65.5233 85.4451 63.1713 85.3119 60.8193C85.1145 57.342 84.9525 53.8648 84.7727 50.3853C84.7261 49.5094 84.6862 48.6334 84.6063 47.7597C84.522 46.8308 83.9317 46.3278 83.0708 46.4006C82.2986 46.4646 81.806 47.1353 81.8659 47.9826C82.0145 50.1139 82.1654 52.2453 82.2853 54.3789C82.4761 57.8009 82.6336 61.2252 82.8245 64.6473C82.8955 65.9314 83.002 67.2156 83.124 68.4975C83.1995 69.2984 83.7187 69.7242 84.5065 69.6999C85.4118 69.6757 85.7979 69.1197 85.7735 67.7605ZM94.4053 57.4722C94.4053 54.3943 94.4075 51.3186 94.4009 48.2407C94.4009 47.9429 94.3809 47.634 94.3099 47.3471C94.1457 46.7007 93.6886 46.4072 93.0318 46.394C92.3905 46.3807 91.9999 46.7316 91.7736 47.2831C91.6249 47.645 91.6405 48.0355 91.6405 48.4216C91.6427 52.6799 91.6427 56.9383 91.6427 61.1966C91.6427 62.9264 91.6405 64.6584 91.6449 66.3882C91.6449 66.6353 91.6427 66.8846 91.6804 67.1273C91.8091 67.9591 92.3993 68.5151 93.0872 68.4754C93.8395 68.4335 94.3964 67.8179 94.4009 66.9508C94.4142 63.7913 94.4053 60.6317 94.4053 57.4722ZM100.243 56.8103C100.243 59.7249 100.241 62.6395 100.243 65.5564C100.243 66.6242 100.811 67.3568 101.632 67.3656C102.451 67.3744 103.024 66.6463 103.044 65.5674C103.046 65.4858 103.044 65.4019 103.044 65.3203C103.044 59.6543 103.044 53.9905 103.044 48.3246C103.044 48.1039 103.064 47.8811 103.028 47.6648C102.857 46.5793 101.703 46.0079 100.863 46.6102C100.352 46.9765 100.235 47.5391 100.237 48.1458C100.248 51.034 100.243 53.9221 100.243 56.8103ZM111.196 56.1506C111.196 53.4014 111.198 50.6501 111.196 47.9009C111.196 46.9345 110.757 46.416 109.954 46.4072C109.037 46.3984 108.54 46.9235 108.538 47.9428C108.534 53.3595 108.534 58.7784 108.538 64.195C108.538 65.1151 109.164 65.8829 109.883 65.8785C110.737 65.8719 111.194 65.307 111.194 64.2369C111.198 61.5408 111.196 58.8468 111.196 56.1506Z" fill="#F7B84B"/>
<path d="M107.306 89.4051C108.003 87.2164 109.39 85.7425 111.731 85.3586C114.549 84.8953 117.09 86.5721 117.829 89.3235C117.862 89.4492 117.833 89.6037 118 89.6611C118 90.3759 118 91.0908 118 91.8079C117.762 91.8851 117.798 92.1212 117.738 92.2866C116.883 94.5923 114.942 96 112.596 95.9978C110.255 95.9934 108.323 94.5901 107.464 92.2756C107.417 92.1476 107.364 92.0197 107.315 91.8917C107.171 91.0621 107.169 90.2347 107.306 89.4051ZM112.61 93.2994C114.096 93.2972 115.328 92.0792 115.315 90.6252C115.301 89.1492 114.099 87.9798 112.594 87.982C111.096 87.9842 109.858 89.2021 109.891 90.6407C109.923 92.13 111.123 93.3038 112.61 93.2994Z" fill="#2156A3"/>
<path d="M117.014 66.7259C115.942 68.652 114.232 69.6868 112.106 69.9869C103.658 71.1827 95.2038 72.3256 86.7518 73.4972C80.6252 74.3467 74.503 75.216 68.3765 76.0588C66.2995 76.3435 64.3091 75.9485 62.3874 75.1608C61.6086 74.66 60.8297 74.1591 60.0509 73.6583C58.0094 71.9726 57.0331 69.6559 56.1255 67.2686C53.2741 59.7691 50.3806 52.2851 47.4893 44.7989C47.1608 43.9516 46.9589 43.164 47.8088 42.4976C48.3902 42.3432 48.976 42.2152 49.5817 42.352C49.8525 43.7928 50.5315 45.0923 51.0418 46.4448C53.1299 51.9608 55.2668 57.4569 57.3859 62.9618C58.076 64.7534 58.7395 66.556 59.4673 68.3321C60.8763 71.774 63.9496 73.5414 67.3113 73.4421C69.0843 73.3891 70.8484 72.9986 72.6147 72.7537C74.8159 72.4492 77.0171 72.1359 79.2184 71.827C81.8257 71.4585 84.4352 71.0879 87.0425 70.7238C89.5432 70.373 92.0462 70.0332 94.547 69.6846C97.2098 69.3117 99.8726 68.9344 102.535 68.5616C104.601 68.2725 106.667 67.9901 108.735 67.7077C111.374 67.3481 114.01 66.995 116.648 66.6288C116.799 66.6133 116.917 66.6023 117.014 66.7259Z" fill="#F7B84B"/>
<path d="M100.565 42.2812C98.7414 42.279 96.9196 42.2768 95.0956 42.2768C95.0956 40.6286 95.1067 38.9782 95.0889 37.3301C95.0712 35.6973 93.9062 34.5412 92.2664 34.5147C91.381 34.5015 90.4979 34.5081 89.6125 34.5059C89.6746 32.6415 89.4483 30.7683 89.7723 28.9127C90.4668 28.1824 91.1835 27.4742 91.847 26.7174C92.2886 26.2165 92.2886 25.5635 92.2819 24.9302C94.1459 24.928 96.012 24.9236 97.8782 24.9192C97.7828 25.9937 98.2199 26.8056 99.0409 27.4984C100.15 28.4339 100.654 29.6055 100.596 31.1213C100.497 33.6454 100.585 36.1783 100.594 38.7068C100.583 39.8983 100.574 41.0897 100.565 42.2812Z" fill="#DAE9FE"/>
<path d="M107.306 89.4051C107.167 90.2325 107.169 91.0599 107.313 91.8873C107.04 91.916 106.767 91.9667 106.492 91.9667C91.0591 91.9711 75.6239 91.9689 60.191 91.9689C60.08 91.9689 59.9691 91.9601 59.8604 91.9557C59.9957 91.082 60.0157 90.2082 59.8737 89.3323C75.4398 89.3301 91.0036 89.3257 106.57 89.3257C106.816 89.3301 107.062 89.3786 107.306 89.4051Z" fill="#2156A3"/>
<path d="M100.565 42.2814C100.574 41.0899 100.583 39.8985 100.592 38.707C101.224 37.4229 101.599 36.0417 102.063 34.698C102.789 32.591 104.049 31.0465 106.262 30.3956C107.369 30.1154 108.449 30.314 109.528 30.5765C110.362 30.9604 111.072 31.5275 111.787 32.0901C112.603 33.3544 113.174 34.6782 113.047 36.2425C112.969 37.1935 112.59 38.0341 112.284 38.9034C111.882 40.0375 111.474 41.1671 111.068 42.299C107.566 42.2924 104.065 42.288 100.565 42.2814Z" fill="#F06548"/>
<path d="M70.498 23.4919C73.6423 23.4852 76.7888 23.4654 79.9331 23.4764C80.9627 23.4808 81.6062 24.156 81.624 25.1996C81.644 26.433 81.6329 27.6685 81.6373 28.9041C81.6218 30.7354 81.604 32.5667 81.5885 34.398C77.9516 34.387 74.3125 34.3759 70.6756 34.3627C70.4759 33.5551 70.5136 32.73 70.5136 31.9092C70.5114 29.1027 70.5047 26.2984 70.498 23.4919ZM74.6586 30.4022C75.22 30.3272 75.8258 30.4795 76.4227 30.2809C77.0751 30.0647 77.4678 29.6366 77.4634 28.9681C77.459 28.2907 77.0196 27.7524 76.3939 27.6729C75.2289 27.5229 74.0395 27.4655 72.8723 27.7259C72.271 27.8583 72.0424 28.3084 72.0069 28.8776C71.9714 29.438 72.1379 29.8749 72.6793 30.1684C73.3095 30.5103 73.973 30.3338 74.6586 30.4022Z" fill="#DEEFFF"/>
<path d="M81.5885 34.3957C81.604 32.5644 81.6218 30.7331 81.6373 28.9019C84.3489 28.9063 87.0605 28.9085 89.7721 28.9129C89.4481 30.7707 89.6744 32.6417 89.6123 34.5083C89.6079 37.0985 89.6034 39.6866 89.6012 42.2747C86.9385 42.2769 84.2735 42.2791 81.6107 42.2813C81.5996 41.5069 81.5885 40.7347 81.5752 39.9602C81.5796 38.1069 81.5841 36.2513 81.5885 34.3957Z" fill="#0AB39C"/>
<path d="M67.3581 42.2812C66.7501 42.2812 66.1421 42.2834 65.5363 42.2834C65.5563 42.0253 65.4564 41.8024 65.3477 41.5774C63.6258 37.9898 61.906 34.4023 60.1819 30.8147C60.0399 30.519 59.8557 30.2366 59.8801 29.888C60.1397 28.1737 60.4792 26.4637 61.1272 24.8619C61.7729 23.2645 61.7663 21.6494 61.7086 19.999C62.5407 19.8402 63.3728 19.6835 64.2049 19.5247C64.1627 20.3234 64.3647 21.0956 64.4756 21.8789C64.8284 24.361 65.1768 26.8454 65.5319 29.3276C65.8381 31.459 66.1554 33.5881 66.4572 35.7195C66.7678 37.906 67.1695 40.0793 67.3581 42.2812Z" fill="#FECF64"/>
<path d="M61.8794 42.2813C59.5118 42.2835 57.1419 42.2857 54.7743 42.2879C54.0176 39.7462 53.7536 37.1382 53.7868 34.4994C53.8002 33.4889 53.9178 32.4806 54.0176 31.4723C54.0864 30.7751 53.9422 30.1109 53.7735 29.449C53.6448 28.946 53.5006 28.4473 53.3652 27.9465C54.0376 27.4743 54.7543 27.0992 55.5554 26.8962C56.3897 28.8864 57.2351 30.8721 58.0539 32.8689C59.3409 36.0042 60.6057 39.1438 61.8794 42.2813Z" fill="#FECF64"/>
<path d="M59.8738 89.3368C60.0136 90.2127 59.9936 91.0864 59.8605 91.9602C59.2236 93.8003 58.0831 95.1638 56.1637 95.7595C54.069 96.4082 51.8234 95.7242 50.4099 94.0364C49.0519 92.4147 48.7989 90.045 49.7841 88.163C50.7871 86.2434 52.8685 85.1116 55.0564 85.2947C55.1651 85.3035 55.2761 85.3035 55.387 85.3079C56.3035 85.4712 57.1267 85.8529 57.8945 86.3648C58.8553 87.1525 59.4611 88.1806 59.8738 89.3368ZM57.2487 90.6738C57.2621 89.1647 56.1215 87.9975 54.6148 87.9843C53.0926 87.971 51.9121 89.1117 51.9032 90.5988C51.8944 92.1058 53.0438 93.284 54.5416 93.2994C56.0461 93.3171 57.2354 92.1632 57.2487 90.6738Z" fill="#2156A3"/>
<path d="M109.527 30.5765C108.449 30.3139 107.368 30.1154 106.261 30.3956C106.19 28.2289 106.11 26.0623 106.055 23.8934C106.028 22.8762 106.594 22.1812 107.413 22.1592C108.223 22.1371 108.813 22.8078 108.837 23.8448C108.862 24.9149 108.844 25.9872 109.017 27.1059C109.305 26.3358 109.601 25.5658 109.88 24.7936C110.506 23.0638 111.116 21.3296 111.746 19.602C112.057 18.7525 112.638 18.3355 113.324 18.4348C114.251 18.5672 114.724 19.4387 114.367 20.447C113.553 22.7483 112.712 25.0429 111.888 27.3419C111.839 27.4765 111.662 27.6155 111.846 27.7766C111.174 28.7937 110.319 29.6609 109.527 30.5765Z" fill="#0AB39C"/>
<path d="M61.8795 42.2813C60.6058 39.1439 59.341 36.0042 58.0562 32.8711C57.2374 30.8744 56.3897 28.8886 55.5576 26.8985C56.2899 26.5212 57.0221 26.1439 57.7522 25.7666C58.3069 26.8896 58.8528 28.0171 59.4186 29.1357C59.5495 29.3961 59.6028 29.7116 59.8802 29.8859C59.8558 30.2345 60.0377 30.5147 60.182 30.8126C61.9039 34.4002 63.6258 37.9877 65.3477 41.5753C65.4565 41.8003 65.5563 42.0232 65.5363 42.2813C64.3181 42.2835 63.0977 42.2835 61.8795 42.2813Z" fill="#FEDF7D"/>
<path d="M67.3586 42.2813C67.1699 40.0793 66.7683 37.9061 66.4577 35.7196C66.1559 33.5882 65.8363 31.459 65.5323 29.3277C65.1773 26.8455 64.8289 24.3611 64.4761 21.8789C64.3652 21.0957 64.1655 20.3235 64.2054 19.5247C64.9687 19.399 65.7343 19.2732 66.4976 19.1497C67.0168 20.5529 67.1633 22.0444 67.5161 23.4874C67.6115 23.8801 67.6337 24.2905 67.8445 24.6479C67.8534 27.8869 67.86 31.1259 67.8689 34.3648C67.8645 37.0037 67.86 39.6447 67.8556 42.2835C67.6914 42.2813 67.525 42.2813 67.3586 42.2813Z" fill="#FEDF7D"/>
<path d="M49.5821 42.3562C48.9763 42.2194 48.3905 42.3474 47.8092 42.5018C46.9327 40.1719 46.0939 37.8243 45.1664 35.5143C44.5251 33.919 43.2847 33.0828 41.5272 33.021C40.7062 32.9924 39.8874 32.8865 39.0664 32.8159C39.9607 31.8958 39.974 31.4192 39.1285 30.4065C41.3719 29.9652 43.4666 30.2366 45.3883 31.5715C46.7507 32.518 47.443 33.8882 48.0111 35.3598C48.8521 37.5309 49.6931 39.6997 50.5274 41.8708C50.5762 41.9944 50.5718 42.14 50.5918 42.2746C50.2567 42.3033 49.9194 42.3298 49.5821 42.3562Z" fill="#2156A3"/>
<path d="M57.8942 86.3603C57.1264 85.8484 56.3032 85.4689 55.3867 85.3035C56.0724 83.2537 57.011 81.3033 57.7987 79.2933C58.5354 77.409 59.4341 75.591 60.0532 73.6604C60.8321 74.1612 61.6109 74.6621 62.3898 75.1629C61.6664 76.9656 60.9386 78.766 60.2241 80.5708C59.4541 82.5036 58.5377 84.379 57.8942 86.3603Z" fill="#2156A3"/>
<path d="M97.8784 24.9194C96.0122 24.9238 94.1483 24.926 92.2821 24.9304C92.2799 23.7787 92.2666 22.6291 92.2755 21.4774C92.2888 19.9859 92.7836 19.4983 94.2504 19.4983C94.885 19.4983 95.5174 19.5005 96.152 19.5071C97.3015 19.5181 97.8695 20.0609 97.8873 21.2237C97.905 22.4548 97.8828 23.6882 97.8784 24.9194Z" fill="#C6C3C7"/>
<path d="M67.8691 34.3649C67.8603 31.1259 67.8536 27.8869 67.8447 24.648C68.3218 23.3396 69.4269 23.4521 70.4986 23.4918C70.5031 26.2961 70.5097 29.1026 70.5119 31.9069C70.5119 32.7277 70.4742 33.5529 70.6739 34.3604C70.6207 34.3626 70.5652 34.3715 70.5119 34.3825C69.6332 34.3759 68.7523 34.3693 67.8691 34.3649Z" fill="#DEEFFF"/>
<path d="M66.5 19.1496C65.7367 19.2753 64.9711 19.3989 64.2078 19.5247C63.3757 19.6835 62.5436 19.8402 61.7115 19.999C61.5029 18.7237 61.3786 17.4352 61.3986 16.1467C61.4163 15.0435 62.2018 14.2205 63.267 14.0374C64.3365 13.8521 65.4083 14.3595 65.75 15.3723C66.1605 16.5902 66.4179 17.8566 66.5 19.1496Z" fill="#C38D67"/>
<path d="M57.7524 25.7687C57.0202 26.146 56.2879 26.5233 55.5579 26.9005C54.7568 27.1035 54.0379 27.4786 53.3677 27.9508C52.8174 26.7836 52.4291 25.5547 52.114 24.3169C51.7878 23.046 52.4535 21.9605 53.6229 21.581C54.7346 21.2191 55.8463 21.7133 56.4166 22.8695C56.8848 23.8204 57.3064 24.8001 57.7524 25.7687Z" fill="#C38D67"/>
<path d="M109.527 30.5763C110.322 29.6607 111.176 28.7936 111.846 27.7786C112.703 27.1983 113.244 26.3158 113.954 25.5943C114.673 24.8662 115.45 24.7448 116.06 25.2744C116.67 25.8017 116.697 26.6026 116.022 27.3771C114.635 28.9679 113.202 30.5211 111.788 32.0899C111.072 31.5273 110.362 30.9602 109.527 30.5763Z" fill="#0AB39C" fill-opacity="0.5"/>
<path d="M39.131 30.4088C39.9764 31.4215 39.9631 31.8981 39.0688 32.8181C37.4157 33.0366 35.7559 32.9395 34.1028 32.8799C33.4082 32.8556 33.0288 32.3217 33.0022 31.6443C32.9755 30.914 33.3971 30.3382 34.0939 30.3095C35.7692 30.2411 37.4579 30.0822 39.131 30.4088Z" fill="#2156A3"/>
<path d="M66.4554 72.0121C65.6632 72.096 65.2704 71.5576 65.0729 70.8406C63.8902 66.5624 62.7253 62.2798 61.5514 57.9994C60.6527 54.723 59.7474 51.4487 58.8554 48.17C58.6268 47.3338 58.9619 46.6653 59.6697 46.4513C60.4464 46.2152 61.1498 46.5594 61.3983 47.4177C62.1816 50.1006 62.9272 52.7946 63.6728 55.4886C65.0219 60.3735 66.3577 65.265 67.7069 70.15C67.9931 71.198 67.5049 71.9967 66.4554 72.0121Z" fill="#FEDF7D"/>
<path d="M76.6578 69.4064C76.6689 70.3397 76.2296 70.9045 75.5128 70.9994C74.7584 71.0987 74.1415 70.6331 74.0017 69.8079C73.163 64.8392 72.3397 59.8704 71.5032 54.9016C71.1393 52.7416 70.7709 50.5816 70.3915 48.4237C70.1651 47.1418 70.6644 46.3718 71.7317 46.3961C72.5106 46.4137 72.8811 46.8859 73.001 47.5677C73.4536 50.1293 73.8886 52.6953 74.319 55.2613C75.0846 59.8241 75.8413 64.3891 76.5979 68.9541C76.6312 69.146 76.649 69.3358 76.6578 69.4064Z" fill="#2196F3"/>
<path d="M85.7731 67.7604C85.7976 69.1173 85.4115 69.6734 84.5039 69.702C83.7162 69.7263 83.1969 69.3005 83.1215 68.4996C83.0016 67.2177 82.8929 65.9335 82.8219 64.6494C82.6311 61.2273 82.4735 57.803 82.2827 54.381C82.1629 52.2474 82.0142 50.116 81.8633 47.9847C81.8034 47.1374 82.296 46.4689 83.0682 46.4027C83.9292 46.3299 84.5194 46.8329 84.6037 47.7618C84.6836 48.6355 84.7258 49.5115 84.7702 50.3874C84.9521 53.8647 85.1141 57.3441 85.3094 60.8214C85.4447 63.1734 85.6223 65.5232 85.7731 67.7604Z" fill="#0AB39C"/>
<path d="M94.405 57.4721C94.405 60.6317 94.4116 63.7912 94.4005 66.9507C94.3961 67.8178 93.8391 68.4334 93.0869 68.4753C92.399 68.515 91.8088 67.9568 91.6801 67.1272C91.6423 66.8845 91.6446 66.6352 91.6446 66.3881C91.6423 64.6583 91.6423 62.9263 91.6423 61.1965C91.6423 56.9382 91.6423 52.6799 91.6401 48.4216C91.6401 48.0355 91.6246 47.6449 91.7733 47.2831C91.9996 46.7315 92.3901 46.3807 93.0314 46.3939C93.6882 46.4072 94.1453 46.7006 94.3095 47.3471C94.3828 47.6339 94.4005 47.9428 94.4005 48.2407C94.4094 51.3185 94.405 54.3942 94.405 57.4721Z" fill="#A5CAFC"/>
<path d="M100.244 56.8103C100.244 53.9222 100.248 51.034 100.239 48.1481C100.237 47.5391 100.352 46.9787 100.865 46.6124C101.706 46.0101 102.858 46.5793 103.031 47.6671C103.064 47.8833 103.046 48.1061 103.046 48.3268C103.046 53.9928 103.046 59.6565 103.046 65.3225C103.046 65.4041 103.049 65.488 103.046 65.5696C103.026 66.6485 102.454 67.3766 101.635 67.3678C100.814 67.359 100.248 66.6265 100.246 65.5586C100.242 62.6395 100.244 59.7249 100.244 56.8103Z" fill="#FECF64"/>
<path d="M111.197 56.1505C111.197 58.8444 111.199 61.5406 111.197 64.2346C111.194 65.3047 110.739 65.8696 109.885 65.8762C109.166 65.8828 108.54 65.1128 108.54 64.1927C108.536 58.7761 108.536 53.3572 108.54 47.9405C108.54 46.9212 109.037 46.3961 109.956 46.4049C110.759 46.4137 111.197 46.9322 111.199 47.8986C111.199 50.65 111.197 53.4013 111.197 56.1505Z" fill="#F06548"/>
<path d="M67.869 34.3647C68.75 34.3714 69.6331 34.378 70.5141 34.3846C70.5141 34.7134 70.5229 35.0421 70.5096 35.3709C70.4763 36.1938 70.5451 37.0058 70.676 37.8177C70.8824 39.0886 72.1428 39.9491 73.9601 39.9645C76.4964 39.9866 79.0349 39.9645 81.5734 39.9623C81.5845 40.7368 81.5978 41.509 81.6089 42.2834C77.0245 42.2834 72.4379 42.2834 67.8535 42.2856C67.8602 39.6424 67.8646 37.0036 67.869 34.3647Z" fill="#2196F3"/>
<path d="M89.6016 42.2746C89.606 39.6866 89.6082 37.0963 89.6127 34.5082C90.498 34.5104 91.3812 34.5016 92.2665 34.5148C93.9064 34.5413 95.0713 35.6952 95.0891 37.3301C95.1068 38.9783 95.0935 40.6287 95.0957 42.2768C93.2651 42.2746 91.4322 42.2746 89.6016 42.2746Z" fill="#C6C3C7"/>
<path d="M112.61 93.2993C111.125 93.3015 109.923 92.1277 109.889 90.6406C109.856 89.2021 111.094 87.9863 112.592 87.9819C114.096 87.9797 115.299 89.1469 115.312 90.6252C115.326 92.0792 114.094 93.2971 112.61 93.2993Z" fill="#DEEFFF"/>
<path d="M81.578 39.9601C79.0395 39.9623 76.5032 39.9844 73.9647 39.9623C72.1473 39.9469 70.8848 39.0864 70.6806 37.8155C70.5497 37.0036 70.4809 36.1894 70.5142 35.3687C70.5275 35.0399 70.5164 34.7112 70.5186 34.3824C70.5719 34.3714 70.6251 34.3626 70.6806 34.3604C74.3175 34.3714 77.9566 34.3824 81.5935 34.3957C81.5846 36.2512 81.5802 38.1068 81.578 39.9601Z" fill="#2196F3"/>
<path d="M74.6585 30.4022C73.9728 30.3338 73.3071 30.5103 72.6769 30.1683C72.1355 29.8749 71.9691 29.438 72.0046 28.8776C72.0401 28.3083 72.2708 27.8604 72.87 27.7258C74.0371 27.4677 75.2287 27.5251 76.3915 27.6729C77.0172 27.7523 77.4566 28.2907 77.461 28.968C77.4655 29.6366 77.0727 30.0646 76.4203 30.2808C75.8256 30.4816 75.2199 30.3272 74.6585 30.4022Z" fill="#0AB39C"/>
<path d="M57.2489 90.6738C57.2356 92.1631 56.0462 93.3171 54.5417 93.2994C53.0461 93.2818 51.8945 92.1058 51.9034 90.5988C51.9122 89.1095 53.095 87.971 54.615 87.9842C56.1194 87.9975 57.2622 89.1625 57.2489 90.6738Z" fill="#DEEFFF"/>
</g>
<defs>
<clipPath id="clip0_69_515">
<rect width="85" height="82" fill="white" transform="translate(33 14)"/>
</clipPath>
</defs>
</svg>
