<svg width="152" height="110" viewBox="0 0 152 110" fill="none" xmlns="http://www.w3.org/2000/svg">
<rect width="151.161" height="110" rx="16" fill="white"/>
<g clip-path="url(#clip0_68_168)">
<path d="M41 72.211C41.3656 71.4024 41.6844 70.5721 42.5093 70.0732C43.0982 69.7166 43.6998 69.495 44.4004 69.4986C48.1592 69.5095 51.9198 69.5022 55.6786 69.5022C61.0925 69.4968 66.5065 69.4896 71.9222 69.4806C72.2122 69.4806 72.5004 69.4518 72.7903 69.4356C74.5049 69.5077 76.2195 69.5275 77.9341 69.4248C78.6491 69.5113 79.3623 69.5022 80.0774 69.4302C80.3439 69.4482 80.6105 69.4788 80.877 69.4806C84.6142 69.4842 88.3514 69.4842 92.0904 69.4806C92.3569 69.4806 92.6235 69.4482 92.89 69.4302C94.3219 69.4518 95.7519 69.4734 97.1837 69.495C98.9001 69.495 100.617 69.5455 102.331 69.432C102.376 69.7346 102.673 69.6715 102.85 69.7778C103.808 70.3523 104.568 71.107 104.719 72.2488C104.84 73.1494 104.948 74.0643 104.871 74.981C103.75 74.9937 102.63 75.0063 101.51 75.0189C100.687 75.0279 100.204 75.4079 100.202 76.0455C100.2 76.6848 100.681 77.1135 101.504 77.0649C102.126 77.027 102.246 77.254 102.236 77.8249C102.201 79.6187 102.214 81.4144 102.227 83.2082C102.234 84.0853 102.803 84.6347 103.504 84.4492C104.114 84.2871 104.337 83.8386 104.334 83.228C104.325 81.3658 104.339 79.5035 104.325 77.643C104.321 77.2378 104.375 76.9694 104.871 77.1153C104.872 79.9844 104.885 82.8552 104.863 85.7243C104.858 86.3204 104.779 86.9292 104.633 87.5055C104.294 88.8491 103.307 89.5641 102.059 89.9856C101.993 89.991 101.926 90 101.857 90C82.7105 90 63.5635 90.0018 44.4166 90.0018C43.9375 90.0018 43.4872 89.8793 43.0532 89.6866C41.9456 89.1931 41.3746 88.2638 41.0018 87.1723C41 82.1834 41 77.1963 41 72.211ZM89.4104 79.6818C89.396 77.0378 87.26 74.936 84.6286 74.9774C82.0369 75.0171 79.9387 77.1585 79.9531 79.7466C79.9675 82.3203 82.1216 84.4618 84.6917 84.46C87.314 84.4564 89.4248 82.3185 89.4104 79.6818ZM96.0905 80.7426C96.2616 80.6489 96.3607 80.5985 96.4561 80.5445C97.679 79.8493 98.2608 78.6732 98.014 77.3981C97.7655 76.1085 96.7497 75.1666 95.3557 75.0171C94.6443 74.9414 93.922 74.9522 93.2052 74.9702C92.3965 74.9882 91.9967 75.3755 91.9895 76.1823C91.9715 78.5399 91.9751 80.8975 91.9877 83.2551C91.9913 83.9809 92.4704 84.4762 93.0755 84.4564C93.6717 84.4365 94.0697 83.9719 94.0859 83.2569C94.0967 82.7796 94.0877 82.3041 94.0877 81.6449C94.8622 82.5274 95.4907 83.2551 96.1337 83.9719C96.6488 84.5464 97.236 84.6131 97.724 84.1736C98.1869 83.7558 98.1977 83.1884 97.7222 82.6229C97.2035 82.0033 96.665 81.4018 96.0905 80.7426ZM48.1033 84.4582C49.8017 84.4618 51.1669 83.4424 51.4605 82.0394C51.7325 80.7426 50.958 79.5287 49.4235 78.8677C48.8472 78.6192 48.26 78.3976 47.6801 78.1617C47.437 78.0626 47.129 78.014 47.1596 77.6502C47.192 77.2522 47.5144 77.1495 47.8242 77.0937C48.4599 76.9802 49.0057 77.2342 49.5316 77.5637C50.1349 77.942 50.7347 77.8537 51.0715 77.3638C51.4281 76.8451 51.266 76.2382 50.6464 75.8131C49.7063 75.1684 48.6797 74.8712 47.5288 75.0315C46.2429 75.2098 45.2217 76.1481 45.056 77.3404C44.8885 78.5363 45.5008 79.5089 46.7796 80.0546C47.4388 80.3356 48.1141 80.5823 48.7679 80.8723C49.0939 81.0164 49.4541 81.2001 49.3659 81.6539C49.2812 82.0898 48.9228 82.2627 48.5284 82.3185C47.7503 82.4302 47.0731 82.2014 46.4842 81.6719C45.8953 81.1424 45.3243 81.137 44.8903 81.6215C44.4742 82.088 44.5463 82.7039 45.0974 83.2226C45.9763 84.0439 47.0371 84.4077 48.1033 84.4582ZM53.5119 78.6912C53.5119 79.4765 53.5029 80.2635 53.5137 81.0488C53.5407 82.9543 55.1508 84.4762 57.1086 84.4582C59.1059 84.4402 60.6765 82.9507 60.6945 81.0326C60.7107 79.4386 60.7017 77.8447 60.6963 76.2508C60.6927 75.4367 60.3523 75.0207 59.7021 75.0027C59.0195 74.9846 58.6449 75.4169 58.6413 76.2508C58.6359 77.7781 58.6449 79.3036 58.6377 80.8309C58.6341 81.7854 58.0325 82.3527 57.0564 82.3437C56.1288 82.3365 55.5723 81.771 55.5687 80.8146C55.5633 79.3324 55.5687 77.8519 55.5669 76.3697C55.5651 75.4511 55.2373 75.0117 54.5565 75.0009C53.8487 74.99 53.5137 75.4349 53.5101 76.4003C53.5083 77.1639 53.5101 77.9276 53.5119 78.6912ZM63.4159 79.7214C63.4159 80.9101 63.4015 82.0988 63.4213 83.2875C63.4339 83.9773 63.8877 84.451 64.4731 84.4546C65.0692 84.4582 65.4925 83.9917 65.5195 83.2929C65.5285 83.0245 65.5213 82.7544 65.5213 82.486C65.5213 81.3027 65.5213 81.3027 66.7226 81.2307C68.3057 81.1352 69.6187 79.8331 69.6961 78.2842C69.7772 76.6632 68.6263 75.2692 67.0126 75.0225C66.2759 74.909 65.5357 74.9666 64.7955 74.9666C63.7887 74.9666 63.4249 75.3431 63.4159 76.3588C63.4087 77.4791 63.4141 78.5994 63.4159 79.7214ZM71.8502 79.7322C71.8502 80.8975 71.8448 82.0628 71.852 83.228C71.8574 83.9827 72.2716 84.4618 72.8894 84.4528C73.5053 84.4456 73.8926 83.9719 73.907 83.2082C73.9106 82.9849 73.9088 82.7598 73.9088 82.5364C73.9088 81.3063 73.9088 81.3063 75.1335 81.2289C76.7328 81.128 78.0224 79.8367 78.0818 78.277C78.1466 76.584 77.0066 75.2278 75.3442 75.0153C74.5626 74.9162 73.7773 74.9468 72.9938 74.9738C72.2158 75.0009 71.8592 75.3917 71.852 76.1661C71.843 77.3566 71.8502 78.5435 71.8502 79.7322Z" fill="#2196F3"/>
<path d="M77.5203 21C78.4064 21.272 79.3357 21.3656 80.2164 21.6736C82.5488 22.4913 84.5786 23.7358 86.1113 25.7133C87.4062 27.3847 87.8673 29.3028 87.779 31.3812C87.7664 32.4331 87.7538 33.4867 87.7412 34.5385C86.5309 34.5349 85.3188 34.5313 84.1085 34.5277L84.1229 34.4755C84.1229 33.1751 84.1049 31.8747 84.1301 30.5744C84.1463 29.7567 84.0004 28.9714 83.7519 28.2078C82.7541 25.1388 80.4308 23.3846 77.6463 22.0914C76.654 21.6304 75.5589 21.4971 74.5449 21.1135C74.5449 21.0756 74.5503 21.0378 74.5575 21.0018C75.5427 21 76.5315 21 77.5203 21Z" fill="#2C4E67"/>
<path d="M72.7883 69.4356C72.4983 69.4518 72.2101 69.4806 71.9201 69.4806C66.5062 69.4896 61.0922 69.495 55.6765 69.5022C55.617 67.2599 55.4784 65.0068 55.7269 62.7807C56.0709 59.6955 57.9854 57.5397 60.3718 55.7548C62.4682 54.1861 64.7988 53.0532 67.2464 52.1455C68.273 54.1339 69.3104 56.115 70.3172 58.1124C70.5802 58.6365 70.8773 58.7518 71.3726 58.4402C71.6356 58.2745 71.9274 58.1574 72.2083 58.0169C72.5163 58.6725 72.7504 59.3641 73.1593 59.9693C73.4745 60.6807 73.7878 61.3939 74.103 62.1053C74.0112 62.6384 73.9211 63.1697 73.8293 63.7028C73.4799 65.6156 73.1341 67.5247 72.7883 69.4356Z" fill="#385E7D"/>
<path d="M70.7983 46.8865C68.1075 44.8693 66.1245 42.3533 65.2438 39.052C65.188 38.4252 65.134 37.7984 65.0781 37.1717C65.0943 36.5485 65.1123 35.9235 65.1286 35.3004C65.3123 35.1761 65.5014 35.0572 65.6815 34.9257C67.2304 33.7821 68.7036 32.5376 70.3678 31.5524C71.461 30.9058 72.5975 30.6735 73.8438 30.9526C75.4378 31.3092 76.839 32.1215 78.3014 32.7915C80.1583 33.6434 82.0332 34.4305 84.1224 34.4755L84.108 34.5277C84.1134 35.403 84.108 36.2783 84.1242 37.1536C84.153 38.5945 83.7676 39.9327 83.1769 41.2294C82.6149 42.4631 81.8063 43.5312 81.0138 44.6136C79.8107 44.7469 78.604 44.6406 77.4009 44.673C76.5544 44.6964 76.1366 45.044 76.151 45.7266C76.1654 46.3696 76.5994 46.7244 77.3865 46.7388C77.7431 46.746 78.1015 46.7532 78.4581 46.7604C77.7521 47.4701 76.83 47.8087 75.9547 48.2337C75.6557 48.3796 75.2324 48.34 75.092 48.7524C73.4926 48.5165 72.1346 47.7258 70.7983 46.8865Z" fill="#FEBB85"/>
<path d="M84.1221 34.4754C82.0328 34.4304 80.1579 33.6434 78.3011 32.7915C76.8404 32.1215 75.4374 31.3092 73.8435 30.9526C72.5953 30.6734 71.4607 30.9058 70.3674 31.5523C68.7033 32.5375 67.23 33.782 65.6811 34.9257C65.5028 35.0572 65.3137 35.1761 65.1282 35.3003C65.1138 33.991 65.0994 32.6816 65.085 31.3722C65.1174 29.89 65.2651 28.4275 65.791 27.0245C66.4988 25.1316 67.7199 23.8258 69.8073 23.5089C70.0324 23.4746 70.2252 23.4008 70.3855 23.2153C71.4841 21.9528 72.9303 21.3674 74.5423 21.1099C75.5581 21.4953 76.6513 21.6268 77.6437 22.0878C80.4281 23.381 82.7515 25.1352 83.7492 28.2042C83.9978 28.9678 84.1437 29.7549 84.1275 30.5708C84.1022 31.8729 84.1221 33.1733 84.1221 34.4754Z" fill="#375E7D"/>
<path d="M72.2072 58.0187C71.928 58.1574 71.6362 58.2763 71.3733 58.442C70.878 58.7536 70.5826 58.6383 70.3179 58.1142C69.3111 56.1168 68.2737 54.1357 67.2471 52.1473C68.425 51.7313 69.5848 51.2594 70.824 51.0397C71.4021 51.5007 71.9964 51.942 72.5548 52.4247C73.8065 53.5089 75.1717 54.4599 76.3406 55.6396C74.961 56.432 73.5832 57.2245 72.2072 58.0187Z" fill="#EDF4FD"/>
<path d="M70.7988 46.8865C72.1352 47.7258 73.4932 48.5164 75.0925 48.7542C76.2128 49.0207 77.315 48.9541 78.4263 48.6623C79.7356 48.3201 80.8541 47.5799 82.0572 47.0162C82.0662 48.3129 82.077 49.6079 82.086 50.9046C81.1945 51.6304 80.3012 52.3563 79.4096 53.0839C79.4078 52.4139 79.3988 51.7439 79.4078 51.0739C79.4132 50.7245 79.3088 50.6453 78.9738 50.7893C77.5582 51.3981 76.1065 51.2414 74.6477 50.9713C73.2393 50.7101 72.0307 50.0095 70.8258 49.2945C70.8168 48.4912 70.8078 47.6897 70.7988 46.8865Z" fill="#E99A58"/>
<path d="M65.0859 31.374C65.1003 32.6834 65.1147 33.9928 65.1291 35.3021C65.1129 35.9253 65.0949 36.5502 65.0787 37.1734C64.4501 37.1734 63.8198 37.1356 63.1948 37.1806C61.6297 37.2923 60.5743 36.6367 60.0231 35.167C59.9799 34.2305 59.9115 33.2939 60.5544 32.4889C61.1362 31.7594 61.8962 31.4136 62.813 31.3938C63.5694 31.3758 64.3276 31.3794 65.0859 31.374Z" fill="#9ED3FC"/>
<path d="M70.8237 49.2944C72.0286 50.0095 73.2389 50.7101 74.6455 50.9712C76.1043 51.2432 77.556 51.3981 78.9716 50.7893C79.3084 50.6452 79.4111 50.7245 79.4057 51.0739C79.3967 51.7439 79.4057 52.4138 79.4075 53.0838C79.4021 53.1235 79.3985 53.1649 79.3931 53.2045C78.4097 54.0114 77.4263 54.8183 76.4429 55.6269C76.4105 55.6449 76.3763 55.6503 76.3385 55.6395C75.1696 54.4598 73.8044 53.5089 72.5527 52.4247C71.9943 51.942 71.4 51.4989 70.8219 51.0396C70.7714 50.4579 70.766 49.8762 70.8237 49.2944Z" fill="#F4A96D"/>
<path d="M60.0223 35.1671C60.5734 36.635 61.6288 37.2906 63.1939 37.1807C63.8189 37.1357 64.4493 37.1735 65.0778 37.1735C65.1337 37.8002 65.1877 38.427 65.2435 39.0538C64.352 39.0556 63.4605 39.0682 62.5708 39.0574C61.1768 39.0394 60.0331 37.8975 60.0061 36.5035C59.9953 36.0568 60.0151 35.612 60.0223 35.1671Z" fill="#85BDEE"/>
<path d="M92.8881 69.4303C92.6216 69.4483 92.355 69.4807 92.0885 69.4807C88.3513 69.4843 84.6141 69.4843 80.8751 69.4807C80.6086 69.4807 80.342 69.4483 80.0755 69.4321C79.9404 68.6666 79.8107 67.9012 79.6684 67.1375C79.3532 65.4589 79.0327 63.7804 78.7139 62.1018C79.0399 61.3868 79.364 60.67 79.69 59.9549C80.0845 59.3462 80.3492 58.6744 80.6446 58.0152C80.9616 58.1755 81.2858 58.3232 81.5937 58.4997C81.99 58.7284 82.2619 58.633 82.4601 58.2331C82.9752 57.1975 83.4957 56.1655 84.0126 55.1335C84.0504 55.1245 84.0882 55.1119 84.1242 55.0957C85.0103 55.2938 85.783 55.7639 86.561 56.1907C89.6192 57.8657 91.7373 60.3061 92.5603 63.7642C93.007 65.6354 92.8467 67.5392 92.8881 69.4303Z" fill="#385E7D"/>
<path d="M102.329 69.4321C103.918 69.4195 105.508 69.2916 107.091 69.5113C108.703 69.7328 109.987 71.1701 109.991 72.7964C110.002 77.4143 110.002 82.034 109.991 86.6519C109.987 88.4331 108.415 89.9892 106.629 89.9964C105.105 90.0037 103.579 89.9874 102.056 89.982C103.306 89.5606 104.291 88.8438 104.629 87.502C104.775 86.9257 104.854 86.3151 104.86 85.7208C104.882 82.8517 104.869 79.9826 104.867 77.1117C105.02 77.0991 105.175 77.0883 105.328 77.0739C105.971 77.0181 106.375 76.602 106.358 76.0131C106.342 75.4548 105.948 75.073 105.328 75.0225C105.175 75.0099 105.022 74.9955 104.867 74.9811C104.946 74.0626 104.836 73.1494 104.716 72.2489C104.563 71.107 103.804 70.3542 102.846 69.7779C102.673 69.6716 102.376 69.7346 102.329 69.4321Z" fill="#2196F3"/>
<path d="M92.8879 69.4302C92.8465 67.5373 93.005 65.6336 92.5601 63.7641C91.7371 60.3061 89.619 57.8657 86.5608 56.1907C85.7828 55.7639 85.0101 55.2938 84.124 55.0957C84.5311 54.0637 85.0966 53.1127 85.6117 52.1348C89.1381 53.4603 92.4467 55.1389 94.9645 58.0494C96.4306 59.7442 97.2519 61.7037 97.2159 63.9857C97.187 65.8209 97.1924 67.658 97.1834 69.4933C95.7516 69.4735 94.3198 69.4519 92.8879 69.4302Z" fill="#2C4D66"/>
<path d="M89.4105 79.6817C89.4249 82.3203 87.3141 84.4563 84.6918 84.4599C82.1217 84.4617 79.9676 82.3203 79.9532 79.7466C79.9388 77.1585 82.037 75.017 84.6287 74.9774C87.2601 74.936 89.3961 77.0378 89.4105 79.6817ZM84.7116 82.3437C86.1776 82.3383 87.3627 81.1478 87.3483 79.6944C87.3339 78.2355 86.1362 77.054 84.6828 77.063C83.2167 77.072 82.0604 78.2481 82.0658 79.7268C82.0712 81.218 83.2149 82.3491 84.7116 82.3437Z" fill="white"/>
<path d="M96.0906 80.7426C96.6633 81.4018 97.2037 82.0034 97.7224 82.6211C98.1978 83.1867 98.1888 83.754 97.7242 84.1718C97.2361 84.6113 96.6507 84.5447 96.1338 83.9701C95.4909 83.2533 94.8623 82.5257 94.0878 81.6432C94.0878 82.3024 94.0968 82.7796 94.086 83.2551C94.0698 83.9701 93.6718 84.4348 93.0757 84.4546C92.4705 84.4744 91.9914 83.9791 91.9878 83.2533C91.9734 80.8957 91.9716 78.5382 91.9896 76.1806C91.995 75.3737 92.3949 74.9865 93.2053 74.9685C93.9221 74.9523 94.6462 74.9397 95.3558 75.0153C96.7498 75.1648 97.7656 76.1085 98.0141 77.3963C98.2609 78.6714 97.6773 79.8475 96.4562 80.5427C96.3608 80.5986 96.2635 80.649 96.0906 80.7426ZM94.0987 77.9654C94.1797 78.2806 93.8105 78.8984 94.6822 78.8281C95.4783 78.7633 95.9573 78.5075 95.9807 77.9708C96.0042 77.4197 95.5179 77.1315 94.7488 77.0469C93.942 76.9568 94.0969 77.4593 94.0987 77.9654Z" fill="white"/>
<path d="M48.1031 84.4582C47.0369 84.4059 45.9761 84.0421 45.1008 83.2227C44.5496 82.7058 44.4776 82.088 44.8936 81.6215C45.3259 81.137 45.8986 81.1424 46.4876 81.672C47.0765 82.2015 47.7537 82.4302 48.5317 82.3185C48.9244 82.2627 49.2828 82.0898 49.3692 81.6539C49.4575 81.1983 49.0973 81.0164 48.7713 80.8723C48.1157 80.5823 47.4421 80.3356 46.7829 80.0546C45.5042 79.5089 44.8918 78.5345 45.0593 77.3404C45.2268 76.1481 46.2462 75.2098 47.5322 75.0315C48.6812 74.8712 49.7078 75.1702 50.6498 75.8131C51.2693 76.2382 51.4296 76.8451 51.0748 77.3638C50.738 77.8537 50.1383 77.942 49.5349 77.5638C49.009 77.2342 48.4633 76.9802 47.8275 77.0937C47.5178 77.1495 47.1954 77.2504 47.163 77.6502C47.1323 78.0158 47.4385 78.0627 47.6835 78.1617C48.2652 78.3976 48.8523 78.6192 49.4269 78.8677C50.9632 79.5287 51.7358 80.7426 51.4639 82.0394C51.1667 83.4442 49.8033 84.4618 48.1031 84.4582Z" fill="white"/>
<path d="M53.5119 78.6912C53.5119 77.9275 53.5101 77.1639 53.5119 76.402C53.5137 75.4367 53.8487 74.9918 54.5583 75.0026C55.2391 75.0134 55.5669 75.4529 55.5687 76.3714C55.5705 77.8537 55.5651 79.3342 55.5705 80.8164C55.5741 81.7728 56.1306 82.3383 57.0582 82.3455C58.0343 82.3527 58.6359 81.7872 58.6395 80.8326C58.6467 79.3053 58.6377 77.7799 58.6431 76.2526C58.6467 75.4187 59.0213 74.9864 59.7039 75.0044C60.3541 75.0224 60.6945 75.4385 60.6981 76.2526C60.7035 77.8465 60.7107 79.4404 60.6963 81.0343C60.6783 82.9525 59.1078 84.4401 57.1104 84.4599C55.1509 84.478 53.5425 82.9561 53.5155 81.0506C53.5029 80.2617 53.5119 79.4764 53.5119 78.6912Z" fill="white"/>
<path d="M63.4158 79.7214C63.4158 78.5994 63.4086 77.4791 63.4176 76.357C63.4248 75.3412 63.7905 74.9666 64.7972 74.9648C65.5357 74.9648 66.2759 74.9072 67.0143 75.0207C68.6299 75.2674 69.7789 76.6632 69.6979 78.2824C69.6205 79.8313 68.3075 81.1334 66.7244 81.2289C65.5231 81.3027 65.5231 81.3027 65.5231 82.4842C65.5231 82.7526 65.5303 83.0227 65.5213 83.2911C65.496 83.9899 65.071 84.4564 64.4749 84.4528C63.8895 84.4492 63.4356 83.9755 63.423 83.2857C63.4014 82.0988 63.4158 80.9101 63.4158 79.7214ZM65.5249 78.0464C65.5267 79.1289 65.5267 79.1289 66.2075 79.1271C67.1134 79.1253 67.5709 78.7921 67.5871 78.1257C67.6033 77.4377 67.1062 77.1225 66.1949 77.0468C65.1953 76.964 65.6113 77.6646 65.5249 78.0464Z" fill="white"/>
<path d="M71.85 79.7322C71.85 78.5435 71.8428 77.3566 71.8536 76.1679C71.8608 75.3935 72.2174 75.0008 72.9955 74.9756C73.7771 74.9486 74.5624 74.918 75.3458 75.0171C77.0082 75.2278 78.1483 76.5858 78.0834 78.2788C78.0222 79.8385 76.7327 81.1298 75.1351 81.2307C73.9104 81.3081 73.9104 81.3081 73.9104 82.5382C73.9104 82.7616 73.914 82.9867 73.9086 83.21C73.8942 83.9755 73.507 84.4473 72.891 84.4546C72.2733 84.4618 71.8572 83.9827 71.8536 83.2298C71.8446 82.0628 71.85 80.8975 71.85 79.7322ZM74.5768 77.0612C74.2076 77.0144 73.8672 77.0162 73.8942 77.6826C73.9608 79.3017 73.7807 79.1415 74.5714 79.1559C75.4629 79.1739 76.0086 78.765 76.0212 78.1131C76.0356 77.4701 75.5169 77.0684 74.5768 77.0612Z" fill="white"/>
<path d="M104.87 74.9811C105.024 74.9955 105.177 75.0099 105.332 75.0225C105.949 75.0747 106.346 75.4548 106.362 76.0131C106.378 76.6038 105.976 77.0181 105.332 77.0739C105.178 77.0865 105.024 77.0991 104.87 77.1117C104.375 76.9658 104.323 77.2342 104.325 77.6394C104.337 79.5017 104.325 81.364 104.334 83.2245C104.337 83.835 104.114 84.2835 103.503 84.4456C102.803 84.6311 102.232 84.0818 102.227 83.2047C102.214 81.4108 102.2 79.6152 102.236 77.8213C102.246 77.2504 102.127 77.0253 101.504 77.0613C100.683 77.1099 100.202 76.6831 100.202 76.0419C100.204 75.4043 100.685 75.0261 101.51 75.0153C102.628 75.0063 103.75 74.9937 104.87 74.9811Z" fill="white"/>
<path d="M72.7881 69.4356C73.1339 67.5247 73.4815 65.6156 73.8273 63.7047C74.6576 63.7101 75.4861 63.7317 76.3163 63.7155C76.7126 63.7065 76.9593 63.8182 77.0368 64.2324C77.3573 65.9596 77.714 67.6814 77.9337 69.4266C76.2173 69.5275 74.5027 69.5077 72.7881 69.4356Z" fill="#F7B84B"/>
<path d="M77.9326 69.4267C77.7128 67.6815 77.3562 65.9597 77.0356 64.2324C76.96 63.82 76.7115 63.7083 76.3152 63.7155C75.4867 63.7336 74.6565 63.7119 73.8262 63.7047C73.9162 63.1716 74.0081 62.6385 74.0981 62.1072C75.6362 62.1054 77.1743 62.1036 78.7124 62.1018C79.0312 63.7804 79.3518 65.4572 79.667 67.1375C79.8093 67.9012 79.9389 68.6666 80.074 69.4321C79.3626 69.5041 78.6476 69.5131 77.9326 69.4267Z" fill="#F7B84B"/>
<path d="M78.4579 46.7622C78.1013 46.755 77.7429 46.7478 77.3863 46.7406C76.5992 46.7262 76.1652 46.3714 76.1508 45.7284C76.1363 45.0458 76.5542 44.6982 77.4007 44.6748C78.6056 44.6424 79.8105 44.7487 81.0136 44.6154C82.2203 44.7379 83.427 44.691 84.6337 44.6406C85.2803 44.6478 85.9286 44.673 86.5752 44.6586C88.2592 44.6172 89.1687 43.6969 89.1904 42.0147C89.203 41.0313 89.1921 40.0497 89.1921 39.0664C89.8819 39.0285 90.5808 39.1366 91.258 38.9313C91.2598 40.0533 91.276 41.1772 91.2616 42.2992C91.2273 44.7847 89.2822 46.7136 86.7877 46.7388C85.2388 46.755 83.6899 46.7568 82.141 46.764C80.9127 46.7622 79.6844 46.7622 78.4579 46.7622Z" fill="#385E7D"/>
<path d="M87.7412 34.5385C87.7538 33.4867 87.7664 32.433 87.779 31.3812C88.5841 31.3848 89.3874 31.3794 90.1924 31.392C91.8512 31.4172 93.0039 32.5789 93.0147 34.2287C93.0165 34.5421 93.0039 34.8536 92.9967 35.167C92.4384 36.6547 91.3649 37.2959 89.7872 37.1806C89.1226 37.132 88.4526 37.1734 87.7844 37.1734C87.77 36.2945 87.7556 35.4156 87.7412 34.5385Z" fill="#9ED3FC"/>
<path d="M85.6116 52.1366C85.0965 53.1128 84.531 54.0655 84.1239 55.0975C84.0879 55.1137 84.0519 55.1263 84.0123 55.1353C83.9222 55.0417 83.8502 54.9066 83.7403 54.858C82.3193 54.2348 80.8911 53.6279 79.3926 53.2046C79.398 53.165 79.4034 53.1236 79.407 53.0839C80.2985 52.3581 81.1918 51.6323 82.0833 50.9047C83.2594 51.3153 84.4355 51.7259 85.6116 52.1366Z" fill="#D8ECFD"/>
<path d="M87.7823 37.1735C88.4505 37.1735 89.1205 37.1321 89.7851 37.1807C91.3628 37.296 92.4362 36.653 92.9945 35.1671C93.0017 35.5886 93.0216 36.01 93.0125 36.4296C92.9819 37.649 92.3552 38.4558 91.2583 38.9313C90.5793 39.1384 89.8805 39.0286 89.1925 39.0664C88.672 39.061 88.1533 39.0556 87.6328 39.0502C87.6832 38.4252 87.7337 37.7984 87.7823 37.1735Z" fill="#85BDEE"/>
<path d="M78.458 46.7622C79.6863 46.7622 80.9128 46.764 82.1411 46.764C82.1141 46.8487 82.0853 46.9333 82.0565 47.018C80.8534 47.5817 79.7349 48.3219 78.4255 48.6641C77.3143 48.9541 76.2102 49.0225 75.0918 48.756C75.2323 48.3435 75.6555 48.3814 75.9545 48.2373C76.828 47.8086 77.7519 47.4718 78.458 46.7622Z" fill="#F4A96D"/>
<path d="M87.782 37.1735C87.7316 37.7984 87.6812 38.4252 87.6325 39.0502C87.5155 39.4068 87.4038 39.767 87.2831 40.1218C86.714 41.8112 85.7018 43.243 84.6338 44.6406C83.4271 44.6893 82.2204 44.7361 81.0137 44.6154C81.8061 43.533 82.6148 42.4632 83.1767 41.2312C83.7675 39.9345 84.1529 38.5963 84.1241 37.1555C84.1061 36.2802 84.1115 35.4049 84.1079 34.5295C85.3182 34.5331 86.5303 34.5367 87.7406 34.5403C87.755 35.4157 87.7694 36.2946 87.782 37.1735Z" fill="#F1A86D"/>
<path d="M80.6448 58.0152C80.3494 58.6726 80.0847 59.3461 79.6902 59.9549C78.7321 59.4236 77.7649 58.9049 76.8194 58.352C76.551 58.1953 76.3313 58.1683 76.0719 58.3159C75.1012 58.8689 74.1286 59.42 73.156 59.9729C72.7472 59.3678 72.5131 58.6762 72.2051 58.0206C73.5829 57.2281 74.9607 56.4339 76.3385 55.6414C76.3745 55.6522 76.4105 55.6468 76.4429 55.6288C77.8442 56.423 79.2436 57.2191 80.6448 58.0152Z" fill="#F7B84B"/>
<path d="M73.1582 59.9711C74.1308 59.42 75.1033 58.8689 76.0741 58.3141C76.3335 58.1665 76.5532 58.1935 76.8215 58.3502C77.7671 58.9049 78.7325 59.4218 79.6924 59.9531C79.3664 60.6681 79.0422 61.3849 78.7162 62.1C77.1781 62.1018 75.64 62.1036 74.102 62.1054C73.7868 61.3957 73.4716 60.6825 73.1582 59.9711Z" fill="#F7B84B"/>
<path d="M80.6442 58.0152C79.243 57.2191 77.8436 56.423 76.4424 55.6252C77.4258 54.8183 78.4091 54.0114 79.3925 53.2028C80.8892 53.626 82.3174 54.233 83.7402 54.8561C83.8501 54.9047 83.9221 55.038 84.0122 55.1335C83.4935 56.1673 82.973 57.1993 82.4597 58.2331C82.2616 58.6329 81.9896 58.7284 81.5934 58.4996C81.2854 58.3231 80.9612 58.1755 80.6442 58.0152Z" fill="#EDF4FD"/>
<path d="M84.7112 82.3437C83.2145 82.3491 82.0691 81.2163 82.0654 79.7268C82.06 78.2481 83.2163 77.0738 84.6824 77.063C86.1376 77.054 87.3353 78.2355 87.3479 79.6944C87.3623 81.1478 86.1772 82.3383 84.7112 82.3437Z" fill="#2196F3"/>
<path d="M94.0989 77.9654C94.0989 77.4593 93.944 76.9568 94.749 77.0451C95.5181 77.1297 96.0044 77.4179 95.981 77.969C95.9576 78.5057 95.4785 78.7615 94.6824 78.8263C93.8089 78.8983 94.1799 78.2806 94.0989 77.9654Z" fill="#2196F3"/>
<path d="M65.5249 78.0465C65.6131 77.6647 65.1953 76.9641 66.1949 77.0469C67.1062 77.1225 67.6033 77.4377 67.5871 78.1257C67.5709 78.7921 67.1152 79.1235 66.2075 79.1271C65.5249 79.1307 65.5249 79.1307 65.5249 78.0465Z" fill="#2196F3"/>
<path d="M74.577 77.0613C75.5172 77.0667 76.0341 77.4701 76.0233 78.1149C76.0107 78.7651 75.465 79.1739 74.5734 79.1577C73.781 79.1415 73.9629 79.3018 73.8962 77.6845C73.8674 77.0163 74.2078 77.0145 74.577 77.0613Z" fill="#2196F3"/>
</g>
<defs>
<clipPath id="clip0_68_168">
<rect width="69" height="69" fill="white" transform="translate(41 21)"/>
</clipPath>
</defs>
</svg>
