<svg width="151" height="109" viewBox="0 0 151 109" fill="none" xmlns="http://www.w3.org/2000/svg">
<rect width="151" height="109" rx="16" fill="white"/>
<g clip-path="url(#clip0_69_514)">
<path d="M30 83.1143C30 81.6327 30 80.1511 30 78.6718C30.0475 78.5983 30.1259 78.5296 30.1377 78.4514C31.0497 72.596 34.1702 68.2791 39.2024 65.2282C41.8835 63.602 44.4863 61.8453 47.1294 60.1527C47.488 59.9228 47.7611 59.6763 47.8656 59.2187C48.2076 57.7466 48.7586 56.3408 49.3285 54.9398C51.7247 49.0513 52.354 42.9896 51.0004 36.7597C49.9982 32.1347 48.9414 27.5239 47.9036 22.906C47.2316 19.9095 48.7799 17.4963 51.7746 17.0719C53.3538 16.8491 54.9497 16.906 56.5218 17.3825C57.9063 17.8021 59.0533 18.6365 60.2953 19.3074C60.3048 19.5729 60.3215 19.8384 60.3215 20.1039C60.3238 40.3417 60.3215 60.5795 60.3238 80.8172C60.3238 81.2913 60.3191 81.7655 60.3476 82.2372C60.5162 85.1791 62.568 87.4715 65.489 87.9503C66.1563 88.0594 66.8403 88.057 67.5171 88.1068C65.489 90.411 63.3873 92.6465 61.2286 94.8298C58.9108 97.1743 56.1371 98.7294 52.9263 99.4928C52.1593 99.6753 51.3851 99.8294 50.6133 99.9953C49.2501 99.9953 47.8894 99.9953 46.5262 99.9953C46.4241 99.9432 46.3268 99.8578 46.2199 99.8412C39.0884 98.765 34.5739 94.396 31.5294 88.1732C30.7433 86.5707 30.4322 84.8259 30 83.1143Z" fill="#F6B59A"/>
<path d="M60.2949 19.3122C60.2997 18.1055 60.302 16.8989 60.3068 15.6923C60.3187 12.1672 61.8789 10.1024 65.263 9.13045C65.3058 9.1186 65.3295 9.04511 65.3627 9.00244C76.6763 9.00244 87.9899 9.00244 99.301 9.00244C99.3604 9.24424 99.5789 9.16838 99.7332 9.21579C102.483 10.0574 104.214 12.3331 104.252 15.2205C104.286 17.7049 104.281 20.1916 104.295 22.676C104.295 27.422 104.295 32.1679 104.295 36.9138C104.283 37.6771 104.269 38.4381 104.257 39.2014C103.079 39.3129 102.144 40.0383 101.082 40.4484C101.085 37.1627 101.084 33.8771 101.084 30.5914C101.084 25.6488 101.089 20.7037 101.08 15.761C101.077 13.9238 99.8116 12.556 98.1208 12.5536C87.5553 12.5489 76.9898 12.5536 66.4243 12.5489C65.6382 12.5489 64.997 12.8452 64.4318 13.3691C63.5437 14.194 63.4439 15.2727 63.4439 16.3845C63.4439 30.9186 63.4415 45.4527 63.4463 59.9868C63.4463 60.3353 63.3703 60.7004 63.5674 61.0275C63.5626 67.8335 63.5484 74.6395 63.5603 81.4454C63.5626 83.285 64.8355 84.4964 66.752 84.4988C72.7579 84.5106 78.7637 84.4964 84.7672 84.494C85.3443 85.7125 85.9475 86.9144 86.6718 88.0546C80.6398 88.0594 74.6055 88.0641 68.5735 88.0736C68.2196 88.0736 67.8658 88.0997 67.5119 88.1139C66.8351 88.0641 66.1512 88.0665 65.4839 87.9575C62.5629 87.4786 60.511 85.1839 60.3424 82.2443C60.3163 81.7726 60.3187 81.2985 60.3187 80.8243C60.3187 60.5866 60.3187 40.3488 60.3163 20.111C60.321 19.8432 60.302 19.5777 60.2949 19.3122Z" fill="#434242"/>
<path d="M86.6746 88.0522C85.9503 86.9143 85.3448 85.71 84.7677 84.4939C83.9056 81.9692 83.6302 79.3734 83.8273 76.7207C84.2927 73.5678 85.5086 70.7373 87.4726 68.2269C89.5695 65.8278 92.1272 64.1139 95.1218 63.04C97.4752 62.4308 99.8524 62.1273 102.279 62.4497C102.937 62.5754 103.593 62.6987 104.251 62.8243C108.779 64.1495 112.268 66.8045 114.514 70.9792C118.495 78.3683 116.129 87.6539 109.121 92.2979C102.073 96.9656 92.6188 95.4816 87.3443 88.8771C87.1259 88.5974 86.9003 88.3272 86.6746 88.0522ZM98.0571 86.8953C98.7386 86.9332 99.2635 86.5824 99.7622 86.1296C103.486 82.7515 107.217 79.3805 110.943 76.0048C111.14 75.827 111.342 75.6492 111.513 75.4453C112.548 74.2079 111.935 72.4039 110.363 72.0269C109.482 71.816 108.824 72.2095 108.207 72.7713C105.075 75.6137 101.93 78.4418 98.8099 81.2983C98.3658 81.7061 98.1188 81.7345 97.7032 81.2557C96.2095 79.537 94.6849 77.8444 93.146 76.166C92.2293 75.168 90.9802 75.085 90.073 75.9005C89.1611 76.7207 89.1064 77.9653 90.0112 78.9846C92.1272 81.3766 94.274 83.7424 96.4066 86.1201C96.8388 86.6085 97.3636 86.9024 98.0571 86.8953Z" fill="#0AB39C"/>
<path d="M104.293 36.9114C104.293 32.1655 104.293 27.4195 104.293 22.6736C106.808 21.2916 109.299 19.8621 111.845 18.5369C115.642 16.5598 119.933 18.6152 120.867 22.7969C121.42 25.2813 120.254 28.0383 117.958 29.335C113.422 31.8952 108.85 34.3891 104.293 36.9114Z" fill="#FEC4AB"/>
<path d="M101.078 40.4459C102.139 40.0358 103.075 39.3104 104.253 39.199C107.255 39.2819 109.162 40.6806 109.729 43.2219C109.76 43.3641 109.748 43.5135 109.758 43.6604C109.418 43.6249 109.14 43.7529 108.846 43.9188C106.64 45.1634 104.431 46.4032 102.206 47.6146C99.1446 49.2835 95.1597 47.4131 94.8486 44.1796C95.1621 43.7695 95.6276 43.5727 96.055 43.3214C97.7198 42.3448 99.4771 41.5316 101.078 40.4459Z" fill="#FEC4AB"/>
<path d="M104.504 50.2175C107.402 50.31 109.316 51.8793 109.738 54.5083C107.938 55.3285 106.295 56.4309 104.542 57.3388C103.239 58.0144 102.046 58.901 100.557 59.2139C97.9997 59.7521 95.0906 57.7347 94.8555 55.2029C95.9004 54.2641 97.2113 53.771 98.3963 53.0694C99.1657 52.7944 99.985 52.664 100.714 52.261C101.97 51.5688 103.241 50.8979 104.504 50.2175Z" fill="#FEC4AB"/>
<path d="M104.504 50.2174C103.241 50.8978 101.971 51.5663 100.714 52.2632C99.9852 52.6686 99.1659 52.7966 98.3965 53.0716C97.3658 52.8654 96.3351 52.6686 95.3733 52.2229C94.9767 51.8484 94.5778 51.4762 94.1812 51.1016C94.1171 51.0447 94.0506 50.9855 93.9864 50.9286L93.9959 50.9191C93.8677 50.6251 93.7418 50.3288 93.6089 50.0349C92.6684 47.9701 93.1576 45.6706 94.8556 44.1819C95.1643 47.4154 99.1493 49.2858 102.213 47.6169C104.438 46.4055 106.647 45.1657 108.853 43.9211C109.147 43.7552 109.425 43.6271 109.765 43.6627C109.952 45.9574 108.993 47.6335 107.012 48.7619C106.169 49.2383 105.338 49.7314 104.504 50.2174Z" fill="#F1ADA0"/>
<path d="M94.853 55.2053C95.0881 57.7348 97.9972 59.7545 100.555 59.2164C102.041 58.9035 103.236 58.0145 104.54 57.3412C106.292 56.4357 107.938 55.331 109.736 54.5107C109.995 56.9264 109.019 58.6759 106.91 59.8541C106.012 60.3566 105.048 60.7549 104.248 61.4258C103.516 61.6202 102.918 62.0729 102.281 62.4499C99.8519 62.1275 97.4747 62.4309 95.1213 63.0401C94.4516 62.4475 93.9814 61.6913 93.44 60.9967C93.3806 60.6814 93.3236 60.3637 93.2595 60.0508C92.8558 58.1235 93.4067 56.5186 94.853 55.2053Z" fill="#F1ADA0"/>
<path d="M102.282 62.4474C102.919 62.0705 103.517 61.6201 104.249 61.4233C104.249 61.8903 104.251 62.355 104.251 62.822C103.595 62.6963 102.938 62.5731 102.282 62.4474Z" fill="#434242"/>
<path d="M94.8532 55.2053C93.407 56.5163 92.8536 58.1235 93.2573 60.0461C93.3238 60.3614 93.3785 60.6766 93.4378 60.9919C92.9652 60.999 92.4927 61.0109 92.0201 61.0109C82.5351 61.018 73.0502 61.0228 63.5652 61.0275C63.3681 60.698 63.4441 60.3353 63.4441 59.9868C63.4393 45.4527 63.4393 30.9186 63.4417 16.3845C63.4417 15.2727 63.5415 14.194 64.4296 13.3691C64.9948 12.8452 65.636 12.5465 66.4221 12.5488C76.9876 12.5536 87.5531 12.5488 98.1186 12.5536C99.807 12.5536 101.073 13.9238 101.078 15.761C101.087 20.7037 101.082 25.6487 101.082 30.5914C101.082 33.8771 101.08 37.1627 101.08 40.4484C99.4769 41.5317 97.7196 42.3472 96.0596 43.3263C95.6345 43.5776 95.1667 43.7743 94.8532 44.1844C93.1552 45.6732 92.666 47.9726 93.6064 50.0374C93.7394 50.3314 93.8653 50.6277 93.9935 50.9216C93.3713 50.7439 92.7515 50.5661 92.1317 50.3906C92.2124 50.0161 92.3169 49.6463 92.3739 49.2693C93.2811 43.267 94.155 37.2599 95.1026 31.2647C95.2854 30.1102 94.9981 29.3066 94.0363 28.7068C94.4162 25.8811 94.8033 23.0553 95.1738 20.2272C95.2854 19.3619 94.8793 18.9803 93.9864 19.0561C93.1077 19.1296 92.2291 19.2007 91.3504 19.2742C91.177 18.7669 90.7496 18.6602 90.296 18.6247C89.8258 18.5867 89.3508 18.5915 88.8806 18.5512C87.7288 18.4516 87.3275 18.7906 87.2467 19.9593C87.1066 22.0217 86.9689 24.0818 86.8288 26.1442C86.7575 26.1181 86.6839 26.0897 86.6127 26.0636C86.5224 24.1529 86.4179 22.2446 86.3467 20.3315C86.3253 19.7744 86.1852 19.2932 85.5986 19.1889C84.5038 18.9945 83.4233 18.6484 82.2858 18.8096C81.1245 18.3094 79.9276 18.5891 78.7473 18.6792C78.4576 18.7005 78.3198 19.0585 78.3317 19.3856C77.9565 19.3027 77.5837 19.1984 77.2061 19.1438C76.3464 19.0206 75.5128 18.5275 74.6104 18.9257C74.0238 18.1743 73.2425 18.5891 72.5443 18.6057C70.8083 18.646 70.6089 18.857 70.7157 20.6041C70.8772 23.2544 71.0838 25.9 71.2714 28.548C69.5806 28.9984 69.1769 29.61 69.4262 31.2647C70.0413 35.3445 70.616 39.4314 71.2596 43.5064C71.5398 45.2796 71.6918 47.0742 72.1359 48.8189C72.1002 49.376 72.3021 49.8857 72.4422 50.4072C71.8723 50.4665 71.3593 50.6988 70.8606 50.9548C70.16 51.3128 69.2742 51.5854 69.298 52.5574C69.3217 53.5672 70.2479 53.8375 70.9912 54.1457C73.8172 55.3144 76.8237 55.5941 79.8302 55.7245C82.7773 55.8525 85.7363 55.8335 88.6669 55.3807C90.5334 55.0915 92.4048 54.7833 94.1099 53.8991C94.7843 53.5506 95.3614 53.0931 95.378 52.2302C96.3398 52.6759 97.3729 52.8727 98.4012 53.0789C97.209 53.7735 95.8981 54.2689 94.8532 55.2053Z" fill="white"/>
<path d="M63.5676 61.0273C73.0525 61.0225 82.5375 61.0178 92.0224 61.0107C92.495 61.0107 92.9676 60.9988 93.4402 60.9917C93.9816 61.6887 94.4519 62.4449 95.1215 63.0352C92.1269 64.109 89.5693 65.8253 87.4723 68.222C82.0934 68.2149 76.7145 68.1888 71.3379 68.2054C69.6186 68.2102 68.424 69.4737 68.386 71.2113C68.3718 71.951 68.3813 72.6882 68.3837 73.4278C68.3908 75.5495 69.5521 76.7087 71.6823 76.7111C75.7313 76.7159 79.7803 76.7158 83.8294 76.7158C83.6323 79.3685 83.9101 81.9643 84.7698 84.489C78.7639 84.4938 72.758 84.5056 66.7545 84.4938C64.8381 84.489 63.5652 83.2777 63.5628 81.4404C63.5486 74.6392 63.5628 67.8332 63.5676 61.0273Z" fill="#F7B84B"/>
<path d="M83.827 76.7208C79.7779 76.7184 75.7289 76.7208 71.6799 76.716C69.5521 76.7137 68.3908 75.5544 68.3813 73.4327C68.3789 72.6931 68.3694 71.9535 68.3837 71.2162C68.4193 69.481 69.6138 68.2174 71.3355 68.2103C76.7145 68.1937 82.0934 68.2174 87.4699 68.2269C85.5083 70.735 84.2924 73.5679 83.827 76.7208Z" fill="white"/>
<path d="M98.0568 86.8954C97.3657 86.9026 96.8385 86.6086 96.4039 86.125C94.2713 83.7473 92.1245 81.3814 90.0086 78.9895C89.1062 77.9678 89.1584 76.7256 90.0703 75.9054C90.9775 75.0899 92.229 75.1729 93.1433 76.1709C94.6846 77.8493 96.2092 79.5419 97.7006 81.2605C98.1161 81.7394 98.3631 81.7109 98.8072 81.3032C101.925 78.4466 105.072 75.6185 108.204 72.7762C108.822 72.2167 109.482 71.8232 110.361 72.0318C111.933 72.4064 112.545 74.2128 111.51 75.4502C111.341 75.6541 111.137 75.8295 110.94 76.0097C107.214 79.3854 103.483 82.7564 99.7595 86.1345C99.2632 86.5825 98.7383 86.9334 98.0568 86.8954Z" fill="#FDFDFD"/>
<path d="M95.3715 52.223C95.3526 53.0858 94.7779 53.5434 94.1034 53.8918C92.3983 54.7761 90.527 55.0843 88.6604 55.3735C85.7299 55.8263 82.7709 55.8452 79.8237 55.7172C76.8196 55.5868 73.8107 55.3071 70.9847 54.1384C70.2414 53.8302 69.3152 53.56 69.2915 52.5501C69.2677 51.5782 70.1512 51.3055 70.8541 50.9476C71.3552 50.6915 71.8658 50.4569 72.4357 50.4C73.2954 51.8555 74.6229 52.3652 76.2497 52.3581C80.2132 52.3415 84.1744 52.3201 88.1379 52.3676C89.8454 52.3865 91.199 51.8531 92.1299 50.3857C92.7521 50.5635 93.372 50.7413 93.9942 50.9168L93.9847 50.9262C94.0488 50.9831 94.1153 51.0424 94.1794 51.0993C94.576 51.4762 94.975 51.8508 95.3715 52.223Z" fill="#0AB39C"/>
<path d="M94.1791 51.1018C94.115 51.0449 94.0485 50.9856 93.9844 50.9287C94.0485 50.9856 94.1126 51.0449 94.1791 51.1018Z" fill="#AB6BAB"/>
<path d="M72.1285 48.8141C71.6821 47.0694 71.5301 45.2748 71.2522 43.5016C70.6087 39.4266 70.034 35.3397 69.4189 31.2599C69.1695 29.6076 69.5756 28.9936 71.2641 28.5432C72.3185 28.5408 73.3729 28.5361 74.4273 28.5337C75.4913 28.6119 75.7715 29.4084 76.0303 30.25C76.2536 30.973 76.4222 31.7719 77.4243 31.8146C77.4932 31.8383 77.5597 31.8644 77.6286 31.8881C77.8637 31.8881 78.0964 31.8881 78.3315 31.8881C79.8158 31.8833 81.3 31.881 82.7843 31.8762C84.1308 31.8739 85.4797 31.8739 86.8262 31.8715C87.8592 31.8952 88.2012 31.1769 88.4814 30.3614C88.7403 29.6028 88.8685 28.7233 89.8873 28.5432C91.1412 28.6499 92.407 28.4057 93.6537 28.6973C93.2097 28.7091 92.7656 28.7542 92.3262 28.721C91.5972 28.6688 91.3264 29.0007 91.2932 29.7024C91.2623 30.3472 91.1175 30.9849 91.0248 31.6249C90.6971 33.8675 90.3718 36.1125 90.0464 38.3551C89.6902 37.8098 89.2461 37.4329 88.5384 37.4329C84.3991 37.4424 80.2622 37.4234 76.123 37.4471C75.0021 37.4542 74.4321 38.2839 74.7147 39.3815C74.8691 39.9813 75.0495 40.5763 75.2324 41.169C75.6219 42.4254 76.0137 42.7217 77.3436 42.7241C80.6849 42.7312 84.0239 42.7217 87.3653 42.7312C88.0088 42.7335 88.5954 42.5961 89.1131 42.2073C89.3886 42.4254 89.372 42.7264 89.3292 43.0204C89.2105 43.8382 89.0941 44.6561 88.9469 45.4692C88.5052 47.8754 87.3748 48.8094 84.9263 48.8094C80.6565 48.8141 76.3937 48.8141 72.1285 48.8141Z" fill="#ED5351"/>
<path d="M72.1287 48.8141C76.3914 48.8141 80.6542 48.8141 84.9194 48.8141C87.3678 48.8141 88.4982 47.8801 88.9399 45.474C89.0895 44.6608 89.2035 43.843 89.3222 43.0251C89.365 42.7288 89.3816 42.4277 89.1061 42.212C89.194 42.0413 89.2795 41.873 89.3674 41.7023C89.4149 41.572 89.46 41.4416 89.5075 41.3088C89.6001 40.3084 90.2128 39.4029 90.0394 38.3551C90.3648 36.1125 90.6925 33.8675 91.0202 31.625C91.1128 30.9849 91.2577 30.3472 91.2886 29.7024C91.3242 29.0007 91.5925 28.6688 92.3216 28.721C92.7609 28.7518 93.2074 28.7067 93.6491 28.6973C93.7774 28.6996 93.9032 28.702 94.0315 28.702C94.9933 29.3041 95.2806 30.1054 95.0978 31.2599C94.1502 37.2551 93.2739 43.2622 92.3691 49.2645C92.3121 49.6415 92.21 50.0136 92.1269 50.3858C91.196 51.8556 89.8423 52.389 88.1348 52.3676C84.1737 52.3202 80.2101 52.3416 76.2466 52.3582C74.6198 52.3653 73.2923 51.8532 72.4327 50.4001C72.2949 49.8809 72.0954 49.3688 72.1287 48.8141Z" fill="#DA4647"/>
<path d="M86.8266 31.8691C85.4801 31.8715 84.1312 31.8715 82.7847 31.8738C82.5329 31.5017 82.6208 31.0797 82.5994 30.672C82.4878 28.472 82.2931 26.2698 82.2907 24.0699C82.2883 22.3156 81.9392 20.559 82.2836 18.8048C83.4187 18.6436 84.5016 18.9897 85.5964 19.1841C86.183 19.2884 86.3231 19.7696 86.3445 20.3267C86.4181 22.2374 86.5202 24.1481 86.6105 26.0564C86.4513 26.521 86.6033 26.9691 86.6888 27.4219C86.5463 28.9082 86.9596 30.3804 86.8266 31.8691Z" fill="#FED03E"/>
<path d="M82.2809 18.8023C81.9366 20.5565 82.2857 22.3131 82.288 24.0674C82.2904 26.2697 82.4852 28.4696 82.5968 30.6695C82.6181 31.0772 82.5303 31.5016 82.782 31.8714C81.2978 31.8737 79.8135 31.8785 78.3293 31.8832C78.7662 31.6106 78.676 31.1697 78.676 30.7643C78.6783 27.5687 78.6665 24.3732 78.6855 21.1776C78.6902 20.5423 78.6095 19.9449 78.3269 19.376C78.315 19.0488 78.4527 18.6909 78.7425 18.6695C79.9227 18.5818 81.1196 18.3045 82.2809 18.8023Z" fill="#FB933A"/>
<path d="M78.3269 19.3786C78.6095 19.9475 78.6879 20.5449 78.6855 21.1802C78.6665 24.3758 78.6784 27.5714 78.676 30.7669C78.676 31.1723 78.7662 31.6132 78.3293 31.8859C78.0942 31.8859 77.8614 31.8859 77.6263 31.8859C77.5575 31.8621 77.491 31.8361 77.4221 31.8124C76.4199 31.7697 76.2513 30.9708 76.0281 30.2478C75.7692 29.4062 75.489 28.6097 74.4251 28.5315C74.4227 25.6725 74.4227 22.8136 74.418 19.9523C74.418 19.5943 74.4393 19.2458 74.6032 18.9187C75.508 18.5204 76.3392 19.0135 77.1989 19.1368C77.5812 19.1913 77.9517 19.298 78.3269 19.3786Z" fill="#FED03E"/>
<path d="M86.8265 31.8691C86.9595 30.3804 86.5486 28.9082 86.6887 27.4219C86.9238 27.0141 86.8193 26.5708 86.8265 26.137C86.9666 24.0746 87.1043 22.0146 87.2444 19.9521C87.3252 18.7834 87.7265 18.4444 88.8783 18.544C89.3485 18.5843 89.8235 18.5796 90.2937 18.6175C90.7496 18.6531 91.1771 18.7597 91.3481 19.267C90.7211 20.1039 90.8423 21.1161 90.7116 22.0643C90.4148 24.2192 90.1583 26.3812 89.8876 28.5408C88.8688 28.7186 88.7406 29.5981 88.4817 30.3591C88.2015 31.1745 87.8595 31.8928 86.8265 31.8691Z" fill="#FB933A"/>
<path d="M89.8857 28.5408C90.1588 26.3812 90.4129 24.2192 90.7098 22.0643C90.8404 21.1185 90.7193 20.1038 91.3462 19.267C92.2249 19.1935 93.1036 19.1224 93.9823 19.0489C94.8752 18.9754 95.2837 19.3571 95.1697 20.22C94.8016 23.0481 94.4145 25.8739 94.0321 28.6996C93.9039 28.6972 93.778 28.6972 93.6498 28.6949C92.4078 28.4033 91.1396 28.6475 89.8857 28.5408Z" fill="#FED03E"/>
<path d="M74.6061 18.921C74.4422 19.2458 74.4209 19.5943 74.4209 19.9546C74.428 22.8135 74.428 25.6725 74.428 28.5338C73.3736 28.5362 72.3192 28.5409 71.2648 28.5433C71.0771 25.8953 70.8705 23.2497 70.7091 20.5994C70.6022 18.8546 70.8017 18.6413 72.5377 18.601C73.2358 18.5844 74.0195 18.1695 74.6061 18.921Z" fill="#FCB23D"/>
<path d="M86.8247 26.137C86.8176 26.5684 86.9221 27.0141 86.687 27.4219C86.6015 26.9691 86.4495 26.521 86.6086 26.0564C86.6822 26.0825 86.7535 26.1109 86.8247 26.137Z" fill="#F1ADA0"/>
<path d="M89.37 41.7C89.2821 41.8707 89.1966 42.039 89.1088 42.2097C88.5911 42.5985 88.0045 42.736 87.3609 42.7336C84.0196 42.7241 80.6806 42.7336 77.3393 42.7265C76.0094 42.7241 75.6175 42.4278 75.2281 41.1714C75.0452 40.5787 74.8647 39.9837 74.7104 39.3839C74.4278 38.2864 74.9977 37.4543 76.1186 37.4495C80.2579 37.4258 84.3948 37.4424 88.5341 37.4353C89.2418 37.4329 89.6859 37.8099 90.0421 38.3575C90.2131 39.4053 89.6004 40.3108 89.5101 41.3112C89.4626 41.4392 89.4151 41.5696 89.37 41.7Z" fill="#FDBF11"/>
<path d="M77.4248 31.8123C77.4937 31.836 77.5602 31.862 77.629 31.8857C77.5602 31.862 77.4913 31.836 77.4248 31.8123Z" fill="#FB933A"/>
<path d="M89.3701 41.6999C89.4176 41.5695 89.4627 41.4391 89.5102 41.3064C89.4627 41.4391 89.4152 41.5695 89.3701 41.6999Z" fill="#ED5351"/>
</g>
<defs>
<clipPath id="clip0_69_514">
<rect width="91" height="91" fill="white" transform="translate(30 9)"/>
</clipPath>
</defs>
</svg>
