<svg width="152" height="110" viewBox="0 0 152 110" fill="none" xmlns="http://www.w3.org/2000/svg">
<rect width="151.161" height="110" rx="16" fill="white"/>
<g clip-path="url(#clip0_68_17)">
<path d="M80.732 97C78.7099 97 76.6879 97 74.6659 97C74.5714 96.8171 74.3947 96.852 74.2364 96.8376C72.4405 96.6856 70.6589 96.4266 68.9081 96.0032C56.9938 93.1177 48.1167 86.2678 42.2314 75.5232C42.6137 75.5068 42.9938 75.478 43.376 75.478C53.1573 75.4698 62.9386 75.4657 72.722 75.4615C72.8042 75.5314 72.8946 75.5951 72.9706 75.6712C77.6229 80.4146 83.1834 81.9745 89.6358 80.4495C90.9181 80.1474 92.0565 79.4815 93.3038 79.0972C94.0662 79.8679 94.8285 80.6365 95.5888 81.4072C96.1067 81.9313 96.6183 81.9231 97.1403 81.4093C97.4485 81.1051 97.7691 80.8153 98.0855 80.5194C100.19 82.628 102.294 84.7346 104.398 86.8432C104.285 86.9604 104.18 87.0878 104.059 87.1926C98.2314 92.2093 91.5222 95.3189 83.9273 96.5294C82.8608 96.6999 81.7738 96.6897 80.732 97Z" fill="#2196F3" fill-opacity="0.5"/>
<path d="M38.8989 75.5026C38.081 75.5026 37.2632 75.48 36.4474 75.5067C35.4282 75.5417 34.5651 75.2807 34 74.362C34 57.0305 34 39.697 34 22.3635C34.0534 22.3491 34.1089 22.3326 34.1623 22.3182C35.3645 22.3306 36.5645 22.3429 37.7666 22.3552C37.7666 39.2654 37.7728 56.1755 37.744 73.0857C37.742 74.1421 37.968 74.9559 38.8989 75.5026Z" fill="#C3DDF3"/>
<path d="M37.7666 22.355C36.5645 22.3427 35.3645 22.3303 34.1623 22.318C34.1089 22.2789 34.0534 22.2399 34 22.1988C34 19.301 34 16.4031 34 13.5053C34.3904 13.084 34.8713 12.9751 35.4364 13.0038C36.3755 13.0491 37.3166 13.0306 38.2577 13.0388C37.8653 13.4293 37.7563 13.8978 37.7605 14.4486C37.7748 17.0629 37.7563 19.6771 37.7502 22.2913L37.7666 22.355Z" fill="#2156A3"/>
<path d="M34 22.199C34.0534 22.238 34.1089 22.2791 34.1623 22.3182C34.1089 22.3346 34.0534 22.349 34 22.3634C34 22.31 34 22.2545 34 22.199Z" fill="#293D7B"/>
<path d="M38.899 75.5026C37.9681 74.9559 37.7421 74.1441 37.7442 73.0878C37.7729 56.1776 37.7668 39.2674 37.7668 22.3573L37.7503 22.2936C42.8362 22.2936 47.9221 22.2956 53.01 22.2956C53.2257 22.3162 53.4415 22.3532 53.6573 22.3532C66.973 22.3552 80.2887 22.3532 93.6044 22.3511C93.6085 23.5534 93.6168 24.7536 93.6168 25.9559C93.6229 33.8767 93.6291 41.7974 93.6332 49.7181C92.3304 49.1016 91.0338 48.4809 89.6303 48.1048C86.8315 47.3546 84.0327 47.3916 81.2196 47.9753C67.6203 47.9712 54.021 47.9671 40.4217 47.9692C40.1792 47.9692 39.9285 48 39.6984 48.0719C39.0963 48.261 38.7983 48.7152 38.8559 49.3194C38.9134 49.9195 39.2853 50.3224 39.9121 50.3963C40.2635 50.4374 40.621 50.4231 40.9765 50.4231C52.5558 50.4272 64.1352 50.4313 75.7125 50.4354C74.6809 51.2595 73.6843 52.1227 72.7472 53.0558C72.4739 53.0434 72.2027 53.0188 71.9294 53.0188C61.4659 53.0167 51.0023 53.0167 40.5388 53.0188C40.321 53.0188 40.1011 53.0188 39.8833 53.0414C39.2812 53.1051 38.9422 53.4791 38.86 54.0464C38.7757 54.6218 39.0408 55.0575 39.5689 55.3041C39.9223 55.4686 40.3087 55.4788 40.6929 55.4788C42.6882 55.4768 44.6815 55.4768 46.6768 55.4788C54.7628 55.485 62.8509 55.4912 70.9369 55.4994C70.2629 56.6935 69.7122 57.9451 69.2293 59.2275C67.3778 59.244 65.5263 59.2604 63.6749 59.2768C57.1732 59.2727 50.6694 59.2707 44.1678 59.2666C43.1033 59.2542 42.0389 59.2357 40.9744 59.2337C40.3374 59.2337 40.0292 59.5728 40.0292 60.2078C40.0313 62.7214 40.0292 65.2369 40.0292 67.7504C40.0292 68.4266 40.397 68.7595 41.0464 68.7657C42.0286 68.7739 43.0109 68.7513 43.9951 68.741C50.5564 68.7349 57.1177 68.7287 63.679 68.7225C65.475 68.7369 67.2689 68.7534 69.0649 68.7677C69.8231 71.2504 71.0458 73.4803 72.7205 75.4615C62.9392 75.4656 53.1579 75.4718 43.3746 75.478C42.9924 75.478 42.6122 75.5067 42.23 75.5232C41.1203 75.515 40.0086 75.5088 38.899 75.5026ZM44.0486 43.123C48.9906 43.1333 53.9326 43.1456 58.8767 43.1477C59.6781 43.1477 59.9411 42.6791 59.9391 41.9187C59.9226 37.8185 59.935 33.7205 59.9288 29.6204C59.9267 28.6092 59.7336 28.4098 58.7308 28.4078C53.8689 28.3975 49.0091 28.3996 44.1472 28.3955C43.0869 28.3913 42.0266 28.3729 40.9662 28.3852C40.3333 28.3934 40.0395 28.7531 40.0395 29.3799C40.0415 33.63 40.0415 37.8802 40.0415 42.1303C40.0415 42.7942 40.3785 43.162 41.034 43.1682C42.0368 43.1744 43.0417 43.1394 44.0486 43.123ZM76.4666 39.4319C77.0399 39.4319 77.6132 39.4319 78.1845 39.4319C80.9134 39.4319 83.6402 39.438 86.3691 39.4257C87.2322 39.4216 87.7541 38.9694 87.7767 38.2707C87.8014 37.5226 87.2795 37.0293 86.4 36.9759C86.2376 36.9656 86.0732 36.9718 85.9088 36.9718C79.6599 36.9718 73.413 36.9718 67.1641 36.9718C66.8106 36.9718 66.451 36.9389 66.112 37.0766C65.6496 37.2677 65.3455 37.5822 65.3085 38.1104C65.2695 38.6714 65.5366 39.0496 66.0031 39.3044C66.3031 39.4689 66.6401 39.4278 66.9668 39.4278C70.1375 39.4339 73.3021 39.4319 76.4666 39.4319ZM76.5693 44.352C79.1893 44.352 81.8073 44.352 84.4273 44.352C85.1629 44.352 85.9027 44.3767 86.6363 44.3315C87.2877 44.2924 87.7089 43.9081 87.7665 43.2504C87.8261 42.5537 87.4582 42.1057 86.7842 41.9454C86.5233 41.8837 86.2417 41.8919 85.9705 41.8919C79.6948 41.8899 73.4192 41.8878 67.1456 41.894C66.8209 41.894 66.4819 41.896 66.1757 41.9885C65.5921 42.1653 65.2654 42.5784 65.3167 43.2155C65.3681 43.8444 65.7442 44.204 66.3401 44.3212C66.6031 44.3726 66.8846 44.3499 67.1559 44.3499C70.2958 44.352 73.4336 44.352 76.5693 44.352ZM76.5139 29.5916C79.7914 29.5916 83.071 29.5977 86.3486 29.5875C87.2281 29.5854 87.7459 29.1518 87.7788 28.453C87.8137 27.7049 87.3082 27.2178 86.4123 27.1418C86.25 27.1274 86.0856 27.1315 85.9212 27.1315C79.664 27.1315 73.4089 27.1295 67.1518 27.1356C66.8538 27.1356 66.5476 27.15 66.2599 27.2219C65.627 27.3802 65.2613 27.7871 65.3208 28.4674C65.3804 29.1312 65.7832 29.495 66.4325 29.5731C66.7017 29.606 66.9791 29.5916 67.2504 29.5916C70.3389 29.5936 73.4254 29.5936 76.5139 29.5916ZM76.4687 34.5117C79.7195 34.5117 82.9724 34.5158 86.2232 34.5097C87.2199 34.5076 87.7665 34.0822 87.7809 33.3362C87.7952 32.5428 87.2425 32.0907 86.213 32.0537C86.1041 32.0496 85.9952 32.0517 85.8842 32.0517C79.6537 32.0517 73.4254 32.0517 67.1949 32.0517C66.8127 32.0517 66.4284 32.0455 66.0647 32.1955C65.5551 32.4072 65.288 32.7812 65.3147 33.3423C65.3414 33.9383 65.6784 34.3103 66.2291 34.4583C66.5127 34.5343 66.825 34.5097 67.125 34.5097C70.2382 34.5138 73.3534 34.5117 76.4687 34.5117Z" fill="#ECF4FD"/>
<path d="M81.2174 47.9733C84.0305 47.3896 86.8314 47.3526 89.6281 48.1028C91.0316 48.4789 92.3282 49.0995 93.631 49.7161C93.8077 49.8415 93.9762 49.9792 94.1591 50.0942C100.159 53.8183 103.178 61.1861 101.565 68.0669C101.214 69.5672 100.517 70.9298 100.046 72.3767C98.7498 74.2264 97.3915 76.0226 95.651 77.49C94.8496 77.9997 94.0214 78.4724 93.2981 79.0951C92.0529 79.4815 90.9124 80.1453 89.6301 80.4495C83.1778 81.9724 77.6172 80.4146 72.9649 75.6712C72.8889 75.5931 72.8005 75.5314 72.7163 75.4615C71.0436 73.4783 69.8189 71.2504 69.0606 68.7678C68.2674 65.574 68.327 62.3925 69.225 59.2275C69.7079 57.9451 70.2586 56.6935 70.9326 55.4994C71.5347 54.6855 72.1389 53.8717 72.741 53.0578C73.6759 52.1248 74.6746 51.2616 75.7062 50.4375C77.4343 49.3626 79.257 48.5117 81.2174 47.9733ZM77.796 55.222C74.4342 57.9471 73.0841 61.5479 73.5752 65.7487C74.2677 71.6615 79.1543 75.9383 85.0827 76.0185C88.8308 76.0699 91.9234 74.6579 94.2968 71.7252C98.16 67.1421 97.8168 60.1873 93.518 55.9392C89.2233 51.6911 82.327 51.3767 77.796 55.222Z" fill="#2156A3"/>
<path d="M107.804 83.4357C106.805 84.7078 105.664 85.8402 104.397 86.8432C102.292 84.7346 100.188 82.628 98.084 80.5193C98.2258 80.3282 98.3676 80.1371 98.5073 79.948C99.4875 78.9779 100.47 78.0079 101.452 77.0378C103.492 79.2451 105.662 81.327 107.804 83.4357Z" fill="#DEEFFF"/>
<path d="M98.5068 79.9459C98.365 80.1371 98.2253 80.3282 98.0835 80.5173C97.7691 80.8132 97.4465 81.103 97.1382 81.4072C96.6163 81.921 96.1046 81.9312 95.5868 81.4051C94.8265 80.6344 94.0641 79.8637 93.3018 79.0951C94.0251 78.4703 94.8532 77.9997 95.6526 77.4879C96.5588 78.3634 97.202 79.539 98.5068 79.9459Z" fill="#2156A3"/>
<path d="M107.804 83.4357C105.663 81.3271 103.493 79.2452 101.452 77.0358C101.723 76.7707 102.001 76.5138 102.262 76.2425C102.913 75.5684 102.915 75.217 102.241 74.5347C101.52 73.8051 100.78 73.094 100.049 72.3767C100.519 70.9278 101.216 69.5672 101.567 68.067C103.18 61.1862 100.162 53.8183 94.1614 50.0943C93.9785 49.9812 93.8079 49.8435 93.6333 49.7161C93.6271 41.7954 93.623 33.8746 93.6168 25.9539C93.6168 24.7516 93.6086 23.5514 93.6045 22.3491C93.6374 21.5373 93.6682 20.7255 93.7011 19.9137C105.556 25.3127 113.436 34.2281 116.644 46.8655C119.965 59.9407 117.127 71.8444 108.739 82.4122C108.453 82.7739 108.116 83.0966 107.804 83.4357Z" fill="#2196F3" fill-opacity="0.5"/>
<path d="M93.7008 19.9137C93.6679 20.7255 93.6371 21.5373 93.6042 22.3491C80.2885 22.3511 66.9728 22.3532 53.6571 22.3511C53.4413 22.3511 53.2255 22.3141 53.0098 22.2936C53.0118 19.2087 53.0139 16.1239 53.0159 13.0411C53.3159 13.0329 53.616 13.0144 53.916 13.0144C66.646 13.0123 79.3741 13.0123 92.1041 13.0123C93.4275 13.0123 93.6638 13.2528 93.67 14.5866C93.6782 16.3623 93.6905 18.138 93.7008 19.9137Z" fill="#2156A3"/>
<path d="M53.0139 13.0411C53.0118 16.126 53.0098 19.2108 53.0077 22.2936C47.9218 22.2936 42.836 22.2916 37.748 22.2916C37.7542 19.6773 37.7727 17.0631 37.7583 14.4489C37.7563 13.9002 37.8631 13.4295 38.2556 13.0391C43.1771 13.0411 48.0965 13.0411 53.0139 13.0411ZM44.9772 17.4742C44.9854 16.8288 44.4429 16.276 43.7874 16.2616C43.1257 16.2472 42.5668 16.759 42.536 17.4084C42.5051 18.0743 43.0949 18.6867 43.7627 18.6826C44.3956 18.6785 44.9689 18.1092 44.9772 17.4742ZM40.9044 17.4351C40.89 16.7651 40.3701 16.2678 39.6961 16.2801C39.0221 16.2924 38.5207 16.8145 38.5351 17.4865C38.5495 18.1503 39.0858 18.6641 39.7495 18.6518C40.4132 18.6395 40.9187 18.1092 40.9044 17.4351ZM48.9924 17.4803C49.0048 16.8124 48.4849 16.2822 47.8109 16.2781C47.1163 16.2719 46.617 16.7569 46.6046 17.4475C46.5923 18.1236 47.106 18.66 47.7718 18.6662C48.4294 18.6744 48.9801 18.138 48.9924 17.4803Z" fill="#2156A3"/>
<path d="M44.1447 28.3934C49.0066 28.3975 53.8664 28.3955 58.7283 28.4058C59.7311 28.4078 59.9242 28.6072 59.9263 29.6183C59.9324 33.7184 59.9201 37.8165 59.9365 41.9166C59.9386 42.677 59.6776 43.1477 58.8742 43.1456C53.9321 43.1436 48.9901 43.1292 44.046 43.1189C43.8755 42.6503 43.8262 42.1694 43.8282 41.6721C43.8344 37.687 43.8364 33.7041 43.8262 29.719C43.8262 29.2443 43.8919 28.8004 44.1447 28.3934Z" fill="#69CCFE"/>
<path d="M44.1681 59.2645C50.6697 59.2686 57.1735 59.2707 63.6752 59.2748C63.6772 62.4234 63.6793 65.5719 63.6793 68.7205C57.118 68.7267 50.5567 68.7328 43.9954 68.739C43.942 68.3629 43.8454 67.9847 43.8434 67.6086C43.829 65.1835 43.8413 62.7584 43.8311 60.3332C43.8311 59.9304 43.9359 59.581 44.1681 59.2645Z" fill="#F06548"/>
<path d="M81.2174 47.9732C79.255 48.5096 77.4343 49.3605 75.7103 50.4333C64.131 50.4292 52.5516 50.4271 40.9743 50.4209C40.6188 50.4209 40.2613 50.4333 39.9099 50.3942C39.2811 50.3223 38.9112 49.9174 38.8537 49.3173C38.7962 48.7131 39.0941 48.2589 39.6962 48.0698C39.9263 47.9979 40.177 47.967 40.4195 47.967C54.0188 47.967 67.6181 47.9712 81.2174 47.9732Z" fill="#91DFE7"/>
<path d="M72.7473 53.0537C72.1452 53.8675 71.5411 54.6814 70.939 55.4952C62.853 55.4891 54.7649 55.4808 46.6789 55.4747C44.6836 55.4726 42.6903 55.4726 40.695 55.4747C40.3087 55.4747 39.9245 55.4644 39.571 55.3C39.0429 55.0534 38.7778 54.6177 38.8621 54.0422C38.9443 53.4729 39.2833 53.1009 39.8854 53.0372C40.1012 53.0146 40.321 53.0146 40.5409 53.0146C51.0044 53.0125 61.468 53.0125 71.9315 53.0146C72.2007 53.0167 72.474 53.0413 72.7473 53.0537Z" fill="#91DFE7"/>
<path d="M44.145 28.3934C43.8923 28.8003 43.8265 29.2422 43.8265 29.721C43.8368 33.706 43.8348 37.689 43.8286 41.674C43.8286 42.1714 43.8779 42.6544 44.0464 43.1209C43.0395 43.1394 42.0347 43.1743 41.0278 43.1661C40.3723 43.162 40.0353 42.7941 40.0353 42.1282C40.0353 37.8781 40.0373 33.6279 40.0332 29.3778C40.0332 28.751 40.3291 28.3913 40.96 28.3831C42.0244 28.3728 43.0847 28.3893 44.145 28.3934Z" fill="#52BAEE"/>
<path d="M76.4663 39.4319C73.3018 39.4319 70.1373 39.4319 66.9707 39.4298C66.646 39.4298 66.3069 39.4709 66.0069 39.3065C65.5384 39.0517 65.2733 38.6714 65.3124 38.1124C65.3494 37.5842 65.6535 37.2698 66.1158 37.0787C66.4549 36.9389 66.8145 36.9739 67.168 36.9739C73.4169 36.9718 79.6638 36.9739 85.9127 36.9739C86.0771 36.9739 86.2415 36.9697 86.4038 36.978C87.2833 37.0314 87.8053 37.5246 87.7806 38.2727C87.758 38.9715 87.2361 39.4236 86.373 39.4278C83.6441 39.4401 80.9173 39.4339 78.1883 39.4339C77.613 39.4339 77.0397 39.4319 76.4663 39.4319Z" fill="#91DFE7"/>
<path d="M76.5694 44.3519C73.4316 44.3519 70.2938 44.3519 67.1559 44.3499C66.8826 44.3499 66.6032 44.3725 66.3401 44.3211C65.7442 44.2039 65.3661 43.8443 65.3168 43.2154C65.2654 42.5783 65.5922 42.1631 66.1757 41.9884C66.4819 41.896 66.821 41.8939 67.1457 41.8939C73.4213 41.8898 79.697 41.8898 85.9705 41.8919C86.2418 41.8919 86.5233 41.8836 86.7843 41.9453C87.4583 42.1056 87.8261 42.5536 87.7665 43.2503C87.709 43.908 87.2857 44.2923 86.6363 44.3314C85.9027 44.3745 85.163 44.3519 84.4273 44.3519C81.8094 44.3519 79.1894 44.3519 76.5694 44.3519Z" fill="#91DFE7"/>
<path d="M76.5137 29.5916C73.4273 29.5916 70.3388 29.5937 67.2523 29.5916C66.979 29.5916 66.7036 29.606 66.4345 29.5731C65.7851 29.495 65.3803 29.1292 65.3228 28.4674C65.2632 27.7892 65.6269 27.3802 66.2618 27.222C66.5495 27.15 66.8557 27.1356 67.1537 27.1356C73.4108 27.1315 79.6659 27.1315 85.9231 27.1315C86.0875 27.1315 86.2519 27.1274 86.4142 27.1418C87.3122 27.2178 87.8177 27.707 87.7807 28.453C87.7478 29.1497 87.23 29.5834 86.3505 29.5875C83.0688 29.5978 79.7913 29.5916 76.5137 29.5916Z" fill="#91DFE7"/>
<path d="M76.4683 34.5117C73.3531 34.5117 70.2379 34.5138 67.1247 34.5097C66.8247 34.5097 66.5123 34.5323 66.2288 34.4583C65.678 34.3103 65.3431 33.9383 65.3143 33.3423C65.2876 32.7813 65.5547 32.4093 66.0644 32.1955C66.4281 32.0434 66.8103 32.0517 67.1946 32.0517C73.425 32.0517 79.6534 32.0517 85.8838 32.0517C85.9927 32.0517 86.1016 32.0496 86.2126 32.0537C87.2442 32.0907 87.7949 32.5429 87.7805 33.3362C87.7661 34.0843 87.2195 34.5076 86.2229 34.5097C82.97 34.5158 79.7191 34.5117 76.4683 34.5117Z" fill="#91DFE7"/>
<path d="M63.6809 68.7184C63.6788 65.5698 63.6768 62.4213 63.6768 59.2727C65.5282 59.2563 67.3797 59.2398 69.2311 59.2234C68.3332 62.3884 68.2736 65.5698 69.0667 68.7636C67.2708 68.7492 65.4748 68.7348 63.6809 68.7184Z" fill="#F06548"/>
<path d="M44.1678 59.2645C43.9356 59.583 43.8308 59.9303 43.8328 60.3332C43.8431 62.7583 43.8308 65.1834 43.8451 67.6085C43.8472 67.9867 43.9438 68.3628 43.9972 68.7389C43.015 68.7492 42.0307 68.7718 41.0484 68.7636C40.3991 68.7574 40.0312 68.4265 40.0312 67.7483C40.0312 65.2348 40.0312 62.7192 40.0312 60.2057C40.0312 59.5707 40.3395 59.2316 40.9765 59.2316C42.0389 59.2336 43.1033 59.2521 44.1678 59.2645Z" fill="#F06548"/>
<path d="M77.7959 55.2219C82.3269 51.3766 89.2231 51.6911 93.5179 55.9392C97.8146 60.1873 98.1578 67.142 94.2967 71.7251C93.6638 71.7724 93.222 72.2348 92.6795 72.4835C87.6922 74.7586 81.8008 73.3097 78.4349 69.0678C75.8006 65.7486 75.1553 60.3414 77.1527 56.6235C77.3993 56.1673 77.7363 55.7583 77.7959 55.2219ZM87.3018 54.4903C86.2107 54.48 85.3579 55.2815 85.327 56.3502C85.2942 57.4538 86.1469 58.317 87.273 58.317C88.3498 58.317 89.2293 57.4621 89.2211 56.4201C89.2129 55.3452 88.3724 54.5026 87.3018 54.4903ZM92.7308 58.4321C92.7226 57.647 92.1637 57.1045 91.3746 57.1127C90.5937 57.1209 90.0451 57.6861 90.0554 58.4691C90.0636 59.248 90.6307 59.7988 91.4136 59.7886C92.1966 59.7803 92.7411 59.2213 92.7308 58.4321Z" fill="white"/>
<path d="M77.7961 55.2219C77.7365 55.7604 77.3974 56.1694 77.1529 56.6236C75.1555 60.3414 75.8007 65.7466 78.4351 69.0678C81.801 73.3097 87.6924 74.7586 92.6797 72.4835C93.2221 72.2369 93.6639 71.7745 94.2969 71.7252C91.9255 74.6579 88.8308 76.0698 85.0827 76.0185C79.1543 75.9363 74.2678 71.6594 73.5753 65.7486C73.0842 61.5478 74.4363 57.9451 77.7961 55.2219Z" fill="white"/>
<path d="M100.049 72.3746C100.78 73.094 101.52 73.8051 102.241 74.5326C102.915 75.2149 102.915 75.5664 102.262 76.2405C101.999 76.5117 101.723 76.7686 101.452 77.0338C100.47 78.0038 99.4877 78.9739 98.5075 79.946C97.2026 79.539 96.5594 78.3614 95.6553 77.488C97.3937 76.0206 98.7541 74.2243 100.049 72.3746Z" fill="#2156A3"/>
<path d="M44.9777 17.4742C44.9695 18.1092 44.3961 18.6785 43.7632 18.6826C43.0954 18.6867 42.5036 18.0743 42.5365 17.4084C42.5673 16.759 43.1262 16.2452 43.7879 16.2616C44.4434 16.276 44.9859 16.8288 44.9777 17.4742Z" fill="#FE951A"/>
<path d="M40.9048 17.435C40.9191 18.1071 40.4136 18.6394 39.7499 18.6517C39.0862 18.664 38.5498 18.1482 38.5355 17.4864C38.5211 16.8144 39.0225 16.2923 39.6965 16.28C40.3684 16.2677 40.8904 16.7671 40.9048 17.435Z" fill="#2196F3"/>
<path d="M48.9925 17.4803C48.9802 18.138 48.4295 18.6744 47.7719 18.6682C47.1061 18.66 46.5924 18.1257 46.6047 17.4495C46.617 16.7569 47.1164 16.2739 47.8109 16.2801C48.4849 16.2821 49.0048 16.8124 48.9925 17.4803Z" fill="#36C07A"/>
<path d="M87.3018 54.4903C88.3745 54.5006 89.2129 55.3453 89.2211 56.4181C89.2273 57.4621 88.3498 58.3171 87.2731 58.3151C86.149 58.3151 85.2942 57.4519 85.3271 56.3482C85.3579 55.2836 86.2107 54.4801 87.3018 54.4903Z" fill="#D6E9FB"/>
<path d="M92.7313 58.4321C92.7395 59.2213 92.1971 59.7803 91.4121 59.7885C90.6292 59.7967 90.0641 59.2459 90.0538 58.4691C90.0456 57.684 90.5942 57.1209 91.373 57.1126C92.1642 57.1044 92.7231 57.649 92.7313 58.4321Z" fill="#D6E9FB"/>
</g>
<defs>
<clipPath id="clip0_68_17">
<rect width="84" height="84" fill="white" transform="translate(34 13)"/>
</clipPath>
</defs>
</svg>
