<svg width="152" height="110" viewBox="0 0 152 110" fill="none" xmlns="http://www.w3.org/2000/svg">
<rect width="151.161" height="110" rx="16" fill="white"/>
<g clip-path="url(#clip0_68_54)">
<path d="M121.931 88.7265C125 88.6446 125.041 89.2178 124.959 91.9201C124.939 92.7798 125.041 93.6396 124.816 94.4994C124.263 96.5056 122.565 97.8772 120.499 97.9386C120.172 97.9591 119.865 97.9386 119.537 97.9386C90.8125 97.9386 62.0877 97.9181 33.3833 97.9796C30.4576 97.9796 28.1866 97.3859 27 94.479C27 92.8822 27 91.2854 27 89.6887C27.7365 88.4809 28.9436 88.7675 30.0484 88.7061C40.7691 88.7061 51.5102 88.7265 62.2309 88.7265C62.3741 90.6304 63.5812 91.7972 65.443 91.7972C72.481 91.7972 79.519 91.7972 86.557 91.7972C88.4392 91.7972 89.6259 90.6508 89.7691 88.7265C100.49 88.7265 111.21 88.7265 121.931 88.7265Z" fill="#2156A3"/>
<path d="M91.2628 24.2828C91.2832 21.3349 91.2832 18.4075 91.3037 15.4597C91.3037 13.2283 92.5108 12 94.6999 12C103.661 12 112.622 12 121.583 12C123.732 12 124.959 13.2488 124.959 15.3982C124.959 26.4323 124.959 37.4458 124.959 48.4799C124.959 50.527 123.977 51.6325 121.89 51.9395C120.867 51.9395 119.844 51.9395 118.821 51.9395C118.433 51.9191 118.064 51.9191 117.676 51.9191C109.963 51.9191 102.249 51.9191 94.5567 51.9191C92.5517 51.9191 91.2832 50.6498 91.2832 48.6232C91.2832 47.5382 91.2628 46.4532 91.2832 45.3682C91.3037 44.5903 91.0173 44.0376 90.4035 43.5872C89.2782 42.7684 88.153 41.9086 87.0482 41.0488C85.9024 40.1481 85.9024 39.1245 87.0686 38.2238C88.1325 37.4049 89.1964 36.6065 90.2807 35.8081C90.5672 35.6034 90.874 35.4192 91.0173 35.0712C91.2423 34.8255 91.3037 34.5184 91.3037 34.1909C91.2832 31.9186 91.2832 29.6463 91.2832 27.3535C91.2628 26.3299 91.2628 25.3064 91.2628 24.2828ZM111.19 36.5656C111.19 34.2319 111.17 31.8981 111.211 29.5644C111.211 29.0321 111.067 28.8684 110.515 28.8684C107.896 28.8888 105.298 28.8888 102.679 28.8684C102.127 28.8684 102.004 29.0526 102.004 29.5849C101.963 31.9391 101.943 31.9595 104.254 31.9391C104.95 31.9391 105.093 32.1438 105.093 32.7989C105.052 36.3199 105.093 39.8205 105.073 43.3416C105.073 44.0171 105.175 44.3037 105.932 44.2628C107.426 44.2014 108.919 44.2219 110.413 44.2628C111.026 44.2833 111.231 44.1195 111.211 43.4849C111.17 41.1512 111.19 38.8584 111.19 36.5656ZM108.183 19.6767C106.525 19.6563 105.134 20.9869 105.093 22.6656C105.052 24.3647 106.423 25.7977 108.121 25.8181C109.819 25.8386 111.231 24.4466 111.231 22.7474C111.19 21.0688 109.819 19.6972 108.183 19.6767Z" fill="#F7B84B"/>
<path d="M62.2108 88.747C51.4901 88.747 40.749 88.7265 30.0283 88.7265C30.0283 88.3171 30.0488 87.8872 30.0488 87.4778C30.0488 68.1529 30.0488 48.8075 30.0488 29.4826C30.0692 26.1048 31.8901 24.2828 35.2659 24.2828C52.5745 24.2828 69.883 24.2828 87.1916 24.2828C87.5394 24.2828 87.8872 24.3033 88.235 24.3033C88.235 25.3064 88.235 26.3095 88.2555 27.3126L88.2145 27.3535C78.3327 27.3535 68.4304 27.3331 58.5486 27.3331C58.3644 27.3331 58.1598 27.3331 58.0166 27.4764C57.3415 27.4354 56.6868 27.3331 56.0116 27.3331C49.0555 27.3126 42.1198 27.3331 35.1636 27.3331C33.6087 27.3331 33.1381 27.8244 33.1381 29.4007C33.1381 47.8044 33.1381 66.2286 33.1177 84.6323C33.1177 85.5125 33.3836 85.6558 34.1816 85.6558C62.0471 85.6354 89.9127 85.6354 117.778 85.6558C118.638 85.6558 118.883 85.4511 118.883 84.5504C118.842 74.9903 118.863 65.4302 118.863 55.8701C118.863 55.5425 118.842 55.2355 118.822 54.9079L118.903 54.9284C119.906 54.9284 120.908 54.9079 121.911 54.9079C121.911 59.2478 121.931 63.6082 121.931 67.9482C121.931 74.847 121.952 81.7663 121.952 88.6651C111.231 88.6651 100.49 88.6856 89.7694 88.6856C80.5832 88.747 71.397 88.747 62.2108 88.747Z" fill="#2196F3"/>
<path d="M88.2548 27.333C88.2548 26.3299 88.2548 25.3268 88.2344 24.3237C89.2369 24.3237 90.2394 24.3032 91.2419 24.3032C91.2419 25.3268 91.2419 26.3504 91.2419 27.3739C90.2598 27.333 89.2573 27.333 88.2548 27.333Z" fill="#2156A3"/>
<path d="M121.89 54.9693C120.888 54.9693 119.885 54.9898 118.883 54.9898C118.862 53.9662 118.862 52.9631 118.842 51.9396C119.865 51.9396 120.888 51.9396 121.911 51.9396C121.911 52.9427 121.89 53.9458 121.89 54.9693Z" fill="#2156A3"/>
<path d="M62.21 88.7471C71.3962 88.7471 80.5619 88.7471 89.7482 88.7471C89.605 90.6509 88.4183 91.8178 86.5361 91.8178C79.4981 91.8178 72.4601 91.8178 65.4221 91.8178C63.5603 91.7973 62.3736 90.6509 62.21 88.7471Z" fill="#F1F2F2"/>
<path d="M118.842 51.9395C118.862 52.9631 118.862 53.9662 118.883 54.9898L118.801 54.9693C110.556 54.9693 102.29 55.0307 94.0452 54.9488C91.631 54.9284 89.8919 53.6182 88.7871 51.4278C88.0097 49.8924 88.2347 48.2547 88.2347 46.6375C88.2347 45.9824 88.0301 45.5525 87.4982 45.2045C86.6389 44.6108 85.8001 43.9762 84.9612 43.3416C83.0994 41.9291 82.4038 39.0631 83.9587 36.975C84.5316 36.2176 85.4113 35.8286 85.9228 35.0507C86.066 35.0302 86.1888 35.0098 86.332 35.0098C87.8869 35.0302 89.4418 35.0507 90.9967 35.0712C90.8535 35.4192 90.5466 35.6034 90.2602 35.8081C89.1963 36.6065 88.112 37.4049 87.0481 38.2238C85.8819 39.1245 85.8819 40.1481 87.0276 41.0488C88.1324 41.9086 89.2577 42.7479 90.3829 43.5872C90.9967 44.0376 91.3036 44.6108 91.2627 45.3683C91.2218 46.4532 91.2422 47.5382 91.2627 48.6232C91.2832 50.6499 92.5312 51.9191 94.5362 51.9191C102.249 51.9191 109.962 51.9191 117.655 51.9191C118.085 51.8986 118.474 51.9191 118.842 51.9395Z" fill="#F2F2F1"/>
<path d="M111.19 36.5656C111.19 38.8584 111.17 41.1716 111.211 43.4644C111.231 44.099 111.027 44.2628 110.413 44.2423C108.919 44.2014 107.426 44.1809 105.932 44.2423C105.155 44.2833 105.073 43.9967 105.073 43.3211C105.114 39.8001 105.073 36.2995 105.093 32.7784C105.093 32.1233 104.95 31.9186 104.255 31.9186C101.943 31.9391 101.963 31.9186 102.004 29.5644C102.004 29.0321 102.127 28.8479 102.679 28.8479C105.298 28.8684 107.896 28.8684 110.515 28.8479C111.067 28.8479 111.211 29.0117 111.211 29.5439C111.19 31.8981 111.19 34.2319 111.19 36.5656Z" fill="#FEFEFE"/>
<path d="M108.182 19.6767C109.839 19.6972 111.21 21.0688 111.21 22.7474C111.21 24.4466 109.798 25.8386 108.1 25.8181C106.402 25.7977 105.031 24.3647 105.072 22.6656C105.113 20.9869 106.504 19.6563 108.182 19.6767Z" fill="#FEFCF9"/>
<path d="M91.0173 35.0507C89.4624 35.0302 87.9074 35.0097 86.3525 34.9892C86.7003 34.5593 87.1709 34.2932 87.6006 33.9861C88.0097 33.6996 88.2757 33.372 88.2553 32.7988C88.2143 30.9769 88.2348 29.1754 88.2143 27.3534L88.2553 27.3125C89.2578 27.3125 90.2603 27.333 91.2628 27.333C91.2628 29.6053 91.2832 31.8776 91.2832 34.1704C91.3037 34.4979 91.2423 34.805 91.0173 35.0507Z" fill="#5BAD4F" fill-opacity="0.1"/>
<path d="M85.9431 35.0507C85.4316 35.8286 84.5519 36.2176 83.979 36.975C82.4241 39.0836 83.1197 41.9291 84.9815 43.3416C85.8204 43.9762 86.6592 44.6108 87.5185 45.2045C88.03 45.573 88.255 46.0029 88.255 46.6375C88.255 48.2547 88.03 49.8924 88.8074 51.4278C89.9122 53.5977 91.6513 54.9284 94.0654 54.9488C102.311 55.0307 110.556 54.9693 118.821 54.9693C118.842 55.2969 118.862 55.6039 118.862 55.9315C118.862 65.4916 118.842 75.0517 118.883 84.6118C118.883 85.4921 118.658 85.7172 117.778 85.7172C89.9122 85.6968 62.0467 85.6968 34.1811 85.7172C33.3832 85.7172 33.0968 85.5739 33.1172 84.6937C33.1377 66.249 33.1172 47.8248 33.1172 29.4211C33.1172 27.8244 33.5878 27.3535 35.1427 27.3535C42.0989 27.3535 49.0346 27.3535 55.9907 27.3535C56.6659 27.3535 57.3206 27.4559 57.9957 27.4968C59.1824 28.111 60.3281 28.766 61.1669 29.851C61.7398 30.6085 62.374 31.325 62.9469 32.1029C64.4199 34.0886 66.3227 35.0507 68.8391 35.0303C74.5268 34.9893 80.235 35.0303 85.9431 35.0507ZM62.2513 53.434C55.2133 53.434 48.1548 53.434 41.1168 53.434C39.2346 53.434 39.2346 53.434 39.2346 55.2764C39.2346 56.5047 39.2346 56.5047 40.4826 56.5047C54.7018 56.5047 68.921 56.5047 83.1402 56.5047C85.1657 56.5047 85.1043 56.5047 85.1861 54.519C85.227 53.5977 84.8997 53.4135 84.0609 53.4135C76.7978 53.4544 69.5143 53.434 62.2513 53.434ZM62.2103 64.1814C69.2483 64.1814 76.3068 64.1814 83.3448 64.1814C85.1657 64.1814 85.1657 64.1814 85.1657 62.3799C85.1657 61.1107 85.1657 61.1107 83.8563 61.1107C69.6371 61.1107 55.4179 61.1107 41.1986 61.1107C39.2346 61.1107 39.2755 61.1107 39.2141 63.0555C39.1732 64.0176 39.521 64.2019 40.4007 64.2019C47.6842 64.1609 54.9473 64.1814 62.2103 64.1814ZM62.108 71.8582C69.187 71.8582 76.2659 71.8582 83.3448 71.8582C85.1657 71.8582 85.1657 71.8582 85.1657 70.0567C85.1657 68.7875 85.1657 68.7875 83.8563 68.7875C69.6371 68.7875 55.4179 68.7875 41.1986 68.7875C39.2141 68.7875 39.255 68.7875 39.1936 70.8141C39.1732 71.6944 39.4596 71.8786 40.278 71.8582C47.5819 71.8377 54.845 71.8582 62.108 71.8582ZM57.6275 48.8279C63.1105 48.8279 68.5936 48.8279 74.0767 48.8279C75.9999 48.8279 75.9385 48.8279 76.0204 46.9241C76.0613 45.9005 75.7135 45.7368 74.7723 45.7368C63.5811 45.7572 52.3899 45.7572 41.2191 45.7572C39.255 45.7572 39.2959 45.7572 39.2346 47.702C39.1936 48.6642 39.521 48.8689 40.4212 48.8484C46.1498 48.8075 51.8784 48.8279 57.6275 48.8279ZM71.4375 76.4642C67.4888 76.4642 63.5402 76.4642 59.5915 76.4642C57.607 76.4642 57.6479 76.4642 57.607 78.4909C57.5661 79.3711 57.8525 79.5554 58.6709 79.5554C66.7932 79.5349 74.9156 79.5349 83.0584 79.5349C85.2066 79.5349 85.1861 79.5349 85.1861 77.3649C85.1861 76.628 84.9406 76.4642 84.245 76.4642C79.9895 76.4847 75.7135 76.4642 71.4375 76.4642ZM46.9272 41.1717C48.7686 41.1717 50.6304 41.1717 52.4717 41.1717C54.579 41.1717 54.5381 41.1717 54.579 39.0631C54.5995 38.2033 54.2721 38.0805 53.5151 38.0805C49.4642 38.1214 45.4337 38.101 41.3828 38.101C39.2141 38.101 39.2346 38.101 39.2346 40.2504C39.2346 40.9465 39.4187 41.1921 40.1348 41.1921C42.4057 41.1307 44.6563 41.1717 46.9272 41.1717ZM57.5865 33.4949C58.4458 33.5154 59.121 32.8603 59.1414 32.021C59.1824 31.1612 58.5481 30.4652 57.6888 30.4242C56.8091 30.3833 56.093 31.0588 56.0725 31.9596C56.093 32.7989 56.7272 33.4744 57.5865 33.4949Z" fill="#FEFEFE"/>
<path d="M85.9435 35.0507C80.2353 35.0507 74.5477 34.9893 68.8395 35.0507C66.323 35.0712 64.4203 34.0886 62.9472 32.1233C62.3744 31.3659 61.7606 30.6289 61.1673 29.8715C60.3285 28.7865 59.1827 28.111 57.9961 27.5173C58.1393 27.3535 58.3439 27.374 58.528 27.374C68.4099 27.374 78.3122 27.3945 88.194 27.3945C88.194 29.2164 88.194 31.0179 88.2349 32.8398C88.2554 33.3926 87.9894 33.7201 87.5802 34.0272C87.1506 34.3342 86.68 34.6004 86.3322 35.0303C86.2095 35.0098 86.0662 35.0303 85.9435 35.0507Z" fill="#F7B84B"/>
<path d="M62.2511 53.4339C69.5141 53.4339 76.7772 53.4544 84.0607 53.4135C84.8995 53.4135 85.2269 53.5977 85.1859 54.5189C85.1246 56.5046 85.1655 56.5046 83.14 56.5046C68.9208 56.5046 54.7016 56.5046 40.4824 56.5046C39.2344 56.5046 39.2344 56.5046 39.2344 55.2763C39.2344 53.4339 39.2344 53.4339 41.1166 53.4339C48.1751 53.4339 55.2131 53.4339 62.2511 53.4339Z" fill="#D8D8D8"/>
<path d="M62.2106 64.1813C54.9475 64.1813 47.6845 64.1608 40.401 64.2018C39.5007 64.2018 39.1734 64.0175 39.2143 63.0554C39.2757 61.1106 39.2348 61.1106 41.1989 61.1106C55.4181 61.1106 69.6373 61.1106 83.8565 61.1106C85.1659 61.1106 85.1659 61.1106 85.1659 62.3798C85.1659 64.1813 85.1659 64.1813 83.345 64.1813C76.307 64.1813 69.269 64.1813 62.2106 64.1813Z" fill="#D8D8D8"/>
<path d="M62.1079 71.8581C54.8448 71.8581 47.5818 71.8376 40.2982 71.8786C39.4799 71.8786 39.1934 71.6943 39.2139 70.8345C39.2753 68.8079 39.2344 68.8079 41.2189 68.8079C55.4381 68.8079 69.6573 68.8079 83.8765 68.8079C85.1859 68.8079 85.1859 68.8079 85.1859 70.0771C85.1859 71.8786 85.1859 71.8786 83.3651 71.8786C76.2657 71.8581 69.1868 71.8581 62.1079 71.8581Z" fill="#D8D8D8"/>
<path d="M57.6277 48.8279C51.8991 48.8279 46.1501 48.8074 40.4215 48.8483C39.5213 48.8483 39.1939 48.6641 39.2348 47.7019C39.2962 45.7572 39.2553 45.7572 41.2194 45.7572C52.4106 45.7572 63.6018 45.7776 74.7726 45.7367C75.6933 45.7367 76.0615 45.9005 76.0206 46.924C75.9388 48.8279 76.0002 48.8279 74.077 48.8279C68.5939 48.8279 63.1108 48.8279 57.6277 48.8279Z" fill="#D8D8D8"/>
<path d="M71.4379 76.4643C75.7139 76.4643 79.9694 76.4848 84.2454 76.4438C84.941 76.4438 85.1865 76.6076 85.1865 77.3446C85.1661 79.5145 85.207 79.5145 83.0588 79.5145C74.9364 79.5145 66.8141 79.4941 58.6713 79.535C57.8529 79.535 57.5665 79.3508 57.587 78.491C57.6483 76.4643 57.6074 76.4643 59.5715 76.4643C63.5406 76.4643 67.4892 76.4643 71.4379 76.4643Z" fill="#D8D8D8"/>
<path d="M46.9276 41.1716C44.6566 41.1716 42.4061 41.1511 40.1351 41.1921C39.3986 41.2126 39.2144 40.9669 39.2349 40.2504C39.2554 38.1009 39.2144 38.1009 41.3831 38.1009C45.4341 38.1009 49.4645 38.1214 53.5155 38.0804C54.252 38.0804 54.5794 38.2033 54.5794 39.0631C54.5384 41.1716 54.5794 41.1716 52.4721 41.1716C50.6103 41.1716 48.7689 41.1716 46.9276 41.1716Z" fill="#D8D8D8"/>
<path d="M57.5863 33.4948C56.727 33.4744 56.0928 32.7988 56.0928 31.9595C56.0928 31.0587 56.8088 30.3832 57.7091 30.4241C58.5479 30.4651 59.1821 31.1611 59.1617 32.0209C59.1207 32.8602 58.4456 33.4948 57.5863 33.4948Z" fill="#F7B84B"/>
</g>
<defs>
<clipPath id="clip0_68_54">
<rect width="98" height="86" fill="white" transform="translate(27 12)"/>
</clipPath>
</defs>
</svg>
