<svg width="152" height="110" viewBox="0 0 152 110" fill="none" xmlns="http://www.w3.org/2000/svg">
<rect width="151.161" height="110" rx="16" fill="white"/>
<g clip-path="url(#clip0_68_209)">
<path d="M83.6892 101C83.1087 100.57 82.916 99.9471 82.7375 99.2793C81.2054 93.5067 79.6471 87.7412 78.1007 81.9734C78.0317 81.7191 77.9912 81.4553 77.9365 81.1962C80.0373 81.5313 82.05 82.2229 84.1031 82.7529C85.0096 82.9858 85.659 82.8313 86.3181 82.1421C88.0548 80.3264 89.8962 78.6106 91.621 76.7854C92.4157 75.9441 93.3245 75.5686 94.4331 75.533C94.7448 76.7284 95.0565 77.9238 95.3681 79.1168C94.947 79.1073 94.5806 79.1667 94.2476 79.5042C92.0469 81.731 89.8296 83.9388 87.6099 86.1466C87.1222 86.6314 86.9699 87.1685 87.1507 87.8339C87.5147 89.1648 87.7883 90.5242 88.2118 91.8336C88.6424 93.1669 88.7638 94.5904 89.418 95.8547C87.9882 97.6799 86.368 99.3387 84.7574 101.002C84.4005 101 84.0436 101 83.6892 101Z" fill="#0AB39C"/>
<path d="M71.929 85.3481C70.6491 90.163 69.362 94.9779 68.0963 99.7975C67.9464 100.365 67.5848 100.703 67.1328 101C66.8354 101 66.5404 101 66.243 101C64.3397 98.9277 62.4365 96.8577 60.5332 94.7854C60.7901 94.5929 60.8377 94.3077 60.9139 94.0178C61.4944 91.8337 62.0844 89.6544 62.6839 87.4751C62.9099 86.6505 63.4071 86.4318 64.109 86.8525C64.5705 87.1306 65.0249 87.1805 65.5436 87.0402C67.6705 86.4651 69.7998 85.9114 71.929 85.3481Z" fill="#0AB39C"/>
<path d="M94.4331 75.5306C93.3245 75.5663 92.418 75.9418 91.621 76.783C89.8962 78.6082 88.0548 80.3265 86.3181 82.1398C85.659 82.829 85.0096 82.9834 84.1031 82.7505C82.05 82.2206 80.0373 81.5314 77.9365 81.1939C76.2997 80.3716 74.6677 80.5261 73.0356 81.2082C71.0895 81.7025 69.1339 82.1611 67.2021 82.7078C66.1886 82.9953 65.4059 82.886 64.6398 82.0827C62.9221 80.2813 61.0949 78.5845 59.3844 76.7759C58.585 75.9299 57.6643 75.5734 56.558 75.5306C54.3883 74.7416 52.1305 74.2473 49.9037 73.6674C49.0044 73.4345 48.5381 72.9806 48.3145 72.1155C47.665 69.5964 46.9584 67.0915 46.3137 64.5724C46.1233 63.8262 45.7784 63.2273 45.2264 62.6902C43.3398 60.8484 41.4984 58.9566 39.6094 57.1172C39.0265 56.5492 38.8957 55.9693 39.1098 55.1993C39.8259 52.6065 40.4873 49.9971 41.1962 47.4019C41.3675 46.7769 41.3604 46.1946 41.1891 45.572C40.4801 43.0077 39.814 40.4291 39.105 37.8649C38.8861 37.0759 38.998 36.4603 39.6141 35.8614C41.5055 34.0244 43.3422 32.1279 45.2264 30.2813C45.7569 29.7632 46.09 29.1762 46.2732 28.468C46.937 25.9204 47.6293 23.3822 48.2812 20.8346C48.4953 19.9981 48.9497 19.5513 49.8133 19.335C52.397 18.6886 54.9545 17.9471 57.5311 17.2698C58.1591 17.1058 58.6564 16.804 59.1084 16.3453C60.9379 14.4869 62.8103 12.6664 64.6255 10.7961C65.294 10.1069 65.953 9.85737 66.9166 10.1354C69.3884 10.8508 71.896 11.4497 74.3703 12.1555C75.1482 12.3765 75.8596 12.3622 76.6233 12.1484C79.1308 11.4497 81.6598 10.8151 84.1626 10.095C84.9953 9.85499 85.571 10.0665 86.1491 10.6511C88.0477 12.5666 89.9866 14.4441 91.8875 16.3572C92.3443 16.8182 92.8558 17.0939 93.4791 17.2532C96.001 17.8996 98.5109 18.6007 101.035 19.2376C101.972 19.4728 102.486 19.9767 102.724 20.932C103.364 23.5153 104.095 26.0749 104.77 28.6487C104.911 29.1858 105.175 29.6112 105.567 29.9985C107.466 31.8736 109.333 33.7796 111.249 35.638C111.919 36.2892 112.131 36.938 111.869 37.8601C111.141 40.4196 110.502 43.0029 109.802 45.5696C109.64 46.1637 109.645 46.7198 109.807 47.3116C110.518 49.9068 111.191 52.5115 111.905 55.1066C112.124 55.9004 111.988 56.5159 111.377 57.1077C109.486 58.9471 107.647 60.8389 105.762 62.6878C105.258 63.1821 104.925 63.724 104.746 64.4108C104.092 66.9584 103.379 69.4942 102.739 72.0466C102.517 72.9259 102.061 73.4107 101.171 73.6294C99.1889 74.1166 97.2238 74.6751 95.2539 75.2145C94.9732 75.2906 94.7067 75.4237 94.4331 75.5306ZM48.619 39.1102C48.5738 39.191 48.5286 39.2718 48.4834 39.3526C48.4382 39.5855 48.3977 39.8184 48.3454 40.0465C47.2629 44.7259 47.3343 49.3887 48.6475 54.0087C49.6777 57.6329 51.2955 60.9696 53.7769 63.8476C54.3455 64.8196 55.1163 65.6323 55.9228 66.3952C58.447 68.7931 61.2829 70.7538 64.4994 72.106C67.5875 73.4036 70.7993 74.2568 74.1752 74.3186C75.8286 74.3495 77.4964 74.454 79.1237 74.1213C79.9421 73.9526 80.8937 74.1784 81.567 73.4559C82.0071 73.425 82.4425 73.4464 82.885 73.3276C85.2403 72.6883 87.4624 71.7472 89.5655 70.509C94.4189 67.6548 98.0946 63.6931 100.562 58.6572C102.658 54.3747 103.555 49.8355 103.307 45.0396C103.11 41.1968 102.177 37.5773 100.502 34.1527C98.6584 30.3859 96.0818 27.1871 92.7559 24.6038C89.4656 22.049 85.8399 20.2024 81.7335 19.3659C81.6622 19.316 81.5956 19.2399 81.5171 19.2233C78.3862 18.5626 75.2363 18.4604 72.0554 18.8145C69.0911 19.1449 66.2814 19.9695 63.6001 21.241C59.1631 23.349 55.4779 26.3838 52.6658 30.412C50.8101 33.0619 49.3636 35.9304 48.619 39.1102Z" fill="#FEC244"/>
<path d="M56.5604 75.533C57.6667 75.5757 58.5874 75.9322 59.3868 76.7783C61.0973 78.5868 62.9245 80.2813 64.6422 82.0851C65.4083 82.8883 66.191 82.9953 67.2045 82.7101C69.1363 82.1635 71.0919 81.7048 73.038 81.2105C72.7787 82.6198 72.3956 83.9958 71.9317 85.3504C69.8024 85.9137 67.6731 86.465 65.5486 87.0425C65.03 87.1827 64.5756 87.1328 64.114 86.8548C63.4146 86.4341 62.9173 86.6528 62.689 87.4774C62.0894 89.6543 61.4994 91.836 60.9189 94.02C60.8428 94.31 60.7952 94.5952 60.5383 94.7877C58.4946 95.2463 56.5485 96.0306 54.5382 96.6033C54.0291 96.7483 53.5318 96.9408 53.0203 97.081C51.7523 97.428 50.9172 96.6081 51.255 95.3366C52.24 91.6055 53.2368 87.8791 54.236 84.1503C55.0021 81.2747 55.7825 78.4038 56.5604 75.533Z" fill="#0AB39C"/>
<path d="M89.416 95.8547C88.7642 94.5904 88.6405 93.1669 88.2098 91.8336C87.7864 90.5218 87.5128 89.1648 87.1488 87.8339C86.968 87.1661 87.1202 86.629 87.6079 86.1466C89.8276 83.9411 92.0473 81.731 94.2456 79.5041C94.5787 79.1667 94.945 79.1073 95.3661 79.1168C96.8126 84.4806 98.2686 89.8397 99.7032 95.2059C100.096 96.6746 99.2631 97.447 97.7833 96.9931C95.7753 96.3776 93.7603 95.7763 91.7856 95.0633C90.9077 94.7449 90.2701 94.752 89.7443 95.5695C89.673 95.686 89.5302 95.7597 89.416 95.8547Z" fill="#0AB39C"/>
<path d="M61.6062 39.2361C62.3104 39.2503 63.0146 39.2646 63.7212 39.2789C64.8013 39.3026 65.2557 39.747 65.3057 40.8402C65.3271 41.3393 65.3247 41.8384 65.3342 42.3375C65.1558 42.6345 65.201 42.9649 65.201 43.2881C65.1986 48.8397 65.1986 54.3889 65.2034 59.9405C65.2034 60.228 65.1201 60.5346 65.3223 60.796C65.3271 61.2119 65.3318 61.6278 65.3366 62.0437C65.113 63.5671 64.8227 63.8119 63.2668 63.8142C60.105 63.8237 56.9432 63.8356 53.779 63.8451C51.2976 60.9671 49.6798 57.6305 48.6497 54.0063C47.3364 49.3863 47.265 44.7235 48.3475 40.0441C48.3999 39.8136 48.4403 39.5807 48.4855 39.3478C48.5402 39.3311 48.5854 39.3026 48.6211 39.2575C52.9487 39.2527 57.2786 39.2456 61.6062 39.2361Z" fill="#2196F3"/>
<path d="M61.606 39.2361C57.2761 39.2456 52.9485 39.2527 48.6186 39.2622C48.621 39.2123 48.621 39.16 48.6162 39.1101C49.3609 35.9303 50.8097 33.0618 52.6607 30.4096C55.4727 26.3814 59.158 23.3466 63.595 21.2386C66.2762 19.9648 69.0859 19.1425 72.0502 18.8121C75.2335 18.4556 78.381 18.5602 81.5119 19.2209C81.5904 19.2375 81.657 19.316 81.7284 19.3635C80.1011 19.96 78.4238 20.3997 76.8536 21.1673C74.2366 22.4459 71.8266 23.9811 69.6664 25.9631C67.0161 28.3943 64.9368 31.2153 63.3523 34.4165C62.5934 35.9541 62.02 37.5678 61.606 39.2361Z" fill="#DCE8EF"/>
<path d="M53.7773 63.8476C56.9392 63.8357 60.101 63.8238 63.2652 63.8167C64.8235 63.8119 65.1113 63.5671 65.335 62.0461C66.5935 63.762 67.9448 65.3971 69.515 66.8349C72.6959 69.7461 76.2954 71.9278 80.4707 73.1089C80.8395 73.2135 81.2035 73.3394 81.5675 73.4583C80.8942 74.1784 79.9426 73.955 79.1242 74.1237C77.4969 74.4564 75.8268 74.3519 74.1757 74.321C70.7997 74.2592 67.588 73.406 64.4999 72.1084C61.2834 70.7562 58.4475 68.7955 55.9233 66.3976C55.1168 65.6323 54.3459 64.8196 53.7773 63.8476Z" fill="#DCE8EF"/>
<path d="M48.6186 39.1102C48.621 39.1601 48.6233 39.2124 48.621 39.2623C48.5853 39.3075 48.5401 39.3384 48.4854 39.3526C48.5282 39.2718 48.5734 39.191 48.6186 39.1102Z" fill="#FDE87C"/>
<path d="M81.8958 35.2056C81.8815 36.6386 81.5461 38.0123 81.0703 39.3479C80.8347 40.0062 80.9204 40.2058 81.6698 40.1963C84.696 40.1583 87.7246 40.2557 90.746 40.1535C92.7016 40.087 93.9792 41.3323 94.1576 42.9079C94.3242 44.3671 93.1655 45.591 91.229 45.9784C92.7349 46.7769 93.4986 47.9628 93.0061 49.5741C92.6279 50.817 91.7238 51.6203 90.0894 51.5752C91.4907 52.3594 92.3995 53.3077 92.1687 54.8524C91.9332 56.4138 90.8412 57.141 89.2186 57.4595C90.2202 58.0084 90.8459 58.6976 90.9815 59.7196C91.229 61.5566 89.9657 63.0919 88.0862 63.1037C82.9545 63.137 77.8228 63.118 72.6911 63.118C72.4841 63.118 72.27 63.1323 72.1201 62.9445C74.5016 62.9445 76.8854 62.9445 79.3906 62.9445C79.1456 62.5548 78.9219 62.386 78.6816 62.2102C77.8513 61.6089 76.895 61.3047 75.9409 60.9791C74.4326 60.4658 73.3739 59.0874 73.3691 57.6021C73.3572 53.0985 73.3549 48.5974 73.3739 44.0938C73.3787 43.0933 73.726 42.2211 74.4564 41.4677C76.7237 39.1292 79.6499 37.5726 81.8958 35.2056Z" fill="#F0B0A1"/>
<path d="M81.8956 35.2055C79.6498 37.5702 76.7211 39.1268 74.4538 41.4725C73.7235 42.2258 73.3761 43.098 73.3713 44.0985C73.3523 48.5997 73.3571 53.1033 73.3666 57.6068C73.3713 59.0897 74.43 60.4705 75.9384 60.9838C76.8924 61.3071 77.8488 61.6113 78.6791 62.2149C78.9194 62.3884 79.143 62.5571 79.3881 62.9492C76.8829 62.9492 74.5014 62.9492 72.1176 62.9492C71.6418 62.9754 71.2397 62.7472 70.8947 62.4858C69.2365 61.2405 67.3546 60.7795 65.3205 60.7985C65.1183 60.5347 65.2016 60.2281 65.2016 59.9429C65.1968 54.3913 65.1968 48.8421 65.1992 43.2905C65.1992 42.9673 65.1564 42.637 65.3324 42.3399C67.8233 39.633 71.1398 37.8815 73.6497 35.196C75.0605 33.6869 75.7433 31.8736 75.8527 29.8298C75.8837 29.269 75.8551 28.7057 75.8599 28.1449C75.8742 26.7332 76.8139 25.5687 78.0415 25.4308C79.4713 25.2716 80.6014 26.0868 81.013 27.5198C81.741 30.0342 82.0812 32.589 81.8956 35.2055Z" fill="#EA9C8D"/>
</g>
<defs>
<clipPath id="clip0_68_209">
<rect width="73" height="91" fill="white" transform="translate(39 10)"/>
</clipPath>
</defs>
</svg>
