<svg width="152" height="110" viewBox="0 0 152 110" fill="none" xmlns="http://www.w3.org/2000/svg">
<rect width="151.161" height="110" rx="16" fill="white"/>
<g clip-path="url(#clip0_68_341)">
<path d="M32 66.4955C32.4778 65.874 33.1165 65.7317 33.8792 65.7432C36.5143 65.7776 39.1471 65.7593 41.7821 65.7547C42.0923 65.7547 42.4139 65.8189 42.7102 65.6629C44.6492 65.6584 46.5882 65.6446 48.5271 65.6606C49.0073 65.6652 49.5012 65.7065 49.9607 65.835C50.5695 66.0047 50.9049 66.4795 50.8819 67.1125C50.8589 67.7501 50.1238 68.3625 49.3726 68.3671C47.1487 68.3808 44.9249 68.3671 42.6988 68.3625C39.7811 68.351 36.8635 68.3281 33.9482 68.3418C33.1602 68.3464 32.4939 68.1675 32 67.5276C32 67.1813 32 66.8373 32 66.4955Z" fill="#2196F3"/>
<path d="M32 58.9426C32.4595 58.3234 33.0683 58.0894 33.8425 58.1124C35.1267 58.1536 36.4132 58.1124 37.6974 58.1261C38.6738 58.1376 39.278 58.6468 39.2895 59.4266C39.301 60.211 38.7129 60.7339 37.725 60.75C36.3535 60.7729 34.9843 60.7431 33.6127 60.7614C32.9281 60.7706 32.4227 60.4679 32 59.9725C32 59.6307 32 59.2867 32 58.9426Z" fill="#2196F3"/>
<path d="M32 72.844C32.4687 72.2316 33.0798 71.9908 33.854 72.0252C34.7384 72.0665 35.6275 72.016 36.5143 72.0412C37.4585 72.0688 38.0076 72.5688 38.0122 73.3463C38.0168 74.1192 37.4631 74.6376 36.5258 74.6628C35.5241 74.6903 34.5225 74.6536 33.5208 74.6743C32.8523 74.688 32.4135 74.3165 32 73.8738C32 73.5321 32 73.188 32 72.844Z" fill="#2196F3"/>
<path d="M42.699 68.3602C44.9228 68.3625 47.1489 68.3785 49.3728 68.3647C50.124 68.3602 50.8592 67.7478 50.8821 67.1102C50.9051 66.4771 50.5697 66.0024 49.9609 65.8326C49.5014 65.7042 49.0075 65.6606 48.5274 65.6583C46.5884 65.6423 44.6494 65.6583 42.7105 65.6606C42.7013 61.9611 42.6921 58.2638 42.6829 54.5643C42.6806 54.1377 42.6668 53.7111 42.6576 53.2845C42.6576 52.429 42.6553 51.5735 42.6553 50.718C43.0803 49.4794 43.9464 49.1193 45.2398 49.1239C56.1546 49.1652 67.0693 49.1491 77.984 49.1469C78.3562 49.1469 78.7283 49.1262 79.0982 49.1147C79.7782 49.1216 80.4582 49.1285 81.1382 49.1354C81.1451 49.2202 81.1566 49.3051 81.1566 49.3923C81.1589 58.5643 81.152 67.7363 81.1773 76.9106C81.1796 77.6446 80.8281 77.6583 80.2836 77.656C75.6476 77.6446 71.0092 77.6469 66.3732 77.6514C66.0033 77.6514 65.6265 77.5941 65.2727 77.7547C63.6301 77.1744 61.9921 76.5758 60.1956 76.8235C58.9941 76.851 57.9442 77.445 56.8116 77.7271C56.4716 77.7019 56.1293 77.6537 55.7893 77.6537C51.4082 77.6446 47.0295 77.6446 42.6484 77.64C42.6691 76.6652 42.6898 75.6881 42.7082 74.7134C44.847 74.7157 46.9881 74.7317 49.127 74.718C50.1355 74.7111 50.9028 74.0895 50.8936 73.3487C50.8844 72.6079 50.0942 72.0024 49.1155 72.0001C46.9766 71.9978 44.8355 72.0047 42.6967 72.0069C42.699 70.7914 42.699 69.5758 42.699 68.3602ZM60.7653 70.9634C62.0059 70.9909 62.9203 70.4978 63.7037 69.7363C65.383 68.0987 67.0555 66.4519 68.7165 64.7959C69.9479 63.5666 69.9387 62.2157 68.6774 60.9771C67.067 59.3923 65.3692 57.8923 63.8277 56.2455C61.9577 54.2455 59.4972 54.4634 57.68 56.5895C57.4089 56.906 57.448 57.0941 57.7351 57.3716C59.3663 58.9358 60.979 60.5161 62.5963 62.0964C63.4992 62.9794 63.4808 62.968 62.5481 63.8579C60.9744 65.3556 59.4168 66.8716 57.8615 68.39C57.6639 68.5826 57.2665 68.7615 57.6226 69.1446C58.5047 70.101 59.4237 71.0001 60.7653 70.9634ZM49.5336 63.7478C50.2481 63.7478 50.9648 63.7592 51.6793 63.7455C52.6075 63.7271 53.1542 63.2294 53.1473 62.4427C53.1404 61.6629 52.5891 61.1858 51.6426 61.1767C50.2687 61.1652 48.8972 61.1675 47.5234 61.1744C46.5057 61.1813 46.0876 61.5597 46.0853 62.4496C46.0853 63.2363 46.6297 63.7248 47.5602 63.7432C48.2195 63.7592 48.8766 63.7478 49.5336 63.7478Z" fill="#2156A3"/>
<path d="M81.1377 49.133C80.4576 49.1261 79.7776 49.1192 79.0976 49.1124C79.0195 48.0803 78.5784 47.1399 78.3395 46.1491C77.2827 41.7431 77.7077 37.4908 79.4514 33.3234C80.4921 30.8394 82.0129 28.6858 83.8991 26.8165C85.6451 25.0894 87.6805 23.711 89.9503 22.7179C91.972 21.8968 94.0258 21.2087 96.2381 21.1399C98.5791 21.2936 100.771 22.0023 102.861 23.0183C106.668 24.867 109.634 27.6559 111.734 31.3073C113.298 34.0298 114.224 36.9816 114.323 40.1559C113.611 40.1514 112.896 40.0963 112.191 40.1514C111.44 40.211 110.976 40.7729 110.996 41.4587C111.015 42.1491 111.504 42.6491 112.267 42.6858C112.949 42.7179 113.634 42.6881 114.316 42.6858C114.454 43.4059 114.247 44.1124 114.128 44.7981C113.255 49.8073 110.822 53.9404 106.946 57.2316C106.549 57.2202 106.356 56.9014 106.131 56.6582C104.116 54.4885 102.117 52.3073 100.102 50.1376C99.4728 49.4587 98.7009 49.1078 97.7429 49.1491C96.801 49.1903 95.8568 49.1582 94.9149 49.1582C93.4767 49.1605 92.0363 49.1651 90.5981 49.1674C88.3192 49.1559 86.0425 49.1445 83.7635 49.133C83.6601 48.3578 83.2191 47.8463 82.4448 47.844C81.6637 47.844 81.2227 48.3486 81.1377 49.133ZM96.9664 36.7821C96.9664 38.266 96.9572 39.75 96.971 41.2362C96.9802 42.2087 97.4098 42.6766 98.3655 42.6949C99.737 42.7248 101.111 42.7202 102.482 42.6972C103.387 42.6835 103.888 42.2087 103.893 41.4358C103.9 40.6674 103.397 40.1697 102.508 40.1284C101.766 40.094 101.019 40.0757 100.279 40.1307C99.6543 40.1766 99.5256 39.9426 99.5325 39.3601C99.5647 37.0206 99.5532 34.6789 99.5417 32.3371C99.5371 31.4197 99.011 30.8303 98.2529 30.8257C97.4925 30.8211 96.9756 31.4082 96.9687 32.3257C96.9595 33.8119 96.9664 35.2981 96.9664 36.7821ZM83.3086 42.6766C83.3086 42.6789 83.3086 42.6835 83.3086 42.6858C83.6487 42.6858 83.9933 42.7156 84.331 42.6789C85.0133 42.6078 85.4268 42.2179 85.475 41.5275C85.5279 40.8004 85.1718 40.305 84.4527 40.1835C83.6969 40.055 82.9204 40.039 82.1646 40.2041C81.5259 40.344 81.1882 40.8142 81.2066 41.4426C81.225 42.1055 81.5971 42.5688 82.2863 42.6674C82.6217 42.7156 82.9686 42.6766 83.3086 42.6766ZM96.971 26.5436C96.971 26.8555 96.9526 27.1697 96.9756 27.4816C97.0284 28.2156 97.4695 28.6445 98.1702 28.6949C98.887 28.7477 99.4085 28.3326 99.4981 27.6353C99.59 26.9105 99.5946 26.1514 99.4843 25.4289C99.3763 24.7339 98.8479 24.3624 98.1128 24.4381C97.4236 24.5092 97.0445 24.9266 96.9779 25.6078C96.948 25.9151 96.9733 26.2293 96.971 26.5436Z" fill="#F7F5F5"/>
<path d="M81.138 49.1329C81.2207 48.3485 81.6641 47.8416 82.4429 47.8462C83.2171 47.8508 83.6582 48.3623 83.7615 49.1352C83.7546 58.4127 83.7546 67.6903 83.7271 76.9701C83.7248 77.6834 84.1061 77.6513 84.5955 77.6513C89.2568 77.6444 93.9181 77.6444 98.5794 77.6513C98.9769 77.6513 99.3743 77.6971 99.7718 77.7201C98.7954 78.5114 97.7432 79.2132 96.9644 80.2247C92.8522 80.2247 88.7376 80.2407 84.6253 80.2063C83.8971 80.1994 83.6949 80.4265 83.7271 81.126C83.7845 82.3783 83.7569 83.6352 83.7638 84.8898C83.6513 85.6559 83.2331 86.1811 82.4429 86.1857C81.6457 86.1903 81.2299 85.6673 81.1357 84.8944C81.1449 83.6398 81.1196 82.3829 81.177 81.1329C81.2092 80.438 81.0185 80.2017 80.2833 80.2086C76.1711 80.243 72.0565 80.227 67.9443 80.2293C67.1999 79.2476 66.173 78.571 65.2725 77.7568C65.6286 77.5962 66.0053 77.6536 66.3729 77.6536C71.0089 77.649 75.6473 77.6467 80.2833 77.6581C80.8278 77.6604 81.1793 77.6467 81.177 76.9127C81.1517 67.7407 81.1586 58.5687 81.1563 49.3944C81.1563 49.3049 81.1449 49.2201 81.138 49.1329Z" fill="#F7B84B"/>
<path d="M106.946 57.2316C110.824 53.9403 113.255 49.8096 114.128 44.7981C114.247 44.1124 114.454 43.4059 114.316 42.6858C114.907 42.4702 115.283 42.0642 115.286 41.4243C115.288 40.7821 114.904 40.383 114.323 40.1559C114.227 36.9839 113.298 34.0321 111.734 31.3073C109.636 27.6559 106.671 24.8647 102.862 23.0183C100.771 22.0046 98.5816 21.2936 96.2383 21.1399C96.4014 21.0986 96.5622 21.0275 96.7253 21.0206C98.8343 20.9358 100.932 20.9839 102.995 21.4954C104.219 21.8096 105.418 22.1926 106.572 22.7133C110.305 24.4151 113.301 26.9977 115.508 30.4312C117.45 33.4495 118.502 36.7637 118.665 40.3945C118.858 44.6812 117.859 48.6192 115.614 52.2408C113.827 55.1215 111.451 57.4243 108.492 59.1101C107.92 58.5344 107.079 58.1743 106.946 57.2316Z" fill="#DCE8EF"/>
<path d="M96.9645 80.2247C97.7433 79.2132 98.7955 78.5114 99.7719 77.7201C100.904 77.4197 101.964 76.8394 103.17 76.821C103.193 77.1834 103.523 77.1582 103.739 77.2385C105.43 77.8715 106.857 78.8302 107.969 80.2889C110.422 83.5068 110.108 88.4128 107.277 91.3302C106.021 92.6238 104.472 93.3348 102.827 93.922C98.3935 93.2477 95.3656 89.8279 95.276 85.3853C95.2714 85.2155 95.2576 85.0458 95.2461 84.8761C95.446 83.1857 96.018 81.6353 96.9645 80.2247ZM102.807 82.7889C101.653 83.266 101.077 84.149 101.068 85.3738C101.058 86.6009 101.624 87.4908 102.768 87.9885C103.978 88.5435 105.331 88.2385 106.138 87.227C106.979 86.1765 107.009 84.6972 106.211 83.6674C105.371 82.5779 104.1 82.2499 102.807 82.7889Z" fill="#27467D"/>
<path d="M56.8134 77.7247C57.946 77.4426 58.9958 76.8486 60.1951 76.821C60.2663 77.2454 60.6614 77.1949 60.9302 77.2889C64.3441 78.5022 66.2555 81.0137 66.6713 84.4908C67.071 87.8279 65.6857 90.5343 62.9381 92.5252C62.0444 93.172 60.9555 93.3761 60.0251 93.9266C55.6578 93.4701 52.4415 89.86 52.3634 85.3279C52.3611 85.1857 52.3542 85.0458 52.3496 84.9036C52.5012 83.1972 53.0871 81.6444 54.0359 80.2224C54.8101 79.2247 55.8737 78.5435 56.8134 77.7247ZM59.816 87.9678C61.0106 88.5504 62.327 88.2752 63.1885 87.2591C64.0523 86.2408 64.073 84.7201 63.2689 83.6261C62.6647 82.8027 60.9899 82.0412 59.8528 82.8004C58.711 83.3004 58.1251 84.188 58.1343 85.4174C58.1458 86.6055 58.6995 87.4839 59.816 87.9678Z" fill="#27467D"/>
<path d="M103 21.5C100.937 20.9862 98.8369 20.9403 96.7303 21.0252C96.5671 21.0321 96.404 21.1032 96.2432 21.1445C94.0309 21.2133 91.977 21.9013 89.9554 22.7224C89.9462 21.0412 89.9209 19.3578 89.9347 17.6766C89.9416 16.6399 90.5573 16.0298 91.5911 16.0252C95.1037 16.0137 98.6164 16.0206 102.129 16.0183C102.926 16.7362 103.062 17.6559 103.009 18.6674C102.958 19.6101 102.997 20.555 103 21.5Z" fill="#FECF64"/>
<path d="M60.1862 37.0986C56.5518 37.0986 52.9174 37.1009 49.2807 37.094C48.9407 37.094 48.5892 37.078 48.2653 36.9931C47.6657 36.8349 47.3601 36.3716 47.3555 35.7844C47.3509 35.1927 47.6817 34.7431 48.2653 34.5711C48.5869 34.4771 48.943 34.4656 49.283 34.4656C56.5242 34.461 63.7655 34.461 71.0067 34.461C71.2066 34.461 71.4088 34.4518 71.6063 34.4725C72.4724 34.5642 72.9985 35.0895 72.9733 35.8257C72.948 36.5596 72.3874 37.0803 71.5213 37.0895C69.3182 37.1101 67.1127 37.0963 64.9096 37.0963C63.3336 37.0986 61.7599 37.0986 60.1862 37.0986Z" fill="#2196F3"/>
<path d="M106.946 57.2316C107.08 58.172 107.92 58.5343 108.495 59.1146C108.495 59.4426 108.754 59.6054 108.943 59.8119C111.01 62.0504 113.08 64.2889 115.143 66.5321C115.253 66.6513 115.304 66.8233 115.382 66.9701C114.293 66.9908 113.202 67.0091 112.113 67.0275C111.938 67.0137 111.762 67.0022 111.587 66.9885C111.206 66.0665 110.379 65.4931 109.749 64.7866C106.983 61.6857 104.104 58.6857 101.315 55.6031C100.608 54.821 99.8773 54.0619 99.1582 53.2935C97.8097 51.8486 96.7185 50.1376 94.915 49.1582C95.857 49.1582 96.8035 49.188 97.7431 49.149C98.7011 49.1077 99.473 49.4587 100.102 50.1376C102.117 52.3073 104.116 54.4885 106.131 56.6582C106.356 56.9036 106.549 57.2201 106.946 57.2316Z" fill="#D3EEFA"/>
<path d="M65.0837 30.4382C61.5642 30.4382 58.0447 30.4382 54.5251 30.4359C54.2127 30.4359 53.898 30.4657 53.5947 30.335C52.9928 30.0781 52.7033 29.6354 52.7768 28.984C52.8504 28.3281 53.2363 27.9634 53.8842 27.874C54.0542 27.851 54.2265 27.8579 54.3988 27.8579C61.5527 27.8579 68.7067 27.8556 75.8606 27.8602C76.9197 27.8602 77.5515 28.3648 77.5216 29.1607C77.4917 29.9749 76.8898 30.4313 75.8147 30.4336C72.2377 30.4405 68.6607 30.4382 65.0837 30.4382Z" fill="#2196F3"/>
<path d="M96.9648 80.2248C96.0183 81.6376 95.444 83.1881 95.2487 84.8762C91.4213 84.8808 87.5939 84.8853 83.7665 84.8899C83.7597 83.6353 83.7872 82.3785 83.7298 81.1262C83.6976 80.4266 83.8998 80.1996 84.628 80.2064C88.738 80.2409 92.8526 80.2225 96.9648 80.2248Z" fill="#2196F3"/>
<path d="M67.9443 80.2249C72.0566 80.2249 76.1711 80.2409 80.2834 80.2042C81.0186 80.1974 81.2092 80.4359 81.1771 81.1286C81.1196 82.3809 81.1449 83.6377 81.1357 84.89C77.3106 84.8854 73.4878 84.8809 69.6628 84.874C69.4514 83.1928 68.9069 81.6331 67.9443 80.2249Z" fill="#2196F3"/>
<path d="M67.9447 80.2247C68.9073 81.633 69.4518 83.1926 69.6631 84.8784C69.6493 87.9701 68.5581 90.5504 66.0011 92.4013C64.2184 93.6926 62.2174 94.2064 60.0234 93.9266C60.9539 93.3761 62.0428 93.172 62.9365 92.5252C65.6841 90.5344 67.0694 87.8279 66.6697 84.4908C66.2539 81.0137 64.3425 78.5023 60.9286 77.289C60.6621 77.1949 60.2647 77.2454 60.1934 76.8211C61.9877 76.5711 63.628 77.1697 65.2706 77.7523C66.1734 78.5665 67.2004 79.2431 67.9447 80.2247Z" fill="#22396C"/>
<path d="M102.83 93.922C104.473 93.3326 106.023 92.6239 107.28 91.3303C110.11 88.4129 110.425 83.5069 107.972 80.289C106.86 78.8303 105.433 77.8716 103.742 77.2385C103.526 77.1583 103.195 77.1835 103.172 76.8211C104.914 76.5872 106.51 77.1468 108.1 77.7294C109.065 78.5207 110.115 79.2156 110.878 80.2294C111.822 81.6697 112.431 83.2294 112.552 84.961C112.608 90.5321 108.3 94.5046 102.83 93.922Z" fill="#22396C"/>
<path d="M54.0336 80.2224C53.0871 81.6444 52.5013 83.1972 52.3474 84.9036C51.5341 84.8944 50.7186 84.8875 49.9053 84.8784C49.053 84.8807 48.2007 84.883 47.3484 84.8853C46.2663 84.8807 45.1866 84.883 44.1045 84.8715C43.1603 84.8623 42.71 84.422 42.687 83.4609C42.6618 82.383 42.671 81.3027 42.6641 80.2224C46.4547 80.2247 50.2453 80.2247 54.0336 80.2224Z" fill="#2196F3"/>
<path d="M54.0339 80.2226C50.2433 80.2226 46.455 80.2226 42.6643 80.2249C41.9085 80.0712 41.4192 79.6583 41.4582 78.8418C41.495 78.1193 41.9453 77.7363 42.6506 77.6377C47.0316 77.64 51.4104 77.6423 55.7914 77.6515C56.1314 77.6515 56.4714 77.6996 56.8137 77.7249C55.8741 78.5437 54.8104 79.2249 54.0339 80.2226Z" fill="#2196F3"/>
<path d="M67.4899 42.9955C65.6865 42.9955 63.8831 43.0023 62.0797 42.9932C61.1355 42.9886 60.5657 42.5161 60.5428 41.75C60.5175 40.9565 61.1194 40.4266 62.0958 40.4244C65.7325 40.4175 69.3669 40.4175 73.0036 40.4244C73.9914 40.4266 74.5888 40.9289 74.5957 41.7248C74.6025 42.4955 73.9846 42.9932 72.9898 42.9977C71.1542 43 69.3232 42.9955 67.4899 42.9955Z" fill="#2196F3"/>
<path d="M112.113 67.0322C113.202 67.0138 114.293 66.9932 115.382 66.9749C117.211 68.6469 119.21 70.2249 118.778 73.14C118.008 73.1515 117.236 73.1492 116.467 73.1767C115.759 73.2042 115.04 73.8258 115.029 74.3854C115.01 75.1423 115.587 75.7019 116.467 75.7386C117.236 75.7707 118.008 75.7638 118.778 75.7753C118.789 76.3969 118.803 77.0207 118.815 77.6423C117.494 77.64 116.175 77.64 114.854 77.6377C114.856 75.6079 114.854 73.5781 114.861 71.5482C114.863 70.8992 114.714 70.2937 114.289 69.8005C113.712 69.1308 113.108 68.4863 112.504 67.8395C112.286 67.6056 112.049 67.3969 112.113 67.0322Z" fill="#2196F3"/>
<path d="M42.7006 72.0069C44.8395 72.0046 46.9806 71.9977 49.1194 72C50.0981 72 50.8884 72.6078 50.8976 73.3486C50.9068 74.0871 50.1394 74.711 49.1309 74.7179C46.9921 74.7316 44.8509 74.7179 42.7121 74.7133C42.2756 74.5252 41.8138 74.6491 41.3636 74.6124C40.6146 74.5504 40.2057 74.1055 40.1712 73.4082C40.1368 72.75 40.4906 72.25 41.1775 72.1261C41.676 72.0344 42.1906 72.0413 42.7006 72.0069Z" fill="#2196F3"/>
<path d="M114.852 77.6376C116.173 77.6399 117.492 77.6399 118.813 77.6422C119.527 77.7569 119.975 78.1674 119.993 78.8899C120.014 79.6651 119.525 80.0734 118.799 80.2248C117.485 80.2271 116.168 80.2271 114.854 80.2294C113.529 80.2294 112.203 80.2271 110.875 80.2271C110.112 79.2133 109.06 78.5183 108.098 77.7271C110.349 77.539 112.603 77.7087 114.852 77.6376Z" fill="#F7B84B"/>
<path d="M47.3482 84.8877C48.2005 84.8854 49.0528 84.8832 49.9051 84.8809C49.9097 85.9955 49.9281 87.1125 49.912 88.2272C49.8982 89.1859 49.4387 89.6515 48.4876 89.6607C46.8267 89.6767 45.1657 89.6744 43.5047 89.6607C42.6271 89.6538 42.0734 89.163 42.0459 88.4198C42.0183 87.6469 42.5949 87.1079 43.507 87.0942C44.5959 87.0781 45.6849 87.0689 46.7715 87.101C47.231 87.1148 47.3711 86.9634 47.3436 86.5185C47.3137 85.9749 47.3436 85.429 47.3482 84.8877Z" fill="#22396C"/>
<path d="M102.999 21.5C102.997 20.5551 102.958 19.6101 103.004 18.6697C103.054 17.6583 102.919 16.7385 102.124 16.0206C103.094 16.0161 104.065 15.984 105.035 16.0161C105.958 16.0436 106.583 16.6697 106.595 17.5917C106.613 19.3005 106.585 21.0115 106.576 22.7202C105.423 22.195 104.224 21.8142 102.999 21.5Z" fill="#F7B84B"/>
<path d="M53.8477 42.9953C52.931 42.9953 52.0144 43.0091 51.1001 42.9907C50.2202 42.9747 49.6941 42.4862 49.6895 41.7224C49.6849 40.9586 50.211 40.438 51.084 40.4265C52.8874 40.4059 54.6908 40.4082 56.4942 40.4242C57.4132 40.4334 57.9691 40.9632 57.9554 41.7499C57.9416 42.4885 57.3879 42.977 56.5103 42.9907C55.6235 43.0068 54.7368 42.9953 53.8477 42.9953Z" fill="#2196F3"/>
<path d="M114.857 80.2294C116.171 80.2272 117.487 80.2271 118.801 80.2249C118.797 80.9657 118.81 81.7065 118.78 82.445C118.718 83.9955 117.834 84.8694 116.302 84.8946C115.362 84.9106 114.42 84.8877 113.48 84.8831C114.563 84.1538 115.066 83.1744 114.873 81.8464C114.795 81.3166 114.857 80.7684 114.857 80.2294Z" fill="#2196F3"/>
<path d="M42.6547 50.718C42.6547 51.5735 42.657 52.4291 42.657 53.2846C40.7961 53.2846 38.9375 53.2891 37.0767 53.2823C36.0314 53.2777 35.4157 52.7708 35.4433 51.9566C35.4708 51.1722 36.0567 50.7158 37.0744 50.7135C38.9352 50.7089 40.7938 50.7157 42.6547 50.718Z" fill="#2196F3"/>
<path d="M114.857 80.2293C114.857 80.7683 114.795 81.3165 114.873 81.8463C115.066 83.1766 114.56 84.1537 113.48 84.883C113.186 85.0917 112.862 84.9404 112.555 84.9587C112.433 83.2271 111.824 81.6674 110.88 80.2271C112.203 80.2271 113.531 80.2293 114.857 80.2293Z" fill="#2196F3"/>
<path d="M118.778 75.773C118.008 75.7615 117.236 75.7684 116.467 75.7363C115.589 75.6996 115.013 75.14 115.029 74.3831C115.042 73.8212 115.762 73.1996 116.467 73.1744C117.236 73.1446 118.008 73.1492 118.778 73.1377C119.469 73.2638 119.954 73.6308 119.998 74.3602C120.046 75.1904 119.508 75.5804 118.778 75.773Z" fill="#F06548"/>
<path d="M60.7655 70.9632C59.4262 71.0022 58.5049 70.1031 57.6204 69.1421C57.2667 68.7568 57.6618 68.5802 57.8594 68.3875C59.4147 66.8692 60.9723 65.3531 62.546 63.8554C63.481 62.9655 63.4971 62.977 62.5942 62.094C60.9792 60.5137 59.3641 58.9334 57.733 57.3692C57.4458 57.094 57.4091 56.9036 57.6779 56.5871C59.4951 54.4586 61.9555 54.2408 63.8256 56.243C65.3671 57.8921 67.0649 59.3921 68.6753 60.9747C69.9365 62.2132 69.9457 63.5641 68.7143 64.7935C67.0534 66.4495 65.3809 68.0963 63.7015 69.7339C62.9204 70.4953 62.0038 70.9908 60.7655 70.9632Z" fill="#F7F5F5"/>
<path d="M49.5333 63.7476C48.8762 63.7476 48.2169 63.7591 47.5599 63.7453C46.6294 63.7247 46.085 63.2362 46.085 62.4518C46.0873 61.5619 46.5054 61.1834 47.5231 61.1765C48.8969 61.1697 50.2684 61.1651 51.6423 61.1788C52.5888 61.188 53.1378 61.6651 53.147 62.4449C53.1539 63.2316 52.6071 63.7293 51.679 63.7476C50.9645 63.7614 50.2501 63.7476 49.5333 63.7476Z" fill="#2196F3"/>
<path d="M114.851 77.6376C112.6 77.7087 110.346 77.539 108.097 77.7271C106.505 77.1445 104.911 76.5849 103.167 76.8188C101.961 76.8372 100.902 77.4175 99.7693 77.7179C99.3719 77.695 98.9744 77.6491 98.577 77.6491C93.9157 77.6445 89.2543 77.6422 84.593 77.6491C84.1037 77.6491 83.7246 77.6812 83.7246 76.9679C83.7522 67.6904 83.7522 58.4129 83.7591 49.1331C86.038 49.1445 88.3147 49.156 90.5937 49.1675C90.5983 54.5964 90.5983 60.0253 90.6052 65.4542C90.6075 66.5069 91.0646 67.0023 92.0916 67.0023C98.5885 67.0046 105.085 66.9954 111.582 66.9886C111.757 67.0023 111.934 67.0138 112.108 67.0275C112.042 67.3922 112.281 67.6032 112.499 67.8349C113.101 68.4817 113.707 69.1262 114.284 69.7959C114.711 70.2913 114.858 70.8945 114.856 71.5436C114.851 73.578 114.854 75.6078 114.851 77.6376Z" fill="#1F4C9B"/>
<path d="M111.587 66.9931C105.09 67 98.5934 67.0092 92.0965 67.0069C91.0696 67.0069 90.6124 66.5115 90.6101 65.4587C90.6032 60.0298 90.6009 54.6009 90.5986 49.172C92.0368 49.1697 93.4772 49.1651 94.9153 49.1628C96.7188 50.1422 97.81 51.8532 99.1586 53.2982C99.8776 54.0688 100.608 54.8257 101.316 55.6078C104.102 58.6904 106.983 61.6904 109.749 64.7913C110.379 65.4977 111.206 66.0688 111.587 66.9931Z" fill="#E3F5FE"/>
<path d="M96.9669 36.782C96.9669 35.2981 96.96 33.8141 96.9692 32.3279C96.9761 31.4105 97.4907 30.8233 98.2534 30.8279C99.0115 30.8325 99.5376 31.4219 99.5422 32.3394C99.5537 34.6811 99.5652 37.0206 99.533 39.3623C99.5261 39.9449 99.6548 40.1788 100.28 40.133C101.019 40.0779 101.766 40.0963 102.508 40.1307C103.397 40.1719 103.898 40.6697 103.893 41.438C103.886 42.2109 103.388 42.6857 102.483 42.6995C101.111 42.7224 99.7375 42.7247 98.366 42.6972C97.4126 42.6765 96.9807 42.2086 96.9715 41.2385C96.9577 39.7499 96.9669 38.266 96.9669 36.782Z" fill="#F7B84B"/>
<path d="M114.323 40.1583C114.904 40.3853 115.288 40.7844 115.286 41.4266C115.283 42.0665 114.907 42.4725 114.316 42.6881C113.634 42.6904 112.947 42.7225 112.267 42.6881C111.504 42.6514 111.015 42.1514 110.997 41.461C110.978 40.7753 111.44 40.2133 112.191 40.1537C112.897 40.0986 113.613 40.1537 114.323 40.1583Z" fill="#F7B84B"/>
<path d="M83.3088 42.6766C82.9688 42.6766 82.6219 42.7156 82.2865 42.6675C81.5973 42.5688 81.2251 42.1055 81.2068 41.4427C81.1884 40.8143 81.5284 40.3441 82.1648 40.2042C82.9206 40.039 83.6971 40.0551 84.4529 40.1835C85.172 40.3051 85.5258 40.8005 85.4752 41.5276C85.427 42.2179 85.0135 42.6078 84.3312 42.6789C83.9934 42.7133 83.6488 42.6858 83.3088 42.6858C83.3088 42.6835 83.3088 42.6789 83.3088 42.6766Z" fill="#F7B84B"/>
<path d="M96.9733 26.5435C96.9733 26.2316 96.948 25.9151 96.9802 25.6054C97.0468 24.9265 97.4259 24.5068 98.1151 24.4357C98.8502 24.36 99.3786 24.7316 99.4866 25.4265C99.5969 26.1467 99.5923 26.9082 99.5004 27.633C99.4108 28.3325 98.8893 28.7453 98.1725 28.6926C97.4718 28.6421 97.0307 28.2132 96.9779 27.4793C96.9526 27.1697 96.971 26.8554 96.9733 26.5435Z" fill="#F7B84B"/>
<path d="M102.807 82.789C104.1 82.25 105.368 82.578 106.211 83.6674C107.008 84.6995 106.979 86.1766 106.138 87.2271C105.329 88.2362 103.978 88.5436 102.768 87.9885C105.01 86.7477 105.028 84.3005 102.807 82.789Z" fill="#DCD9EB"/>
<path d="M102.807 82.7891C105.028 84.3005 105.01 86.7478 102.768 87.9886C101.623 87.4909 101.058 86.601 101.067 85.3739C101.077 84.1492 101.653 83.2661 102.807 82.7891Z" fill="#F7F5F5"/>
<path d="M59.8532 82.8004C60.9926 82.0413 62.6674 82.8027 63.2693 83.6261C64.0734 84.7225 64.0527 86.2408 63.1889 87.2592C62.3274 88.2752 61.011 88.5504 59.8164 87.9679C60.9444 87.4587 61.5371 86.516 61.5279 85.3532C61.521 84.2293 60.949 83.3004 59.8532 82.8004Z" fill="#DCD9EB"/>
<path d="M59.853 82.8005C60.9488 83.3005 61.5209 84.2294 61.5301 85.3533C61.5393 86.5161 60.9465 87.4588 59.8185 87.968C58.6997 87.484 58.1461 86.6056 58.1369 85.4198C58.1254 84.1904 58.7112 83.3005 59.853 82.8005Z" fill="#F7F5F5"/>
</g>
<defs>
<clipPath id="clip0_68_341">
<rect width="88" height="78" fill="white" transform="translate(32 16)"/>
</clipPath>
</defs>
</svg>
