<svg width="152" height="110" viewBox="0 0 152 110" fill="none" xmlns="http://www.w3.org/2000/svg">
<rect width="151.161" height="110" rx="16" fill="white"/>
<g clip-path="url(#clip0_68_80)">
<path d="M49.1006 25.2084C59.6312 25.204 70.1619 25.1996 80.6925 25.1974C92.6384 25.1953 104.584 25.2084 116.53 25.1799C117.679 25.1778 118.496 25.5257 118.998 26.5454C118.998 27.1035 118.998 27.6615 118.998 28.2195C118.521 29.5937 118.523 31.0468 118.334 32.4626C117.643 37.6533 117.003 42.8505 116.343 48.0455C115.986 50.864 115.617 53.6804 115.275 56.5011C115.086 58.0526 114.644 58.5843 113.102 58.7922C108.705 59.3853 104.304 59.9477 99.9032 60.5254C94.5512 61.2278 89.2015 61.939 83.8495 62.6415C78.1332 63.392 72.4146 64.1317 66.7005 64.8845C63.899 65.2543 61.102 65.6438 58.3027 66.0268C57.2074 64.7816 56.7808 63.2564 56.4631 61.6961C54.6681 52.8904 52.8796 44.0847 51.0979 35.2768C50.4202 31.9221 49.7671 28.5652 49.1006 25.2084ZM65.9896 56.5864C65.9741 56.4705 65.9496 56.1925 65.903 55.919C65.2454 52.0194 64.5877 48.1221 63.9279 44.2225C63.3725 40.9554 62.8237 37.6883 62.2483 34.4255C62.0417 33.257 61.1753 32.6048 60.1133 32.7427C58.927 32.8959 58.3316 33.9331 58.5737 35.3468C59.4091 40.2311 60.2311 45.1197 61.0575 50.0062C61.453 52.3389 61.8373 54.676 62.2506 57.0066C62.4505 58.1357 63.277 58.7922 64.3056 58.7025C65.3009 58.615 65.9918 57.8141 65.9896 56.5864ZM75.4827 54.7264C75.4694 54.5601 75.4605 54.3916 75.445 54.2253C74.9429 48.7873 74.4563 43.3472 73.9276 37.9115C73.7987 36.5832 73.8165 35.233 73.461 33.9353C73.2411 33.1344 72.5235 32.6442 71.6748 32.6661C70.8639 32.688 70.2796 33.095 69.9664 33.8303C69.7864 34.2504 69.8353 34.7078 69.8753 35.152C70.2241 39.0647 70.5729 42.9796 70.935 46.8901C71.1861 49.6101 71.4349 52.328 71.7304 55.0437C71.8592 56.2297 72.739 56.9519 73.761 56.8425C74.8273 56.7243 75.4983 55.9037 75.4827 54.7264ZM84.9736 43.8658C84.9736 40.9379 84.9714 38.0078 84.9759 35.0798C84.9759 34.6006 84.9381 34.1301 84.727 33.6968C84.3582 32.9353 83.5318 32.5523 82.6831 32.723C81.7123 32.9178 81.1502 33.6377 81.148 34.8282C81.1346 40.8241 81.1324 46.8222 81.148 52.8182C81.1524 54.1355 81.9944 55.024 83.0986 54.9933C84.1938 54.9649 84.9181 54.1224 84.9714 52.8182C84.9781 52.6519 84.9736 52.4834 84.9736 52.3171C84.9736 49.5007 84.9736 46.6844 84.9736 43.8658ZM96.2441 35.1061C96.3019 33.5983 95.6776 32.7558 94.6023 32.6617C93.5248 32.5655 92.6295 33.3204 92.4939 34.5043C91.8674 39.9269 91.252 45.3495 90.6478 50.7743C90.5056 52.0501 91.1587 52.9626 92.2673 53.1311C93.3071 53.2909 94.2313 52.5184 94.4023 51.2426C94.6778 49.1725 94.8978 47.0958 95.1333 45.0213C95.5132 41.6447 95.8886 38.2704 96.2441 35.1061ZM107.612 34.8566C107.63 33.6509 107.177 33.0009 106.33 32.7186C105.242 32.3576 104.211 32.9747 103.88 34.2592C102.638 39.0844 101.416 43.914 100.194 48.7436C100.07 49.2359 100.05 49.7392 100.299 50.2119C100.69 50.9559 101.334 51.3083 102.167 51.247C103.029 51.1835 103.62 50.6102 103.871 49.6254C104.789 46.0388 105.693 42.45 106.601 38.8612C106.961 37.4344 107.321 36.0055 107.612 34.8566Z" fill="#FEC008"/>
<path d="M49.1006 25.2085C49.7648 28.5653 50.418 31.9222 51.0978 35.2768C52.8796 44.0848 54.668 52.8905 56.4631 61.6962C56.7808 63.2565 57.2074 64.7817 58.3027 66.0268C60.2111 68.7141 62.917 69.8804 66.1584 69.8936C73.9742 69.922 81.7922 69.9023 89.608 69.9045C96.093 69.9045 102.58 69.9023 109.065 69.9067C110.612 69.9067 111.476 70.6726 111.382 71.9309C111.32 72.7778 110.705 73.4517 109.847 73.5765C109.514 73.6246 109.17 73.6224 108.83 73.6224C94.7267 73.6246 80.6214 73.5393 66.5183 73.6618C60.0067 73.7187 54.0771 69.4778 52.6996 62.3921C50.0514 48.7721 47.2099 35.1893 44.4484 21.5912C44.2374 20.554 44.0152 19.5167 43.8441 18.4729C43.7508 17.9149 43.5375 17.7004 42.9155 17.7092C40.0829 17.7486 37.2525 17.7267 34.4199 17.7267C33.9955 17.7267 33.5668 17.7376 33.1646 17.5757C32.4582 17.2912 31.9272 16.5034 32.0094 15.7857C32.1027 14.976 32.507 14.3808 33.3401 14.1291C33.6978 14.0219 34.06 14 34.431 14C37.8568 14.0044 41.2848 14 44.7106 14.0044C46.2569 14.0066 46.8434 14.4683 47.1633 15.9738C47.8209 19.0506 48.4563 22.1295 49.1006 25.2085Z" fill="#2156A3"/>
<path d="M54.7061 86.6824C54.6994 81.5224 58.905 77.3777 64.1436 77.3843C69.3712 77.3887 73.6101 81.553 73.6079 86.6802C73.6057 91.7964 69.3401 95.998 64.1459 96.0024C58.9405 96.0045 54.7127 91.8314 54.7061 86.6824Z" fill="#2156A3"/>
<path d="M111.411 86.6736C111.411 91.8183 107.185 95.998 101.978 96.0001C96.788 96.0023 92.518 91.803 92.5069 86.6845C92.4957 81.5639 96.7391 77.3886 101.964 77.3799C107.201 77.3733 111.413 81.5158 111.411 86.6736Z" fill="#2156A3"/>
<path d="M65.9897 56.5866C65.9919 57.8142 65.301 58.6151 64.3057 58.7005C63.277 58.7902 62.4506 58.1337 62.2506 57.0045C61.8374 54.674 61.4531 52.3391 61.0576 50.0042C60.2311 45.1177 59.4091 40.229 58.5738 35.3447C58.3316 33.9333 58.927 32.8938 60.1134 32.7406C61.1731 32.605 62.0418 33.2549 62.2484 34.4235C62.8238 37.6862 63.3726 40.9533 63.928 44.2205C64.59 48.1178 65.2476 52.0174 65.903 55.9169C65.9497 56.1927 65.9763 56.4706 65.9897 56.5866Z" fill="#F9F8F6"/>
<path d="M75.4829 54.7265C75.4984 55.9038 74.8297 56.7266 73.7566 56.8404C72.7347 56.9498 71.8571 56.2277 71.7261 55.0416C71.4306 52.3281 71.1817 49.608 70.9307 46.888C70.5686 42.9753 70.222 39.0626 69.871 35.1499C69.831 34.7057 69.7843 34.2484 69.9621 33.8282C70.2753 33.0929 70.8618 32.6859 71.6705 32.664C72.5192 32.6422 73.2368 33.1323 73.4567 33.9332C73.8122 35.2309 73.7944 36.5811 73.9233 37.9094C74.452 43.3451 74.9386 48.7852 75.4407 54.2232C75.4607 54.3917 75.4718 54.5602 75.4829 54.7265Z" fill="#F9F8F6"/>
<path d="M84.9739 43.8661C84.9739 46.6824 84.9739 49.5009 84.9739 52.3173C84.9739 52.4836 84.9784 52.6521 84.9717 52.8184C84.9206 54.1226 84.1941 54.9629 83.0989 54.9936C81.9947 55.0242 81.1505 54.1358 81.1483 52.8184C81.1305 46.8225 81.1327 40.8243 81.1483 34.8284C81.1505 33.6358 81.7148 32.918 82.6834 32.7232C83.5321 32.5526 84.3585 32.9355 84.7273 33.697C84.9384 34.1303 84.9762 34.6008 84.9762 35.08C84.9717 38.008 84.9739 40.9381 84.9739 43.8661Z" fill="#F9F7F2"/>
<path d="M96.2439 35.1061C95.8884 38.2681 95.513 41.6447 95.1309 45.0212C94.8954 47.0958 94.6754 49.1725 94.3999 51.2426C94.2311 52.5184 93.3069 53.2908 92.2649 53.1311C91.1541 52.9604 90.5032 52.0501 90.6453 50.7743C91.2496 45.3495 91.8673 39.9269 92.4915 34.5043C92.6293 33.3204 93.5246 32.5676 94.5999 32.6617C95.6774 32.758 96.3017 33.6005 96.2439 35.1061Z" fill="#F9F8F6"/>
<path d="M107.612 34.8567C107.321 36.0055 106.961 37.4345 106.601 38.8613C105.693 42.4501 104.788 46.0389 103.871 49.6255C103.618 50.6124 103.029 51.1836 102.167 51.247C101.334 51.3083 100.689 50.956 100.298 50.212C100.05 49.7393 100.07 49.236 100.194 48.7436C101.416 43.9141 102.638 39.0845 103.88 34.2593C104.211 32.9747 105.244 32.3576 106.33 32.7187C107.177 33.0032 107.63 33.6509 107.612 34.8567Z" fill="#F9F8F6"/>
</g>
<defs>
<clipPath id="clip0_68_80">
<rect width="87" height="82" fill="white" transform="translate(32 14)"/>
</clipPath>
</defs>
</svg>
