<svg width="32" height="32" viewBox="0 0 32 32" fill="none" xmlns="http://www.w3.org/2000/svg">
<rect width="32" height="32" rx="4" fill="#EAF1FF"/>
<path d="M7 13.057V20.5C7 21.2956 7.31607 22.0587 7.87868 22.6213C8.44129 23.1839 9.20435 23.5 10 23.5H22C22.7956 23.5 23.5587 23.1839 24.1213 22.6213C24.6839 22.0587 25 21.2956 25 20.5V11.5C25 10.7044 24.6839 9.94129 24.1213 9.37868C23.5587 8.81607 22.7956 8.5 22 8.5H10C9.20435 8.5 8.44129 8.81607 7.87868 9.37868C7.31607 9.94129 7 10.7044 7 11.5V13.057ZM10 10H22C22.3978 10 22.7794 10.158 23.0607 10.4393C23.342 10.7206 23.5 11.1022 23.5 11.5V12.61L16 16.648L8.5 12.61V11.5C8.5 11.1022 8.65804 10.7206 8.93934 10.4393C9.22064 10.158 9.60218 10 10 10ZM8.5 14.314L15.6445 18.16C15.7538 18.2188 15.8759 18.2496 16 18.2496C16.1241 18.2496 16.2462 18.2188 16.3555 18.16L23.5 14.314V20.5C23.5 20.8978 23.342 21.2794 23.0607 21.5607C22.7794 21.842 22.3978 22 22 22H10C9.60218 22 9.22064 21.842 8.93934 21.5607C8.65804 21.2794 8.5 20.8978 8.5 20.5V14.314Z" fill="#1F4C9B"/>
</svg>
