<svg width="32" height="32" viewBox="0 0 32 32" fill="none" xmlns="http://www.w3.org/2000/svg">
<rect width="32" height="32" rx="4" fill="#EAF1FF"/>
<mask id="mask0_154_786" style="mask-type:alpha" maskUnits="userSpaceOnUse" x="4" y="4" width="24" height="24">
<rect x="4" y="4" width="24" height="24" fill="#D9D9D9"/>
</mask>
<g mask="url(#mask0_154_786)">
<path d="M16 26C14.2333 26 12.7917 25.7208 11.675 25.1625C10.5583 24.6042 10 23.8833 10 23C10 22.4167 10.2417 21.9083 10.725 21.475C11.2083 21.0417 11.875 20.7 12.725 20.45L13.3 22.35C13.0167 22.4333 12.7583 22.5375 12.525 22.6625C12.2917 22.7875 12.1333 22.9 12.05 23C12.2667 23.2667 12.7667 23.5 13.55 23.7C14.3333 23.9 15.15 24 16 24C16.85 24 17.6708 23.9 18.4625 23.7C19.2542 23.5 19.7583 23.2667 19.975 23C19.8917 22.9 19.7333 22.7875 19.5 22.6625C19.2667 22.5375 19.0083 22.4333 18.725 22.35L19.3 20.45C20.15 20.7 20.8125 21.0417 21.2875 21.475C21.7625 21.9083 22 22.4167 22 23C22 23.8833 21.4417 24.6042 20.325 25.1625C19.2083 25.7208 17.7667 26 16 26ZM16 19.325C16.3 18.775 16.6167 18.2708 16.95 17.8125C17.2833 17.3542 17.6083 16.9167 17.925 16.5C18.5417 15.7 19.0333 14.9792 19.4 14.3375C19.7667 13.6958 19.95 12.9 19.95 11.95C19.95 10.85 19.5667 9.91667 18.8 9.15C18.0333 8.38333 17.1 8 16 8C14.9 8 13.9667 8.38333 13.2 9.15C12.4333 9.91667 12.05 10.85 12.05 11.95C12.05 12.9 12.2333 13.6958 12.6 14.3375C12.9667 14.9792 13.4583 15.7 14.075 16.5C14.3917 16.9167 14.7167 17.3542 15.05 17.8125C15.3833 18.2708 15.7 18.775 16 19.325ZM16 23C15.8167 23 15.65 22.9458 15.5 22.8375C15.35 22.7292 15.2417 22.5833 15.175 22.4C14.7917 21.2167 14.3083 20.225 13.725 19.425C13.1417 18.625 12.575 17.8583 12.025 17.125C11.4917 16.3917 11.0292 15.6333 10.6375 14.85C10.2458 14.0667 10.05 13.1 10.05 11.95C10.05 10.2833 10.625 8.875 11.775 7.725C12.925 6.575 14.3333 6 16 6C17.6667 6 19.075 6.575 20.225 7.725C21.375 8.875 21.95 10.2833 21.95 11.95C21.95 13.1 21.7583 14.0667 21.375 14.85C20.9917 15.6333 20.525 16.3917 19.975 17.125C19.4417 17.8583 18.8792 18.625 18.2875 19.425C17.6958 20.225 17.2083 21.2167 16.825 22.4C16.7583 22.5833 16.65 22.7292 16.5 22.8375C16.35 22.9458 16.1833 23 16 23ZM16 14.075C16.5833 14.075 17.0833 13.8667 17.5 13.45C17.9167 13.0333 18.125 12.5333 18.125 11.95C18.125 11.3667 17.9167 10.8667 17.5 10.45C17.0833 10.0333 16.5833 9.825 16 9.825C15.4167 9.825 14.9167 10.0333 14.5 10.45C14.0833 10.8667 13.875 11.3667 13.875 11.95C13.875 12.5333 14.0833 13.0333 14.5 13.45C14.9167 13.8667 15.4167 14.075 16 14.075Z" fill="#1F4C9B"/>
</g>
</svg>
