<svg width="152" height="110" viewBox="0 0 152 110" fill="none" xmlns="http://www.w3.org/2000/svg">
<rect width="151.161" height="110" rx="16" fill="white"/>
<g clip-path="url(#clip0_60_50)">
<path d="M42.851 29.033C45.2593 26.9221 48.034 25.6441 51.23 25.254C52.3001 25.1248 53.363 25.0817 54.4308 25.1032C54.8928 25.1128 55.1226 24.907 55.3261 24.524C56.3197 22.6429 57.6531 20.9916 59.1398 19.5029C61.7301 16.9086 64.749 14.9366 68.1987 13.6227C71.445 12.3877 74.8038 11.8181 78.2416 12.0503C83.5347 12.4069 88.2916 14.2282 92.4357 17.6123C96.2709 20.7451 98.9617 24.6652 100.633 29.2915C101.176 30.7944 101.605 32.3477 101.779 33.9488C101.856 34.6476 102.115 34.8917 102.883 34.9755C107.046 35.423 110.202 37.4094 112.038 41.2722C114.01 45.4245 113.565 49.3902 111.104 53.1955C111.056 53.2673 110.984 53.3247 110.925 53.387C110.865 53.4492 110.805 53.509 110.743 53.5712L110.747 53.5688C110.297 53.5186 109.955 53.7962 109.582 53.9685C108.301 54.5621 106.96 54.9737 105.552 54.9857C101.914 55.0216 98.2747 54.9952 94.6334 54.9928C94.4036 53.9159 94.0181 53.5784 92.9671 53.5665C92.0814 53.5569 91.1956 53.5593 90.3098 53.5569C90.3122 52.6068 90.3122 51.6566 90.3146 50.7089C90.8173 50.7065 91.3201 50.6993 91.8228 50.6993C94.5568 50.6993 94.6956 50.5581 94.5999 47.8417C94.607 44.5917 94.6166 41.344 94.6166 38.0939C94.6166 36.8638 94.1211 36.3779 92.8714 36.3755C88.8159 36.3708 84.7581 36.3708 80.7026 36.3755C72.9197 36.3803 65.1344 36.3875 57.3515 36.3947C56.9349 36.3875 56.516 36.3708 56.0994 36.3779C55.0197 36.3947 54.4978 36.8925 54.4954 37.9575C54.4858 41.6838 54.4858 45.4102 54.4954 49.1341C54.4978 50.1919 55.0269 50.6849 56.1138 50.6993C57.0091 50.7089 57.9021 50.7065 58.7975 50.7089C58.7998 51.659 58.7998 52.6091 58.8022 53.5569C58.3186 53.5665 57.8351 53.5736 57.3515 53.5832C56.9708 53.576 56.5878 53.5832 56.2071 53.5617C55.283 53.5066 54.6893 53.8943 54.4739 54.8134C50.9738 54.7009 48.0388 53.1931 45.5251 50.9171C42.4919 48.1696 40.7921 44.6946 40.3037 40.5901C39.8584 36.8518 40.6221 33.4199 42.432 30.1578C42.6187 29.8347 43.155 29.5619 42.851 29.033ZM81.6195 21.1567C80.1041 21.1567 79.7091 21.3577 79.5822 22.2026C79.4027 23.3825 79.9605 24.0095 81.3849 24.0095C85.177 24.0071 88.6747 27.159 89.2636 30.8806C89.4384 31.9935 90.001 32.3979 91.0471 32.2543C91.8851 32.1394 92.2561 31.5004 92.1077 30.4187C91.4278 25.4502 86.5704 21.1591 81.6195 21.1567Z" fill="#E0F0FE"/>
<path d="M90.3124 53.5616C91.1982 53.564 92.0839 53.5593 92.9697 53.5712C94.0207 53.5832 94.4061 53.9182 94.636 54.9976C94.636 55.9573 94.6384 56.9194 94.6384 57.8791C94.624 60.2652 94.6096 62.6513 94.5977 65.035C82.7784 65.0326 70.9592 65.0302 59.14 65.0278C57.8352 65.0278 57.366 64.5588 57.3636 63.2544C57.3588 60.0331 57.3588 56.8093 57.3564 53.588C57.84 53.5784 58.3236 53.5712 58.8072 53.5616C69.3097 53.5616 79.8099 53.5616 90.3124 53.5616ZM78.8642 62.1631C81.1577 62.1631 83.4535 62.1655 85.747 62.1607C86.8339 62.1583 87.4324 61.6629 87.4563 60.7702C87.4803 59.8392 86.8602 59.3007 85.7374 59.2983C81.1481 59.2959 76.5588 59.2959 71.9695 59.2983C70.885 59.2983 70.2841 59.7961 70.2602 60.6888C70.2362 61.6246 70.8515 62.1583 71.9767 62.1607C74.2749 62.1655 76.5684 62.1631 78.8642 62.1631ZM63.8035 62.1631C64.5169 62.1631 65.2327 62.1822 65.9462 62.1583C66.8487 62.1272 67.4113 61.5408 67.3921 60.6936C67.373 59.8847 66.8248 59.3199 65.9605 59.3055C64.5313 59.2816 63.1021 59.2816 61.6752 59.3055C60.7727 59.3199 60.2101 59.9206 60.2293 60.7678C60.2484 61.5767 60.7966 62.1272 61.6609 62.1583C62.3743 62.1822 63.0901 62.1631 63.8035 62.1631Z" fill="#95CFFE"/>
<path d="M77.4211 67.9046C77.4211 69.0677 77.4737 70.2356 77.4067 71.3963C77.3636 72.1095 77.627 72.2077 78.259 72.2053C87.2748 72.1861 96.293 72.1909 105.309 72.1909C107.15 72.1909 107.523 72.5571 107.523 74.3688C107.523 75.0557 107.545 75.7425 107.514 76.427C107.473 77.303 106.817 77.9276 106.027 77.8917C105.259 77.8582 104.708 77.2575 104.658 76.4007C104.579 75.0485 104.579 75.0485 103.214 75.0485C94.9428 75.0485 86.6739 75.0628 78.4026 75.0269C77.5575 75.0222 77.299 75.2758 77.4187 76.0584C77.4498 76.2619 77.4354 76.4773 77.4043 76.6831C77.287 77.4633 76.6741 77.9826 75.9128 77.9276C75.1132 77.8702 74.6751 77.4035 74.5674 76.6257C74.498 76.1302 74.7901 75.4625 74.4453 75.1705C74.0407 74.8283 73.3608 75.0557 72.803 75.0557C64.7113 75.0485 56.6219 75.0509 48.5302 75.0509C47.3547 75.0509 47.3427 75.0509 47.3427 76.2044C47.3427 76.7022 47.2709 77.1617 46.8927 77.5136C46.4929 77.8821 46.0189 78.0305 45.4874 77.851C44.8937 77.6524 44.513 77.2264 44.4891 76.6041C44.4484 75.5606 44.4292 74.5124 44.4963 73.4713C44.5441 72.7366 45.0397 72.2986 45.7818 72.2005C46.0452 72.167 46.3181 72.1885 46.5862 72.1885C55.6021 72.1885 64.6203 72.1789 73.6361 72.2053C74.3472 72.2077 74.6344 72.0904 74.5818 71.303C74.5052 70.1734 74.565 69.0366 74.565 67.9022C75.513 67.9046 76.4683 67.9046 77.4211 67.9046Z" fill="#0F4C7F"/>
<path d="M54.4671 95.1161C54.6227 97.4376 54.5006 98.0335 51.7595 97.9976C46.1264 97.9234 40.4932 97.9761 34.8601 97.9761C33.4333 97.9761 33 97.5429 33 96.1189C33 91.6794 33 87.2398 33 82.8027C33 81.1442 33.3687 80.7828 35.0588 80.79C35.327 80.79 35.5951 80.8091 35.8608 80.8187C35.8632 82.3982 35.9111 83.9778 35.8465 85.5526C35.813 86.3663 36.0931 86.541 36.8591 86.5362C42.7293 86.5075 48.597 86.5219 54.4671 86.5243C54.4671 87.4768 54.4671 88.4269 54.4671 89.3794C48.6185 89.3818 42.77 89.401 36.9214 89.3627C36.038 89.3579 35.7842 89.6259 35.8513 90.4708C35.9231 91.3898 35.8656 92.3184 35.868 93.2446C35.8704 94.6734 36.3061 95.1113 37.7282 95.1137C43.3062 95.1137 48.8866 95.1137 54.4671 95.1161Z" fill="#51A2E9"/>
<path d="M86.7123 95.1162C86.8679 97.4401 86.7434 98.0336 84.0047 97.9977C78.3716 97.9235 72.7385 97.9761 67.1054 97.9761C65.6761 97.9761 65.2452 97.5454 65.2452 96.119C65.2428 91.6794 65.2452 87.2399 65.2452 82.8004C65.2452 81.1418 65.6139 80.7805 67.3041 80.7876C67.5722 80.7876 67.8403 80.8068 68.106 80.8164C68.1084 82.3959 68.1563 83.9755 68.0917 85.5503C68.0582 86.364 68.3383 86.5387 69.1043 86.5339C74.9745 86.5052 80.8422 86.5195 86.7123 86.5219C86.7123 87.4745 86.7123 88.4246 86.7123 89.3771C80.8637 89.3795 75.0152 89.3986 69.1666 89.3627C68.2832 89.358 68.0294 89.626 68.0965 90.4708C68.1683 91.3899 68.1108 92.3184 68.1132 93.2446C68.1156 94.6734 68.5513 95.1114 69.9734 95.1138C75.5514 95.1138 81.1319 95.1138 86.7123 95.1162Z" fill="#51A2E9"/>
<path d="M118.957 86.5219C118.957 87.4744 118.957 88.4245 118.957 89.377C113.108 89.3794 107.26 89.3986 101.411 89.3627C100.528 89.3579 100.274 89.6259 100.341 90.4708C100.413 91.3898 100.356 92.3184 100.358 93.2446C100.36 94.6734 100.796 95.1113 102.218 95.1137C107.798 95.1161 113.379 95.1185 118.959 95.1185C119.115 97.4424 118.988 98.0359 116.252 98C110.619 97.9258 104.986 97.9785 99.3524 97.9785C97.9256 97.9785 97.4923 97.5453 97.4923 96.1213C97.4899 91.6818 97.4923 87.2422 97.4923 82.8027C97.4923 81.1442 97.8609 80.7828 99.5511 80.79C99.8192 80.79 100.087 80.8091 100.353 80.8187C100.356 82.3958 100.403 83.9778 100.339 85.5526C100.305 86.3663 100.585 86.541 101.351 86.5362C107.219 86.5027 113.089 86.5195 118.957 86.5219Z" fill="#51A2E9"/>
<path d="M77.4207 67.9046C76.4679 67.9046 75.5151 67.9046 74.5623 67.9046C68.515 67.9022 62.4678 67.8974 56.4205 67.8926C54.9171 67.8926 54.5005 67.481 54.4981 66.0067C54.4909 63.2975 54.4837 60.5883 54.4766 57.8791C54.479 56.8596 54.479 55.8377 54.4814 54.8181C54.6968 53.8991 55.2905 53.5114 56.2146 53.5665C56.5953 53.588 56.9759 53.5808 57.3589 53.588C57.3613 56.8093 57.3613 60.0331 57.3661 63.2544C57.3685 64.5588 57.8354 65.0279 59.1425 65.0279C70.9617 65.0326 82.7809 65.0326 94.6002 65.035C94.751 67.3852 94.6026 67.9548 91.8901 67.9141C87.0662 67.8423 82.2423 67.8998 77.4207 67.9046Z" fill="#7CC2FE"/>
<path d="M54.4789 54.8158C54.4765 55.8353 54.4765 56.8572 54.4741 57.8768C51.4145 58.006 48.4867 57.5202 45.7766 56.0172C41.4626 53.6239 38.755 49.9814 37.6921 45.2116C36.598 40.291 37.5221 35.7031 40.505 31.5866C41.1849 30.6485 41.9103 29.7414 42.8512 29.0354C43.1552 29.5643 42.6189 29.8371 42.437 30.165C40.6271 33.4247 39.8634 36.8566 40.3087 40.5973C40.7971 44.7018 42.4968 48.1768 45.5301 50.9243C48.0438 53.1979 50.9788 54.7057 54.4789 54.8158Z" fill="#CEE8FD"/>
<path d="M54.4667 95.1161C48.8862 95.1137 43.3058 95.1137 37.7254 95.1114C36.3033 95.1114 35.8676 94.671 35.8652 93.2422C35.8628 92.3184 35.9203 91.3874 35.8485 90.4684C35.7838 89.6236 36.0352 89.3531 36.9186 89.3603C42.7672 89.3986 48.6157 89.3771 54.4643 89.3771C54.4667 91.2893 54.4667 93.2015 54.4667 95.1161Z" fill="#67AEEC"/>
<path d="M86.7118 95.1161C81.1314 95.1137 75.5509 95.1137 69.9705 95.1114C68.5484 95.1114 68.1127 94.671 68.1103 93.2422C68.108 92.3184 68.1654 91.3874 68.0936 90.4684C68.0289 89.6236 68.2803 89.3531 69.1637 89.3603C75.0123 89.3986 80.8608 89.3771 86.7094 89.3747C86.7118 91.2893 86.7118 93.2015 86.7118 95.1161Z" fill="#67AEEC"/>
<path d="M118.957 95.1161C113.376 95.1137 107.796 95.1137 102.216 95.1114C100.794 95.1114 100.358 94.671 100.355 93.2422C100.353 92.3184 100.411 91.3874 100.339 90.4684C100.274 89.6236 100.525 89.3531 101.409 89.3603C107.257 89.3986 113.106 89.3771 118.955 89.3747C118.957 91.2893 118.957 93.2015 118.957 95.1161Z" fill="#67AEEC"/>
<path d="M54.467 86.5218C48.5969 86.5195 42.7292 86.5051 36.8591 86.5338C36.0906 86.5386 35.8129 86.3639 35.8464 85.5502C35.9111 83.9754 35.8632 82.3934 35.8608 80.8163C37.9484 80.8067 40.0383 80.7995 42.1259 80.7876C42.5712 80.7852 42.9327 80.9623 43.2511 81.2542C43.5384 81.5151 43.8903 81.7257 44.1129 82.0321C45.2022 83.5255 46.6841 83.827 48.4269 83.6762C49.7891 83.559 51.1705 83.6523 52.5446 83.6523C54.0672 83.6547 54.4982 84.0879 54.4958 85.6292C54.4958 85.9259 54.4766 86.2227 54.467 86.5218Z" fill="#67AEEC"/>
<path d="M86.7122 86.5219C80.842 86.5195 74.9743 86.5051 69.1042 86.5339C68.3357 86.5386 68.058 86.3639 68.0915 85.5502C68.1562 83.9754 68.1083 82.3935 68.1059 80.8163C70.1648 80.8067 72.2236 80.802 74.2825 80.7852C74.7589 80.7804 75.1539 80.936 75.4986 81.2543C75.7835 81.5175 76.1354 81.7282 76.3581 82.0321C77.4497 83.5231 78.9316 83.8247 80.6721 83.6763C82.0343 83.559 83.4156 83.6524 84.7874 83.6524C86.31 83.6547 86.7409 84.0903 86.7385 85.6292C86.7409 85.926 86.7217 86.2227 86.7122 86.5219Z" fill="#67AEEC"/>
<path d="M118.957 86.5218C113.087 86.5195 107.219 86.5051 101.349 86.5338C100.581 86.5386 100.303 86.3639 100.337 85.5502C100.401 83.9754 100.353 82.3934 100.351 80.8163C102.439 80.8067 104.529 80.7995 106.616 80.7876C107.061 80.7852 107.423 80.9623 107.741 81.2542C108.026 81.5151 108.381 81.7257 108.603 82.0321C109.714 83.5685 111.241 83.827 113.006 83.6762C114.339 83.5614 115.689 83.6523 117.032 83.6547C118.555 83.6571 118.986 84.0903 118.984 85.6316C118.986 85.9259 118.967 86.2227 118.957 86.5218Z" fill="#67AEEC"/>
<path d="M94.6381 57.8767C94.6381 56.917 94.6357 55.9549 94.6357 54.9952C98.2746 54.9976 101.916 55.024 105.555 54.9881C106.963 54.9737 108.303 54.5621 109.584 53.9709C109.957 53.7986 110.3 53.521 110.75 53.5712C109.175 55.8784 106.9 57.0917 104.243 57.6829C102.541 58.061 100.812 57.8145 99.0958 57.86C97.6115 57.8959 96.1248 57.8743 94.6381 57.8767Z" fill="#CEE8FD"/>
<path d="M110.745 53.5712C110.805 53.509 110.865 53.4491 110.927 53.3869C110.867 53.4491 110.807 53.5114 110.745 53.5712Z" fill="#CEE8FD"/>
<path d="M57.3564 36.3971C65.1394 36.3899 72.9247 36.3827 80.7076 36.378C84.7631 36.3756 88.8209 36.3756 92.8764 36.378C94.126 36.3803 94.6216 36.8638 94.6216 38.0963C94.6216 41.3464 94.6096 44.5941 94.6048 47.8441C82.7832 47.8418 70.964 47.8394 59.1424 47.837C57.8352 47.837 57.3684 47.3679 57.366 46.0659C57.3588 42.8422 57.3588 39.6185 57.3564 36.3971ZM78.8499 42.1075C76.5564 42.1075 74.2629 42.1027 71.9695 42.1099C70.8874 42.1122 70.2841 42.6148 70.2625 43.5027C70.241 44.4289 70.8658 44.9698 71.9862 44.9698C76.5732 44.9746 81.1601 44.9746 85.747 44.9698C86.8291 44.9698 87.4324 44.4648 87.4539 43.5745C87.4755 42.6507 86.8506 42.1099 85.7302 42.1075C83.4368 42.1027 81.1433 42.1075 78.8499 42.1075ZM63.7485 44.9722C64.4619 44.9722 65.1777 44.9866 65.8911 44.9674C66.8152 44.9435 67.385 44.3978 67.3945 43.5578C67.4041 42.7154 66.8391 42.1266 65.9294 42.1122C64.5313 42.0883 63.1332 42.0931 61.7351 42.1099C60.8086 42.1218 60.2436 42.6771 60.2317 43.5171C60.2221 44.393 60.8062 44.9459 61.7854 44.9674C62.4389 44.9842 63.0925 44.9722 63.7485 44.9722Z" fill="#95CFFE"/>
<path d="M57.3564 36.3971C57.3588 39.6208 57.3588 42.8422 57.3636 46.0659C57.366 47.3703 57.8328 47.837 59.1399 47.837C70.9616 47.8418 82.7832 47.8418 94.6024 47.8441C94.6982 50.5605 94.5593 50.7017 91.8253 50.7017C91.3226 50.7017 90.8199 50.7065 90.3171 50.7113C79.8122 50.7113 69.3073 50.7113 58.8024 50.7113C57.907 50.7089 57.0141 50.7113 56.1187 50.7017C55.0294 50.6898 54.5027 50.1943 54.5003 49.1365C54.4908 45.4102 54.4908 41.6839 54.5003 37.9599C54.5027 36.8949 55.0246 36.3947 56.1043 36.3804C56.5209 36.3732 56.9374 36.3899 57.3564 36.3971Z" fill="#7CC2FE"/>
<path d="M58.8027 50.7113C69.3076 50.7113 79.8126 50.7113 90.3175 50.7113C90.3151 51.6614 90.3151 52.6116 90.3127 53.5617C79.8102 53.5617 69.31 53.5617 58.8075 53.5617C58.8051 52.6116 58.8051 51.6614 58.8027 50.7113Z" fill="#0E4B7F"/>
<path d="M81.6199 21.1567C86.5707 21.1591 91.4305 25.4502 92.108 30.4187C92.2565 31.5004 91.8854 32.1371 91.0475 32.2543C90.0037 32.3979 89.4411 31.9935 89.264 30.8806C88.675 27.1566 85.1774 24.0071 81.3853 24.0095C79.9632 24.0095 79.4054 23.3824 79.5826 22.2026C79.7095 21.3577 80.1045 21.1543 81.6199 21.1567Z" fill="#CDE8FD"/>
<path d="M78.8646 62.1631C76.5711 62.1631 74.2753 62.1655 71.9818 62.1607C70.8543 62.1583 70.2414 61.6246 70.2653 60.6888C70.2869 59.7961 70.8878 59.2983 71.9746 59.2983C76.564 59.2935 81.1533 59.2935 85.7426 59.2983C86.8654 59.2983 87.4854 59.8392 87.4615 60.7702C87.4376 61.6629 86.8391 62.1583 85.7522 62.1607C83.4539 62.1655 81.1581 62.1631 78.8646 62.1631Z" fill="#67AFEC"/>
<path d="M63.8032 62.1631C63.0898 62.1631 62.374 62.1822 61.6606 62.1583C60.7964 62.1272 60.2481 61.5767 60.229 60.7678C60.2098 59.9206 60.7724 59.3198 61.675 59.3055C63.1042 59.2816 64.5334 59.2816 65.9602 59.3055C66.8245 59.3198 67.3727 59.8847 67.3919 60.6936C67.411 61.5408 66.8484 62.1272 65.9459 62.1583C65.2325 62.1822 64.5191 62.1631 63.8032 62.1631Z" fill="#67AFEC"/>
<path d="M78.8505 42.1075C81.144 42.1075 83.4375 42.1027 85.7309 42.1099C86.8513 42.1122 87.4762 42.6531 87.4546 43.5769C87.4331 44.4672 86.8298 44.9698 85.7477 44.9722C81.1608 44.977 76.5738 44.977 71.9869 44.9722C70.8665 44.9722 70.2417 44.4289 70.2632 43.5051C70.2848 42.6172 70.8881 42.1146 71.9702 42.1122C74.2636 42.1027 76.5571 42.1075 78.8505 42.1075Z" fill="#51A3E9"/>
<path d="M63.7484 44.9722C63.0949 44.9722 62.4389 44.9842 61.7853 44.9698C60.8062 44.9483 60.2197 44.3954 60.2316 43.5195C60.2412 42.6795 60.8086 42.1242 61.7351 42.1122C63.1332 42.0931 64.5313 42.0907 65.9294 42.1146C66.8391 42.129 67.4041 42.7154 67.3945 43.5602C67.3849 44.4002 66.8152 44.9459 65.8911 44.9698C65.1753 44.9866 64.4618 44.9722 63.7484 44.9722Z" fill="#51A3E9"/>
</g>
<defs>
<clipPath id="clip0_60_50">
<rect width="86" height="86" fill="white" transform="translate(33 12)"/>
</clipPath>
</defs>
</svg>
