<svg width="152" height="110" viewBox="0 0 152 110" fill="none" xmlns="http://www.w3.org/2000/svg">
<rect width="151.161" height="110" rx="16" fill="white"/>
<g clip-path="url(#clip0_60_20)">
<path d="M37.1545 59.6404C37.1415 58.6115 37.1285 57.5826 37.1181 56.5511C46.4531 56.5511 55.7882 56.5511 65.1233 56.5537C65.1207 57.5204 65.2324 58.5027 65.0973 59.4512C64.7595 61.794 65.4273 63.66 67.4096 65.0129C68.1215 65.5001 68.2488 66.1895 68.2462 67.0214C68.228 72.5649 68.2566 78.1084 68.2696 83.652C68.1839 83.7764 68.0981 83.9008 68.0098 84.0252C65.6533 86.2566 64.7907 88.9856 65.261 92.1733C65.5883 94.3762 66.7211 96.1307 68.2488 97.6779C68.2904 98.7535 67.7864 99.4895 66.8328 99.9456C61.4625 99.956 56.0896 99.969 50.7193 99.9741C45.9621 99.9793 41.2049 99.9767 36.4504 99.9741C34.7148 99.9741 34.0159 99.2925 34.0133 97.5924C34.0107 87.2647 34.0159 76.937 34.0029 66.6093C34.0029 66.091 34.1121 65.6971 34.507 65.3316C35.4059 64.4945 36.2607 63.6134 37.1337 62.7478C43.7069 62.7478 50.2802 62.7452 56.8534 62.7452C58.906 62.7452 58.8488 62.7426 58.9216 60.7211C58.9553 59.7622 58.5838 59.6248 57.7498 59.6274C50.8856 59.6533 44.0213 59.6404 37.1545 59.6404ZM44.6137 84.445C45.8426 84.5098 47.2352 84.1133 47.8068 84.6368C48.4615 85.2355 47.9601 86.6427 48.0042 87.6949C48.0354 88.4698 48.0406 89.2473 48.0016 90.0196C47.9756 90.5302 48.1471 90.6831 48.6564 90.6753C50.275 90.6468 51.8962 90.6313 53.5123 90.6805C54.154 90.6986 54.2527 90.455 54.2423 89.8978C54.2086 88.3169 54.2527 86.7334 54.2189 85.1499C54.206 84.5979 54.3722 84.4346 54.9256 84.445C56.5443 84.4787 58.1629 84.4424 59.7815 84.4657C60.257 84.4735 60.4752 84.3802 60.4622 83.836C60.4285 82.1903 60.4311 80.542 60.4622 78.8937C60.4726 78.3831 60.3167 78.1758 59.8049 78.2458C59.6464 78.2665 59.4827 78.251 59.3191 78.2484C57.6693 78.2354 56.0194 78.2225 54.3722 78.2095C54.0579 76.5535 54.3151 74.8818 54.2319 73.2206C54.2241 73.0599 54.2111 72.8941 54.2345 72.736C54.3151 72.1839 54.089 72.0181 53.5356 72.031C51.9508 72.0647 50.3607 72.0803 48.7759 72.0259C48.0952 72.0025 47.9834 72.2617 47.9964 72.8578C48.0328 74.4076 47.9808 75.96 48.0224 77.5072C48.038 78.1084 47.8665 78.2795 47.2638 78.2613C45.84 78.2173 44.411 78.3028 42.9898 78.2277C42.0623 78.1784 41.6154 78.3624 41.7661 79.4043C41.8623 80.0677 41.7765 80.7571 41.7869 81.4361C41.7999 82.4002 41.4518 83.6857 41.9376 84.2455C42.504 84.8985 43.8264 84.4035 44.6137 84.445Z" fill="#F06548"/>
<path d="M102.445 10.0311C106.947 10.0208 111.45 10 115.953 10.0078C117.187 10.0104 117.935 10.7853 117.992 12.0034C118.003 12.2288 117.995 12.4569 117.995 12.6824C117.995 40.8613 117.995 69.0429 117.995 97.2218C117.995 99.4065 117.428 99.9741 115.241 99.9741C102.541 99.9741 89.8388 99.9767 77.1392 99.9663C76.7001 99.9663 76.235 100.104 75.8193 99.8264C76.6455 99.7797 77.4146 99.5309 78.1499 99.1733C79.2359 98.7975 80.1764 98.2092 80.9039 97.3073C82.4731 95.9519 83.224 94.1533 83.6865 92.1992C92.7877 92.207 101.889 92.2044 110.988 92.2329C111.653 92.2355 111.783 92.0022 111.783 91.3958C111.77 67.1354 111.77 42.875 111.785 18.6147C111.785 17.946 111.616 17.7309 110.925 17.7413C108.109 17.7776 105.29 17.7568 102.474 17.7542C102.466 15.1781 102.455 12.6046 102.445 10.0311Z" fill="#2196F3"/>
<path d="M65.123 56.5537C55.7879 56.5537 46.4528 56.5537 37.1178 56.5511C36.7306 56.5459 36.3409 56.5537 35.9538 56.5304C34.8314 56.463 34.039 55.7347 34.026 54.6255C33.9922 51.754 33.987 48.8798 34.0286 46.0083C34.0468 44.8006 34.9016 44.1294 36.2708 44.1268C41.3839 44.1216 46.497 44.1242 51.6101 44.1242C51.966 44.1242 52.322 44.1034 52.6753 44.0931C54.7486 44.0931 56.8219 44.0931 58.8952 44.0931C61.2881 44.1034 63.681 44.106 66.0739 44.1294C67.3547 44.1397 68.1939 44.8343 68.2121 46.0135C68.2511 48.885 68.2485 51.7566 68.2147 54.6281C68.2017 55.7373 67.4067 56.4656 66.2869 56.5304C65.8998 56.5563 65.5101 56.5485 65.123 56.5537Z" fill="#F7B84B"/>
<path d="M102.445 10.0311C102.455 12.6046 102.466 15.1807 102.476 17.7542C102.466 18.5939 102.46 19.431 102.442 20.2707C102.414 21.6183 101.671 22.401 100.34 22.4036C90.3375 22.414 80.3321 22.414 70.3294 22.4036C68.9991 22.401 68.2586 21.6157 68.2301 20.2707C68.2119 19.431 68.2067 18.5939 68.1963 17.7542C68.2067 15.1807 68.2171 12.6046 68.2275 10.0311C73.655 10.0207 79.085 10 84.5125 10C90.4908 10.0026 96.4665 10.0207 102.445 10.0311ZM85.3465 14.652C84.0189 14.652 82.6912 14.652 81.361 14.652C79.0772 14.652 79.1084 14.652 79.098 16.9197C79.0954 17.6194 79.3215 17.7749 79.9814 17.7672C83.0913 17.7361 86.2013 17.7542 89.3113 17.7542C91.6314 17.7542 91.608 17.7542 91.5742 15.388C91.5664 14.7712 91.3638 14.6313 90.787 14.639C88.9735 14.6727 87.16 14.652 85.3465 14.652ZM74.3798 17.7542C76.0037 17.7542 76.0037 17.7542 76.0037 16.5154C76.0037 14.652 76.0037 14.652 74.8085 14.652C72.8911 14.6494 72.8911 14.6494 72.8911 15.9893C72.8937 17.7542 72.8937 17.7542 74.3798 17.7542ZM96.1547 17.7542C97.7785 17.7542 97.7785 17.7542 97.7785 16.5154C97.7785 14.652 97.7786 14.652 96.5834 14.652C94.6686 14.6494 94.6686 14.6494 94.666 15.9893C94.6686 17.7542 94.6686 17.7542 96.1547 17.7542Z" fill="#F7B84B"/>
<path d="M68.2282 10.0311C68.2178 12.6046 68.2074 15.1807 68.197 17.7542C65.4456 17.7542 62.6916 17.7931 59.9401 17.7335C59.0672 17.7153 58.8749 17.9615 58.8775 18.8064C58.9113 27.237 58.8957 35.6651 58.8957 44.0957C56.8224 44.0957 54.7491 44.0957 52.6758 44.0957C52.6758 33.5814 52.6758 23.0671 52.6758 12.5502C52.6758 10.6427 53.3201 9.99742 55.2297 10C59.5634 10.0078 63.8971 10.0207 68.2282 10.0311Z" fill="#2196F3"/>
<path d="M78.1525 99.1733C77.4146 99.5335 76.6456 99.7797 75.822 99.8264C74.8451 100.093 73.8552 99.9326 72.8679 99.943C71.1973 99.4532 69.6202 98.7767 68.251 97.6779C66.7233 96.1307 65.5879 94.3787 65.2632 92.1732C64.7903 88.9855 65.6555 86.2591 68.012 84.0277C68.4017 84.248 68.555 84.6601 68.7862 85.0022C70.6933 87.8348 72.6029 90.6649 74.4735 93.5183C75.705 95.3972 77.0691 97.1958 78.1525 99.1733Z" fill="#FBBE44"/>
<path d="M37.1546 59.6404C44.0188 59.6404 50.8857 59.6507 57.7499 59.6222C58.5839 59.6196 58.9554 59.757 58.9217 60.7159C58.8489 62.7374 58.9061 62.74 56.8536 62.74C50.2803 62.74 43.707 62.7426 37.1338 62.7426C37.1416 61.7111 37.1494 60.677 37.1546 59.6404Z" fill="#CB432B"/>
<path d="M68.2506 97.6779C69.6198 98.7767 71.1995 99.4531 72.8675 99.943C70.8565 99.943 68.843 99.943 66.832 99.9455C67.7881 99.4894 68.2922 98.7508 68.2506 97.6779Z" fill="#2196F3"/>
<path d="M58.8952 44.0957C58.8952 35.665 58.9082 27.2344 58.877 18.8064C58.8744 17.9615 59.0666 17.7153 59.9396 17.7335C62.691 17.7957 65.445 17.7542 68.1965 17.7542C68.2068 18.5939 68.212 19.4336 68.2302 20.2707C68.2588 21.6157 68.9993 22.401 70.3295 22.4036C80.3323 22.414 90.3377 22.414 100.34 22.4036C101.671 22.401 102.411 21.6183 102.442 20.2707C102.461 19.431 102.466 18.5939 102.476 17.7542C105.295 17.7542 108.111 17.7775 110.928 17.7412C111.619 17.7309 111.788 17.946 111.788 18.6146C111.772 42.875 111.772 67.1354 111.785 91.3957C111.785 92.0022 111.655 92.2354 110.99 92.2328C101.889 92.2069 92.7877 92.2069 83.6891 92.1992C83.7151 91.5253 83.7852 90.8489 83.7618 90.1751C83.5514 83.7789 76.5728 79.4949 70.7374 82.1695C69.7709 82.4287 69.0305 83.0636 68.2666 83.6545C68.2536 78.111 68.225 72.5675 68.2432 67.0239C68.2458 66.1946 68.1185 65.5026 67.4066 65.0154C65.4217 63.66 64.7565 61.794 65.0943 59.4537C65.232 58.5052 65.1203 57.523 65.1203 56.5563C65.5074 56.5511 65.8971 56.5563 66.2842 56.5355C67.4014 56.4682 68.1991 55.7399 68.212 54.6333C68.2458 51.7617 68.251 48.8902 68.2094 46.0187C68.1939 44.8395 67.3521 44.1449 66.0712 44.1345C63.6809 44.1086 61.288 44.106 58.8952 44.0957ZM94.6662 37.9379C94.6714 32.8168 90.4806 28.621 85.3545 28.6132C80.2232 28.608 76.0116 32.7909 76.0064 37.9016C76.0012 43.0201 80.1946 47.2212 85.3207 47.2264C90.452 47.2341 94.661 43.0512 94.6662 37.9379ZM84.5205 58.0879C87.6954 58.0879 90.8677 58.0879 94.0426 58.0879C96.238 58.0879 96.1913 58.0879 96.2458 55.9447C96.2692 55.0765 95.9392 54.9676 95.1858 54.9702C88.4826 54.9961 81.7769 54.9857 75.0737 54.9857C72.8783 54.9857 72.9095 54.9857 72.8757 57.129C72.8627 57.8728 73.0446 58.1165 73.8318 58.1061C77.3964 58.0646 80.9584 58.0879 84.5205 58.0879ZM96.1835 65.8447C99.1297 65.8447 102.079 65.8447 105.025 65.8447C107.116 65.8447 107.077 65.8447 107.132 63.8025C107.155 62.9732 106.966 62.714 106.08 62.7192C99.8936 62.7633 93.7074 62.7425 87.5239 62.7425C85.3077 62.7425 85.3467 62.7425 85.3181 64.9791C85.3077 65.7592 85.5987 65.8655 86.2742 65.8603C89.5764 65.8292 92.8787 65.8447 96.1835 65.8447ZM96.1679 81.3583C99.1142 81.3583 102.063 81.3583 105.009 81.3583C107.124 81.3583 107.08 81.3583 107.132 79.2332C107.153 78.3961 106.872 78.2328 106.093 78.238C99.9404 78.2691 93.7854 78.2561 87.633 78.2561C85.2765 78.2561 85.3051 78.2561 85.3207 80.5756C85.3259 81.2365 85.5545 81.3739 86.1625 81.3713C89.4959 81.3454 92.8319 81.3583 96.1679 81.3583ZM86.1105 70.4993C83.3903 70.4993 80.6701 70.4993 77.9498 70.4993C76.0012 70.4993 76.0402 70.4993 75.9856 72.4897C75.9623 73.3424 76.1545 73.6326 77.082 73.6248C82.7486 73.5782 88.4151 73.6015 94.0842 73.6015C96.2432 73.6015 96.2017 73.6015 96.2458 71.4168C96.2614 70.5978 95.9548 70.476 95.2429 70.4838C92.2005 70.5175 89.1555 70.4993 86.1105 70.4993ZM77.5601 62.7425C76.7521 62.7425 75.9415 62.7425 75.1335 62.7425C72.8523 62.7425 72.8835 62.7425 72.8783 65.0206C72.8757 65.7359 73.1329 65.8706 73.7772 65.8577C75.8168 65.8214 77.8563 65.8447 79.8958 65.8447C82.3874 65.8447 82.3692 65.8447 82.2445 63.3723C82.2185 62.841 82.0185 62.727 81.5456 62.7348C80.2154 62.7581 78.8877 62.7425 77.5601 62.7425ZM103.193 58.0879C103.744 58.0879 104.295 58.0879 104.843 58.0879C107.179 58.0879 107.158 58.0879 107.124 55.7425C107.116 55.1542 106.96 54.9572 106.358 54.9728C104.773 55.0117 103.185 54.9857 101.601 54.9857C99.2051 54.9857 99.2181 54.9857 99.322 57.4297C99.3428 57.9273 99.4753 58.1139 99.9897 58.0983C101.058 58.0672 102.125 58.0879 103.193 58.0879ZM103.201 73.6015C103.752 73.6015 104.303 73.6015 104.851 73.6015C107.244 73.6015 107.228 73.6015 107.124 71.1524C107.103 70.647 106.95 70.4838 106.449 70.4916C104.83 70.5149 103.211 70.4993 101.595 70.4993C99.2025 70.4993 99.2181 70.4993 99.322 72.9484C99.3428 73.4538 99.4935 73.6223 99.9975 73.6093C101.063 73.5808 102.133 73.6015 103.201 73.6015Z" fill="#D5F3F5"/>
<path d="M44.6137 84.4449C43.8238 84.4034 42.504 84.8958 41.9428 84.2505C41.457 83.6907 41.8025 82.4053 41.7921 81.4412C41.7843 80.7622 41.8701 80.0728 41.7713 79.4093C41.618 78.3701 42.0675 78.1835 42.995 78.2327C44.4162 78.3105 45.8452 78.2224 47.269 78.2664C47.8691 78.2846 48.0432 78.1109 48.0276 77.5123C47.986 75.9625 48.038 74.4101 48.0016 72.8628C47.9886 72.2694 48.1004 72.0102 48.7811 72.0309C50.3659 72.0828 51.9534 72.0698 53.5408 72.0361C54.0942 72.0232 54.3177 72.189 54.2397 72.741C54.2163 72.8991 54.2293 73.065 54.2371 73.2257C54.3203 74.8869 54.0631 76.5585 54.3774 78.2146C56.0272 78.2275 57.677 78.2405 59.3243 78.2535C59.4853 78.2535 59.6516 78.2716 59.8101 78.2509C60.3219 78.1809 60.4752 78.3882 60.4674 78.8988C60.4389 80.5445 60.4337 82.1928 60.4674 83.8411C60.4778 84.3827 60.2622 84.476 59.7867 84.4708C58.1681 84.4475 56.5469 84.4838 54.9308 84.4501C54.3774 84.4371 54.2111 84.603 54.2241 85.155C54.2579 86.7359 54.2163 88.3194 54.2475 89.9029C54.2579 90.4601 54.1592 90.7037 53.5174 90.6856C51.8988 90.6363 50.2802 90.6519 48.6616 90.6804C48.1497 90.6908 47.9808 90.5379 48.0068 90.0247C48.0458 89.2524 48.0432 88.4749 48.0094 87.7C47.9679 86.6452 48.4693 85.2405 47.812 84.6419C47.2352 84.1158 45.8426 84.5097 44.6137 84.4449Z" fill="#FEFBFB"/>
<path d="M68.2689 83.6545C69.0354 83.061 69.7732 82.4286 70.7398 82.1669C70.8047 82.312 70.8515 82.4701 70.9398 82.5997C74.0913 87.3139 77.2455 92.0281 80.397 96.7423C80.5399 96.9574 80.6568 97.1906 80.9088 97.3047C80.1813 98.2066 79.2408 98.7975 78.1548 99.1706C77.0688 97.1932 75.7074 95.3972 74.4733 93.5157C72.6026 90.6597 70.693 87.8296 68.786 84.9995C68.5573 84.6574 68.4014 84.2454 68.0117 84.0251C68.0949 83.9033 68.1832 83.7789 68.2689 83.6545Z" fill="white"/>
<path d="M80.9064 97.3047C80.6544 97.1907 80.54 96.9575 80.3945 96.7423C77.243 92.0281 74.0889 87.3139 70.9374 82.5997C70.849 82.4702 70.8049 82.3121 70.7373 82.1669C76.5727 79.4924 83.5487 83.7764 83.7617 90.1725C83.7851 90.8464 83.7149 91.5228 83.689 92.1966C83.2265 94.1507 82.4782 95.9493 80.9064 97.3047Z" fill="#FBBE45"/>
<path d="M85.3466 14.652C87.1601 14.652 88.9761 14.6727 90.7896 14.6416C91.3638 14.6313 91.5665 14.7712 91.5769 15.3906C91.6106 17.7568 91.634 17.7568 89.3139 17.7568C86.2039 17.7568 83.094 17.7387 79.984 17.7698C79.3241 17.7775 79.0955 17.622 79.1007 16.9223C79.1111 14.6546 79.0825 14.6546 81.3636 14.6546C82.6887 14.652 84.0189 14.652 85.3466 14.652Z" fill="#FEFBF7"/>
<path d="M74.3797 17.7542C72.8936 17.7542 72.8936 17.7542 72.8936 15.9893C72.8936 14.652 72.8936 14.652 74.811 14.652C76.0061 14.652 76.0061 14.652 76.0061 16.5154C76.0035 17.7542 76.0035 17.7542 74.3797 17.7542Z" fill="#FEFBF7"/>
<path d="M96.1551 17.7542C94.6689 17.7542 94.6689 17.7542 94.6689 15.9893C94.6689 14.652 94.6689 14.652 96.5864 14.652C97.7815 14.652 97.7815 14.652 97.7815 16.5154C97.7789 17.7542 97.7789 17.7542 96.1551 17.7542Z" fill="#FEFBF7"/>
<path d="M94.6662 37.9379C94.6611 43.0512 90.4521 47.2341 85.3182 47.2263C80.1921 47.2212 75.9987 43.0201 76.0039 37.9016C76.0091 32.7909 80.2207 28.608 85.352 28.6132C90.4833 28.6209 94.674 32.8168 94.6662 37.9379ZM85.3234 33.2678C85.1935 33.2678 85.061 33.2859 84.9363 33.2652C84.0269 33.1071 83.593 33.4258 83.7801 34.3873C83.7983 34.4806 83.7827 34.5817 83.7827 34.6776C83.7827 36.37 83.7827 36.37 82.1355 36.37C80.6727 36.37 80.6727 36.37 80.6727 37.8601C80.6727 39.4722 80.6727 39.4722 82.3044 39.4722C83.7827 39.4722 83.7827 39.4722 83.7827 40.9468C83.7827 42.5743 83.7827 42.5743 85.3987 42.5743C86.8927 42.5743 86.8927 42.5743 86.8927 41.1153C86.8927 39.4722 86.8927 39.4722 88.4931 39.4722C90.0052 39.4722 90.0052 39.4722 90.0052 37.9327C90.0052 36.37 90.0052 36.37 88.4204 36.37C86.8927 36.37 86.8927 36.37 86.8927 34.8461C86.8927 33.2678 86.8927 33.2678 85.3234 33.2678Z" fill="#2196F3"/>
<path d="M84.5208 58.0879C80.9587 58.0879 77.3967 58.062 73.8347 58.1061C73.0474 58.1164 72.8656 57.8728 72.8786 57.129C72.9123 54.9857 72.8812 54.9857 75.0766 54.9857C81.7797 54.9857 88.4855 54.9961 95.1887 54.9702C95.9421 54.9676 96.2695 55.079 96.2487 55.9447C96.1941 58.0879 96.2409 58.0879 94.0455 58.0879C90.8706 58.0879 87.6957 58.0879 84.5208 58.0879Z" fill="#2196F3"/>
<path d="M96.184 65.8447C92.8818 65.8447 89.577 65.8292 86.2747 65.8577C85.5992 65.8629 85.3082 65.7592 85.3186 64.9765C85.3472 62.74 85.3082 62.74 87.5244 62.74C93.7106 62.74 99.8967 62.7607 106.08 62.7166C106.966 62.7114 107.156 62.9706 107.132 63.7999C107.078 65.8421 107.119 65.8422 105.025 65.8422C102.077 65.8447 99.1303 65.8447 96.184 65.8447Z" fill="#2196F3"/>
<path d="M96.1679 81.3583C92.8319 81.3583 89.4959 81.3454 86.16 81.3713C85.552 81.3765 85.3234 81.2365 85.3182 80.5756C85.3026 78.2561 85.2766 78.2561 87.6305 78.2561C93.7829 78.2561 99.9378 78.2691 106.09 78.238C106.872 78.2328 107.15 78.3961 107.129 79.2332C107.077 81.3557 107.122 81.3583 105.007 81.3583C102.063 81.3583 99.1142 81.3583 96.1679 81.3583Z" fill="#2196F3"/>
<path d="M86.1111 70.4994C89.1561 70.4994 92.1985 70.5175 95.2435 70.4864C95.9554 70.4786 96.262 70.6005 96.2464 71.4194C96.2022 73.6016 96.2438 73.6042 94.0847 73.6042C88.4182 73.6042 82.7491 73.5808 77.0826 73.6275C76.1551 73.6353 75.9628 73.3424 75.9862 72.4924C76.0408 70.5046 76.0018 70.502 77.9504 70.502C80.6706 70.4994 83.3909 70.4994 86.1111 70.4994Z" fill="#2196F3"/>
<path d="M77.5601 62.7425C78.8877 62.7425 80.2154 62.7555 81.5404 62.7347C82.0133 62.727 82.2133 62.841 82.2393 63.3723C82.364 65.8447 82.3822 65.8447 79.8906 65.8447C77.8511 65.8447 75.8115 65.8214 73.772 65.8577C73.1277 65.868 72.873 65.7333 72.873 65.0206C72.8808 62.7425 72.8497 62.7425 75.1282 62.7425C75.9414 62.7425 76.7495 62.7425 77.5601 62.7425Z" fill="#2196F3"/>
<path d="M103.193 58.0879C102.125 58.0879 101.057 58.0672 99.9896 58.0983C99.4778 58.1138 99.3427 57.9272 99.3219 57.4296C99.2206 54.9857 99.205 54.9857 101.6 54.9857C103.185 54.9857 104.773 55.0116 106.358 54.9728C106.96 54.9572 107.116 55.1542 107.124 55.7425C107.158 58.0879 107.179 58.0879 104.843 58.0879C104.295 58.0879 103.744 58.0879 103.193 58.0879Z" fill="#2196F3"/>
<path d="M103.201 73.6015C102.133 73.6015 101.066 73.5808 99.9978 73.6093C99.4937 73.6222 99.343 73.4538 99.3223 72.9484C99.2157 70.4967 99.2002 70.4993 101.596 70.4993C103.214 70.4993 104.833 70.5149 106.449 70.4915C106.95 70.4838 107.101 70.647 107.124 71.1524C107.231 73.6041 107.247 73.6015 104.851 73.6015C104.3 73.6015 103.752 73.6015 103.201 73.6015Z" fill="#2196F3"/>
<path d="M85.3232 33.2678C86.8898 33.2678 86.8898 33.2678 86.8898 34.8461C86.8898 36.37 86.8898 36.37 88.4175 36.37C90.0024 36.37 90.0024 36.37 90.0024 37.9327C90.0024 39.4722 90.0024 39.4722 88.4903 39.4722C86.8898 39.4722 86.8898 39.4722 86.8898 41.1153C86.8898 42.5743 86.8898 42.5743 85.3959 42.5743C83.7799 42.5743 83.7799 42.5743 83.7799 40.9468C83.7799 39.4722 83.7799 39.4722 82.3015 39.4722C80.6699 39.4722 80.6699 39.4722 80.6699 37.8601C80.6699 36.37 80.6699 36.37 82.1327 36.37C83.7799 36.37 83.7799 36.37 83.7799 34.6776C83.7799 34.5817 83.7955 34.4806 83.7773 34.3873C83.5928 33.4233 84.0241 33.1045 84.9334 33.2652C85.0633 33.2885 85.1959 33.2678 85.3232 33.2678Z" fill="#F6FCFC"/>
</g>
<defs>
<clipPath id="clip0_60_20">
<rect width="84" height="90" fill="white" transform="translate(34 10)"/>
</clipPath>
</defs>
</svg>
