<svg width="152" height="110" viewBox="0 0 152 110" fill="none" xmlns="http://www.w3.org/2000/svg">
<rect width="151.161" height="110" rx="16" fill="white"/>
<g clip-path="url(#clip0_60_134)">
<path d="M42.9614 28.9185C42.3934 28.5602 42.1776 28.0451 42.1837 27.3793C42.202 25.4023 42.1858 23.4274 42.1919 21.4504C42.198 18.9115 43.5111 17.0689 45.9156 16.2097C46.052 16.1608 46.227 16.1751 46.2963 16.002C61.3274 16.002 76.3586 16.002 91.3898 16.002C91.4508 16.0448 91.5058 16.116 91.573 16.1282C94.2421 16.5986 95.8688 19.0316 95.8138 21.6255C95.7731 23.5231 95.7996 25.4207 95.8097 27.3182C95.8118 27.8456 95.7344 28.3322 95.2946 28.6763C95.0178 28.8941 95.2234 28.9348 95.3883 29.0041C95.3741 29.0448 95.3618 29.0855 95.3537 29.1262C94.2787 28.9246 93.1916 28.9755 92.1064 28.9755C88.0122 28.9715 83.92 28.9694 79.8258 28.9674C79.6507 27.7661 79.3595 26.5853 78.9564 25.4451C78.5696 24.3456 77.6657 23.802 76.5439 23.7918C72.7163 23.7552 68.8888 23.7572 65.0633 23.7918C64.0067 23.802 63.0946 24.311 62.7037 25.3087C62.2456 26.4773 61.9382 27.7112 61.812 28.9755C55.9587 28.9755 50.1055 28.9755 44.2522 28.9735C43.8226 28.9694 43.391 28.9348 42.9614 28.9185Z" fill="#4EC8FE"/>
<path d="M99.4278 44.7445C99.8371 44.9563 100.169 45.2657 100.493 45.5895C104.831 49.9323 109.17 54.2751 113.516 58.6118C114.086 59.1799 114.654 59.7439 115.003 60.485C115.003 60.992 115.003 61.501 115.003 62.0079C114.52 62.8997 113.767 63.5573 113.066 64.2598C111.049 66.2815 109.037 68.3094 107.003 70.3149C105.827 71.4754 104.318 71.4877 103.257 70.3963C105.705 67.9694 108.188 65.5812 110.581 63.1033C111.798 61.843 111.654 60.4097 110.383 59.1371C105.851 54.6009 101.315 50.0687 96.7832 45.5324C96.5877 45.337 96.4147 45.1191 96.2314 44.9115C97.286 44.6712 98.3345 44.2721 99.4278 44.7445Z" fill="#F06548"/>
<path d="M95.3475 16C95.4229 16.2626 95.6835 16.1853 95.8504 16.2464C98.0166 17.0323 99.4011 18.9034 99.4316 21.2102C99.4601 23.2869 99.4316 25.3657 99.4438 27.4445C99.4479 28.0838 99.2015 28.5663 98.6742 28.9145C97.5809 29.0774 96.4816 28.9593 95.3862 29.0041C95.2193 28.9348 95.0157 28.8941 95.2926 28.6763C95.7323 28.3322 95.8097 27.8456 95.8077 27.3182C95.7975 25.4207 95.771 23.5211 95.8117 21.6255C95.8667 19.0316 94.24 16.5986 91.5709 16.1283C91.5037 16.1161 91.4488 16.0468 91.3877 16.002C92.707 16 94.0283 16 95.3475 16Z" fill="#0396FE"/>
<path d="M42.1997 88.7796C42.1957 74.0673 42.1936 59.353 42.1875 44.6407C42.1875 43.7795 42.1712 42.9162 42.1631 42.055C42.1712 39.4692 42.1773 36.8835 42.1855 34.2977C42.6313 34.1898 43.0854 34.1633 43.5434 34.1633C54.3562 34.1674 65.1689 34.1654 75.9796 34.1674C76.283 34.1674 76.5863 34.1918 76.8917 34.2041C76.8693 34.8108 77.2948 35.163 77.6674 35.5336C81.44 39.3145 85.2186 43.0893 88.9953 46.8681C89.2457 47.1185 89.5205 47.3466 89.6712 47.6805C89.2742 49.6432 88.9179 51.6141 88.47 53.5646C88.1809 54.8188 88.5433 55.7676 89.435 56.6471C91.5849 58.7646 93.6901 60.9268 95.8135 63.0708C95.8095 67.4319 95.8013 71.7931 95.8033 76.1543C95.8054 80.3627 95.8176 84.5732 95.8237 88.7817C95.5957 88.7918 95.3677 88.8122 95.1417 88.8122C77.7468 88.8142 60.352 88.8142 42.9591 88.8122C42.7067 88.8102 42.4522 88.7898 42.1997 88.7796ZM51.0071 83.6061C51.966 83.6183 52.9249 83.6488 53.8839 83.6346C54.7023 83.6224 55.2398 83.0747 55.2642 82.2379C55.2886 81.4296 55.2907 80.6213 55.2642 79.813C55.2337 78.8988 54.7613 78.3633 53.8737 78.3389C52.8679 78.3104 51.8561 78.2554 50.8483 78.3817C50.1642 78.3979 49.4822 78.4142 48.7981 78.4305C47.8372 78.4529 47.4056 78.8622 47.3791 79.8211C47.3587 80.5826 47.3669 81.3441 47.3771 82.1055C47.3893 83.1093 47.8616 83.5918 48.8735 83.6163C49.586 83.6366 50.2966 83.6122 51.0071 83.6061ZM78.4248 70.6183C79.4102 70.7425 80.4057 70.7405 81.383 70.6488C82.9689 70.5023 83.8709 69.4333 83.7996 67.9817C83.7467 66.8944 83.7894 65.8011 83.7894 64.7098C83.7894 58.8745 83.767 53.0413 83.8037 47.2061C83.8118 45.7809 82.975 44.9441 82.181 44.7282C80.9554 44.3943 79.6891 44.4188 78.4329 44.6264C77.8751 44.6264 77.3172 44.6244 76.7594 44.6244C71.3031 44.6244 65.8469 44.6203 60.3906 44.6264C58.8759 44.6285 58.0188 45.3859 57.8376 46.8681C57.7948 47.2183 57.7643 47.5746 57.7643 47.9289C57.7602 54.3749 57.7602 60.821 57.7623 67.269C57.7623 67.5215 57.7623 67.778 57.7908 68.0285C57.9984 69.8589 58.7863 70.5674 60.6187 70.5715C66.5534 70.5857 72.4901 70.602 78.4248 70.6183Z" fill="#4EC8FE"/>
<path d="M76.8918 34.2041C76.5885 34.1919 76.2851 34.1654 75.9797 34.1654C65.167 34.1634 54.3542 34.1654 43.5435 34.1613C43.0834 34.1613 42.6314 34.1878 42.1855 34.2957C42.1835 34.2387 42.1794 34.1817 42.1774 34.1247C42.1794 33.1637 42.2263 32.2006 42.1672 31.2437C42.1102 30.3377 42.2609 29.5457 42.9612 28.9186C43.3908 28.9369 43.8204 28.9695 44.25 28.9715C50.1032 28.9756 55.9565 28.9736 61.8097 28.9736C67.8137 28.9715 73.8176 28.9695 79.8215 28.9654C83.9157 28.9674 88.0079 28.9695 92.1021 28.9736C93.1873 28.9736 94.2745 28.9227 95.3494 29.1242C95.836 29.8266 95.836 30.6227 95.8116 31.4331C95.7851 32.3411 95.8014 33.2512 95.7994 34.1593C90.5324 34.1593 85.2676 34.1593 80.0006 34.1613C79.508 34.1776 79.2331 33.8234 78.9684 33.5037C78.5959 33.0558 78.1398 32.9723 77.6247 33.1128C77.0791 33.2594 76.9142 33.691 76.8918 34.2041Z" fill="#EBF4FE"/>
<path d="M42.2002 88.7797C42.4526 88.7898 42.7051 88.8122 42.9596 88.8122C60.3545 88.8143 77.7493 88.8143 95.1421 88.8122C95.3702 88.8122 95.5982 88.7919 95.8242 88.7817L95.8058 88.8204C95.7244 90.0216 95.4068 91.1313 94.6108 92.078C93.7557 93.094 92.6685 93.7007 91.392 94C76.7029 94.0021 62.0117 94.0061 47.3226 94C44.5028 93.996 42.2368 91.6667 42.2002 88.7797Z" fill="#ECF4FE"/>
<path d="M95.8153 63.0687C93.6919 60.9248 91.5847 58.7626 89.4368 56.6451C88.5451 55.7655 88.1847 54.8167 88.4718 53.5626C88.9197 51.612 89.278 49.6412 89.673 47.6805C89.9845 47.654 90.0903 47.933 90.2593 48.0979C91.0391 48.8573 91.7984 49.6371 92.5721 50.4006C93.2663 51.0868 93.9728 51.158 94.492 50.6103C94.9806 50.0952 94.891 49.407 94.2436 48.7453C93.3071 47.7884 92.3644 46.8355 91.4259 45.8806C92.8856 45.563 94.3454 45.2454 95.8051 44.9278C95.9476 44.9217 96.0881 44.9156 96.2306 44.9115C96.4139 45.1192 96.5869 45.337 96.7824 45.5325C101.314 50.0687 105.85 54.6009 110.382 59.1372C111.653 60.4077 111.797 61.8431 110.58 63.1034C108.188 65.5812 105.704 67.9715 103.257 70.3964C101.994 69.1687 100.73 67.943 99.4677 66.7153C98.2951 65.4529 97.0817 64.2333 95.8153 63.0687ZM104.356 62.7654C104.079 61.3931 103.761 59.8335 103.446 58.2719C103.136 56.7347 102.847 55.1954 102.513 53.6644C102.355 52.9334 101.776 52.5792 101.111 52.7176C100.5 52.8438 100.148 53.3834 100.225 54.1021C100.256 54.377 100.323 54.6498 100.378 54.9206C100.932 57.6712 101.477 60.4219 102.041 63.1705C102.188 63.8893 102.693 64.2781 103.307 64.2191C103.955 64.156 104.37 63.6551 104.356 62.7654ZM98.1525 59.1494C98.8081 59.1494 99.3089 58.6587 99.315 58.0092C99.3232 57.2987 98.405 56.3682 97.6945 56.3682C97.0491 56.3682 96.5442 56.8691 96.536 57.5165C96.5258 58.2576 97.4094 59.1494 98.1525 59.1494ZM108.039 59.3835C108.047 58.6669 107.129 57.7384 106.42 57.7425C105.783 57.7466 105.262 58.2617 105.252 58.8969C105.24 59.6014 106.168 60.5278 106.885 60.5278C107.546 60.5258 108.031 60.0453 108.039 59.3835Z" fill="#F06548"/>
<path d="M95.8152 63.0687C97.0836 64.2333 98.2949 65.4529 99.4656 66.7152C99.4574 69.7571 99.4432 72.7968 99.4391 75.8387C99.433 80.1469 99.431 84.4551 99.4289 88.7633C98.2216 88.7816 97.0143 88.8 95.807 88.8183L95.8254 88.7796C95.8172 84.5712 95.807 80.3607 95.805 76.1522C95.803 71.791 95.8111 67.4299 95.8152 63.0687Z" fill="#2196F3"/>
<path d="M42.1773 34.1246C42.1793 34.1816 42.1834 34.2387 42.1854 34.2957C42.1773 36.8814 42.1712 39.4672 42.163 42.0529C40.9964 42.0529 39.8299 42.0611 38.6633 42.0468C37.5089 42.0346 37.002 41.5154 36.9999 40.3671C36.9979 38.895 36.9999 37.425 36.9999 35.953C36.9999 34.6112 37.458 34.147 38.8282 34.1307C39.9459 34.1185 41.0616 34.1267 42.1773 34.1246Z" fill="#ECF4FE"/>
<path d="M95.8055 88.8183C97.0128 88.8 98.2201 88.7817 99.4274 88.7634C99.4681 91.5425 97.0922 93.9919 94.3477 94C93.3624 94.0021 92.377 93.998 91.3916 93.9959C92.6681 93.6987 93.7553 93.092 94.6104 92.0739C95.4064 91.1292 95.724 90.0196 95.8055 88.8183Z" fill="#CEE7FE"/>
<path d="M79.8233 28.9654C73.8194 28.9674 67.8154 28.9694 61.8115 28.9735C61.9357 27.7091 62.2452 26.4753 62.7033 25.3066C63.0941 24.309 64.0083 23.8 65.0629 23.7898C68.8904 23.7552 72.7179 23.7531 76.5434 23.7898C77.6632 23.8 78.5671 24.3436 78.956 25.443C79.357 26.5832 79.6482 27.7621 79.8233 28.9654Z" fill="#2196F3"/>
<path d="M95.7976 34.1572C95.7996 33.2492 95.7833 32.3391 95.8098 31.431C95.8342 30.6207 95.8363 29.8246 95.3477 29.1221C95.3578 29.0814 95.3701 29.0407 95.3823 29C96.4776 28.9572 97.579 29.0753 98.6703 28.9104C99.4032 29.5904 99.507 30.4557 99.4622 31.3964C99.4195 32.3044 99.4602 33.2145 99.4643 34.1247C99.4561 34.1878 99.448 34.2489 99.4378 34.312C98.2264 34.2122 97.013 34.2631 95.7996 34.2835C95.8017 34.2407 95.7996 34.2 95.7976 34.1572Z" fill="#C8E6FE"/>
<path d="M95.8052 34.2835C97.0186 34.2631 98.23 34.2122 99.4434 34.312C99.4536 36.8916 99.4617 39.4713 99.4719 42.0509C99.4577 42.9488 99.4434 43.8467 99.4292 44.7446C98.3359 44.2722 97.2874 44.6713 96.2307 44.9095C96.0882 44.9156 95.9478 44.9217 95.8052 44.9258C95.8032 41.379 95.8032 37.8323 95.8052 34.2835Z" fill="#0396FE"/>
<path d="M100.382 34.1349C101.27 34.1349 102.158 34.1206 103.045 34.1369C104.108 34.1573 104.625 34.6744 104.635 35.7433C104.651 37.366 104.651 38.9908 104.635 40.6135C104.627 41.4829 104.069 42.0306 103.198 42.0448C102.208 42.0611 101.219 42.0468 100.229 42.0468C100.924 41.4442 101.056 40.6705 100.997 39.793C100.94 38.9643 100.985 38.1275 100.985 37.2927C100.983 36.2014 101.152 35.0775 100.382 34.1349Z" fill="#CEE7FE"/>
<path d="M100.382 34.1349C101.154 35.0796 100.985 36.2014 100.985 37.2927C100.985 38.1255 100.94 38.9623 100.997 39.793C101.056 40.6705 100.924 41.4442 100.229 42.0469C99.9769 42.0489 99.7244 42.0509 99.4699 42.0509C99.4597 39.4713 99.4516 36.8916 99.4414 34.312C99.4495 34.2489 99.4577 34.1878 99.4679 34.1247C99.7712 34.1288 100.077 34.1308 100.382 34.1349Z" fill="#EBF4FE"/>
<path d="M78.4247 70.6184C72.4879 70.6021 66.5532 70.5858 60.6165 70.5695C58.7842 70.5654 57.9963 69.8569 57.7886 68.0265C57.7601 67.7761 57.7601 67.5195 57.7601 67.2671C57.7581 60.821 57.7581 54.375 57.7622 47.9269C57.7622 47.5726 57.7927 47.2184 57.8355 46.8661C58.0167 45.3859 58.8738 44.6265 60.3885 44.6245C65.8447 44.6184 71.301 44.6224 76.7573 44.6224C77.3151 44.6224 77.8729 44.6245 78.4308 44.6245C79.8885 45.2373 80.2529 46.4813 80.255 47.8882C80.2672 54.3546 80.2753 60.821 80.2427 67.2895C80.2387 68.0978 80.2041 68.9427 79.6523 69.6675C79.3164 70.1093 78.7586 70.2071 78.4247 70.6184ZM69.6092 49.8285C67.9173 49.7634 67.5875 50.0769 67.5875 51.7465C67.5875 52.3043 67.5956 52.8622 67.5834 53.4201C67.5692 54.0594 67.2699 54.3994 66.5899 54.379C65.8549 54.3566 65.1179 54.3628 64.383 54.379C63.5177 54.3994 63.0515 54.8371 63.0372 55.6841C63.0148 56.9526 63.0169 58.221 63.0352 59.4874C63.0474 60.3446 63.5014 60.7884 64.3606 60.8129C65.0955 60.8332 65.8305 60.8251 66.5675 60.8169C67.2638 60.8088 67.5936 61.1447 67.5875 61.837C67.5814 62.572 67.5753 63.309 67.5916 64.044C67.6119 64.9032 68.0435 65.3288 68.9088 65.3736C69.1348 65.3858 69.3628 65.3715 69.5908 65.3695C70.6312 65.3797 71.6715 65.4122 72.7099 65.3898C73.569 65.3715 74.0108 64.9134 74.0413 64.0563C74.0658 63.3477 74.0434 62.6351 74.0515 61.9245C74.0617 61.0429 74.2022 60.8984 75.0593 60.8902C75.7434 60.8841 76.4295 60.9086 77.1135 60.8821C78.1234 60.8434 78.5875 60.3588 78.5977 59.3571C78.6079 58.164 78.6099 56.9729 78.5957 55.7798C78.5855 54.8371 78.1396 54.3831 77.2011 54.3526C76.5414 54.3302 75.8818 54.3505 75.2222 54.3465C74.2286 54.3404 74.0576 54.1754 74.0515 53.2104C74.0475 52.5263 74.0658 51.8401 74.0434 51.156C74.0149 50.2948 73.571 49.8265 72.7282 49.8122C71.6878 49.7919 70.6475 49.8204 69.6092 49.8285Z" fill="#EBF4FE"/>
<path d="M78.4248 70.6183C78.7587 70.2071 79.3165 70.1114 79.6545 69.6675C80.2062 68.9427 80.2408 68.0977 80.2449 67.2894C80.2775 60.823 80.2693 54.3566 80.2571 47.8882C80.2551 46.4813 79.8907 45.2373 78.4329 44.6244C79.6891 44.4188 80.9554 44.3944 82.1811 44.7262C82.9751 44.9421 83.8118 45.7789 83.8037 47.2041C83.767 53.0393 83.7894 58.8725 83.7894 64.7078C83.7894 65.7991 83.7467 66.8924 83.7996 67.9796C83.8709 69.4313 82.969 70.5002 81.383 70.6468C80.4078 70.7385 79.4102 70.7425 78.4248 70.6183Z" fill="#CBE7FE"/>
<path d="M91.4238 45.8807C92.3624 46.8356 93.305 47.7884 94.2415 48.7454C94.891 49.4071 94.9785 50.0973 94.4899 50.6104C93.9708 51.1581 93.2643 51.0868 92.5701 50.4007C91.7964 49.6351 91.037 48.8573 90.2573 48.0979C90.0883 47.933 89.9824 47.6541 89.6709 47.6805C89.5203 47.3466 89.2454 47.1186 88.995 46.8682C85.2184 43.0913 81.4397 39.3145 77.6672 35.5336C77.2966 35.161 76.8691 34.8108 76.8915 34.2041C76.9139 33.691 77.0788 33.2594 77.6224 33.1108C78.1374 32.9703 78.5935 33.0537 78.9661 33.5017C79.2307 33.8213 79.5076 34.1736 79.9983 34.1593C79.8476 34.5869 80.2222 34.7457 80.4401 34.9534C84.1739 38.5225 87.7653 42.2362 91.4238 45.8807Z" fill="#C8E6FE"/>
<path d="M51.0067 83.6061C50.2962 83.6122 49.5856 83.6367 48.8751 83.6184C47.8633 83.5939 47.3909 83.1094 47.3787 82.1076C47.3685 81.3462 47.3604 80.5847 47.3807 79.8232C47.4072 78.8622 47.8388 78.455 48.7998 78.4326C49.4838 78.4163 50.1659 78.4 50.8499 78.3817C51.1635 78.7299 51.6114 79.0332 51.5931 79.5463C51.5401 80.9166 52.0247 82.3723 51.0067 83.6061Z" fill="#EBF4FE"/>
<path d="M51.0074 83.6061C52.0253 82.3743 51.5408 80.9165 51.5937 79.5463C51.6141 79.0332 51.1641 78.7298 50.8506 78.3817C51.8563 78.2534 52.8682 78.3084 53.876 78.3389C54.7636 78.3654 55.2359 78.8988 55.2665 79.813C55.293 80.6213 55.2909 81.4296 55.2665 82.2379C55.2421 83.0747 54.7046 83.6224 53.8861 83.6346C52.9272 83.6489 51.9663 83.6163 51.0074 83.6061Z" fill="#CBE7FE"/>
<path d="M91.4241 45.8807C87.7676 42.2342 84.1763 38.5225 80.4424 34.9533C80.2245 34.7457 79.8499 34.5869 80.0006 34.1593C85.2675 34.1593 90.5324 34.1593 95.7993 34.1593C95.8013 34.2021 95.8034 34.2428 95.8054 34.2855C95.8054 37.8343 95.8054 41.3831 95.8034 44.9299C94.3436 45.2454 92.8839 45.5631 91.4241 45.8807Z" fill="#4EC8FE"/>
<path d="M104.356 62.7654C104.372 63.6551 103.955 64.156 103.31 64.2171C102.695 64.2782 102.19 63.8872 102.043 63.1685C101.479 60.4199 100.932 57.6692 100.38 54.9186C100.325 54.6457 100.256 54.3749 100.227 54.1001C100.15 53.3814 100.502 52.8418 101.113 52.7156C101.779 52.5771 102.357 52.9294 102.516 53.6623C102.85 55.1934 103.139 56.7347 103.448 58.2699C103.762 59.8335 104.077 61.3931 104.356 62.7654Z" fill="#ECF0FA"/>
<path d="M98.1527 59.1494C97.4096 59.1494 96.528 58.2577 96.5362 57.5165C96.5443 56.8691 97.0492 56.3662 97.6946 56.3682C98.4052 56.3682 99.3234 57.2987 99.3152 58.0093C99.3071 58.6588 98.8062 59.1494 98.1527 59.1494Z" fill="#ECF0FA"/>
<path d="M108.039 59.3835C108.033 60.0452 107.547 60.5257 106.885 60.5278C106.168 60.5278 105.242 59.6034 105.252 58.8969C105.262 58.2617 105.783 57.7466 106.421 57.7425C107.129 57.7384 108.045 58.6669 108.039 59.3835Z" fill="#ECF0FA"/>
<path d="M69.5914 65.3695C69.3634 65.3715 69.1353 65.3857 68.9094 65.3735C68.0441 65.3287 67.6125 64.9032 67.5921 64.044C67.5738 63.309 67.5819 62.574 67.588 61.837C67.5942 61.1447 67.2643 60.8088 66.568 60.8169C65.8331 60.8251 65.0961 60.8332 64.3611 60.8128C63.502 60.7884 63.048 60.3446 63.0357 59.4874C63.0174 58.219 63.0154 56.9505 63.0378 55.6841C63.052 54.8371 63.5182 54.3994 64.3835 54.379C65.1185 54.3627 65.8555 54.3566 66.5904 54.379C67.2725 54.4014 67.5718 54.0614 67.584 53.42C67.5962 52.8622 67.588 52.3043 67.588 51.7464C67.5901 50.0749 67.9199 49.7613 69.6097 49.8285C70.194 50.2052 70.4404 50.7264 70.3895 51.4329C70.3426 52.062 70.363 52.6993 70.3834 53.3325C70.4078 54.1021 70.6969 54.377 71.4522 54.3851C72.1872 54.3933 72.9221 54.3729 73.6571 54.3912C74.4755 54.4116 74.9275 54.8534 74.9397 55.6678C74.9581 56.9342 74.956 58.2006 74.9418 59.467C74.9316 60.3629 74.4837 60.7864 73.5614 60.7986C72.8529 60.8088 72.1424 60.823 71.4339 60.7945C70.7132 60.766 70.4119 61.1488 70.3874 61.8003C70.363 62.4335 70.3447 63.0688 70.3915 63.6999C70.4404 64.4268 70.2184 64.9847 69.5914 65.3695Z" fill="#4EC8FE"/>
<path d="M69.5908 65.3694C70.2158 64.9846 70.4398 64.4268 70.3869 63.6979C70.34 63.0687 70.3584 62.4315 70.3828 61.7983C70.4072 61.1467 70.7085 60.764 71.4293 60.7925C72.1378 60.821 72.8483 60.8067 73.5568 60.7965C74.4791 60.7843 74.927 60.3588 74.9371 59.465C74.9514 58.1986 74.9534 56.9322 74.9351 55.6658C74.9229 54.8514 74.4729 54.4095 73.6525 54.3892C72.9175 54.3709 72.1825 54.3892 71.4476 54.3831C70.6902 54.3749 70.4031 54.1001 70.3787 53.3305C70.3584 52.6973 70.336 52.062 70.3848 51.4308C70.4378 50.7243 70.1914 50.2031 69.6051 49.8265C70.6454 49.8183 71.6858 49.7898 72.7241 49.8102C73.567 49.8265 74.0108 50.2927 74.0393 51.1539C74.0617 51.838 74.0434 52.5242 74.0474 53.2083C74.0535 54.1734 74.2246 54.3383 75.2181 54.3444C75.8777 54.3485 76.5374 54.3301 77.197 54.3505C78.1356 54.381 78.5814 54.8351 78.5916 55.7777C78.6059 56.9709 78.6038 58.1619 78.5936 59.355C78.5855 60.3588 78.1213 60.8413 77.1095 60.88C76.4254 60.9065 75.7393 60.88 75.0552 60.8882C74.1981 60.8963 74.0576 61.0409 74.0474 61.9225C74.0393 62.633 74.0617 63.3436 74.0373 64.0542C74.0067 64.9113 73.5649 65.3674 72.7058 65.3878C71.6715 65.4122 70.6312 65.3796 69.5908 65.3694Z" fill="#0396FE"/>
</g>
<defs>
<clipPath id="clip0_60_134">
<rect width="78" height="78" fill="white" transform="translate(37 16)"/>
</clipPath>
</defs>
</svg>
