<svg width="151" height="109" viewBox="0 0 151 109" fill="none" xmlns="http://www.w3.org/2000/svg">
<rect width="151" height="109" rx="16" fill="white"/>
<g clip-path="url(#clip0_60_240)">
<path d="M107.97 63.9069C107.98 64.3659 107.998 64.8271 107.998 65.2862C108 74.3711 108 83.4582 107.998 92.5431C107.998 94.8426 106.859 96 104.6 96C88.0809 95.9978 71.5592 95.9935 55.0398 95.9913C54.9322 95.9913 54.8246 95.9848 54.7192 95.9804C53.7833 95.3408 52.8022 94.7186 52.8022 93.3916C52.7957 80.7975 52.7979 68.2013 52.8 55.6073C52.8 54.9003 53.0689 54.3194 53.5423 53.7864C53.8478 53.4427 54.3663 53.384 54.5514 52.9184C54.7385 52.9053 54.9236 52.8792 55.1108 52.8792C59.3729 52.8771 63.6351 52.8858 67.8973 52.8727C69.242 52.8684 70.2597 53.3753 70.9611 54.5718C72.1337 56.5732 73.3558 58.5464 74.5456 60.5392C75.219 61.6639 76.1872 62.1491 77.4867 62.1447C84.6169 62.1273 91.7471 62.1382 98.8773 62.1404C100.966 62.1382 103.058 62.1491 105.147 62.1295C106.212 62.1208 106.984 62.5951 107.552 63.474C107.66 63.6458 107.688 63.9025 107.97 63.9069ZM79.2854 81.5263C79.6598 81.5263 80.0363 81.5307 80.4106 81.5263C81.8371 81.5089 82.7365 80.6561 82.7451 79.316C82.7558 77.9759 81.7769 76.9752 80.4214 76.9556C79.5909 76.9425 78.7583 76.923 77.9299 76.9621C77.3899 76.9882 77.2328 76.7815 77.2543 76.2594C77.2888 75.3936 77.278 74.5255 77.2586 73.6575C77.2307 72.4893 76.327 71.5038 75.2319 71.4124C73.9603 71.3058 73.0524 71.9758 72.749 73.2137C72.521 74.1514 72.6113 75.1021 72.6372 76.0441C72.6565 76.7359 72.4995 77.0274 71.7572 76.9665C70.931 76.899 70.0962 76.9273 69.2657 76.9599C68.078 77.0056 67.1636 78.0433 67.1615 79.2986C67.1593 80.4495 68.1404 81.4915 69.2829 81.5176C70.1672 81.5394 71.0515 81.5503 71.9358 81.5176C72.4586 81.4981 72.6307 81.6764 72.6328 82.2138C72.635 83.2123 72.5317 84.2131 72.734 85.2095C72.9663 86.3516 73.9883 87.2588 75.0318 87.187C76.1915 87.1065 77.1661 86.1645 77.25 85.0006C77.2866 84.5155 77.2608 84.026 77.2608 83.5387C77.2651 81.5285 77.2651 81.5285 79.2854 81.5263Z" fill="#86C0F3"/>
<path d="M98.8751 62.1383C91.7449 62.1361 84.6148 62.1252 77.4846 62.1427C76.185 62.1448 75.2169 61.6619 74.5434 60.5371C73.3536 58.5444 72.1316 56.5712 70.959 54.5697C70.2576 53.3732 69.2399 52.8663 67.8952 52.8706C63.633 52.8837 59.3708 52.875 55.1086 52.8772C54.9214 52.8772 54.7364 52.9033 54.5492 52.9163C53.3745 52.9033 52.1976 52.8924 51.0228 52.8815C51.0228 44.954 51.0228 37.0286 51.025 29.101C51.025 28.1569 51.0207 27.2127 51.0315 26.2685C51.0336 26.0096 50.9432 25.7225 51.1842 25.5071C51.2724 25.6246 51.3929 25.6855 51.5328 25.6594C53.2024 25.3374 54.8892 25.5745 56.5674 25.518C57.7206 25.4788 58.2671 24.961 58.2692 23.7841C58.2735 21.9719 58.2714 20.1597 58.2714 18.3475C59.1664 17.9907 60.098 18.2757 61.0081 18.1843C66.9528 18.1843 72.8975 18.1887 78.8443 18.1821C79.124 18.1821 79.4403 18.2975 79.6748 18.0255C80.1137 18.1517 80.5591 18.1909 81.0174 18.1909C86.2929 18.1821 91.5707 18.1843 96.8462 18.1865C98.3157 18.1865 98.8386 18.7086 98.8407 20.1662C98.8407 21.2757 98.8428 22.3874 98.8385 23.4969C98.8364 23.7971 98.8321 24.093 98.9999 24.3606C98.9978 34.6943 98.9956 45.0301 98.9978 55.3638C98.9978 55.6205 98.9009 55.9142 99.1656 56.1187C99.0924 56.5407 98.9913 56.9584 98.9483 57.3826C98.7955 58.9642 98.9139 60.5524 98.8751 62.1383ZM59.3751 47.7865C63.4781 47.793 67.5832 47.8082 71.6862 47.8039C72.8631 47.8017 73.5408 47.1034 73.5451 45.8329C73.5623 41.0315 73.5623 36.2302 73.5451 31.4288C73.5408 30.1061 72.962 29.5709 71.6582 29.5688C67.9834 29.5666 64.3086 29.5535 60.6337 29.5862C60.1669 29.5905 59.7043 29.3121 59.2374 29.5601C58.5145 29.5579 57.7937 29.5448 57.0708 29.5579C56.0359 29.5775 55.4034 30.1649 55.3991 31.2178C55.3819 36.1693 55.3797 41.1185 55.4012 46.07C55.4055 47.1577 56.1198 47.793 57.2085 47.8017C57.9314 47.8082 58.6543 47.793 59.3751 47.7865ZM83.3884 27.6869C83.3669 28.531 83.9155 29.101 84.845 29.1967C85.4539 29.2598 86.2349 28.94 86.6307 29.3273C87.0654 29.7515 86.7276 30.5608 86.7857 31.2004C86.861 32.0423 87.4655 32.658 88.2293 32.6493C88.9931 32.6406 89.5956 32.0271 89.645 31.1743C89.6709 30.7153 89.6773 30.2519 89.645 29.795C89.6128 29.3229 89.8064 29.188 90.2496 29.1967C90.809 29.2098 91.3749 29.2729 91.9278 29.1337C92.6809 28.9444 93.1155 28.3418 93.0466 27.5847C92.9821 26.8798 92.4592 26.3686 91.7084 26.3229C91.0694 26.2837 90.2475 26.5252 89.8365 26.2054C89.346 25.8269 89.7139 24.9458 89.6493 24.2845C89.5633 23.4186 88.9867 22.8334 88.2035 22.8421C87.4204 22.8508 86.8416 23.4404 86.79 24.3149C86.7641 24.7739 86.7512 25.2373 86.79 25.6942C86.8351 26.2163 86.6135 26.3534 86.1402 26.3207C85.6604 26.2881 85.1763 26.2946 84.6965 26.3273C83.9047 26.3751 83.4056 26.9146 83.3884 27.6869ZM85.2344 42.2542C82.7687 42.2542 80.3052 42.2607 77.8396 42.2498C77.2199 42.2476 76.6842 42.3325 76.6433 43.1048C76.6089 43.7117 77.0371 44.0228 77.8826 44.025C82.786 44.0294 87.6893 44.025 92.5926 44.0272C93.2209 44.0272 93.8341 43.9728 93.8534 43.1439C93.8728 42.2955 93.2682 42.2498 92.6314 42.252C90.1657 42.2607 87.7001 42.2542 85.2344 42.2542ZM85.2688 37.0525C82.8032 37.0525 80.3397 37.0503 77.874 37.0547C77.0026 37.0569 76.5917 37.3462 76.6433 37.9575C76.7036 38.7015 77.2221 38.8321 77.8482 38.8299C82.7773 38.8234 87.7065 38.8277 92.6357 38.8234C93.507 38.8234 93.8857 38.534 93.8556 37.901C93.819 37.1112 93.2704 37.0482 92.6615 37.0503C90.198 37.0569 87.7345 37.0525 85.2688 37.0525ZM85.2602 49.4529C87.7775 49.4529 90.297 49.4507 92.8143 49.4551C93.393 49.4573 93.8276 49.2897 93.8577 48.6153C93.8857 47.9757 93.5092 47.682 92.6464 47.682C87.7173 47.6777 82.7881 47.6842 77.8589 47.6755C77.2371 47.6755 76.71 47.7865 76.6433 48.5348C76.5895 49.1462 77.0091 49.4486 77.8654 49.4507C80.331 49.4551 82.7946 49.4529 85.2602 49.4529ZM85.3248 53.1709C82.8075 53.1709 80.288 53.1774 77.7707 53.1665C77.1575 53.1643 76.6648 53.3231 76.6541 54.0193C76.6412 54.759 77.1532 54.9656 77.7965 54.9439C77.9579 54.9395 78.1171 54.9439 78.2785 54.9439C82.6181 54.9439 86.9578 54.9439 91.2996 54.9439C91.8891 54.9439 92.4808 54.97 93.066 54.9265C93.5974 54.8873 93.8879 54.5545 93.8599 53.9997C93.8341 53.4863 93.5458 53.2144 93.0423 53.1817C92.8293 53.1687 92.6142 53.173 92.399 53.173C90.0388 53.1687 87.6828 53.1687 85.3248 53.1709ZM79.6856 31.6942C78.9906 31.6942 78.2978 31.6942 77.6029 31.6942C77.0327 31.6921 76.6627 31.9618 76.6476 32.547C76.6326 33.1257 76.9811 33.4542 77.547 33.4629C78.9347 33.4803 80.3224 33.4847 81.7102 33.4586C82.2717 33.4477 82.6031 33.1127 82.5772 32.5188C82.5536 31.9596 82.2179 31.7029 81.6844 31.6986C81.0195 31.6899 80.3526 31.6942 79.6856 31.6942Z" fill="white"/>
<path d="M51.0257 52.8793C52.2004 52.8901 53.3773 52.9032 54.552 52.9141C54.3691 53.3796 53.8485 53.4384 53.543 53.7821C53.0675 54.3151 52.8007 54.8981 52.8007 55.603C52.7985 68.197 52.7964 80.7932 52.8028 93.3872C52.8028 94.7143 53.7839 95.3387 54.7198 95.9761C51.7722 95.9826 48.8246 96.0065 45.877 95.9891C44.3107 95.9783 43.1338 94.7817 43.009 93.1588C42.9961 92.9978 43.0026 92.8347 43.0026 92.6715C43.0047 80.2602 43.0047 67.8489 43.009 55.4398C43.009 55.1701 43.0435 54.9025 43.0607 54.6327C43.5383 54.2651 43.7427 53.6581 44.2828 53.3165C45.0853 52.8053 45.9437 52.8423 46.8151 52.8466C48.2179 53.1425 49.6207 53.0751 51.0257 52.8793Z" fill="#66AFF0"/>
<path d="M99.1682 56.1164C98.9014 55.9141 99.0004 55.6204 99.0004 55.3615C98.9982 45.0278 99.0004 34.692 99.0025 24.3583C101.673 25.1328 104.319 25.9878 106.935 26.932C107.841 27.2583 108.086 28.0676 107.74 29.1706C106.793 32.1836 105.836 35.1924 104.883 38.2054C104.037 40.8813 103.189 43.5594 102.35 46.2374C102.262 46.5181 102.219 46.8161 102.155 47.1033C101.804 48.1736 101.464 49.2505 101.096 50.3165C100.433 52.2418 99.9836 54.2411 99.1682 56.1164Z" fill="#DEEFFF"/>
<path d="M51.0256 52.8793C49.6207 53.0751 48.2179 53.1404 46.8172 52.8488C46.7183 52.2441 46.6494 51.6306 46.5139 51.0345C46.2191 49.7357 46.1438 48.3912 45.7049 47.1251C45.6425 45.3346 45.1498 43.616 44.8464 41.8669C44.2827 38.6014 43.6373 35.3512 43.0327 32.0923C42.8821 31.283 43.3748 30.5803 44.2741 30.3954C46.232 29.9929 48.1985 29.6318 50.1629 29.2533C50.4512 29.1989 50.7395 29.151 51.0278 29.0988C51.0256 37.0264 51.0256 44.9539 51.0256 52.8793Z" fill="#DEEFFF"/>
<path d="M99.1679 56.1164C99.9833 54.2433 100.435 52.244 101.096 50.3165C101.461 49.2505 101.801 48.1736 102.154 47.1033C103.224 47.1185 104.295 47.0946 105.36 47.1533C106.845 47.236 107.972 48.4782 107.978 50.112C108 54.711 107.976 59.3079 107.97 63.9069C107.69 63.9004 107.66 63.6437 107.55 63.4718C106.984 62.5929 106.21 62.1186 105.145 62.1273C103.056 62.1447 100.964 62.136 98.8753 62.1382C98.914 60.5523 98.7935 58.962 98.9506 57.3804C98.9936 56.9562 99.0926 56.5363 99.1679 56.1164Z" fill="#4C9CEC"/>
<path d="M79.6755 18.0233C79.441 18.2953 79.1247 18.18 78.845 18.18C72.9003 18.1865 66.9556 18.1843 61.0088 18.1821C61.4154 16.8681 61.8049 15.5498 62.2309 14.2445C62.5837 13.1632 63.354 12.7782 64.4147 13.1219C68.7349 14.5207 73.0552 15.9283 77.3777 17.3272C78.1393 17.573 78.9096 17.7927 79.6755 18.0233Z" fill="#DEEFFF"/>
<path d="M58.2717 18.3474C58.2717 20.1596 58.276 21.9718 58.2696 23.784C58.2674 24.961 57.7209 25.4809 56.5677 25.5179C54.8895 25.5745 53.2049 25.3373 51.5331 25.6593C51.3933 25.6854 51.2728 25.6245 51.1846 25.507C53.4867 23.0596 55.8405 20.6622 58.2717 18.3474Z" fill="#2196F3" fill-opacity="0.5"/>
<path d="M45.7046 47.1229C46.1435 48.389 46.2188 49.7335 46.5135 51.0323C46.6491 51.6283 46.7179 52.2418 46.8169 52.8466C45.9455 52.8423 45.0871 52.8053 44.2846 53.3165C43.7445 53.6603 43.5401 54.2651 43.0625 54.6327C43.0496 53.0968 42.9807 51.5587 43.041 50.0272C43.1055 48.3498 44.1081 47.323 45.7046 47.1229Z" fill="#4C9CEC"/>
<path d="M79.2856 81.5264C77.2653 81.5264 77.2653 81.5264 77.2653 83.5366C77.2653 84.0239 77.289 84.5134 77.2546 84.9985C77.1685 86.1624 76.196 87.1066 75.0363 87.1849C73.9907 87.2567 72.9709 86.3473 72.7385 85.2074C72.5362 84.211 72.6395 83.2102 72.6374 82.2117C72.6352 81.6765 72.4631 81.4981 71.9403 81.5155C71.0581 81.5481 70.1717 81.5373 69.2874 81.5155C68.1471 81.4894 67.166 80.4473 67.166 79.2965C67.1682 78.0412 68.0826 77.0057 69.2702 76.9578C70.1007 76.9252 70.9355 76.8969 71.7617 76.9643C72.504 77.0253 72.661 76.7337 72.6417 76.0419C72.6137 75.0999 72.5233 74.1492 72.7535 73.2116C73.0569 71.9737 73.9649 71.3037 75.2364 71.4103C76.3316 71.5016 77.2352 72.4872 77.2632 73.6554C77.2847 74.5213 77.2933 75.3915 77.2589 76.2573C77.2373 76.7794 77.3944 76.9861 77.9344 76.96C78.7628 76.9208 79.5954 76.9404 80.4259 76.9535C81.7814 76.9731 82.7582 77.9738 82.7496 79.3139C82.7388 80.6562 81.8416 81.509 80.4152 81.5242C80.0365 81.5307 79.66 81.5264 79.2856 81.5264Z" fill="#E8EEFD"/>
<path d="M59.2381 29.5578C59.705 29.3098 60.1676 29.5883 60.6345 29.5839C64.3093 29.5513 67.9841 29.5643 71.6589 29.5665C72.9628 29.5665 73.5415 30.1039 73.5458 31.4266C73.563 36.2279 73.563 41.0293 73.5458 45.8306C73.5415 47.1011 72.8638 47.8016 71.6869 47.8016C67.5839 47.806 63.4788 47.7929 59.3758 47.7842C58.6529 47.3208 58.4076 46.6791 58.4162 45.8002C58.455 41.2185 58.4507 36.6369 58.4205 32.0575C58.4141 31.1024 58.4786 30.23 59.2381 29.5578ZM66.4737 38.0379C66.6523 37.7704 66.8481 37.5158 67.0052 37.2374C67.642 36.1039 67.6485 34.9639 66.9363 33.8697C66.1704 32.6971 65.0042 32.5078 63.7456 32.6905C62.6849 32.8428 61.7941 33.7652 61.5403 34.8987C61.267 36.117 61.7468 37.1133 62.4633 38.0379C61.1874 38.6949 60.4688 39.7479 60.3784 41.1859C60.316 42.1845 60.3698 43.1917 60.3526 44.1946C60.3462 44.5492 60.4172 44.7407 60.8324 44.7385C63.2443 44.7233 65.6583 44.7255 68.0702 44.7385C68.4596 44.7407 68.5822 44.5971 68.5736 44.2164C68.5521 43.2135 68.621 42.2062 68.5414 41.2077C68.4316 39.7914 67.7603 38.6949 66.4737 38.0379Z" fill="#2196F3"/>
<path d="M59.2377 29.5578C58.4782 30.2301 58.4115 31.1024 58.418 32.0575C58.4503 36.6391 58.4524 41.2207 58.4137 45.8002C58.4072 46.6791 58.6525 47.3209 59.3733 47.7842C58.6504 47.7908 57.9296 47.806 57.2067 47.7995C56.1158 47.7886 55.4037 47.1555 55.3994 46.0678C55.3779 41.1163 55.38 36.167 55.3972 31.2156C55.4015 30.1626 56.0319 29.5752 57.069 29.5557C57.794 29.5448 58.517 29.5578 59.2377 29.5578Z" fill="#2196F3" fill-opacity="0.5"/>
<path d="M83.3893 27.6868C83.4086 26.9123 83.9078 26.375 84.6974 26.3228C85.1772 26.2902 85.6635 26.2836 86.1411 26.3163C86.6166 26.3489 86.836 26.214 86.7909 25.6897C86.7521 25.2329 86.7629 24.7695 86.7909 24.3104C86.8425 23.4359 87.4213 22.8463 88.2044 22.8376C88.9876 22.8289 89.5642 23.4141 89.6503 24.28C89.7169 24.9392 89.3469 25.8202 89.8374 26.201C90.2484 26.5186 91.0724 26.2793 91.7093 26.3184C92.458 26.3641 92.9808 26.8754 93.0475 27.5802C93.1185 28.3373 92.6839 28.9399 91.9287 29.1292C91.3736 29.2684 90.8078 29.2053 90.2505 29.1923C89.8073 29.1836 89.6137 29.3185 89.6459 29.7905C89.6761 30.2474 89.6696 30.7108 89.6459 31.1698C89.5986 32.0226 88.9962 32.6361 88.2302 32.6448C87.4664 32.6535 86.8619 32.0378 86.7866 31.1959C86.7285 30.5563 87.0663 29.747 86.6316 29.3228C86.2379 28.9377 85.4548 29.2554 84.8459 29.1923C83.9143 29.1009 83.3678 28.5309 83.3893 27.6868Z" fill="#F06548"/>
<path d="M85.2346 42.2541C87.7002 42.2541 90.1637 42.2585 92.6294 42.2498C93.2684 42.2476 93.873 42.2933 93.8515 43.1417C93.8321 43.9706 93.2189 44.025 92.5907 44.025C87.6873 44.0228 82.784 44.025 77.8806 44.0228C77.0351 44.0228 76.6091 43.7095 76.6414 43.1026C76.6844 42.3303 77.218 42.2454 77.8376 42.2476C80.3054 42.2607 82.7689 42.2541 85.2346 42.2541Z" fill="#2196F3"/>
<path d="M85.2689 37.0524C87.7346 37.0524 90.1981 37.0567 92.6638 37.0502C93.2748 37.048 93.8213 37.1111 93.8579 37.9008C93.888 38.5361 93.5093 38.8233 92.6379 38.8233C87.7088 38.8276 82.7796 38.8211 77.8504 38.8298C77.2222 38.8298 76.7058 38.6993 76.6456 37.9574C76.5961 37.3461 77.007 37.0567 77.8763 37.0546C80.3398 37.0502 82.8054 37.0524 85.2689 37.0524Z" fill="#2196F3"/>
<path d="M85.2602 49.4529C82.7945 49.4529 80.331 49.455 77.8653 49.4529C77.009 49.4507 76.5895 49.1483 76.6433 48.537C76.7078 47.7886 77.2349 47.6755 77.8589 47.6776C82.788 47.6842 87.7172 47.6798 92.6464 47.6842C93.5091 47.6842 93.8857 47.9779 93.8577 48.6175C93.8276 49.2919 93.393 49.4572 92.8142 49.4572C90.2969 49.4507 87.7775 49.4529 85.2602 49.4529Z" fill="#2196F3"/>
<path d="M85.3254 53.1708C87.6835 53.1708 90.0416 53.1708 92.3975 53.1708C92.6127 53.1708 92.8257 53.1664 93.0408 53.1795C93.5443 53.2121 93.8326 53.4841 93.8584 53.9975C93.8864 54.5522 93.5959 54.8851 93.0645 54.9243C92.4771 54.9678 91.8876 54.9417 91.2981 54.9417C86.9584 54.9417 82.6188 54.9417 78.277 54.9417C78.1156 54.9417 77.9564 54.9373 77.795 54.9417C77.1517 54.9634 76.6397 54.7567 76.6526 54.0171C76.6633 53.3187 77.156 53.1599 77.7692 53.1643C80.2887 53.1773 82.806 53.1708 85.3254 53.1708Z" fill="#2196F3"/>
<path d="M79.6858 31.6942C80.3528 31.6942 81.0198 31.6898 81.6868 31.6964C82.2182 31.7029 82.556 31.9574 82.5797 32.5165C82.6055 33.1104 82.272 33.4455 81.7126 33.4564C80.3248 33.4825 78.9371 33.4781 77.5494 33.4607C76.9835 33.4542 76.6328 33.1257 76.65 32.5448C76.6651 31.9596 77.0351 31.692 77.6053 31.692C78.2981 31.6942 78.993 31.6942 79.6858 31.6942Z" fill="#2196F3"/>
<path d="M66.4738 38.0379C67.7605 38.6949 68.4317 39.7914 68.5436 41.2055C68.6232 42.2019 68.5544 43.2113 68.5759 44.2142C68.5845 44.5949 68.4619 44.7385 68.0724 44.7363C65.6606 44.7233 63.2465 44.7233 60.8347 44.7363C60.4194 44.7385 60.3506 44.5471 60.3549 44.1925C60.3721 43.1895 60.3183 42.1845 60.3807 41.1837C60.4711 39.7479 61.1897 38.6928 62.4655 38.0358C63.7995 38.9408 65.1356 38.8342 66.4738 38.0379Z" fill="white"/>
<path d="M66.4732 38.038C65.1349 38.8342 63.7988 38.9408 62.4627 38.0358C61.7462 37.1134 61.2664 36.117 61.5397 34.8966C61.7936 33.7631 62.6843 32.8407 63.745 32.6884C65.0037 32.5079 66.1698 32.695 66.9357 33.8675C67.65 34.9618 67.6436 36.1018 67.0046 37.2352C66.8475 37.5159 66.6517 37.7726 66.4732 38.038Z" fill="white"/>
</g>
<defs>
<clipPath id="clip0_60_240">
<rect width="65" height="83" fill="white" transform="translate(43 13)"/>
</clipPath>
</defs>
</svg>
