<svg width="152" height="110" viewBox="0 0 152 110" fill="none" xmlns="http://www.w3.org/2000/svg">
<rect width="151.161" height="110" rx="16" fill="white"/>
<g clip-path="url(#clip0_60_193)">
<path d="M78.0539 67.3548C75.7615 67.3448 73.4691 67.3519 71.1782 67.3234C64.5977 67.2421 58.9583 64.8773 54.4005 60.1077C50.7171 56.2538 48.5837 51.6254 48.1082 46.2725C47.4723 39.1295 49.6951 32.965 54.6447 27.8588C58.5339 23.8466 63.3288 21.5574 68.9014 20.9811C69.4167 20.9284 69.9376 20.8442 70.4529 20.8642C71.6594 20.9113 72.7481 20.7159 73.6012 19.7445C73.9447 19.3523 74.511 19.2781 74.9439 19C77.2619 19 79.5784 19 81.8963 19C83.0446 19.4422 83.9303 20.1724 84.4229 21.332C84.4754 22.048 84.5634 22.7669 84.3633 23.4758C83.7373 25.0461 82.6074 25.8306 80.9297 25.8335C77.6905 25.8392 74.4528 25.8292 71.2137 25.8363C62.3905 25.8577 55.0194 31.9295 53.2735 40.6043C51.556 49.1365 56.3821 57.8427 64.6062 61.0533C66.7652 61.8963 69.005 62.3142 71.313 62.3299C73.5572 62.3456 75.8027 62.3142 78.0482 62.3042C78.995 62.3099 79.9403 62.317 80.8871 62.3228C81.8466 62.3213 82.8047 62.3185 83.7643 62.3171C87.3781 62.3242 90.992 62.3299 94.6058 62.3384C94.9593 62.3399 95.3141 62.3556 95.6676 62.3655C95.8109 62.5809 95.9699 62.7863 96.0962 63.0117C96.9763 64.5792 97.5725 66.2123 97.2105 68.0594C96.6697 67.6686 96.1048 67.332 95.4092 67.332C91.5229 67.3362 87.6379 67.3434 83.7515 67.3505C82.799 67.3491 81.8452 67.3477 80.8928 67.3448C79.9474 67.3462 79.0007 67.3505 78.0539 67.3548Z" fill="#2196F3"/>
<path d="M71.8185 92C71.0222 91.4936 70.7014 90.7962 70.9682 89.8619C73.1868 89.8619 75.4054 89.8605 77.6239 89.8605C80.5508 89.8605 83.4776 89.8648 86.4045 89.8577C87.4989 89.8548 87.9744 89.3713 87.9985 88.3258C88.0326 86.7868 87.5542 85.3962 86.809 84.0825C86.6926 83.8757 86.5266 83.6988 86.5805 83.4364C87.6948 83.8686 88.528 84.653 89.215 85.603C90.1901 86.9508 90.7905 88.4299 90.8516 90.1301C90.8814 90.9502 90.6557 91.5564 89.98 92C83.9262 92 77.8723 92 71.8185 92Z" fill="#B9C3CC"/>
<path d="M80.887 62.3213C79.9403 62.3156 78.9949 62.3085 78.0482 62.3028C78.0396 61.6381 78.1021 60.9649 78.007 60.3131C77.8977 59.56 77.4719 59.0608 76.6458 58.8854C73.3683 58.1936 70.369 56.8643 67.7176 54.789C65.4422 53.0075 63.5884 50.8624 62.1449 48.3406C60.7496 45.9016 59.9348 43.2772 59.5104 40.5216C59.2351 38.7359 59.2947 36.9244 59.3529 35.1244C59.3855 34.0975 60.2329 33.3401 61.2577 33.2588C61.3514 33.2517 61.4465 33.256 61.5416 33.256C74.2398 33.2574 86.938 33.2588 99.6377 33.2617C99.5667 34.4655 99.6164 35.6693 99.5269 36.8774C99.341 39.4048 98.7974 41.8195 97.7967 44.1416C96.363 47.4649 94.2282 50.2462 91.4106 52.4983C88.7265 54.6449 85.6762 56.0028 82.3419 56.7573C81.2788 56.9983 80.9097 57.5047 80.904 58.6186C80.8941 59.8538 80.8913 61.0876 80.887 62.3213ZM85.1637 43.4199C84.8103 43.4156 84.4526 43.3771 84.1034 43.4156C83.5144 43.4826 83.3795 43.2145 83.3966 42.6768C83.4292 41.6341 83.3937 40.5886 83.4108 39.5446C83.4193 39.0382 83.2475 38.8157 82.711 38.8286C81.5073 38.8571 80.3022 38.8571 79.0985 38.8286C78.5521 38.8157 78.3349 38.9912 78.3519 39.5617C78.3846 40.6514 78.3462 41.7439 78.3689 42.8351C78.3775 43.2701 78.2185 43.4213 77.7912 43.4127C76.7054 43.3928 75.6181 43.4284 74.5336 43.397C73.9687 43.3799 73.7913 43.5982 73.8055 44.1487C73.8367 45.3582 73.8339 46.5692 73.8069 47.7787C73.7955 48.3007 73.973 48.5047 74.501 48.4918C75.5869 48.4662 76.6741 48.5018 77.7586 48.4761C78.2213 48.4662 78.3902 48.6273 78.3704 49.0923C78.3434 49.707 78.3732 50.3246 78.3775 50.9422C78.3689 51.4158 78.3817 51.8921 78.3462 52.3643C78.3079 52.8834 78.4953 53.0888 79.0304 53.076C80.2582 53.0475 81.4874 53.0432 82.7138 53.0774C83.2958 53.0931 83.4462 52.8421 83.4335 52.3115C83.4093 51.2674 83.4519 50.2219 83.4164 49.1793C83.3994 48.6601 83.5357 48.4662 84.0836 48.4875C85.168 48.5303 86.2567 48.489 87.3426 48.5047C87.7954 48.5118 87.9842 48.3335 87.9799 47.8757C87.9671 46.5948 87.9671 45.3126 87.9799 44.0318C87.9842 43.5853 87.8238 43.3714 87.3596 43.3871C86.6272 43.4127 85.8962 43.4113 85.1637 43.4199Z" fill="#DBE5EA"/>
<path d="M86.5791 83.4365C86.5251 83.6989 86.6912 83.8758 86.8076 84.0826C87.5528 85.3977 88.0297 86.7869 87.9971 88.3259C87.9744 89.3714 87.4989 89.8549 86.4031 89.8577C83.4762 89.8649 80.5494 89.8606 77.6225 89.8606C75.4039 89.8606 73.1854 89.8606 70.9668 89.862C71.1627 87.1477 72.4402 85.0782 74.7155 83.6419C75.3486 83.2425 76.0455 82.9401 76.7708 82.7076C77.6892 82.4138 78.0441 81.8861 78.054 80.9062C78.0654 79.8408 78.0526 78.7739 78.0512 77.707C78.0355 76.7742 78.0185 75.8428 78.0029 74.91C78.0199 74.2011 78.0355 73.4922 78.0526 72.7834C78.0526 70.9734 78.0526 69.162 78.0526 67.352C78.9993 67.3477 79.9461 67.3449 80.8929 67.3406C80.8957 71.1503 80.9028 74.9614 80.8943 78.771C80.8929 79.4899 81.0831 80.1061 81.7573 80.4184C82.3932 80.7137 83.0717 80.9148 83.7317 81.1572C83.7842 81.9874 84.2157 82.498 85.0135 82.7162C85.5088 82.8517 85.99 83.03 86.4386 83.2853C86.2938 83.5121 86.4996 83.4179 86.5777 83.4393L86.5791 83.4365Z" fill="#DBE5EA"/>
<path d="M80.8867 62.3214C80.891 61.0876 80.8952 59.8538 80.9009 58.6201C80.9066 57.5076 81.2756 56.9998 82.3388 56.7587C85.673 56.0028 88.7234 54.6449 91.4075 52.4998C94.2251 50.2476 96.3599 47.4663 97.7935 44.143C98.7942 41.8224 99.3379 39.4077 99.5238 36.8788C99.6132 35.6693 99.5636 34.4669 99.6345 33.2631C101.437 33.2317 102.392 33.8693 102.449 35.2215C102.496 36.3582 102.522 37.5035 102.438 38.6375C102.306 40.4517 102.048 42.2503 101.493 43.9975C100.216 48.0254 98.0306 51.4358 94.8085 54.1771C91.9384 56.619 88.6623 58.1879 84.9832 58.9296C84.2692 59.0736 83.7795 59.6784 83.7511 60.4657C83.7284 61.0819 83.7582 61.6995 83.7639 62.3156C82.8044 62.3171 81.8448 62.3185 80.8867 62.3214Z" fill="#B9C3CD"/>
<path d="M97.2106 68.0565C97.5726 66.2109 96.9764 64.5778 96.0964 63.0088C95.97 62.7835 95.8111 62.5781 95.6677 62.3627C98.7095 62.2657 101.892 64.7789 102.732 67.9424C104.045 72.8875 100.409 77.6984 95.3029 77.7326C91.4491 77.7583 87.594 77.7383 83.7402 77.7383C83.7459 76.7927 83.753 75.8485 83.7587 74.9028C85.5983 74.8985 87.4393 74.8786 89.2788 74.8943C90.8019 74.9071 92.2142 74.522 93.5102 73.7432C93.9346 73.4879 94.4711 73.3253 94.6727 72.7819C94.9083 72.7634 95.1439 72.7505 95.3781 72.7263C96.3192 72.6307 97.1254 72.2713 97.6066 71.4155C98.2823 70.2117 98.0424 69.0935 97.2106 68.0565Z" fill="#2196F3"/>
<path d="M83.7565 74.9028C83.7509 75.8485 83.7438 76.7927 83.7381 77.7383C83.7367 78.8794 83.7338 80.019 83.7324 81.1601C83.0724 80.9176 82.3939 80.7165 81.758 80.4212C81.0838 80.1089 80.8936 79.4927 80.895 78.7738C80.9021 74.9642 80.895 71.1531 80.8936 67.3434C81.846 67.3448 82.7998 67.3462 83.7523 67.3491C83.748 69.1462 83.7438 70.9448 83.7409 72.742C83.7452 73.4608 83.7509 74.1825 83.7565 74.9028Z" fill="#B8C2CC"/>
<path d="M84.3604 23.4757C84.5605 22.7669 84.4739 22.048 84.42 21.332C85.7869 21.3277 87.1538 21.3149 88.5207 21.3234C89.4022 21.3291 89.8677 21.7356 89.8507 22.4417C89.8351 23.1192 89.3951 23.4829 88.5306 23.4871C87.141 23.4929 85.75 23.48 84.3604 23.4757Z" fill="#F06548"/>
<path d="M86.5801 83.4421C86.502 83.4207 86.2962 83.5149 86.4409 83.2881C86.4864 83.3394 86.5332 83.3908 86.5801 83.4421Z" fill="#B9C3CC"/>
<path d="M78.0044 74.9114C78.02 75.8442 78.037 76.7756 78.0526 77.7084C75.5729 77.7184 73.0917 77.7341 70.612 77.7384C67.1855 77.7441 63.7604 77.7369 60.3339 77.7426C59.4354 77.7441 58.703 78.2732 58.5028 79.0292C58.3112 79.7537 58.6121 80.5596 59.2409 80.959C59.6526 81.22 60.1182 81.2899 60.5979 81.2899C61.803 81.2885 63.0081 81.2813 64.2132 81.2927C65.6795 81.307 66.7895 82.3653 66.8079 83.7417C66.8264 85.111 65.644 86.3048 64.199 86.2834C62.4077 86.2577 60.5951 86.513 58.8293 86.1336C56.209 85.5702 54.4447 83.9357 53.7109 81.3569C53.021 78.9308 53.5434 76.72 55.346 74.8815C59.4766 74.8843 63.6071 74.8857 67.7376 74.89C71.1599 74.8943 74.5821 74.9043 78.0044 74.9114Z" fill="#2196F3"/>
<path d="M78.004 74.9114C74.5818 74.9042 71.1596 74.8942 67.7373 74.89C63.6068 74.8843 59.4762 74.8843 55.3457 74.8814C56.538 73.5792 58.0369 72.7961 59.7686 72.7776C65.77 72.7148 71.7713 72.7491 77.7727 72.7491C77.8663 72.7491 77.96 72.7733 78.0537 72.7861C78.0367 73.4936 78.0196 74.2025 78.004 74.9114Z" fill="#2196F3"/>
<path d="M78.3755 50.9437C78.3698 50.3275 78.3414 49.7099 78.3684 49.0937C78.3883 48.6287 78.2194 48.4661 77.7566 48.4776C76.6708 48.5018 75.5835 48.4676 74.499 48.4932C73.9724 48.5061 73.7936 48.3021 73.8049 47.7801C73.8319 46.5706 73.8347 45.3596 73.8035 44.1501C73.7893 43.5996 73.9667 43.3814 74.5317 43.3985C75.6175 43.4298 76.7034 43.3942 77.7893 43.4142C78.2165 43.4213 78.3755 43.2715 78.367 42.8365C78.3457 41.7454 78.384 40.6528 78.3499 39.5631C78.3329 38.9926 78.5501 38.8172 79.0966 38.83C80.3002 38.8585 81.5053 38.8585 82.709 38.83C83.2455 38.8172 83.4173 39.0397 83.4088 39.546C83.3903 40.5901 83.4272 41.6341 83.3946 42.6782C83.3776 43.2159 83.5138 43.484 84.1015 43.417C84.4506 43.3771 84.8083 43.417 85.1618 43.4213C85.1561 43.6581 85.1604 43.8948 85.1447 44.1302C85.0482 45.6563 84.3683 46.3338 82.9049 46.3709C81.4159 46.408 80.5529 47.2766 80.4762 48.8127C80.4039 50.3032 79.8474 50.8681 78.3755 50.9437Z" fill="#F06548"/>
<path d="M78.3762 50.9437C79.8481 50.8681 80.4045 50.3033 80.4784 48.8113C80.555 47.2752 81.418 46.4066 82.907 46.3695C84.3704 46.3324 85.0503 45.6549 85.1469 44.1288C85.1625 43.8934 85.1582 43.6552 85.1639 43.4199C85.8949 43.4113 86.6273 43.4127 87.3583 43.3885C87.8225 43.3728 87.9843 43.5868 87.9786 44.0332C87.9658 45.314 87.9658 46.5963 87.9786 47.8771C87.9829 48.3349 87.7941 48.5132 87.3413 48.5061C86.2554 48.4904 85.1667 48.5303 84.0823 48.489C83.5344 48.4676 83.3967 48.6616 83.4151 49.1807C83.4506 50.2234 83.4081 51.2689 83.4322 52.3129C83.445 52.8435 83.2945 53.0945 82.7125 53.0789C81.4847 53.046 80.2555 53.0489 79.0291 53.0774C78.494 53.0903 78.3052 52.8849 78.345 52.3657C78.3804 51.8936 78.3677 51.4186 78.3762 50.9437Z" fill="#F06548"/>
<path d="M83.7402 72.7405C87.1029 72.7419 90.4655 72.7419 93.8281 72.7448C94.1092 72.7448 94.3902 72.7676 94.6712 72.7804C94.4683 73.3238 93.9331 73.4879 93.5087 73.7417C92.2128 74.5205 90.8005 74.9056 89.2774 74.8928C87.4378 74.8771 85.5968 74.8971 83.7573 74.9013C83.7516 74.1825 83.7459 73.4608 83.7402 72.7405Z" fill="#2196F3"/>
</g>
<defs>
<clipPath id="clip0_60_193">
<rect width="55" height="73" fill="white" transform="translate(48 19)"/>
</clipPath>
</defs>
</svg>
