<svg width="152" height="110" viewBox="0 0 152 110" fill="none" xmlns="http://www.w3.org/2000/svg">
<rect width="151.161" height="110" rx="16" fill="white"/>
<g clip-path="url(#clip0_60_213)">
<path d="M85.25 21.4535C88.7035 19.6899 92.1591 17.9262 95.6126 16.1605C95.6977 16.1173 95.7746 16.0535 95.8556 16C96.1592 16 96.4608 16 96.7645 16C99.6573 17.4899 102.548 18.984 105.443 20.4678C107.579 21.5626 109.714 22.6595 111.864 23.7275C112.66 24.1227 113.012 24.7071 113.002 25.6167C112.971 28.2879 112.967 30.9591 112.994 33.6303C113.073 41.7201 109.864 48.1799 103.704 53.1869C102.838 53.8907 101.987 54.6171 101.038 55.2057C100.68 54.9711 100.321 54.7365 99.963 54.504C95.8738 51.8698 92.0174 48.9599 89.1813 44.8811C88.4829 43.8768 87.7197 42.8643 87.5335 41.576C87.6489 41.7098 87.7622 41.8435 87.8776 41.9794C90.6145 45.1795 93.9972 46.5891 98.1613 45.8339C102.965 45.0519 106.828 40.4812 106.902 35.4845C106.983 30.0701 103.416 25.5324 98.2726 24.5075C97.0337 24.1721 95.7665 24.2029 94.5296 24.4046C89.4161 25.2381 85.6164 29.6565 85.5334 34.9742C85.3634 34.3362 85.254 33.69 85.254 33.0253C85.252 29.1687 85.25 25.3101 85.25 21.4535Z" fill="#F7B84B"/>
<path d="M66.3304 88.8283C66.3203 90.1886 66.2757 91.5509 66.3101 92.9112C66.3344 93.8929 66.0186 94.609 65.1077 95C58.8464 95 52.5871 95 46.3258 95C45.2812 93.8558 45.5768 92.4358 45.5727 91.0879C45.5606 86.3176 45.5849 81.5473 45.5545 76.777C45.5484 75.8365 45.8399 75.141 46.6315 74.6635C46.9149 74.6471 47.1962 74.6306 47.4797 74.6141C49.2651 74.6141 51.0526 74.6141 52.8381 74.6141C54.5062 74.6141 56.1722 74.6141 57.8403 74.6141C59.4051 74.6141 60.9699 74.6141 62.5327 74.6162C63.1279 74.6265 63.7271 74.6697 64.3202 74.6368C65.1117 74.5936 65.7251 74.8673 66.1664 75.5361C66.2737 75.9868 66.3 76.4416 66.302 76.9046C66.3061 80.8805 66.3203 84.8544 66.3304 88.8283Z" fill="#2156A3"/>
<path d="M46.6319 74.6656C45.8424 75.143 45.5489 75.8365 45.555 76.7791C45.5833 81.5493 45.561 86.3196 45.5732 91.0899C45.5772 92.4379 45.2817 93.8579 46.3262 95.0021C44.2047 95.0021 42.0852 95.0021 39.9637 95.0021C39.1884 94.4588 38.9941 93.7014 39.0001 92.7671C39.0305 87.4289 39.0143 82.0885 39.0163 76.7502C39.0163 75.1204 39.4941 74.6388 41.0812 74.6347C41.6358 74.6326 42.1885 74.6182 42.7432 74.61C43.6359 74.61 44.5266 74.61 45.4193 74.61C45.8222 74.6264 46.2271 74.645 46.6319 74.6656Z" fill="#2156A3"/>
<path d="M66.3304 88.8283C66.3203 84.8544 66.3061 80.8805 66.3041 76.9066C66.3041 76.4436 66.2778 75.9867 66.1685 75.5381C72.7031 75.5361 79.2377 75.5319 85.7723 75.5299C86.9707 75.5299 87.5355 75.143 87.5213 74.3322C87.5092 73.5625 86.9707 73.2126 85.7925 73.2126C78.0474 73.2085 70.3002 73.2065 62.555 73.2044C62.555 72.0458 62.555 70.8892 62.555 69.7306C62.883 69.7286 63.2109 69.7244 63.5389 69.7244C70.9824 69.7244 78.4279 69.7244 85.8715 69.7224C86.2196 69.7224 86.5861 69.7903 86.91 69.5948C87.3958 69.3005 87.6407 68.8622 87.4828 68.2962C87.2845 67.5883 86.7419 67.401 86.0698 67.4031C78.2215 67.4113 70.3731 67.4113 62.5247 67.4134C62.3182 66.2362 62.0064 65.092 61.5631 63.9849C65.798 63.9808 70.033 63.9787 74.2659 63.9746C74.4926 63.9746 74.7214 63.989 74.9461 63.9643C75.6404 63.8861 76.0635 63.3942 76.0291 62.7316C75.9947 62.0895 75.5817 61.6676 74.8793 61.6676C69.9399 61.6656 65.0004 61.6779 60.059 61.6882C59.8707 61.5195 59.6805 61.3528 59.4962 61.1799C57.8606 59.6467 55.9779 58.6569 53.7329 58.4634C53.4374 58.3873 53.1013 58.5293 52.8341 58.2947C52.8341 49.1183 52.8361 39.9441 52.8321 30.7677C52.8321 30.0475 52.8199 29.3354 53.1337 28.6666C61.9214 28.6645 70.7091 28.6645 79.4948 28.6625C79.5757 31.9552 79.4118 35.2602 79.926 38.5323C73.0897 38.5323 66.2515 38.5303 59.4153 38.5344C58.5671 38.5344 58.0063 39.018 58.0164 39.7095C58.0245 40.3927 58.5448 40.8434 59.3667 40.8454C66.381 40.8454 73.3934 40.8413 80.4077 40.8372C80.8248 41.9773 81.2438 43.1174 81.6608 44.2575C76.0878 44.2596 70.5148 44.2616 64.9438 44.2637C63.2797 44.2637 61.6157 44.2637 59.9517 44.2637C59.7999 44.2637 59.6481 44.2575 59.4983 44.2657C58.6258 44.3048 58.0043 44.8131 58.0104 45.4799C58.0144 46.1529 58.6298 46.6776 59.5124 46.6776C67.3284 46.6818 75.1465 46.6715 82.9625 46.6673C83.7722 47.8486 84.6326 48.9887 85.5455 50.0876C85.2176 50.0938 84.8917 50.102 84.5637 50.102C79.9786 50.1041 75.3934 50.1 70.8083 50.1041C69.782 50.1041 69.2212 50.7709 69.5249 51.6537C69.7556 52.3267 70.3306 52.4193 70.9439 52.4193C75.9825 52.4152 81.0211 52.4131 86.0597 52.4254C86.5739 52.4275 86.995 52.2876 87.3573 51.9295C89.8149 54.1006 92.4607 56.0042 95.226 57.7473C95.9547 58.2062 96.6167 58.2412 97.3313 57.7678C97.9406 57.3645 98.5682 56.992 99.1896 56.6051C99.1896 66.938 99.1896 77.2688 99.1896 87.6017C99.1896 88.7007 99.0601 88.8344 97.971 88.8344C87.4221 88.8283 76.8773 88.8283 66.3304 88.8283ZM72.7314 58.1568C77.0979 58.1568 81.4624 58.1568 85.8289 58.1568C86.082 58.1568 86.3371 58.1712 86.584 58.1342C87.1266 58.0539 87.4383 57.6938 87.5071 57.1608C87.576 56.6216 87.3391 56.21 86.8512 55.9754C86.5719 55.8416 86.2662 55.8375 85.9605 55.8375C77.1789 55.8396 68.3953 55.8396 59.6137 55.8375C59.31 55.8375 59.0043 55.8334 58.7229 55.9672C58.2371 56.1997 57.9719 56.6072 58.0407 57.1402C58.1116 57.6938 58.4355 58.0827 59.0266 58.1403C59.2513 58.163 59.48 58.1547 59.7068 58.1547C64.051 58.1568 68.3912 58.1568 72.7314 58.1568ZM82.7681 61.6532C81.6082 61.6532 80.4503 61.645 79.2903 61.6553C78.5231 61.6635 78.0251 62.0998 77.9968 62.7542C77.9664 63.4354 78.4887 63.9581 79.2761 63.9622C81.594 63.9766 83.9139 63.9766 86.2318 63.9622C87.0375 63.9581 87.5335 63.4683 87.5213 62.7666C87.5092 62.106 87.0172 61.6615 86.246 61.6532C85.088 61.645 83.9281 61.6532 82.7681 61.6532ZM62.4822 52.411C63.5389 52.411 64.5976 52.4234 65.6543 52.4069C66.4823 52.3946 66.9519 51.9521 66.9479 51.236C66.9438 50.4642 66.547 50.102 65.6604 50.1C63.5713 50.0938 61.4801 50.0938 59.391 50.1C58.5569 50.102 58.0488 50.5198 58.0205 51.203C57.9901 51.8904 58.5569 52.4008 59.3849 52.409C60.4173 52.4193 61.4497 52.411 62.4822 52.411Z" fill="#DDF5FC"/>
<path d="M79.9283 38.5282C79.4141 35.2541 79.578 31.9511 79.4971 28.6584C79.5092 27.6582 79.5335 26.6581 79.5274 25.6559C79.5234 24.7442 79.8756 24.1062 80.7157 23.707C82.2401 22.9826 83.7381 22.2068 85.2482 21.4536C85.2482 25.3101 85.2503 29.1688 85.2482 33.0253C85.2482 33.69 85.3576 34.3362 85.5276 34.9742C85.4547 37.4087 86.2402 39.5716 87.5277 41.576C87.7139 42.8643 88.4771 43.8748 89.1755 44.8811C92.0096 48.9599 95.868 51.8698 99.9571 54.504C100.317 54.7365 100.674 54.9711 101.032 55.2057C100.417 55.6688 99.8013 56.1318 99.1838 56.5948C98.5644 56.9817 97.9348 57.3563 97.3255 57.7576C96.6109 58.2309 95.9489 58.1959 95.2202 57.737C92.4549 55.996 89.8091 54.0903 87.3515 51.9192C86.7483 51.306 86.143 50.6906 85.5397 50.0774C84.6247 48.9784 83.7644 47.8383 82.9567 46.6571C82.5235 45.8545 82.0903 45.0498 81.6591 44.2472C81.2421 43.1071 80.823 41.967 80.406 40.8269C80.2501 40.0635 80.0882 39.2958 79.9283 38.5282Z" fill="#F7B84B"/>
<path d="M53.136 28.6604C52.8222 29.3293 52.8344 30.0413 52.8344 30.7616C52.8404 39.9379 52.8384 49.1122 52.8364 58.2885C52.1623 58.3647 51.4821 58.4099 50.8141 58.5211C49.1379 58.803 47.6905 59.6097 46.3362 60.614C46.3342 50.314 46.3281 40.0161 46.3281 29.7182C46.3281 28.9547 46.6277 28.6604 47.3889 28.6584C49.3039 28.6522 51.221 28.6584 53.136 28.6604Z" fill="#C7EEFD"/>
<path d="M46.3388 60.6139C47.6951 59.6117 49.1405 58.8029 50.8167 58.521C51.4847 58.4078 52.1649 58.3625 52.839 58.2885C53.1062 58.5251 53.4422 58.3831 53.7378 58.4572C52.677 58.7535 51.5859 59.0005 50.6365 59.5726C47.1991 61.6491 45.4299 64.7277 45.4197 68.823C45.4157 70.7513 45.4197 72.6796 45.4177 74.6058C44.525 74.6058 43.6343 74.6058 42.7415 74.6058C42.782 72.2186 42.6322 69.8293 42.8286 67.4463C43.0351 64.9315 44.0978 62.8427 45.8691 61.1058C46.0311 60.9473 46.1829 60.7786 46.3388 60.6139Z" fill="#2565AB"/>
<path d="M98.2712 24.5096C103.415 25.5344 106.982 30.0701 106.901 35.4866C106.826 40.4812 102.964 45.0539 98.1598 45.8339C97.9432 45.5376 97.589 45.5376 97.2894 45.4264C95.8339 44.879 94.4796 44.1464 93.3804 43.0166C90.7851 40.3536 89.6718 37.1721 90.2446 33.4287C90.7467 30.1422 92.4694 27.6932 95.178 25.8946C96.1436 25.2546 97.2509 24.9932 98.2712 24.5096ZM102.233 32.7043C102.211 32.2248 101.982 31.879 101.553 31.6856C101.016 31.4428 100.579 31.6383 100.192 32.0354C98.84 33.4163 97.4695 34.7787 96.1416 36.1822C95.765 36.5794 95.5505 36.5567 95.1982 36.1678C94.516 35.4146 93.7913 34.6984 93.0646 33.9864C92.5099 33.4451 91.852 33.4184 91.3844 33.8814C90.8762 34.3815 90.8945 35.0339 91.4775 35.641C92.5524 36.7584 93.6395 37.8656 94.7367 38.9625C95.3885 39.6128 95.9412 39.6272 96.5748 38.9892C98.3299 37.2214 100.069 35.4352 101.814 33.6571C102.071 33.3937 102.261 33.1015 102.233 32.7043Z" fill="#0AB39C"/>
<path d="M98.2714 24.5096C97.2511 24.9912 96.1438 25.2546 95.1802 25.8946C92.4716 27.6932 90.7489 30.1422 90.2469 33.4287C89.674 37.1741 90.7894 40.3557 93.3826 43.0166C94.4818 44.1444 95.8361 44.879 97.2916 45.4265C97.5912 45.5396 97.9455 45.5376 98.1621 45.8339C93.998 46.5892 90.6153 45.1795 87.8784 41.9794C87.763 41.8457 87.6496 41.7119 87.5343 41.5761C86.2468 39.5696 85.4593 37.4067 85.5342 34.9742C85.6172 29.6586 89.4169 25.2381 94.5304 24.4047C95.7653 24.205 97.0325 24.1762 98.2714 24.5096Z" fill="#0AB39C"/>
<path d="M45.4173 74.6079C45.4173 72.6796 45.4133 70.7513 45.4194 68.8251C45.4295 64.7298 47.2008 61.6511 50.6361 59.5747C51.5855 59.0005 52.6766 58.7556 53.7374 58.4593C55.9824 58.6527 57.863 59.6426 59.5007 61.1758C59.6849 61.3486 59.8752 61.5153 60.0635 61.6841C60.5635 62.4496 61.0655 63.2172 61.5656 63.9828C62.0089 65.09 62.3206 66.2342 62.5271 67.4113C62.5372 68.1851 62.5474 68.9568 62.5575 69.7306C62.5575 70.8892 62.5575 72.0458 62.5575 73.2044C62.5514 73.6757 62.5433 74.1469 62.5372 74.6182C60.9724 74.6182 59.4076 74.6182 57.8448 74.6161C57.8428 72.4882 57.8711 70.3583 57.8327 68.2324C57.782 65.4604 55.4885 63.1761 52.8406 63.2049C50.0328 63.0485 47.6057 65.2402 47.5206 68.0884C47.4559 70.2636 47.4923 72.4409 47.4842 74.6161C47.2008 74.6326 46.9194 74.6491 46.636 74.6655C46.2271 74.6449 45.8222 74.6264 45.4173 74.6079Z" fill="#3776BB"/>
<path d="M47.4798 74.6161C47.4879 72.4388 47.4535 70.2616 47.5163 68.0884C47.6013 65.2402 50.0305 63.0485 52.8362 63.2049C52.8362 67.008 52.8362 70.8131 52.8383 74.6161C51.0528 74.6141 49.2653 74.6141 47.4798 74.6161Z" fill="#C7EEFD"/>
<path d="M62.5352 74.6161C62.5412 74.1449 62.5493 73.6736 62.5554 73.2023C70.3006 73.2044 78.0477 73.2085 85.7929 73.2106C86.9731 73.2106 87.5116 73.5604 87.5217 74.3301C87.5338 75.1409 86.971 75.5278 85.7726 75.5278C79.238 75.5299 72.7035 75.534 66.1689 75.536C65.7276 74.8672 65.1142 74.5914 64.3227 74.6367C63.7295 74.6696 63.1303 74.6264 62.5352 74.6161Z" fill="#2196F3"/>
<path d="M52.8389 74.6142C52.8389 70.8111 52.8389 67.006 52.8369 63.2029C55.4827 63.1741 57.7783 65.4584 57.829 68.2304C57.8674 70.3583 57.8391 72.4863 57.8411 74.6142C56.1751 74.6142 54.507 74.6142 52.8389 74.6142Z" fill="#DDF5FC"/>
<path d="M72.7317 58.1568C68.3915 58.1568 64.0513 58.1568 59.709 58.1568C59.4823 58.1568 59.2536 58.165 59.0288 58.1424C58.4377 58.0848 58.1138 57.6958 58.043 57.1422C57.9742 56.6092 58.2394 56.2017 58.7252 55.9692C59.0066 55.8354 59.3123 55.8396 59.6159 55.8396C68.3975 55.8416 77.1812 55.8416 85.9628 55.8396C86.2685 55.8396 86.5721 55.8437 86.8535 55.9774C87.3434 56.212 87.5802 56.6236 87.5094 57.1628C87.4406 57.6958 87.1288 58.0559 86.5863 58.1362C86.3393 58.1733 86.0822 58.1588 85.8312 58.1588C81.4627 58.1568 77.0982 58.1568 72.7317 58.1568Z" fill="#2196F3"/>
<path d="M81.6633 44.2513C82.0965 45.056 82.5297 45.8586 82.9609 46.6612C75.1449 46.6653 67.3269 46.6756 59.5109 46.6715C58.6283 46.6715 58.0149 46.1446 58.0088 45.4738C58.0048 44.8049 58.6262 44.2966 59.4967 44.2596C59.6485 44.2534 59.7983 44.2575 59.9502 44.2575C61.6142 44.2575 63.2782 44.2575 64.9422 44.2575C70.5172 44.2555 76.0903 44.2534 81.6633 44.2513Z" fill="#2196F3"/>
<path d="M62.5558 69.7285C62.5456 68.9547 62.5355 68.183 62.5254 67.4092C70.3738 67.4072 78.2222 67.4092 86.0706 67.3989C86.7427 67.3989 87.2852 67.5841 87.4836 68.2921C87.6415 68.858 87.3965 69.2963 86.9107 69.5906C86.5868 69.7861 86.2224 69.7182 85.8722 69.7182C78.4287 69.7223 70.9831 69.7203 63.5396 69.7203C63.2116 69.7203 62.8837 69.7244 62.5558 69.7285Z" fill="#2196F3"/>
<path d="M79.9282 38.5282C80.0881 39.2958 80.2481 40.0634 80.408 40.8331C73.3936 40.8372 66.3813 40.8413 59.3669 40.8413C58.545 40.8413 58.0248 40.3886 58.0167 39.7054C58.0086 39.0139 58.5693 38.5303 59.4155 38.5303C66.2558 38.5262 73.092 38.5282 79.9282 38.5282Z" fill="#2196F3"/>
<path d="M85.5463 50.0814C86.1496 50.6947 86.7549 51.31 87.3581 51.9233C86.9958 52.2814 86.5747 52.4213 86.0605 52.4192C81.0219 52.4069 75.9833 52.411 70.9447 52.4131C70.3314 52.4131 69.7564 52.3225 69.5257 51.6475C69.222 50.7647 69.7828 50.0979 70.8091 50.0979C75.3942 50.0938 79.9794 50.0958 84.5645 50.0958C84.8905 50.0979 85.2184 50.0876 85.5463 50.0814Z" fill="#2196F3"/>
<path d="M61.5655 63.9807C61.0655 63.2152 60.5655 62.4476 60.0635 61.682C65.0029 61.6738 69.9423 61.6594 74.8817 61.6615C75.5841 61.6615 75.9971 62.0854 76.0315 62.7254C76.0659 63.3901 75.6428 63.882 74.9485 63.9581C74.7238 63.9828 74.495 63.9684 74.2683 63.9684C70.0334 63.9746 65.7985 63.9766 61.5655 63.9807Z" fill="#2196F3"/>
<path d="M82.7686 61.6532C83.9285 61.6532 85.0885 61.645 86.2464 61.6573C87.0177 61.6655 87.5096 62.1101 87.5217 62.7707C87.5339 63.4724 87.0379 63.9601 86.2322 63.9663C83.9144 63.9807 81.5945 63.9807 79.2766 63.9663C78.4891 63.9622 77.9689 63.4395 77.9972 62.7583C78.0255 62.1018 78.5235 61.6655 79.2908 61.6594C80.4507 61.645 81.6086 61.6532 82.7686 61.6532Z" fill="#2196F3"/>
<path d="M62.4824 52.411C61.4499 52.411 60.4175 52.4172 59.3851 52.409C58.5571 52.4007 57.9903 51.8904 58.0207 51.203C58.0511 50.5198 58.5571 50.102 59.3912 50.1C61.4803 50.0938 63.5715 50.0938 65.6606 50.1C66.5472 50.102 66.944 50.4642 66.9481 51.2359C66.9521 51.9521 66.4825 52.3946 65.6545 52.4069C64.5978 52.4234 63.5391 52.411 62.4824 52.411Z" fill="#2196F3"/>
<path d="M102.233 32.7043C102.261 33.1015 102.073 33.3937 101.814 33.6571C100.069 35.4352 98.3297 37.2215 96.5746 38.9892C95.941 39.6272 95.3883 39.6128 94.7365 38.9625C93.6393 37.8656 92.5522 36.7584 91.4773 35.641C90.8943 35.0359 90.8761 34.3836 91.3842 33.8814C91.8518 33.4204 92.5097 33.4451 93.0644 33.9864C93.7911 34.6984 94.5138 35.4146 95.1981 36.1678C95.5503 36.5567 95.7669 36.5794 96.1414 36.1822C97.4714 34.7787 98.8399 33.4163 100.192 32.0355C100.579 31.6403 101.016 31.4428 101.552 31.6856C101.98 31.8811 102.21 32.2248 102.233 32.7043Z" fill="#FAFDF9"/>
</g>
<defs>
<clipPath id="clip0_60_213">
<rect width="74" height="79" fill="white" transform="translate(39 16)"/>
</clipPath>
</defs>
</svg>
