<svg width="152" height="110" viewBox="0 0 152 110" fill="none" xmlns="http://www.w3.org/2000/svg">
<rect width="151.161" height="110" rx="16" fill="white"/>
<g clip-path="url(#clip0_60_82)">
<path d="M116.015 93.9754C115.588 93.9803 115.159 93.9902 114.732 93.9902C86.6665 93.9902 58.5987 93.9902 30.5334 93.9902C29.9912 93.9902 29.422 94.0812 29 93.599C29 91.6359 29 89.6728 29 87.7096C29.3876 87.225 29.9274 87.2029 30.4844 87.2004C33.036 87.1881 35.5876 87.166 38.1392 87.1487C39.1304 87.1537 40.1192 87.1561 41.1104 87.161C42.0451 87.1561 42.9824 87.1537 43.9171 87.1487C46.4908 87.1586 49.0621 87.1709 51.6358 87.1807C55.2252 87.1758 58.8171 87.1684 62.4065 87.1635C63.567 87.1635 64.7251 87.166 65.8855 87.166C67.8483 87.1684 69.8136 87.1709 71.7763 87.1758C79.6029 87.1758 87.432 87.1783 95.2586 87.1783C96.8509 87.1783 98.4432 87.1758 100.033 87.1758C102.05 87.1709 104.064 87.1635 106.081 87.1586C108.169 87.161 110.259 87.1635 112.347 87.166C113.564 87.166 114.778 87.1635 115.995 87.1635L116.005 87.2029C116.013 89.4587 116.013 91.7171 116.015 93.9754Z" fill="#2156A3"/>
<path d="M29 45.7385C29.3459 45.3867 29.7753 45.3326 30.2488 45.3326C31.9196 45.335 33.5905 45.308 35.2588 45.2908C39.8542 45.308 44.4495 45.3326 49.0424 45.3424C50.0754 45.3449 51.1083 45.3031 52.1412 45.2834C53.7826 45.3842 55.4239 45.3719 57.0678 45.2883C59.4501 45.2957 61.83 45.3031 64.2123 45.3104C66.7295 45.3154 69.2468 45.3227 71.7641 45.3277C73.0031 45.3252 74.2396 45.3227 75.4786 45.3203C78.0891 45.3203 80.6996 45.3203 83.3101 45.3227C85.8274 45.3277 88.3447 45.3326 90.8619 45.3375C92.1034 45.335 93.3448 45.3301 94.5863 45.3277C96.949 45.3227 99.3092 45.3178 101.672 45.3154C105.229 45.3203 108.787 45.3277 112.345 45.3326C113.581 45.3621 114.82 45.4285 116.057 45.2957L116.035 45.3449C116.025 47.5786 116.015 49.8099 116.005 52.0436C87.4516 52.0436 58.8956 52.0436 30.3421 52.051C29.8415 52.051 29.3631 52.0535 29.0025 51.6328C29 49.6672 29 47.7041 29 45.7385Z" fill="#2156A3"/>
<path d="M95.2635 87.1758C87.4369 87.1758 79.6078 87.1733 71.7812 87.1733C71.7886 82.942 71.796 78.7132 71.8009 74.4819C74.6616 74.4745 77.5224 74.4696 80.3807 74.4622C81.183 75.2519 81.9853 76.0415 82.7875 76.8312C83.5653 77.6061 84.3872 78.3417 85.111 79.1658C85.6875 79.8227 86.058 79.8374 86.6959 79.1929C88.2809 77.584 89.7799 75.8841 91.5366 74.4523C92.7805 74.4499 94.0269 74.445 95.2708 74.4425L95.2635 74.5311C95.2635 78.7427 95.2635 82.9592 95.2635 87.1758Z" fill="#DEEFFF"/>
<path d="M71.8035 71.6847C71.7961 67.7954 71.7985 63.9085 71.7716 60.0191C71.7642 59.0449 72.3383 58.9637 73.094 58.9637C80.4838 58.976 87.8737 58.9736 95.2636 58.9736C95.2636 63.2 95.2636 67.4264 95.2611 71.6528L95.2758 71.7241C94.66 71.7069 94.0417 71.6921 93.4259 71.6749C93.4259 71.3723 93.4406 71.0697 93.4259 70.7671C93.3327 68.927 91.9661 67.5395 90.1432 67.4239C88.9238 67.2222 87.9694 67.7462 87.1352 68.558C85.906 69.7511 85.9134 69.7511 84.6768 68.5506C83.7838 67.6822 82.741 67.1508 81.4652 67.3968C79.3234 67.8052 78.3886 69.1337 78.3886 71.6724C76.1927 71.6798 73.9993 71.6823 71.8035 71.6847Z" fill="#DEEFFF"/>
<path d="M62.4111 87.161C58.8192 87.1659 55.2298 87.1733 51.6403 87.1782C51.633 82.8337 51.5986 78.4893 51.6305 74.1448C51.6428 72.4547 52.1556 70.8754 53.2793 69.5814C54.6827 67.9627 55.269 66.1127 55.0605 63.9921C56.2872 63.9823 57.514 63.9724 58.7407 63.9626L58.7358 63.9896C58.6916 65.8372 58.991 67.6182 60.252 69.0328C61.8002 70.7671 62.4577 72.7426 62.4283 75.0501C62.3718 79.0871 62.4111 83.124 62.4111 87.161Z" fill="#F7B84B"/>
<path d="M112.343 45.3326C108.785 45.3276 105.227 45.3227 101.67 45.3153C101.682 41.1136 101.704 36.9118 101.704 32.71C101.704 30.8428 102.136 29.1183 103.37 27.6841C104.742 26.0875 105.328 24.2572 105.193 22.1735C106.415 22.1784 107.634 22.1809 108.856 22.1858C108.716 24.3408 109.374 26.1687 110.831 27.7997C111.815 28.9018 112.365 30.2721 112.357 31.8244C112.335 36.3263 112.345 40.8282 112.343 45.3326Z" fill="#54A0FE"/>
<path d="M52.1441 45.2834C51.1112 45.3055 50.0783 45.3449 49.0453 45.3424C44.45 45.3326 39.8546 45.3104 35.2617 45.2908C35.2691 42.1739 35.2764 39.057 35.2838 35.9401C40.6373 35.9425 45.9908 35.9474 51.3442 35.9474C51.6141 35.9474 51.884 35.8835 52.1563 35.8515C52.1613 35.8909 52.1588 35.9302 52.1441 35.9671C52.1441 39.0742 52.1441 42.1788 52.1441 45.2834Z" fill="#DEEFFF"/>
<path d="M52.1563 35.854C51.8864 35.8884 51.6165 35.9499 51.3442 35.9499C45.9907 35.9524 40.6372 35.9475 35.2837 35.9425C35.2813 32.8256 35.2788 29.7087 35.2764 26.5943C36.2847 26.5968 37.2931 26.5968 38.3015 26.5992C42.9165 26.6115 47.5315 26.6263 52.144 26.6386C52.1489 29.7112 52.1514 32.7814 52.1563 35.854Z" fill="#2196F3"/>
<path d="M52.1437 26.6386C47.5287 26.6263 42.9137 26.6115 38.3011 26.5992C37.2928 26.5967 36.2844 26.5943 35.276 26.5943C35.2687 23.8439 35.2588 21.0911 35.2539 18.3408C35.2515 17.6839 35.4379 17.2042 36.2304 17.2067C41.5324 17.2239 46.8368 17.2313 52.1437 17.2436C52.1412 20.3506 52.1363 23.4602 52.1338 26.5672L52.1437 26.6386Z" fill="#DEEFFF"/>
<path d="M90.8623 45.3375C88.3451 45.3326 85.8278 45.3277 83.3105 45.3228C83.3228 40.6142 83.3351 35.9056 83.3449 31.1971C85.8523 31.1995 88.3598 31.2045 90.8648 31.2069C90.8648 35.9204 90.8648 40.629 90.8623 45.3375Z" fill="#FEE077"/>
<path d="M71.7666 45.3301C69.2494 45.3252 66.7321 45.3178 64.2148 45.3129C64.2247 40.6092 64.2345 35.908 64.2443 31.2044C66.7542 31.2093 69.2641 31.2118 71.774 31.2167C71.7715 35.9203 71.7691 40.624 71.7666 45.3301Z" fill="#DEEFFF"/>
<path d="M46.7584 63.9552C46.3806 67.1312 46.0077 70.3071 45.6274 73.4831C45.3477 75.8128 45.0533 78.14 44.7834 80.4721C44.7122 81.0773 44.6215 81.6357 43.9296 81.8325C42.9899 81.8325 42.0502 81.835 41.1105 81.835L41.1154 81.7784C41.0345 81.0699 41.2111 80.3836 41.3044 79.6923C41.6454 77.1683 42.006 74.6442 42.3544 72.1202C42.6758 69.8053 42.9874 67.4904 43.3162 65.1779C43.4266 64.4005 43.1911 64.1078 42.3422 64.125C39.9967 64.1791 37.6462 64.1324 35.2982 64.125C35.2811 62.7228 35.2664 61.323 35.2492 59.9207C35.2394 59.1384 35.7006 58.9589 36.3778 58.9638C38.7503 58.981 41.1228 58.9761 43.4953 58.9785C43.4953 60.4669 43.4978 61.9528 43.5002 63.4411C43.5002 63.7806 43.4683 64.1594 43.9713 64.1398C44.9036 64.1004 45.8506 64.3021 46.7584 63.9552Z" fill="#0A3779"/>
<path d="M35.3027 64.1225C37.6507 64.1299 39.9987 64.1766 42.3467 64.1225C43.1956 64.1028 43.4311 64.398 43.3207 65.1754C42.9919 67.4879 42.6779 69.8052 42.3589 72.1177C42.0081 74.6417 41.6499 77.1633 41.3088 79.6898C41.2156 80.3811 41.0414 81.0674 41.1199 81.7759C40.1238 81.7931 39.1302 81.8079 38.134 81.8251C37.5231 81.6751 37.344 81.2052 37.2778 80.659C36.6153 75.146 35.9578 69.6355 35.3027 64.1225Z" fill="#0A3779"/>
<path d="M112.352 87.1635C110.264 87.1611 108.173 87.1586 106.086 87.1561C106.086 83.6038 106.098 80.0515 106.078 76.4991C106.073 75.4241 106.336 74.4524 106.89 73.5372C107.469 72.5852 107.572 71.5273 107.521 70.4425C108.701 70.44 109.881 70.4351 111.059 70.4326C111.012 71.6946 111.066 72.9025 111.819 74.0317C112.268 74.7033 112.369 75.5545 112.362 76.4106C112.33 79.9949 112.349 83.5792 112.352 87.1635Z" fill="#FEE077"/>
<path d="M112.342 45.3325C112.344 40.8306 112.334 36.3262 112.356 31.8243C112.364 30.272 111.814 28.9018 110.83 27.7996C109.373 26.1686 108.715 24.3383 108.855 22.1858L108.85 22.1144C110.018 22.1341 111.186 22.1538 112.352 22.1735C112.261 24.3211 112.926 26.1834 114.361 27.7996C115.504 29.0863 115.975 30.6632 115.985 32.3606C116.007 36.3065 115.99 40.255 115.995 44.2009C115.995 44.5674 116.032 44.9315 116.051 45.2956C114.817 45.426 113.581 45.3596 112.342 45.3325Z" fill="#54A0FE"/>
<path d="M62.4118 87.161C62.4118 83.1241 62.375 79.0847 62.4265 75.0477C62.4559 72.7402 61.7984 70.7672 60.2502 69.0304C58.9892 67.6158 58.6874 65.8372 58.734 63.9872C59.9166 63.9946 61.0992 64.002 62.2842 64.0094C62.1787 66.0857 62.7381 67.9258 64.139 69.5002C65.3216 70.8311 65.8908 72.4228 65.8932 74.2063C65.8981 78.5238 65.8932 82.8412 65.8908 87.1586C64.7303 87.1635 63.5698 87.1635 62.4118 87.161Z" fill="#FED05C"/>
<path d="M112.352 87.1635C112.352 83.5792 112.332 79.9949 112.362 76.4105C112.369 75.5569 112.269 74.7033 111.82 74.0317C111.066 72.9025 111.012 71.6946 111.059 70.4326V70.3883C112.227 70.4006 113.395 70.4129 114.56 70.4252C114.445 71.6774 114.629 72.841 115.333 73.9382C115.848 74.7451 115.993 75.7045 115.993 76.6713C115.993 80.1671 115.998 83.6628 116 87.1586C114.783 87.1635 113.567 87.1635 112.352 87.1635Z" fill="#FED05C"/>
<path d="M95.2637 87.1758C95.2637 82.9593 95.2637 78.7427 95.2637 74.5262C96.8462 74.5139 98.4287 74.5016 100.014 74.4893C100.023 78.7181 100.031 82.9445 100.041 87.1733C98.4458 87.1733 96.856 87.1758 95.2637 87.1758Z" fill="#DEEFFF"/>
<path d="M95.2637 71.6553C95.2637 67.4289 95.2637 63.2025 95.2661 58.9761C96.4855 58.9712 97.7073 58.9859 98.9267 58.9564C99.6897 58.9367 100.05 59.2369 100.046 60.029C100.023 63.9134 100.021 67.7979 100.011 71.6823C98.4287 71.6725 96.8462 71.6651 95.2637 71.6553Z" fill="#DEEFFF"/>
<path d="M90.8623 45.3374C90.8648 40.6289 90.8648 35.9178 90.8672 31.2093L90.8697 31.1625C92.0989 31.1773 93.3256 31.1921 94.5548 31.2068C94.5646 35.9154 94.5769 40.6215 94.5867 45.33C93.3452 45.3325 92.1038 45.335 90.8623 45.3374Z" fill="#FED05C"/>
<path d="M71.7666 45.3301C71.7691 40.6265 71.7715 35.9204 71.774 31.2167L71.7764 31.1552C73.0007 31.1724 74.225 31.1872 75.4493 31.2044C75.4591 35.9105 75.4689 40.6191 75.4787 45.3252C74.2422 45.3252 73.0032 45.3276 71.7666 45.3301Z" fill="#DEEFFF"/>
<path d="M116.015 93.9754C116.012 91.7171 116.012 89.4587 116.01 87.2004C117.904 87.2078 119.8 87.1881 121.692 87.2299C122.843 87.2545 122.99 87.4538 122.992 88.61C122.995 90.0491 122.978 91.4907 123 92.9299C123.01 93.658 122.72 94.0049 121.972 93.9951C119.987 93.9779 118 93.9828 116.015 93.9754Z" fill="#2156A3"/>
<path d="M52.1564 35.8539C52.1515 32.7838 52.149 29.7111 52.1441 26.641L52.1318 26.5696C53.7683 26.577 55.4072 26.5844 57.0437 26.5918C57.0412 29.7062 57.0388 32.8207 57.0363 35.9376C55.4048 35.9499 53.7732 35.9597 52.1417 35.9695C52.1588 35.9302 52.1613 35.8933 52.1564 35.8539Z" fill="#2196F3"/>
<path d="M52.1436 35.9695C53.7751 35.9597 55.4067 35.9474 57.0382 35.9376C57.0481 39.0545 57.0603 42.1738 57.0701 45.2907C55.4288 45.3744 53.7849 45.3842 52.1436 45.2858C52.1436 42.1787 52.1436 39.0741 52.1436 35.9695Z" fill="#DEEFFF"/>
<path d="M57.0456 26.5918C55.4092 26.5844 53.7703 26.577 52.1338 26.5697C52.1362 23.4626 52.1411 20.3531 52.1436 17.246C53.4562 17.2337 54.7713 17.2263 56.0839 17.2091C56.7807 17.1993 57.0775 17.5511 57.0751 18.2301C57.0579 21.0148 57.053 23.8021 57.0456 26.5918Z" fill="#DEEFFF"/>
<path d="M116.003 52.0412C116.013 49.8075 116.023 47.5762 116.032 45.3424C117.988 45.34 119.941 45.3523 121.896 45.3277C122.664 45.3178 123.015 45.618 123.003 46.4126C122.976 47.9427 122.983 49.4754 123 51.0055C123.008 51.6747 122.762 52.056 122.048 52.051C120.032 52.0461 118.017 52.0461 116.003 52.0412Z" fill="#2156A3"/>
<path d="M71.774 31.2167C69.2641 31.2118 66.7542 31.2093 64.2443 31.2044C63.4911 31.1527 63.1746 30.7345 63.1869 29.994C63.204 29.0445 63.1893 28.0973 63.1918 27.1477C63.1942 26.486 63.5205 26.0948 64.1903 26.0973C66.7223 26.1022 69.2543 26.1268 71.7863 26.144C71.7838 27.8144 71.7789 29.4848 71.7765 31.1577C71.7765 31.1527 71.774 31.2167 71.774 31.2167Z" fill="#2196F3"/>
<path d="M90.8667 31.2093C88.3592 31.2068 85.8518 31.2019 83.3468 31.1995C82.623 31.1749 82.3188 30.7419 82.309 30.0728C82.2942 29.0986 82.2967 28.1219 82.309 27.1453C82.3188 26.4934 82.6525 26.0973 83.3149 26.0973C85.8371 26.0998 88.3592 26.1268 90.8814 26.1416C90.8765 27.8144 90.8741 29.4873 90.8691 31.1626L90.8667 31.2093Z" fill="#2196F3"/>
<path d="M90.8691 31.1626C90.874 29.4898 90.8765 27.8169 90.8814 26.1416C92.1302 26.1293 93.3766 26.0973 94.6254 26.1096C95.2829 26.1146 95.6215 26.4836 95.6142 27.1625C95.6044 28.1097 95.5921 29.0593 95.6191 30.0064C95.6412 30.7641 95.2977 31.1503 94.5592 31.2044C93.3251 31.1921 92.0959 31.1774 90.8691 31.1626Z" fill="#2196F3"/>
<path d="M71.7764 31.1528C71.7788 29.4824 71.7837 27.8095 71.7862 26.1391C73.0301 26.1268 74.274 26.0973 75.5179 26.1096C76.1779 26.117 76.5042 26.4934 76.4993 27.165C76.4919 28.1097 76.4821 29.0543 76.5042 29.999C76.5214 30.7444 76.1926 31.1454 75.4492 31.202C74.2249 31.1872 73.0007 31.17 71.7764 31.1528Z" fill="#2196F3"/>
<path d="M62.2816 64.0143C61.099 64.0069 59.9165 63.9995 58.7314 63.9922L58.7364 63.9651C58.7413 62.2701 58.7462 60.5751 58.7511 58.8801C59.9336 58.8703 61.1138 58.8432 62.2963 58.8605C63.0594 58.8728 63.4617 59.291 63.4617 60.0733C63.4617 60.9564 63.4372 61.8396 63.4691 62.7203C63.5035 63.569 63.209 64.0709 62.2816 64.0143Z" fill="#2196F3"/>
<path d="M111.059 70.4326C109.879 70.435 108.698 70.4399 107.521 70.4424C106.569 70.4867 106.223 70.0193 106.282 69.0894C106.338 68.2062 106.301 67.3156 106.292 66.43C106.284 65.7437 106.593 65.4165 107.288 65.4263C108.048 65.4386 108.811 65.4165 109.574 65.4116C110.07 65.4239 110.568 65.4362 111.064 65.4485C111.061 67.0942 111.059 68.74 111.059 70.3883V70.4326Z" fill="#2196F3"/>
<path d="M108.856 22.1834C107.634 22.1784 106.415 22.176 105.193 22.1711C104.499 22.0899 104.197 21.7233 104.229 20.9976C104.273 20.021 104.248 19.0419 104.239 18.0627C104.231 17.3395 104.563 16.9926 105.291 17.0025C106.479 17.0172 107.669 17.0148 108.856 17.0197C108.854 18.7171 108.854 20.4146 108.851 22.112L108.856 22.1834Z" fill="#F7B84B"/>
<path d="M108.851 22.112C108.853 20.4145 108.853 18.7171 108.855 17.0197C110.041 17.0123 111.228 17.0123 112.413 16.9975C113.134 16.9877 113.48 17.3321 113.475 18.0529C113.47 18.9976 113.431 19.9471 113.488 20.8893C113.539 21.7504 113.179 22.1415 112.352 22.1686C111.186 22.1514 110.018 22.1317 108.851 22.112Z" fill="#FED05C"/>
<path d="M58.7531 58.8777C58.7482 60.5727 58.7433 62.2676 58.7384 63.9626C57.5117 63.9725 56.2849 63.9823 55.0582 63.9921C54.3393 63.9897 54.1161 63.5813 54.1308 62.922C54.1504 61.9724 54.1553 61.0228 54.1308 60.0757C54.1063 59.1999 54.5773 58.8506 55.3673 58.8432C56.4959 58.8359 57.6245 58.8629 58.7531 58.8777Z" fill="#2196F3"/>
<path d="M111.059 70.3907C111.061 68.7449 111.064 67.0992 111.064 65.4509C111.508 65.4312 111.952 65.414 112.396 65.3968C113.159 65.4091 113.922 65.4386 114.685 65.4288C115.377 65.4189 115.696 65.7289 115.686 66.4226C115.671 67.3722 115.652 68.3243 115.693 69.2714C115.728 70.1004 115.372 70.4694 114.56 70.4301C113.392 70.4153 112.224 70.403 111.059 70.3907Z" fill="#2196F3"/>
<path d="M71.8037 71.6847C73.9996 71.6822 76.193 71.6798 78.3888 71.6749C78.7397 72.8286 79.6475 73.5814 80.3835 74.4597C77.5228 74.467 74.662 74.472 71.8037 74.4793C71.8037 73.5494 71.8037 72.6171 71.8037 71.6847Z" fill="#FEE077"/>
<path d="M112.396 65.3944C111.952 65.4116 111.508 65.4313 111.063 65.4485C110.568 65.4362 110.07 65.4239 109.574 65.4116C109.579 63.4239 109.582 61.4337 109.594 59.4459C109.599 58.3463 110.158 57.6796 111.032 57.7091C111.871 57.7362 112.371 58.3709 112.376 59.4287C112.383 61.4189 112.388 63.4066 112.396 65.3944Z" fill="#FEE077"/>
<path d="M46.7587 63.9552C45.8485 64.302 44.9039 64.1003 43.974 64.1372C43.4711 64.1569 43.503 63.7781 43.503 63.4386C43.5005 61.9502 43.5005 60.4644 43.498 58.976C44.2586 58.9711 45.0167 58.976 45.7773 58.9563C46.4545 58.9391 46.8029 59.2368 46.7955 59.9305C46.7783 61.2737 46.771 62.6144 46.7587 63.9552Z" fill="#0A3779"/>
<path d="M38.1289 81.8251C39.125 81.8079 40.1187 81.7932 41.1148 81.7759L41.1099 81.8325C41.1099 83.6087 41.1099 85.3849 41.1099 87.161C40.1187 87.1561 39.1299 87.1536 38.1387 87.1487C38.1363 85.375 38.1338 83.5989 38.1289 81.8251Z" fill="#FEE077"/>
<path d="M41.1133 87.161C41.1133 85.3848 41.1133 83.6086 41.1133 81.8325C42.053 81.8325 42.9926 81.83 43.9323 81.83C43.9299 83.6037 43.925 85.375 43.9225 87.1487C42.9853 87.1536 42.0481 87.1561 41.1133 87.161Z" fill="#FED05C"/>
<path d="M95.2637 71.6553C96.8462 71.6651 98.4287 71.6725 100.011 71.6823C100.011 72.6172 100.014 73.5544 100.014 74.4893C98.4311 74.5016 96.8486 74.5139 95.2637 74.5262L95.271 74.4376C95.2735 73.5348 95.2735 72.6295 95.2759 71.7266L95.2637 71.6553Z" fill="#FED05C"/>
<path d="M80.3833 74.4622C79.6473 73.584 78.7395 72.8312 78.3887 71.6774C78.3887 69.1386 79.3259 67.8102 81.4653 67.4018C82.7411 67.1583 83.7839 67.6872 84.6769 68.5556C85.9135 69.7586 85.9037 69.7561 87.1353 68.563C87.9719 67.7511 88.9239 67.2272 90.1433 67.4289C90.2512 68.6811 89.7777 69.6454 88.865 70.5138C86.9832 72.3072 85.175 74.1793 83.3447 76.0243C83.1141 76.2556 82.8 76.4426 82.7878 76.8312C81.9879 76.0416 81.1856 75.2519 80.3833 74.4622Z" fill="#F06548"/>
<path d="M82.79 76.8288C82.8023 76.4401 83.1139 76.2556 83.347 76.0219C85.1797 74.1768 86.9879 72.3047 88.8673 70.5113C89.78 69.6429 90.2511 68.6786 90.1456 67.4264C91.9685 67.542 93.3351 68.9295 93.4283 70.7696C93.443 71.0722 93.4283 71.3748 93.4283 71.6774C93.1143 72.8189 92.1672 73.5224 91.5391 74.4474C89.7824 75.8792 88.2809 77.5791 86.6984 79.188C86.063 79.835 85.69 79.8177 85.1135 79.1609C84.3897 78.3392 83.5678 77.6037 82.79 76.8288Z" fill="#F06548"/>
<path d="M91.5371 74.4499C92.1652 73.5249 93.1147 72.8213 93.4263 71.6799C94.0421 71.6971 94.6604 71.7119 95.2762 71.7291C95.2738 72.6344 95.2737 73.5372 95.2713 74.4425C94.0274 74.4425 92.7835 74.445 91.5371 74.4499Z" fill="#FEE077"/>
</g>
<defs>
<clipPath id="clip0_60_82">
<rect width="94" height="77" fill="white" transform="translate(29 17)"/>
</clipPath>
</defs>
</svg>
