<svg width="102" height="114" viewBox="0 0 102 114" fill="none" xmlns="http://www.w3.org/2000/svg">
<g clip-path="url(#clip0_54_371)">
<path d="M50.5934 68.4001C56.8862 68.4001 61.9934 63.2929 61.9934 57.0001C61.9934 50.7073 56.8862 45.6001 50.5934 45.6001C44.3006 45.6001 39.1934 50.7073 39.1934 57.0001C39.1934 63.2929 44.3006 68.4001 50.5934 68.4001ZM50.5934 50.1601C54.3554 50.1601 57.4334 53.2381 57.4334 57.0001C57.4334 60.7621 54.3554 63.8401 50.5934 63.8401C46.8314 63.8401 43.7534 60.7621 43.7534 57.0001C43.7534 53.2381 46.8086 50.1601 50.5934 50.1601Z" fill="#2196F3"/>
<path d="M29.7088 66.4164L15.5956 74.556C12.7456 71.6604 8.23122 70.908 4.56042 73.0284C0.205624 75.5364 -1.29918 81.1224 1.23162 85.4772C2.91882 88.3956 5.99683 90.0372 9.14322 90.0372C10.6936 90.0372 12.244 89.6496 13.6804 88.8288C17.3512 86.7084 18.9472 82.422 17.8756 78.5004L30.1876 71.3868C30.4156 72.0252 30.7576 72.5952 31.2592 73.0968L34.474 76.3116C36.184 78.0444 39.1936 78.0444 40.9264 76.3116L41.77 75.468C41.884 75.5364 42.0436 75.6048 42.0436 75.6048C42.2716 75.7188 42.4996 75.8328 42.7504 75.924C42.9784 76.0152 43.2292 76.1064 43.48 76.1976C43.48 76.1976 43.6624 76.266 43.7536 76.2888V77.52C43.7536 80.028 45.8056 82.08 48.3136 82.08V96.0792C44.392 97.1052 41.4736 100.639 41.4736 104.88C41.4736 109.919 45.5548 114 50.5936 114C55.6324 114 59.7136 109.919 59.7136 104.88C59.7136 100.639 56.7952 97.1052 52.8736 96.0792V82.08C55.3816 82.08 57.4336 80.028 57.4336 77.52V75.6276L57.7072 76.2432C57.958 76.152 58.2088 76.0608 58.4368 75.9696C58.6648 75.8784 58.8928 75.7644 59.326 75.5592C59.326 75.5592 59.3716 75.5364 59.4172 75.5136L60.2608 76.3572C61.9936 78.09 65.0032 78.09 66.7132 76.3572L69.928 73.1424C70.4296 72.6636 70.7716 72.0708 70.9996 71.4324L83.2888 78.546C82.2172 82.4448 83.8132 86.754 87.484 88.8744C88.9204 89.6952 90.4708 90.0828 92.0212 90.0828C95.1676 90.0828 98.2456 88.4412 99.9328 85.5228C102.441 81.168 100.936 75.582 96.604 73.074C92.9332 70.9536 88.4188 71.706 85.5688 74.6016L71.4784 66.462C70.8628 66.12 70.1788 66.0972 69.5632 66.3252L69.1072 65.8692L69.1528 65.778C69.1528 65.778 69.244 65.5956 69.244 65.5728C69.358 65.3448 69.472 65.1168 69.5632 64.866C69.6544 64.638 69.7456 64.3872 69.8368 64.1364C69.8368 64.1364 69.9052 63.954 69.928 63.8628H71.1136C73.6216 63.8628 75.6736 61.8108 75.6736 59.3028V54.7428C75.6736 52.2348 73.6216 50.1828 71.1136 50.1828H69.2212L69.8368 49.9092C69.7456 49.6584 69.6544 49.4076 69.5632 49.1796C69.472 48.9516 69.358 48.7236 69.1528 48.2904C69.1528 48.2904 69.13 48.2448 69.1072 48.1992L69.5632 47.7432C69.814 47.8344 70.0876 47.9028 70.3612 47.9028C70.7488 47.9028 71.1364 47.8116 71.5012 47.6064L85.5916 39.4668C87.3244 41.2224 89.6956 42.2028 92.1124 42.2028C93.6628 42.2028 95.236 41.8152 96.6496 40.9944C101.004 38.4864 102.509 32.9004 99.9784 28.5456C97.4704 24.1908 91.8616 22.686 87.5296 25.2168C83.8588 27.3372 82.2628 31.6236 83.3344 35.5452L71.0452 42.636C70.8172 41.9976 70.4752 41.4276 69.9736 40.926L66.7588 37.7112C65.0488 35.9784 62.0392 35.9784 60.3064 37.7112L59.4628 38.5548C59.3488 38.5092 59.1892 38.418 59.1892 38.418C58.9612 38.304 58.7332 38.19 58.4824 38.0988C58.2544 38.0076 58.0036 37.9164 57.7528 37.8252C57.7528 37.8252 57.5704 37.7568 57.4792 37.734V36.48C57.4792 33.972 55.4272 31.92 52.9192 31.92V17.9208C56.8408 16.8948 59.7592 13.3608 59.7592 9.12C59.7592 4.0812 55.678 0 50.6392 0C45.6004 0 41.5192 4.0812 41.5192 9.12C41.5192 13.3608 44.4376 16.8948 48.3592 17.9208V31.92C45.8512 31.92 43.7992 33.972 43.7992 36.48V38.3724L43.5256 37.7568C43.2748 37.848 43.024 37.9392 42.796 38.0304C42.568 38.1216 42.34 38.2356 41.9068 38.4408C41.9068 38.4408 41.8612 38.4636 41.8156 38.4864L40.972 37.6428C39.2392 35.91 36.2524 35.9328 34.5196 37.6428L31.3048 40.8576C30.8032 41.3364 30.4612 41.9292 30.2332 42.5676L17.9212 35.4768C18.9928 31.578 17.3968 27.2688 13.726 25.1484C9.37122 22.6404 3.78522 24.1224 1.27722 28.4772C-1.23078 32.832 0.274024 38.418 4.60602 40.926C6.04242 41.7468 7.59282 42.1344 9.14322 42.1344C11.56 42.1344 13.9312 41.1768 15.664 39.3984L29.7544 47.538C30.1192 47.7432 30.5068 47.8344 30.8944 47.8344C31.168 47.8344 31.4416 47.766 31.6924 47.6748L32.1484 48.1308C32.1028 48.2448 32.0116 48.4044 32.0116 48.4044C31.8976 48.6324 31.7836 48.8604 31.6924 49.1112C31.6012 49.3392 31.51 49.59 31.4188 49.8408C31.4188 49.8408 31.3504 50.0232 31.3276 50.1144H30.142C27.634 50.1144 25.582 52.1664 25.582 54.6744V59.2344C25.582 61.7424 27.634 63.7944 30.142 63.7944H32.0344L31.4188 64.068C31.51 64.3188 31.6012 64.5696 31.6924 64.7976C31.7836 65.0256 31.8976 65.2536 32.1028 65.6868C32.1028 65.6868 32.1256 65.7324 32.1484 65.778L31.6924 66.234C31.0084 66.0516 30.3016 66.0744 29.7088 66.4164ZM11.4004 84.8844C9.23442 86.1384 6.43002 85.386 5.17602 83.22C3.92202 81.0312 4.65162 78.2496 6.84042 76.9956C7.54722 76.5852 8.34522 76.38 9.12042 76.38C10.6936 76.38 12.244 77.2008 13.0648 78.66C14.3188 80.8488 13.5664 83.6304 11.4004 84.8844ZM55.1536 104.88C55.1536 107.388 53.1016 109.44 50.5936 109.44C48.0856 109.44 46.0336 107.388 46.0336 104.88C46.0336 102.372 48.0856 100.32 50.5936 100.32C53.1016 100.32 55.1536 102.372 55.1536 104.88ZM94.324 76.9956C96.5128 78.2496 97.2424 81.054 95.9884 83.22C94.7344 85.386 91.93 86.1384 89.764 84.8844C87.5752 83.6304 86.8456 80.826 88.0996 78.66C89.3536 76.494 92.158 75.7416 94.324 76.9956ZM89.764 29.1156C91.93 27.8616 94.7344 28.614 95.9884 30.78C97.2424 32.946 96.49 35.7504 94.324 37.0044C92.158 38.2584 89.3536 37.506 88.0996 35.34C86.8456 33.174 87.598 30.3696 89.764 29.1156ZM46.0336 9.12C46.0336 6.612 48.0856 4.56 50.5936 4.56C53.1016 4.56 55.1536 6.612 55.1536 9.12C55.1536 11.628 53.1016 13.68 50.5936 13.68C48.0856 13.68 46.0336 11.628 46.0336 9.12ZM6.84042 37.0044C4.67442 35.7504 3.92202 32.946 5.17602 30.78C6.01962 29.3208 7.54722 28.5 9.12042 28.5C9.89562 28.5 10.6708 28.7052 11.4004 29.1156C13.5664 30.3696 14.3188 33.174 13.0648 35.34C11.8108 37.506 9.00642 38.2584 6.84042 37.0044ZM32.9464 63.384V63.2928L33.448 63.156L32.9464 63.384ZM56.8636 74.6472L56.7268 74.1456L56.9548 74.6472H56.8636ZM30.0736 59.28V54.72H32.9464C33.9952 54.72 34.8844 54.0132 35.158 53.01L35.3176 52.3716C35.3632 52.1892 35.4316 52.0068 35.5 51.8244C35.5 51.8244 35.5684 51.6192 35.5684 51.5964L35.6596 51.3684C35.7052 51.2088 35.7736 51.0492 35.842 50.8896C35.9104 50.73 35.9788 50.5704 36.0472 50.4336L36.2524 49.9776C36.3208 49.818 36.412 49.6356 36.5032 49.476L36.8452 48.906C37.3696 48.0168 37.2328 46.8768 36.4804 46.1472L34.4512 44.118L37.666 40.8804L39.6952 42.9096C40.4248 43.6392 41.5648 43.7988 42.454 43.2744L43.024 42.9324C43.1836 42.8412 43.366 42.7728 43.5256 42.7044L43.9816 42.4992C44.1412 42.4308 44.278 42.3396 44.4376 42.294C44.5972 42.2256 44.7568 42.18 44.9164 42.1116L45.1444 42.0204C45.1444 42.0204 45.3496 41.952 45.3724 41.952C45.5548 41.8836 45.7372 41.8152 45.9196 41.7696L46.558 41.61C47.5612 41.3592 48.268 40.4472 48.268 39.3984V36.48H52.828V39.3528C52.828 40.4016 53.5348 41.2908 54.538 41.5644L55.1764 41.724C55.3588 41.7696 55.5412 41.838 55.7236 41.9064C55.7236 41.9064 55.9288 41.9748 55.9516 41.9748L56.1796 42.066C56.3392 42.1116 56.4988 42.18 56.6584 42.2484C56.818 42.3168 56.9776 42.3852 57.1144 42.4536L57.5704 42.6588C57.73 42.7272 57.9124 42.8184 58.072 42.9096L58.642 43.2516C59.5312 43.776 60.6712 43.6392 61.4008 42.8868L63.43 40.8576L66.6676 44.0724L64.6384 46.1016C63.9088 46.8312 63.7492 47.9712 64.2964 48.8604L64.6384 49.4304C64.7296 49.59 64.798 49.7724 64.8664 49.932L65.0944 50.388C65.1628 50.5476 65.2312 50.6844 65.2996 50.844C65.368 51.0036 65.4136 51.1632 65.482 51.3228L65.5732 51.5508C65.5732 51.5508 65.6416 51.756 65.6416 51.7788C65.71 51.9612 65.7784 52.1436 65.824 52.326L65.9836 52.9644C66.2344 53.9676 67.1464 54.6744 68.1952 54.6744H71.068V59.2344H68.1952C67.1464 59.2344 66.2572 59.9412 65.9836 60.9444L65.824 61.5828C65.7556 61.7652 65.71 61.9476 65.6416 62.13C65.6416 62.13 65.5732 62.3352 65.5732 62.358L65.482 62.586C65.4136 62.7456 65.368 62.9052 65.2996 63.0648C65.2312 63.2244 65.1628 63.384 65.0944 63.5208L64.8664 63.9768C64.798 64.1364 64.7068 64.3188 64.6156 64.4784L64.2736 65.0484C63.7492 65.9376 63.886 67.0776 64.6156 67.8072L66.6448 69.8364L63.4072 73.074L61.378 71.0448C60.6484 70.3152 59.5084 70.1556 58.6192 70.7028L58.0492 71.0448C57.8896 71.136 57.7072 71.2044 57.5476 71.2728L57.0916 71.5008C56.932 71.5692 56.7952 71.6376 56.6356 71.706C56.476 71.7744 56.3164 71.82 56.1568 71.8884L55.9288 71.9796C55.9288 71.9796 55.7236 72.048 55.7008 72.048C55.5184 72.1164 55.336 72.1848 55.1536 72.2304L54.5152 72.39C53.512 72.6408 52.8052 73.5528 52.8052 74.6016V77.52H48.2452V74.6472C48.2452 73.5984 47.5384 72.7092 46.5352 72.4356L45.8968 72.276C45.7144 72.2076 45.532 72.162 45.3496 72.0936C45.3496 72.0936 45.1444 72.0252 45.1216 72.0252L44.8936 71.934C44.734 71.8656 44.5744 71.82 44.4148 71.7516C44.2552 71.6832 44.0956 71.6148 43.9588 71.5464L43.5028 71.3184C43.3432 71.25 43.1608 71.1588 43.0012 71.0676L42.4312 70.7256C42.0664 70.5204 41.6788 70.4064 41.2912 70.4064C40.6984 70.4064 40.1284 70.6344 39.6724 71.0676L37.6432 73.0968L34.4056 69.8592L36.4348 67.83C37.1644 67.1004 37.324 65.9604 36.7996 65.0712L36.4576 64.5012C36.3664 64.3416 36.298 64.1592 36.2068 63.9996L36.0016 63.5436C35.9332 63.384 35.842 63.2472 35.7964 63.0876C35.728 62.928 35.6824 62.7684 35.614 62.6088L35.5228 62.3808C35.5228 62.3808 35.4544 62.1756 35.4544 62.1528C35.386 61.9704 35.3176 61.788 35.272 61.6056L35.1124 60.9672C34.8844 59.9868 33.9724 59.28 32.9464 59.28H30.0736Z" fill="#2196F3"/>
</g>
<defs>
<clipPath id="clip0_54_371">
<rect width="101.164" height="114" fill="white"/>
</clipPath>
</defs>
</svg>
