<svg width="122" height="114" viewBox="0 0 122 114" fill="none" xmlns="http://www.w3.org/2000/svg">
<g clip-path="url(#clip0_54_267)">
<path d="M30.6356 11.8784C30.6356 10.9814 31.3676 10.2475 32.2622 10.2475H87.5418C88.4364 10.2475 89.1684 10.9814 89.1684 11.8784C89.1684 12.7754 88.4364 13.5093 87.5418 13.5093H32.2622C31.3676 13.5093 30.6356 12.7754 30.6356 11.8784ZM11.834 13.5093H12.2C13.0947 13.5093 13.8267 12.7754 13.8267 11.8784C13.8267 10.9814 13.0947 10.2475 12.2 10.2475H11.834C10.9393 10.2475 10.2073 10.9814 10.2073 11.8784C10.2073 12.7754 10.9393 13.5093 11.834 13.5093ZM18.422 13.5093H18.788C19.6827 13.5093 20.4147 12.7754 20.4147 11.8784C20.4147 10.9814 19.6827 10.2475 18.788 10.2475H18.422C17.5273 10.2475 16.7953 10.9814 16.7953 11.8784C16.7953 12.7754 17.5273 13.5093 18.422 13.5093ZM25.01 13.5093H25.376C26.2707 13.5093 27.0027 12.7754 27.0027 11.8784C27.0027 10.9814 26.2707 10.2475 25.376 10.2475H25.01C24.1153 10.2475 23.3833 10.9814 23.3833 11.8784C23.3833 12.7754 24.1153 13.5093 25.01 13.5093ZM97.7491 75.2117C102.114 75.2117 105.652 78.7589 105.652 83.1352C105.652 87.5114 102.114 91.0587 97.7491 91.0587C93.3842 91.0587 89.8462 87.5114 89.8462 83.1352C89.8462 78.7589 93.3842 75.2117 97.7491 75.2117ZM97.7491 78.4735C95.1736 78.4735 93.0996 80.5665 93.0996 83.1352C93.0996 85.7175 95.1871 87.7969 97.7491 87.7969C100.325 87.7969 102.399 85.7039 102.399 83.1352C102.385 80.5665 100.311 78.4735 97.7491 78.4735ZM107.035 112.138C106.953 112.179 106.858 112.22 106.764 112.247C100.975 114.571 94.5229 114.571 88.7347 112.247C88.6398 112.22 88.5449 112.179 88.4636 112.138C85.5898 110.942 82.96 109.202 80.7504 107.014C80.642 106.933 80.5471 106.838 80.4658 106.729C77.5378 103.753 75.4231 100.056 74.3251 96.0193H8.01133C3.59222 96.0193 0 92.4177 0 87.9871V8.03219C0 3.60157 3.59222 0 8.01133 0H91.3644C95.7836 0 99.3758 3.60157 99.3758 8.03219V65.4263C112.728 66.3233 122.84 77.9027 121.946 91.2897C121.553 97.093 119.099 102.57 115.032 106.729C114.951 106.838 114.856 106.933 114.748 107.014C112.525 109.202 109.908 110.942 107.035 112.138ZM97.7491 68.6202C86.1591 68.6202 76.7516 78.0386 76.738 89.6588C76.738 93.8448 77.9716 97.9356 80.3031 101.401C81.2249 96.6173 85.4 93.1652 90.2664 93.1652H105.232C110.085 93.1652 114.26 96.6309 115.195 101.401C121.661 91.7518 119.099 78.6638 109.475 72.1946C105.991 69.8705 101.924 68.6202 97.7491 68.6202ZM80.52 50.0279H73.3627V82.0615H74.7182C75.8976 78.5007 77.8767 75.2525 80.52 72.5887V50.0279ZM3.25333 8.03219V19.1495H96.1224V8.03219C96.1224 5.39557 93.9942 3.2618 91.3644 3.2618H8.01133C5.38156 3.2618 3.25333 5.39557 3.25333 8.03219ZM73.688 92.7575C73.3762 90.284 73.444 87.7697 73.8913 85.3097H34.8649C33.8753 86.0029 32.5198 85.8806 31.6658 85.0243L30.5136 83.8691C30.2424 83.9914 29.9713 84.1001 29.7002 84.2089V85.8398C29.7002 87.226 28.5751 88.3405 27.1924 88.3541H21.6753C20.2927 88.3541 19.1811 87.226 19.1811 85.8398V84.2089C18.91 84.1001 18.6253 83.9914 18.3542 83.8691L17.202 85.0243C16.226 86.0029 14.64 86.0029 13.664 85.0243L9.76 81.1237C8.784 80.1452 8.784 78.5551 9.76 77.5765L10.9122 76.4213C10.7902 76.1495 10.6818 75.8777 10.5733 75.5923H8.94667C7.564 75.5923 6.45244 74.4642 6.43889 73.078V67.5465C6.43889 66.1602 7.564 65.0458 8.94667 65.0322H10.5733C10.6818 64.7604 10.7902 64.475 10.9122 64.2032L9.76 63.0615C8.784 62.083 8.784 60.4929 9.76 59.5143L13.664 55.6001C14.64 54.6216 16.226 54.6216 17.202 55.6001L18.3542 56.7554C18.6253 56.633 18.8964 56.5243 19.1811 56.4156V54.7847C19.1811 53.3984 20.3062 52.284 21.6753 52.2704H27.1924C28.5751 52.2704 29.6867 53.3984 29.7002 54.7847V56.4156C29.9713 56.5243 30.256 56.633 30.5136 56.7554L31.6658 55.6001C32.5062 54.7575 33.8076 54.6216 34.7971 55.274V52.2704C34.7971 51.3734 35.5291 50.6395 36.4238 50.6395H46.8209C47.7156 50.6395 48.4476 51.3734 48.4476 52.2704V82.0479H52.46V58.6037C52.46 57.7067 53.192 56.9728 54.0867 56.9728H64.4838C65.3784 56.9728 66.1104 57.7067 66.1104 58.6037V82.0479H70.1229V48.397C70.1229 47.5 70.8549 46.7661 71.7496 46.7661H82.1467C83.0413 46.7661 83.7733 47.5 83.7733 48.397V69.8298C87.4062 67.2475 91.6762 65.7253 96.1224 65.4263V22.3977H3.25333V87.9871C3.25333 90.6237 5.38156 92.7575 8.01133 92.7575H73.688ZM62.8571 82.0479V60.2346H55.7133V82.0615H62.8571V82.0479ZM45.2078 82.0479V53.9013H38.0504V58.4542L39.1078 59.5143C40.0838 60.4929 40.0838 62.083 39.1078 63.0615L37.9556 64.2167C38.0776 64.4886 38.186 64.7604 38.2944 65.0458H39.9211C41.3038 65.0458 42.4289 66.1738 42.4289 67.5601V73.0916C42.4289 74.4778 41.3038 75.5923 39.9211 75.6059H38.2944C38.186 75.8777 38.0776 76.1631 37.9556 76.4349L39.1078 77.5901C40.0838 78.5687 40.0838 80.1588 39.1078 81.1373L38.1724 82.0751L45.2078 82.0479ZM22.4209 83.0401V85.1059H26.4469V83.0401C26.4469 82.3197 26.9213 81.681 27.6262 81.4771C28.4667 81.2325 29.28 80.8927 30.0527 80.4714C30.6898 80.118 31.476 80.2268 31.9911 80.7432L33.4416 82.1974L36.2882 79.3434L34.8378 77.8891C34.3227 77.3727 34.2142 76.5844 34.5667 75.9456C34.9869 75.171 35.3258 74.3555 35.5698 73.5129C35.7731 72.8197 36.4102 72.3305 37.1287 72.3305H39.1756V68.294H37.1287C36.4102 68.294 35.7731 67.8047 35.5698 67.1116C35.3258 66.269 34.9869 65.4535 34.5667 64.6788C34.2142 64.0401 34.3227 63.2518 34.8378 62.7353L36.2882 61.2811L33.4416 58.427L31.9911 59.8813C31.476 60.3977 30.6898 60.5064 30.0527 60.1531C29.28 59.7318 28.4802 59.392 27.6262 59.1474C26.9349 58.9435 26.4469 58.3047 26.4469 57.5844V55.5186H22.4209V57.5844C22.4209 58.3047 21.9464 58.9435 21.2416 59.1474C20.4011 59.392 19.5878 59.7318 18.8151 60.1531C18.178 60.5064 17.3918 60.3977 16.8767 59.8813L15.4262 58.4406L12.5796 61.2947L14.03 62.7489C14.5451 63.2654 14.6536 64.0536 14.3011 64.6924C13.8809 65.4671 13.542 66.2825 13.298 67.1252C13.0947 67.8183 12.4576 68.3076 11.7391 68.3076H9.69222V72.3441H11.7527C12.4711 72.3441 13.1082 72.8197 13.3116 73.5265C13.5556 74.3691 13.8944 75.1846 14.3147 75.9592C14.6671 76.598 14.5587 77.3863 14.0436 77.9027L12.5931 79.3569L15.4398 82.211L16.8902 80.7568C17.4053 80.2403 18.1916 80.1316 18.8287 80.485C19.6013 80.9063 20.4011 81.2461 21.2551 81.4907C21.9464 81.681 22.4209 82.3197 22.4209 83.0401ZM97.7491 110.752C100.108 110.752 102.439 110.358 104.662 109.583V104.283C104.662 103.386 105.394 102.652 106.289 102.652C107.184 102.652 107.916 103.386 107.916 104.283V108.115C109.448 107.259 110.857 106.226 112.132 105.03V103.358C112.132 99.5394 109.041 96.4542 105.232 96.4406H90.2664C86.4573 96.4406 83.3802 99.5394 83.3667 103.358V105.044C84.6409 106.24 86.0507 107.286 87.5824 108.129V105.764C87.5824 104.867 88.3144 104.133 89.2091 104.133C90.1038 104.133 90.8358 104.867 90.8358 105.764V109.583C93.0589 110.358 95.3904 110.752 97.7491 110.752ZM24.5898 47.6903C24.888 47.6903 25.1862 47.6087 25.4438 47.4456L33.2247 42.5801L39.4331 46.671C39.9211 46.9836 40.5447 47.0243 41.0598 46.7525L55.0084 39.5494L63.3451 45.5021C63.9416 45.9235 64.7549 45.8963 65.3242 45.4342L76.7516 35.9886L76.3449 39.6581C76.25 40.5551 76.8871 41.3569 77.7818 41.4521C77.836 41.4521 77.9038 41.4657 77.958 41.4657C78.7849 41.4657 79.4762 40.8405 79.5711 40.025L80.4251 32.3598V32.3462V32.2647C80.4251 32.2375 80.4251 32.2103 80.4251 32.1831C80.4251 32.1559 80.4251 32.1288 80.4251 32.1016C80.4251 32.0744 80.4251 32.0472 80.4251 32.02C80.4251 31.9928 80.4116 31.9521 80.4116 31.9249C80.4116 31.8977 80.4116 31.8841 80.398 31.8705C80.3844 31.8569 80.3844 31.789 80.3709 31.7618L80.3573 31.721C80.3438 31.6803 80.3302 31.6395 80.3167 31.6123L80.3031 31.5715C80.2896 31.5443 80.276 31.5036 80.2624 31.4764C80.2624 31.4628 80.2489 31.4492 80.2353 31.422C80.2218 31.3949 80.2082 31.3677 80.1947 31.3405C80.1811 31.3133 80.1676 31.2997 80.154 31.2725C80.1404 31.2454 80.1269 31.2318 80.1133 31.2046C80.0998 31.1774 80.0862 31.1638 80.0727 31.1366L80.0591 31.123L80.0456 31.1094C80.032 31.0959 80.0184 31.0823 80.0049 31.0687C79.9913 31.0551 79.9642 31.0279 79.9507 31.0007C79.9371 30.9735 79.91 30.9599 79.8829 30.9328L79.8287 30.892C79.8016 30.8648 79.7744 30.8512 79.7473 30.824L79.7067 30.7969C79.6796 30.7833 79.6524 30.7561 79.6118 30.7425L79.5711 30.7153C79.544 30.7017 79.5033 30.6881 79.4762 30.6745L79.422 30.6474L79.3407 30.6202C79.3271 30.6202 79.3 30.6066 79.2864 30.6066C79.2729 30.6066 79.2322 30.593 79.2051 30.5794L79.1373 30.5658L79.056 30.5522L79.0018 30.5386L71.3564 29.6688C70.4753 29.5057 69.6213 30.1037 69.4722 30.9871C69.3096 31.8705 69.906 32.7268 70.7871 32.8763C70.8549 32.8898 70.9227 32.8898 70.9904 32.9034L74.8267 33.3383L64.2262 42.1044L56.0929 36.3011C55.5913 35.9478 54.9407 35.907 54.412 36.1788L40.4362 43.3956L34.1464 39.264C33.6178 38.9106 32.94 38.9106 32.3978 39.2504L23.7358 44.6731C22.9767 45.1488 22.7462 46.1545 23.2342 46.9292C23.5053 47.3913 24.0204 47.6767 24.5898 47.6903ZM24.4407 77.9299C20.252 77.9299 16.8496 74.5186 16.8496 70.319C16.8496 66.1195 20.252 62.7082 24.4407 62.7082C28.6293 62.7082 32.0318 66.1195 32.0318 70.319C32.0182 74.5186 28.6293 77.9299 24.4407 77.9299ZM24.4407 74.6681C26.84 74.6681 28.792 72.711 28.792 70.3054C28.792 67.8999 26.84 65.9428 24.4407 65.9428C22.0413 65.9428 20.0893 67.8999 20.0893 70.3054C20.0893 70.3054 20.0893 70.3054 20.0893 70.319C20.1029 72.7246 22.0413 74.6681 24.4407 74.6681Z" fill="#2196F3"/>
</g>
<defs>
<clipPath id="clip0_54_267">
<rect width="122" height="114" fill="white"/>
</clipPath>
</defs>
</svg>
