<svg width="107" height="107" viewBox="0 0 107 107" fill="none" xmlns="http://www.w3.org/2000/svg">
<g clip-path="url(#clip0_54_272)">
<path d="M75.9507 107H31.0496C29.1625 107 27.645 105.483 27.645 103.595C27.645 101.708 29.1819 100.191 31.0496 100.191H70.2505C70.7952 100.191 71.2232 100.619 71.2232 101.164C71.2232 101.708 70.7952 102.136 70.2505 102.136H31.0496C30.2519 102.136 29.5905 102.798 29.5905 103.595C29.5905 104.393 30.2519 105.055 31.0496 105.055H75.9507C76.0479 105.035 76.1452 105.016 76.2619 105.016C76.5537 104.957 76.8845 105.035 77.1179 105.269C77.507 105.638 77.5265 106.261 77.1568 106.65C76.9817 106.825 76.7483 106.942 76.4954 106.961C76.3203 106.981 76.1257 107 75.9507 107Z" fill="#2196F3"/>
<path d="M63.7915 102.136H42.6639C42.3526 102.136 42.0802 102 41.8857 101.767C41.7106 101.533 41.6328 101.222 41.7106 100.93L44.0646 91.9033C44.1813 91.4753 44.5704 91.1835 44.9984 91.1835H61.3986C61.846 91.1835 62.2351 91.4753 62.3324 91.9033L64.6864 100.93C64.7642 101.222 64.7059 101.533 64.5113 101.767C64.3751 102 64.0833 102.136 63.7915 102.136ZM43.9284 100.191H62.5269L60.6788 93.1095H45.7766L43.9284 100.191Z" fill="#2196F3"/>
<path d="M70.1531 93.1095H8.75455C3.92982 93.1095 0 89.1796 0 84.3549V23.6762C0 18.8514 3.92982 14.9216 8.75455 14.9216H56.1069C56.6516 14.9216 57.0796 15.3496 57.0796 15.8944C57.0796 16.4391 56.6516 16.8671 56.1069 16.8671H8.75455C4.99982 16.8671 1.94545 19.9214 1.94545 23.6762V84.3549C1.94545 88.1096 4.99982 91.164 8.75455 91.164H70.1531C70.6978 91.164 71.1258 91.592 71.1258 92.1367C71.1258 92.6814 70.6978 93.1095 70.1531 93.1095Z" fill="#2196F3"/>
<path d="M104.957 89.238C104.782 89.238 104.627 89.1991 104.471 89.1018C104.004 88.8295 103.848 88.2264 104.14 87.7595C104.743 86.7284 105.074 85.5417 105.074 84.3355V23.6762C105.074 23.1315 105.502 22.7035 106.047 22.7035C106.592 22.7035 107.02 23.1315 107.02 23.6762V84.3549C107.02 85.9113 106.611 87.4288 105.813 88.7517C105.619 89.0629 105.288 89.238 104.957 89.238Z" fill="#2196F3"/>
<path d="M70.9312 79.822H8.75451C6.06978 79.822 3.89087 77.643 3.89087 74.9583V23.6761C3.89087 20.9914 6.06978 18.8125 8.75451 18.8125H56.1069C56.6516 18.8125 57.0796 19.2405 57.0796 19.7852C57.0796 20.33 56.6516 20.758 56.1069 20.758H8.75451C7.13978 20.758 5.83632 22.0614 5.83632 23.6761V74.9583C5.83632 76.573 7.13978 77.8765 8.75451 77.8765H70.9312C71.476 77.8765 71.904 78.3045 71.904 78.8492C71.904 79.394 71.476 79.822 70.9312 79.822Z" fill="#2196F3"/>
<path d="M102.136 64.6475C101.592 64.6475 101.164 64.2195 101.164 63.6748V31.9444C101.164 31.3997 101.592 30.9717 102.136 30.9717C102.681 30.9717 103.109 31.3997 103.109 31.9444V63.6748C103.109 64.2195 102.681 64.6475 102.136 64.6475Z" fill="#2196F3"/>
<path d="M56.1071 23.9291H55.1343C54.9982 23.9291 54.9009 23.8123 54.9009 23.6956C54.9009 23.5789 55.0176 23.4622 55.1343 23.4622H56.1071C56.2432 23.4622 56.3405 23.5789 56.3405 23.6956C56.3405 23.8123 56.2432 23.9291 56.1071 23.9291Z" fill="#2196F3"/>
<path d="M68.2077 75.1918H66.2623C66.1261 75.1918 66.0288 75.075 66.0288 74.9583C66.0288 74.8416 66.1455 74.7249 66.2623 74.7249H68.2077C68.3439 74.7249 68.4412 74.8416 68.4412 74.9583C68.4412 75.075 68.3439 75.1918 68.2077 75.1918ZM64.3168 75.1918H62.3714C62.2352 75.1918 62.1379 75.075 62.1379 74.9583C62.1379 74.8416 62.2546 74.7249 62.3714 74.7249H64.3168C64.453 74.7249 64.5503 74.8416 64.5503 74.9583C64.5503 75.075 64.453 75.1918 64.3168 75.1918ZM60.4259 75.1918H58.4804C58.3443 75.1918 58.247 75.075 58.247 74.9583C58.247 74.8416 58.3637 74.7249 58.4804 74.7249H60.4259C60.5621 74.7249 60.6594 74.8416 60.6594 74.9583C60.6594 75.075 60.5621 75.1918 60.4259 75.1918ZM56.535 75.1918H54.5895C54.4534 75.1918 54.3561 75.075 54.3561 74.9583C54.3561 74.8416 54.4728 74.7249 54.5895 74.7249H56.535C56.6712 74.7249 56.7685 74.8416 56.7685 74.9583C56.7685 75.075 56.6712 75.1918 56.535 75.1918ZM52.6441 75.1918H50.6986C50.5624 75.1918 50.4652 75.075 50.4652 74.9583C50.4652 74.8416 50.5819 74.7249 50.6986 74.7249H52.6441C52.7803 74.7249 52.8775 74.8416 52.8775 74.9583C52.8775 75.075 52.7803 75.1918 52.6441 75.1918ZM48.7532 75.1918H46.8077C46.6715 75.1918 46.5743 75.075 46.5743 74.9583C46.5743 74.8416 46.691 74.7249 46.8077 74.7249H48.7532C48.8894 74.7249 48.9866 74.8416 48.9866 74.9583C48.9866 75.075 48.8894 75.1918 48.7532 75.1918ZM44.8623 75.1918H42.9168C42.7806 75.1918 42.6834 75.075 42.6834 74.9583C42.6834 74.8416 42.8001 74.7249 42.9168 74.7249H44.8623C44.9984 74.7249 45.0957 74.8416 45.0957 74.9583C45.0957 75.075 44.9984 75.1918 44.8623 75.1918ZM40.9714 75.1918H39.0259C38.8897 75.1918 38.7925 75.075 38.7925 74.9583C38.7925 74.8416 38.9092 74.7249 39.0259 74.7249H40.9714C41.1075 74.7249 41.2048 74.8416 41.2048 74.9583C41.2048 75.075 41.1075 75.1918 40.9714 75.1918ZM37.0805 75.1918H35.135C34.9988 75.1918 34.9015 75.075 34.9015 74.9583C34.9015 74.8416 35.0183 74.7249 35.135 74.7249H37.0805C37.2166 74.7249 37.3139 74.8416 37.3139 74.9583C37.3139 75.075 37.2166 75.1918 37.0805 75.1918ZM33.1895 75.1918H31.2441C31.1079 75.1918 31.0106 75.075 31.0106 74.9583C31.0106 74.8416 31.1274 74.7249 31.2441 74.7249H33.1895C33.3257 74.7249 33.423 74.8416 33.423 74.9583C33.423 75.075 33.3257 75.1918 33.1895 75.1918ZM29.2986 75.1918H27.3532C27.217 75.1918 27.1197 75.075 27.1197 74.9583C27.1197 74.8416 27.2365 74.7249 27.3532 74.7249H29.2986C29.4348 74.7249 29.5321 74.8416 29.5321 74.9583C29.5321 75.075 29.4348 75.1918 29.2986 75.1918ZM25.4077 75.1918H23.4623C23.3261 75.1918 23.2288 75.075 23.2288 74.9583C23.2288 74.8416 23.3455 74.7249 23.4623 74.7249H25.4077C25.5439 74.7249 25.6412 74.8416 25.6412 74.9583C25.6412 75.075 25.5439 75.1918 25.4077 75.1918ZM21.5168 75.1918H19.5714C19.4352 75.1918 19.3379 75.075 19.3379 74.9583C19.3379 74.8416 19.4546 74.7249 19.5714 74.7249H21.5168C21.653 74.7249 21.7503 74.8416 21.7503 74.9583C21.7503 75.075 21.653 75.1918 21.5168 75.1918ZM17.6259 75.1918H15.6805C15.5443 75.1918 15.447 75.075 15.447 74.9583C15.447 74.8416 15.5637 74.7249 15.6805 74.7249H17.6259C17.7621 74.7249 17.8594 74.8416 17.8594 74.9583C17.8594 75.075 17.7621 75.1918 17.6259 75.1918ZM13.735 75.1918H11.7895C11.6534 75.1918 11.5561 75.075 11.5561 74.9583C11.5561 74.8416 11.6728 74.7249 11.7895 74.7249H13.735C13.8712 74.7249 13.9685 74.8416 13.9685 74.9583C13.9685 75.075 13.8712 75.1918 13.735 75.1918ZM9.86354 75.0945C9.82463 75.0945 9.80518 75.0945 9.76627 75.075C9.06591 74.8027 8.57954 74.1412 8.52118 73.3825C8.50173 73.2463 8.61845 73.1296 8.73518 73.1296C8.87136 73.1296 8.98809 73.2269 8.98809 73.363C9.027 73.9272 9.39663 74.433 9.94136 74.6276C10.0581 74.6665 10.1359 74.8221 10.0775 74.9389C10.0581 75.0167 9.96082 75.0945 9.86354 75.0945ZM8.75463 71.651C8.61845 71.651 8.52118 71.5343 8.52118 71.4176V69.4721C8.52118 69.3359 8.63791 69.2387 8.75463 69.2387C8.87136 69.2387 8.98809 69.3554 8.98809 69.4721V71.4176C8.98809 71.5538 8.89082 71.651 8.75463 71.651ZM8.75463 67.7601C8.61845 67.7601 8.52118 67.6434 8.52118 67.5267V65.5812C8.52118 65.445 8.63791 65.3478 8.75463 65.3478C8.87136 65.3478 8.98809 65.4645 8.98809 65.5812V67.5267C8.98809 67.6629 8.89082 67.7601 8.75463 67.7601ZM8.75463 63.8692C8.61845 63.8692 8.52118 63.7525 8.52118 63.6358V61.6903C8.52118 61.5541 8.63791 61.4569 8.75463 61.4569C8.87136 61.4569 8.98809 61.5736 8.98809 61.6903V63.6358C8.98809 63.7719 8.89082 63.8692 8.75463 63.8692ZM8.75463 59.9783C8.61845 59.9783 8.52118 59.8616 8.52118 59.7449V57.7994C8.52118 57.6632 8.63791 57.5659 8.75463 57.5659C8.87136 57.5659 8.98809 57.6827 8.98809 57.7994V59.7449C8.98809 59.881 8.89082 59.9783 8.75463 59.9783ZM8.75463 56.0874C8.61845 56.0874 8.52118 55.9707 8.52118 55.8539V53.9085C8.52118 53.7723 8.63791 53.675 8.75463 53.675C8.87136 53.675 8.98809 53.7918 8.98809 53.9085V55.8539C8.98809 55.9901 8.89082 56.0874 8.75463 56.0874ZM8.75463 52.1965C8.61845 52.1965 8.52118 52.0798 8.52118 51.963V50.0176C8.52118 49.8814 8.63791 49.7841 8.75463 49.7841C8.87136 49.7841 8.98809 49.9009 8.98809 50.0176V51.963C8.98809 52.0992 8.89082 52.1965 8.75463 52.1965ZM8.75463 48.3056C8.61845 48.3056 8.52118 48.1889 8.52118 48.0721V46.1267C8.52118 45.9905 8.63791 45.8932 8.75463 45.8932C8.87136 45.8932 8.98809 46.0099 8.98809 46.1267V48.0721C8.98809 48.2083 8.89082 48.3056 8.75463 48.3056ZM8.75463 44.4147C8.61845 44.4147 8.52118 44.2979 8.52118 44.1812V42.2358C8.52118 42.0996 8.63791 42.0023 8.75463 42.0023C8.87136 42.0023 8.98809 42.119 8.98809 42.2358V44.1812C8.98809 44.3174 8.89082 44.4147 8.75463 44.4147ZM8.75463 40.5238C8.61845 40.5238 8.52118 40.407 8.52118 40.2903V38.3449C8.52118 38.2087 8.63791 38.1114 8.75463 38.1114C8.87136 38.1114 8.98809 38.2281 8.98809 38.3449V40.2903C8.98809 40.4265 8.89082 40.5238 8.75463 40.5238ZM8.75463 36.6329C8.61845 36.6329 8.52118 36.5161 8.52118 36.3994V34.4539C8.52118 34.3178 8.63791 34.2205 8.75463 34.2205C8.87136 34.2205 8.98809 34.3372 8.98809 34.4539V36.3994C8.98809 36.5356 8.89082 36.6329 8.75463 36.6329ZM8.75463 32.7419C8.61845 32.7419 8.52118 32.6252 8.52118 32.5085V30.563C8.52118 30.4269 8.63791 30.3296 8.75463 30.3296C8.87136 30.3296 8.98809 30.4463 8.98809 30.563V32.5085C8.98809 32.6447 8.89082 32.7419 8.75463 32.7419ZM8.75463 28.851C8.61845 28.851 8.52118 28.7343 8.52118 28.6176V26.6721C8.52118 26.5359 8.63791 26.4387 8.75463 26.4387C8.87136 26.4387 8.98809 26.5554 8.98809 26.6721V28.6176C8.98809 28.7538 8.89082 28.851 8.75463 28.851ZM8.89082 24.9796C8.85191 24.9796 8.83245 24.9796 8.79354 24.9601C8.67682 24.9018 8.61845 24.7656 8.65736 24.6489C8.94918 23.9485 9.63009 23.4621 10.3694 23.4232C10.5055 23.4427 10.6223 23.5205 10.6223 23.6567C10.6223 23.7929 10.525 23.9096 10.3888 23.9096C9.82463 23.929 9.31882 24.2987 9.10482 24.8239C9.06591 24.9407 8.96863 24.9796 8.89082 24.9796ZM53.1888 23.929H51.2434C51.1072 23.929 51.0099 23.8123 51.0099 23.6956C51.0099 23.5789 51.1266 23.4621 51.2434 23.4621H53.1888C53.325 23.4621 53.4223 23.5789 53.4223 23.6956C53.4223 23.8123 53.325 23.929 53.1888 23.929ZM49.2979 23.929H47.3525C47.2163 23.929 47.119 23.8123 47.119 23.6956C47.119 23.5789 47.2357 23.4621 47.3525 23.4621H49.2979C49.4341 23.4621 49.5314 23.5789 49.5314 23.6956C49.5314 23.8123 49.4341 23.929 49.2979 23.929ZM45.407 23.929H43.4615C43.3254 23.929 43.2281 23.8123 43.2281 23.6956C43.2281 23.5789 43.3448 23.4621 43.4615 23.4621H45.407C45.5432 23.4621 45.6404 23.5789 45.6404 23.6956C45.6404 23.8123 45.5432 23.929 45.407 23.929ZM41.5161 23.929H39.5706C39.4345 23.929 39.3372 23.8123 39.3372 23.6956C39.3372 23.5789 39.4539 23.4621 39.5706 23.4621H41.5161C41.6523 23.4621 41.7495 23.5789 41.7495 23.6956C41.7495 23.8123 41.6523 23.929 41.5161 23.929ZM37.6252 23.929H35.6797C35.5435 23.929 35.4463 23.8123 35.4463 23.6956C35.4463 23.5789 35.563 23.4621 35.6797 23.4621H37.6252C37.7614 23.4621 37.8586 23.5789 37.8586 23.6956C37.8586 23.8123 37.7614 23.929 37.6252 23.929ZM33.7343 23.929H31.7888C31.6526 23.929 31.5554 23.8123 31.5554 23.6956C31.5554 23.5789 31.6721 23.4621 31.7888 23.4621H33.7343C33.8705 23.4621 33.9677 23.5789 33.9677 23.6956C33.9677 23.8123 33.8705 23.929 33.7343 23.929ZM29.8434 23.929H27.8979C27.7617 23.929 27.6645 23.8123 27.6645 23.6956C27.6645 23.5789 27.7812 23.4621 27.8979 23.4621H29.8434C29.9795 23.4621 30.0768 23.5789 30.0768 23.6956C30.0768 23.8123 29.9795 23.929 29.8434 23.929ZM25.9525 23.929H24.007C23.8708 23.929 23.7735 23.8123 23.7735 23.6956C23.7735 23.5789 23.8903 23.4621 24.007 23.4621H25.9525C26.0886 23.4621 26.1859 23.5789 26.1859 23.6956C26.1859 23.8123 26.0886 23.929 25.9525 23.929ZM22.0615 23.929H20.1161C19.9799 23.929 19.8826 23.8123 19.8826 23.6956C19.8826 23.5789 19.9994 23.4621 20.1161 23.4621H22.0615C22.1977 23.4621 22.295 23.5789 22.295 23.6956C22.295 23.8123 22.1977 23.929 22.0615 23.929ZM18.1706 23.929H16.2252C16.089 23.929 15.9917 23.8123 15.9917 23.6956C15.9917 23.5789 16.1085 23.4621 16.2252 23.4621H18.1706C18.3068 23.4621 18.4041 23.5789 18.4041 23.6956C18.4041 23.8123 18.3068 23.929 18.1706 23.929ZM14.2797 23.929H12.3343C12.1981 23.929 12.1008 23.8123 12.1008 23.6956C12.1008 23.5789 12.2175 23.4621 12.3343 23.4621H14.2797C14.4159 23.4621 14.5132 23.5789 14.5132 23.6956C14.5132 23.8123 14.4159 23.929 14.2797 23.929Z" fill="#2196F3"/>
<path d="M71.1649 75.1918H70.1922C70.056 75.1918 69.9587 75.075 69.9587 74.9583C69.9587 74.8416 70.0755 74.7249 70.1922 74.7249H71.1649C71.3011 74.7249 71.3984 74.8416 71.3984 74.9583C71.3984 75.075 71.3011 75.1918 71.1649 75.1918Z" fill="#2196F3"/>
<path d="M98.2454 63.2078C98.1092 63.2078 98.012 63.0911 98.012 62.9744V62.0016C98.012 61.8655 98.1287 61.7682 98.2454 61.7682C98.3621 61.7682 98.4789 61.8849 98.4789 62.0016V62.9744C98.4789 63.0911 98.3816 63.2078 98.2454 63.2078Z" fill="#2196F3"/>
<path d="M98.2454 60.3675C98.1092 60.3675 98.012 60.2508 98.012 60.1341V58.2664C98.012 58.1302 98.1287 58.033 98.2454 58.033C98.3621 58.033 98.4789 58.1497 98.4789 58.2664V60.1341C98.4789 60.2508 98.3816 60.3675 98.2454 60.3675ZM98.2454 56.6128C98.1092 56.6128 98.012 56.4961 98.012 56.3793V54.5117C98.012 54.3755 98.1287 54.2782 98.2454 54.2782C98.3621 54.2782 98.4789 54.395 98.4789 54.5117V56.3793C98.4789 56.5155 98.3816 56.6128 98.2454 56.6128ZM98.2454 52.897C98.1092 52.897 98.012 52.7802 98.012 52.6635V50.7764C98.012 50.6402 98.1287 50.543 98.2454 50.543C98.3621 50.543 98.4789 50.6597 98.4789 50.7764V52.6441C98.4789 52.7802 98.3816 52.897 98.2454 52.897ZM98.2454 49.1617C98.1092 49.1617 98.012 49.045 98.012 48.9282V47.0606C98.012 46.9244 98.1287 46.8272 98.2454 46.8272C98.3621 46.8272 98.4789 46.9439 98.4789 47.0606V48.9282C98.4789 49.045 98.3816 49.1617 98.2454 49.1617ZM98.2454 45.4264C98.1092 45.4264 98.012 45.3097 98.012 45.193V43.3253C98.012 43.1892 98.1287 43.0919 98.2454 43.0919C98.3621 43.0919 98.4789 43.2086 98.4789 43.3253V45.193C98.4789 45.3097 98.3816 45.4264 98.2454 45.4264ZM98.2454 41.6912C98.1092 41.6912 98.012 41.5744 98.012 41.4577V39.5901C98.012 39.4539 98.1287 39.3566 98.2454 39.3566C98.3621 39.3566 98.4789 39.4733 98.4789 39.5901V41.4577C98.4789 41.5744 98.3816 41.6912 98.2454 41.6912ZM98.2454 37.9559C98.1092 37.9559 98.012 37.8392 98.012 37.7224V35.8548C98.012 35.7186 98.1287 35.6213 98.2454 35.6213C98.3621 35.6213 98.4789 35.7381 98.4789 35.8548V37.7224C98.4789 37.8392 98.3816 37.9559 98.2454 37.9559Z" fill="#2196F3"/>
<path d="M98.2454 34.2011C98.1092 34.2011 98.012 34.0844 98.012 33.9677V32.9949C98.012 32.8587 98.1287 32.7615 98.2454 32.7615C98.3621 32.7615 98.4789 32.8782 98.4789 32.9949V33.9677C98.4789 34.1038 98.3816 34.2011 98.2454 34.2011Z" fill="#2196F3"/>
<path d="M53.5 88.8294C51.5351 88.8294 49.9204 87.2342 49.9204 85.2498C49.9204 83.2849 51.5157 81.6702 53.5 81.6702C55.4844 81.6702 57.0797 83.2654 57.0797 85.2498C57.0797 87.2147 55.465 88.8294 53.5 88.8294ZM53.5 83.6156C52.6051 83.6156 51.8659 84.3549 51.8659 85.2498C51.8659 86.1447 52.6051 86.884 53.5 86.884C54.395 86.884 55.1342 86.1447 55.1342 85.2498C55.1342 84.3549 54.395 83.6156 53.5 83.6156Z" fill="#2196F3"/>
<path d="M70.5616 85.4833H69.5889C69.4527 85.4833 69.3555 85.3665 69.3555 85.2498C69.3555 85.1331 69.4722 85.0164 69.5889 85.0164H70.5616C70.6978 85.0164 70.7951 85.1331 70.7951 85.2498C70.7951 85.3665 70.6978 85.4833 70.5616 85.4833Z" fill="#2196F3"/>
<path d="M67.8185 85.4833H66.0481C65.912 85.4833 65.8147 85.3665 65.8147 85.2498C65.8147 85.1331 65.9314 85.0164 66.0481 85.0164H67.8185C67.9547 85.0164 68.052 85.1331 68.052 85.2498C68.052 85.3665 67.9547 85.4833 67.8185 85.4833Z" fill="#2196F3"/>
<path d="M64.2972 85.4833H63.3245C63.1883 85.4833 63.0911 85.3665 63.0911 85.2498C63.0911 85.1331 63.2078 85.0164 63.3245 85.0164H64.2972C64.4334 85.0164 64.5307 85.1331 64.5307 85.2498C64.5307 85.3665 64.4334 85.4833 64.2972 85.4833Z" fill="#2196F3"/>
<path d="M43.7142 85.4833H42.7415C42.6053 85.4833 42.5081 85.3665 42.5081 85.2498C42.5081 85.1331 42.6248 85.0164 42.7415 85.0164H43.7142C43.8504 85.0164 43.9477 85.1331 43.9477 85.2498C43.9477 85.3665 43.831 85.4833 43.7142 85.4833Z" fill="#2196F3"/>
<path d="M40.6599 85.4833H38.5977C38.4616 85.4833 38.3643 85.3665 38.3643 85.2498C38.3643 85.1331 38.481 85.0164 38.5977 85.0164H40.6599C40.7961 85.0164 40.8934 85.1331 40.8934 85.2498C40.8934 85.3665 40.7961 85.4833 40.6599 85.4833ZM36.5356 85.4833H34.4734C34.3372 85.4833 34.2399 85.3665 34.2399 85.2498C34.2399 85.1331 34.3566 85.0164 34.4734 85.0164H36.5356C36.6717 85.0164 36.769 85.1331 36.769 85.2498C36.769 85.3665 36.6523 85.4833 36.5356 85.4833ZM32.3917 85.4833H30.3296C30.1934 85.4833 30.0961 85.3665 30.0961 85.2498C30.0961 85.1331 30.2128 85.0164 30.3296 85.0164H32.3917C32.5279 85.0164 32.6252 85.1331 32.6252 85.2498C32.6252 85.3665 32.5279 85.4833 32.3917 85.4833ZM28.2479 85.4833H26.1857C26.0496 85.4833 25.9523 85.3665 25.9523 85.2498C25.9523 85.1331 26.069 85.0164 26.1857 85.0164H28.2479C28.3841 85.0164 28.4814 85.1331 28.4814 85.2498C28.4814 85.3665 28.3841 85.4833 28.2479 85.4833ZM24.1236 85.4833H22.0614C21.9252 85.4833 21.8279 85.3665 21.8279 85.2498C21.8279 85.1331 21.9446 85.0164 22.0614 85.0164H24.1236C24.2597 85.0164 24.357 85.1331 24.357 85.2498C24.357 85.3665 24.2597 85.4833 24.1236 85.4833ZM19.9797 85.4833H17.9176C17.7814 85.4833 17.6841 85.3665 17.6841 85.2498C17.6841 85.1331 17.8008 85.0164 17.9176 85.0164H19.9797C20.1159 85.0164 20.2132 85.1331 20.2132 85.2498C20.2132 85.3665 20.1159 85.4833 19.9797 85.4833ZM15.8554 85.4833H13.7737C13.6376 85.4833 13.5403 85.3665 13.5403 85.2498C13.5403 85.1331 13.657 85.0164 13.7737 85.0164H15.8359C15.9721 85.0164 16.0694 85.1331 16.0694 85.2498C16.0694 85.3665 15.9721 85.4833 15.8554 85.4833Z" fill="#2196F3"/>
<path d="M11.7116 85.4833H10.7388C10.6026 85.4833 10.5054 85.3665 10.5054 85.2498C10.5054 85.1331 10.6221 85.0164 10.7388 85.0164H11.7116C11.8477 85.0164 11.945 85.1331 11.945 85.2498C11.945 85.3665 11.8477 85.4833 11.7116 85.4833Z" fill="#2196F3"/>
<path d="M98.2456 33.9677H63.8888C59.0641 33.9677 55.1343 30.0378 55.1343 25.2131V10.7C55.1343 10.1553 55.5623 9.72729 56.107 9.72729H106.027C106.572 9.72729 107 10.1553 107 10.7V25.2131C107 30.0378 103.07 33.9677 98.2456 33.9677ZM57.0797 11.6727V25.2131C57.0797 28.9678 60.1341 32.0222 63.8888 32.0222H98.2456C102 32.0222 105.055 28.9678 105.055 25.2131V11.6727H57.0797Z" fill="#2196F3"/>
<path d="M98.2455 29.3569H97.4868C97.3506 29.3569 97.2533 29.2402 97.2533 29.1235C97.2533 29.0067 97.37 28.89 97.4868 28.89H98.2455C98.6151 28.89 98.9848 28.8316 99.335 28.7344C99.4711 28.6955 99.6073 28.7733 99.6462 28.89C99.6851 29.0262 99.6073 29.1624 99.4906 29.2013C99.082 29.2986 98.6735 29.3569 98.2455 29.3569ZM95.5413 29.3569H93.5959C93.4597 29.3569 93.3624 29.2402 93.3624 29.1235C93.3624 29.0067 93.4791 28.89 93.5959 28.89H95.5413C95.6775 28.89 95.7748 29.0067 95.7748 29.1235C95.7748 29.2402 95.658 29.3569 95.5413 29.3569ZM91.6504 29.3569H89.705C89.5688 29.3569 89.4715 29.2402 89.4715 29.1235C89.4715 29.0067 89.5882 28.89 89.705 28.89H91.6504C91.7866 28.89 91.8839 29.0067 91.8839 29.1235C91.8839 29.2402 91.7671 29.3569 91.6504 29.3569ZM87.7595 29.3569H85.814C85.6779 29.3569 85.5806 29.2402 85.5806 29.1235C85.5806 29.0067 85.6973 28.89 85.814 28.89H87.7595C87.8957 28.89 87.9929 29.0067 87.9929 29.1235C87.9929 29.2402 87.8762 29.3569 87.7595 29.3569ZM83.8686 29.3569H81.9231C81.787 29.3569 81.6897 29.2402 81.6897 29.1235C81.6897 29.0067 81.8064 28.89 81.9231 28.89H83.8686C84.0048 28.89 84.102 29.0067 84.102 29.1235C84.102 29.2402 83.9853 29.3569 83.8686 29.3569ZM79.9777 29.3569H78.0322C77.896 29.3569 77.7988 29.2402 77.7988 29.1235C77.7988 29.0067 77.9155 28.89 78.0322 28.89H79.9777C80.1139 28.89 80.2111 29.0067 80.2111 29.1235C80.2111 29.2402 80.0944 29.3569 79.9777 29.3569ZM76.0868 29.3569H74.1413C74.0051 29.3569 73.9079 29.2402 73.9079 29.1235C73.9079 29.0067 74.0246 28.89 74.1413 28.89H76.0868C76.223 28.89 76.3202 29.0067 76.3202 29.1235C76.3202 29.2402 76.2035 29.3569 76.0868 29.3569ZM72.1959 29.3569H70.2504C70.1142 29.3569 70.017 29.2402 70.017 29.1235C70.017 29.0067 70.1337 28.89 70.2504 28.89H72.1959C72.332 28.89 72.4293 29.0067 72.4293 29.1235C72.4293 29.2402 72.3126 29.3569 72.1959 29.3569ZM68.305 29.3569H66.3595C66.2233 29.3569 66.126 29.2402 66.126 29.1235C66.126 29.0067 66.2428 28.89 66.3595 28.89H68.305C68.4411 28.89 68.5384 29.0067 68.5384 29.1235C68.5384 29.2402 68.4217 29.3569 68.305 29.3569ZM64.414 29.3569H63.8888C63.383 29.3569 62.8771 29.2596 62.4102 29.0846C62.2935 29.0456 62.2157 28.89 62.274 28.7733C62.3324 28.6566 62.4686 28.5787 62.5853 28.6371C62.9939 28.7927 63.4413 28.8706 63.8888 28.8706H64.414C64.5502 28.8706 64.6475 28.9873 64.6475 29.104C64.6475 29.2207 64.5308 29.3569 64.414 29.3569ZM101.047 28.1702C100.989 28.1702 100.93 28.1507 100.872 28.1118C100.775 28.0146 100.775 27.8589 100.872 27.7616C101.3 27.3142 101.611 26.7889 101.767 26.1858C101.806 26.0496 101.942 25.9718 102.059 26.0107C102.195 26.0496 102.253 26.1858 102.234 26.3026C102.059 26.964 101.708 27.5866 101.222 28.0729C101.164 28.1507 101.105 28.1702 101.047 28.1702ZM60.9122 27.9951C60.8539 27.9951 60.776 27.9756 60.7177 27.9173C60.2702 27.392 59.959 26.75 59.8228 26.0886C59.8033 25.9524 59.8811 25.8356 60.0173 25.7967C60.1535 25.7578 60.2702 25.8551 60.3091 25.9913C60.4259 26.5944 60.7177 27.1391 61.1068 27.606C61.1846 27.7033 61.1846 27.8589 61.0873 27.9562C61.029 27.9756 60.9706 27.9951 60.9122 27.9951ZM102.136 24.5516C102 24.5516 101.903 24.4349 101.903 24.3182V22.3727C101.903 22.2366 102.02 22.1393 102.136 22.1393C102.253 22.1393 102.37 22.256 102.37 22.3727V24.3182C102.37 24.4544 102.273 24.5516 102.136 24.5516ZM59.9979 24.3182C59.8617 24.3182 59.7644 24.2015 59.7644 24.0847V22.1393C59.7644 22.0031 59.8811 21.9058 59.9979 21.9058C60.1146 21.9058 60.2313 22.0226 60.2313 22.1393V24.0847C60.2313 24.2015 60.134 24.3182 59.9979 24.3182ZM102.136 20.6607C102 20.6607 101.903 20.544 101.903 20.4273V18.4818C101.903 18.3456 102.02 18.2484 102.136 18.2484C102.253 18.2484 102.37 18.3651 102.37 18.4818V20.4273C102.37 20.5635 102.273 20.6607 102.136 20.6607ZM59.9979 20.4273C59.8617 20.4273 59.7644 20.3106 59.7644 20.1938V18.2484C59.7644 18.1122 59.8811 18.0149 59.9979 18.0149C60.1146 18.0149 60.2313 18.1316 60.2313 18.2484V20.1938C60.2313 20.3106 60.134 20.4273 59.9979 20.4273ZM102.136 16.7698C102 16.7698 101.903 16.6531 101.903 16.5364V14.5909C101.903 14.4547 102.02 14.3575 102.136 14.3575C102.253 14.3575 102.37 14.4742 102.37 14.5909V16.5364C102.37 16.6726 102.273 16.7698 102.136 16.7698ZM59.9979 16.5364C59.8617 16.5364 59.7644 16.4196 59.7644 16.3029V14.3575C59.7644 14.2213 59.8811 14.124 59.9979 14.124C60.1146 14.124 60.2313 14.2407 60.2313 14.3575V16.3029C60.2313 16.4196 60.134 16.5364 59.9979 16.5364ZM102.136 12.8789C102 12.8789 101.903 12.7622 101.903 12.6455V10.7C101.903 10.5638 102.02 10.4666 102.136 10.4666C102.253 10.4666 102.37 10.5833 102.37 10.7V12.6455C102.37 12.7816 102.273 12.8789 102.136 12.8789ZM59.9979 12.6455C59.8617 12.6455 59.7644 12.5287 59.7644 12.412V10.7C59.7644 10.5638 59.8811 10.4666 59.9979 10.4666C60.1146 10.4666 60.2313 10.5833 60.2313 10.7V12.412C60.2313 12.5287 60.134 12.6455 59.9979 12.6455Z" fill="#2196F3"/>
<path d="M106.027 11.6727H56.107C55.5623 11.6727 55.1343 11.2447 55.1343 10.7V8.75455C55.1343 3.92982 59.0641 0 63.8888 0H98.2456C103.07 0 107 3.92982 107 8.75455V10.7C107 11.2447 106.572 11.6727 106.027 11.6727ZM57.0797 9.72727H105.055V8.75455C105.055 4.99982 102 1.94545 98.2456 1.94545H63.8888C60.1341 1.94545 57.0797 4.99982 57.0797 8.75455V9.72727Z" fill="#2196F3"/>
<path d="M96.3 24.6489H86.1837C85.6389 24.6489 85.2109 24.2209 85.2109 23.6762V16.9838C85.2109 16.4391 85.6389 16.0111 86.1837 16.0111H96.3C96.8448 16.0111 97.2728 16.4391 97.2728 16.9838V23.6762C97.2728 24.2209 96.8448 24.6489 96.3 24.6489ZM87.1564 22.7035H95.3273V17.9566H87.1564V22.7035Z" fill="#2196F3"/>
<path d="M98.0898 107H77.2539C74.8999 107 72.721 106.066 71.1063 104.354C69.4916 102.642 68.6939 100.405 68.8301 98.0704L70.6978 66.4178C70.8534 63.9276 72.9156 61.9822 75.4058 61.9822H99.9574C102.448 61.9822 104.51 63.9276 104.665 66.4178L106.533 98.0704C106.669 100.424 105.852 102.642 104.257 104.354C102.623 106.066 100.444 107 98.0898 107ZM75.3863 63.9276C73.9272 63.9276 72.721 65.0754 72.6238 66.5151L70.7561 98.1676C70.6394 99.9769 71.2814 101.689 72.507 103.012C73.7521 104.335 75.4252 105.055 77.2345 105.055H98.0703C99.8796 105.055 101.553 104.335 102.798 103.012C104.043 101.689 104.665 99.9769 104.549 98.1676L102.7 66.5345C102.623 65.0755 101.397 63.9471 99.9379 63.9471H75.3863V63.9276Z" fill="#2196F3"/>
<path d="M98.0898 107H77.2539C74.8999 107 72.721 106.066 71.1063 104.354C69.4916 102.642 68.6939 100.405 68.8301 98.0704L68.9079 96.6502C68.9274 96.1444 69.3554 95.7358 69.8807 95.7358H105.444C105.949 95.7358 106.377 96.1444 106.416 96.6502L106.494 98.0704C106.63 100.424 105.813 102.642 104.218 104.354C102.623 106.066 100.444 107 98.0898 107ZM70.8145 97.6618L70.7756 98.1677C70.6589 99.9769 71.3008 101.689 72.5265 103.012C73.7716 104.335 75.4447 105.055 77.2539 105.055H98.0898C99.899 105.055 101.572 104.335 102.817 103.012C104.062 101.689 104.685 99.9769 104.568 98.1677L104.529 97.6618H70.8145Z" fill="#2196F3"/>
<path d="M93.129 71.0286C92.5843 71.0286 92.1563 70.6006 92.1563 70.0559V60.2119C92.1563 57.7411 90.1524 55.7373 87.6817 55.7373C85.211 55.7373 83.2072 57.7411 83.2072 60.2119V70.0559C83.2072 70.6006 82.7792 71.0286 82.2344 71.0286C81.6897 71.0286 81.2617 70.6006 81.2617 70.0559V60.2119C81.2617 56.6711 84.141 53.7919 87.6817 53.7919C91.2224 53.7919 94.1017 56.6711 94.1017 60.2119V70.0559C94.1017 70.6006 93.6543 71.0286 93.129 71.0286Z" fill="#2196F3"/>
<path d="M32.0221 66.9625H27.7615C27.2752 66.9625 26.8666 66.5929 26.7888 66.126L21.7112 29.532H13.2095C12.6648 29.532 12.2368 29.104 12.2368 28.5593C12.2368 28.0145 12.6648 27.5865 13.2095 27.5865H22.5866C23.073 27.5865 23.4815 27.9367 23.5594 28.4231L28.637 65.0171H32.0415C32.5863 65.0171 33.0143 65.4451 33.0143 65.9898C33.0143 66.5345 32.5668 66.9625 32.0221 66.9625Z" fill="#2196F3"/>
<path d="M52.6052 58.9279H26.6528C26.1081 58.9279 25.6801 58.4999 25.6801 57.9552C25.6801 57.4104 26.1081 56.9824 26.6528 56.9824H51.7492L54.5895 37.2555H23.6568C23.1121 37.2555 22.6841 36.8275 22.6841 36.2828C22.6841 35.7381 23.1121 35.3101 23.6568 35.3101H55.7374C56.0292 35.3101 56.2821 35.4268 56.4766 35.6408C56.6712 35.8548 56.749 36.1271 56.7101 36.419L53.5779 58.0913C53.5001 58.5582 53.0721 58.9279 52.6052 58.9279Z" fill="#2196F3"/>
<path d="M54.6672 44.5314H24.6683C24.1236 44.5314 23.6956 44.1034 23.6956 43.5587C23.6956 43.0139 24.1236 42.5859 24.6683 42.5859H54.6672C55.2119 42.5859 55.6399 43.0139 55.6399 43.5587C55.6399 44.1034 55.2119 44.5314 54.6672 44.5314Z" fill="#2196F3"/>
<path d="M53.6557 51.6323H25.6412C25.0965 51.6323 24.6685 51.2043 24.6685 50.6596C24.6685 50.1149 25.0965 49.6869 25.6412 49.6869H53.6363C54.181 49.6869 54.609 50.1149 54.609 50.6596C54.609 51.2043 54.181 51.6323 53.6557 51.6323Z" fill="#2196F3"/>
<path d="M35.1154 70.0363C32.8781 70.0363 31.0688 68.2076 31.0688 65.9898C31.0688 63.772 32.8781 61.9432 35.1154 61.9432C37.3527 61.9432 39.1619 63.772 39.1619 65.9898C39.1619 68.2076 37.3527 70.0363 35.1154 70.0363ZM35.1154 63.8887C33.9481 63.8887 33.0143 64.842 33.0143 65.9898C33.0143 67.1376 33.9481 68.0909 35.1154 68.0909C36.2827 68.0909 37.2165 67.1376 37.2165 65.9898C37.2165 64.842 36.2827 63.8887 35.1154 63.8887Z" fill="#2196F3"/>
<path d="M45.9323 70.0363C43.695 70.0363 41.8857 68.2076 41.8857 65.9898C41.8857 63.772 43.695 61.9432 45.9323 61.9432C48.1696 61.9432 49.9788 63.772 49.9788 65.9898C49.9788 68.2076 48.1696 70.0363 45.9323 70.0363ZM45.9323 63.8887C44.765 63.8887 43.8312 64.842 43.8312 65.9898C43.8312 67.1376 44.7845 68.0909 45.9323 68.0909C47.0801 68.0909 48.0334 67.1376 48.0334 65.9898C48.0334 64.842 47.0996 63.8887 45.9323 63.8887Z" fill="#2196F3"/>
<path d="M42.8584 66.9625H38.1893C37.6446 66.9625 37.2166 66.5345 37.2166 65.9898C37.2166 65.4451 37.6446 65.0171 38.1893 65.0171H42.8584C43.4031 65.0171 43.8311 65.4451 43.8311 65.9898C43.8311 66.5345 43.4031 66.9625 42.8584 66.9625Z" fill="#2196F3"/>
<path d="M66.4372 53.3249H62.3907C61.846 53.3249 61.418 52.8969 61.418 52.3522C61.418 51.8075 61.846 51.3795 62.3907 51.3795H66.4372C67.7602 51.3795 68.8302 50.3095 68.8302 48.9866C68.8302 47.508 67.7602 46.4186 66.4372 46.4186H65.7563C63.3634 46.4186 61.418 44.4731 61.418 42.0802C61.418 39.6873 63.3634 37.7418 65.7563 37.7418H69.8029C70.3476 37.7418 70.7756 38.1698 70.7756 38.7145C70.7756 39.2593 70.3476 39.6873 69.8029 39.6873H65.7563C64.4334 39.6873 63.3634 40.7573 63.3634 42.0802C63.3634 43.4031 64.4334 44.4731 65.7563 44.4731H66.4372C68.8302 44.4731 70.7756 46.438 70.7756 48.8309C70.7756 51.3795 68.8302 53.3249 66.4372 53.3249Z" fill="#2196F3"/>
<path d="M66.087 54.9786C65.5423 54.9786 65.1143 54.5506 65.1143 54.0058V37.0804C65.1143 36.5357 65.5423 36.1077 66.087 36.1077C66.6317 36.1077 67.0597 36.5357 67.0597 37.0804V54.0058C67.0597 54.5506 66.6317 54.9786 66.087 54.9786Z" fill="#2196F3"/>
<path d="M84.1798 43.5781H75.5225C74.9778 43.5781 74.5498 43.1501 74.5498 42.6054C74.5498 42.0607 74.9778 41.6327 75.5225 41.6327H84.1798C84.7245 41.6327 85.1525 42.0607 85.1525 42.6054C85.1525 43.1501 84.7051 43.5781 84.1798 43.5781Z" fill="#2196F3"/>
<path d="M89.5882 49.4535H75.5225C74.9778 49.4535 74.5498 49.0255 74.5498 48.4808C74.5498 47.9361 74.9778 47.5081 75.5225 47.5081H89.5882C90.1329 47.5081 90.5609 47.9361 90.5609 48.4808C90.5609 49.0255 90.1329 49.4535 89.5882 49.4535Z" fill="#2196F3"/>
<path d="M101.553 96.942C101.417 96.942 101.319 96.8447 101.319 96.7085L101.261 95.7358C101.261 95.5996 101.358 95.4829 101.494 95.4829C101.611 95.4829 101.747 95.5802 101.747 95.7164L101.806 96.6891C101.806 96.8058 101.708 96.9225 101.553 96.942C101.572 96.942 101.572 96.942 101.553 96.942Z" fill="#2196F3"/>
<path d="M101.397 94.1016C101.261 94.1016 101.164 94.0043 101.164 93.8681L101.047 92.0005C101.047 91.8643 101.144 91.7476 101.28 91.7476C101.397 91.7476 101.533 91.8449 101.533 91.981L101.65 93.8487C101.65 93.9849 101.533 94.1016 101.397 94.1016ZM101.183 90.3858C101.047 90.3858 100.95 90.2885 100.95 90.1523L100.833 88.2847C100.833 88.1485 100.93 88.0318 101.066 88.0318C101.202 88.0318 101.319 88.129 101.319 88.2652L101.436 90.1329C101.436 90.2691 101.319 90.3858 101.183 90.3858ZM100.95 86.67C100.813 86.67 100.716 86.5727 100.716 86.4365L100.599 84.5689C100.599 84.4327 100.697 84.316 100.833 84.316C100.969 84.316 101.086 84.4132 101.086 84.5494L101.202 86.417C101.202 86.5338 101.105 86.6505 100.95 86.67C100.969 86.67 100.969 86.67 100.95 86.67ZM100.736 82.9541C100.599 82.9541 100.502 82.8569 100.502 82.7207L100.385 80.8531C100.385 80.7169 100.483 80.6001 100.619 80.6001C100.736 80.5807 100.872 80.6974 100.872 80.8336L100.988 82.7012C100.988 82.818 100.891 82.9347 100.736 82.9541ZM100.522 79.2189C100.385 79.2189 100.288 79.1216 100.288 78.9854L100.171 77.1178C100.171 76.9816 100.269 76.8649 100.405 76.8649C100.522 76.8454 100.658 76.9621 100.658 77.0983L100.774 78.966C100.774 79.1021 100.658 79.2189 100.522 79.2189ZM100.308 75.5031C100.171 75.5031 100.074 75.4058 100.074 75.2696L99.9573 73.402C99.9573 73.2658 100.055 73.149 100.191 73.149C100.327 73.1296 100.444 73.2463 100.444 73.3825L100.56 75.2501C100.56 75.3863 100.444 75.5031 100.308 75.5031ZM100.074 71.7872C99.9379 71.7872 99.8406 71.69 99.8406 71.5538L99.7239 69.6861C99.7239 69.55 99.8212 69.4332 99.9573 69.4332C100.094 69.4332 100.21 69.5305 100.21 69.6667L100.327 71.5343C100.327 71.651 100.23 71.7872 100.074 71.7872C100.094 71.7872 100.094 71.7872 100.074 71.7872Z" fill="#2196F3"/>
<path d="M99.8603 68.0714C99.7241 68.0714 99.6268 67.9741 99.6268 67.8379L99.5879 67.0986H98.8292C98.693 67.0986 98.5957 66.9819 98.5957 66.8652C98.5957 66.7484 98.7124 66.6317 98.8292 66.6317H100.035L100.113 67.8379C100.113 67.9352 100.016 68.0519 99.8603 68.0714Z" fill="#2196F3"/>
<path d="M96.8058 67.0986H94.7825C94.6463 67.0986 94.5491 66.9819 94.5491 66.8652C94.5491 66.7484 94.6658 66.6317 94.7825 66.6317H96.8058C96.942 66.6317 97.0393 66.7484 97.0393 66.8652C97.0393 66.9819 96.942 67.0986 96.8058 67.0986ZM92.7398 67.0986H90.7165C90.5803 67.0986 90.4831 66.9819 90.4831 66.8652C90.4831 66.7484 90.5998 66.6317 90.7165 66.6317H92.7398C92.876 66.6317 92.9733 66.7484 92.9733 66.8652C92.9733 66.9819 92.876 67.0986 92.7398 67.0986ZM88.6933 67.0986H86.67C86.5338 67.0986 86.4365 66.9819 86.4365 66.8652C86.4365 66.7484 86.5532 66.6317 86.67 66.6317H88.6933C88.8294 66.6317 88.9267 66.7484 88.9267 66.8652C88.9267 66.9819 88.8294 67.0986 88.6933 67.0986ZM84.6273 67.0986H82.604C82.4678 67.0986 82.3705 66.9819 82.3705 66.8652C82.3705 66.7484 82.4872 66.6317 82.604 66.6317H84.6273C84.7634 66.6317 84.8607 66.7484 84.8607 66.8652C84.8607 66.9819 84.7634 67.0986 84.6273 67.0986ZM80.5807 67.0986H78.5574C78.4213 67.0986 78.324 66.9819 78.324 66.8652C78.324 66.7484 78.4407 66.6317 78.5574 66.6317H80.5807C80.7169 66.6317 80.8142 66.7484 80.8142 66.8652C80.8142 66.9819 80.7169 67.0986 80.5807 67.0986Z" fill="#2196F3"/>
<path d="M75.4837 68.0714C75.3281 68.0714 75.2308 67.9547 75.2503 67.8185L75.3281 66.6123H76.5343C76.6705 66.6123 76.7677 66.729 76.7677 66.8458C76.7677 66.9625 76.651 67.0792 76.5343 67.0792H75.795L75.7561 67.8185C75.7172 67.9741 75.6199 68.0714 75.4837 68.0714Z" fill="#2196F3"/>
<path d="M73.9466 94.1016C73.791 94.1016 73.6937 93.9849 73.7132 93.8487L73.8299 91.981C73.8299 91.8449 73.9466 91.7476 74.0828 91.7476C74.219 91.7476 74.3163 91.8643 74.3163 92.0005L74.1995 93.8681C74.1801 94.0043 74.0828 94.1016 73.9466 94.1016ZM74.1801 90.3858C74.1606 90.3858 74.1606 90.3858 74.1801 90.3858C74.0244 90.3858 73.9272 90.2691 73.9466 90.1329L74.0633 88.2652C74.0633 88.129 74.1801 88.0318 74.3163 88.0318C74.4524 88.0318 74.5497 88.1485 74.5497 88.2847L74.433 90.1523C74.4135 90.2885 74.2968 90.3858 74.1801 90.3858ZM74.3941 86.67C74.2384 86.67 74.1412 86.5532 74.1606 86.417L74.2773 84.5494C74.2773 84.4132 74.3941 84.316 74.5303 84.316C74.6664 84.316 74.7637 84.4327 74.7637 84.5689L74.647 86.4365C74.6275 86.5727 74.5303 86.67 74.3941 86.67ZM74.6081 82.9541C74.4524 82.9541 74.3552 82.8374 74.3746 82.7012L74.4913 80.8336C74.4913 80.6974 74.6081 80.6001 74.7442 80.6001C74.8804 80.6001 74.9777 80.7169 74.9777 80.8531L74.861 82.7207C74.8415 82.8374 74.7442 82.9541 74.6081 82.9541ZM74.8221 79.2189C74.6664 79.2189 74.5692 79.1021 74.5886 78.966L74.7053 77.0983C74.7053 76.9621 74.8415 76.8649 74.9582 76.8649C75.0944 76.8649 75.1917 76.9816 75.1917 77.1178L75.075 78.9854C75.0555 79.1216 74.9583 79.2189 74.8221 79.2189ZM75.0555 75.5031C74.8999 75.5031 74.8026 75.3863 74.8221 75.2501L74.9388 73.3825C74.9388 73.2463 75.0555 73.1296 75.1917 73.149C75.3279 73.149 75.4252 73.2658 75.4252 73.402L75.3084 75.2696C75.289 75.4058 75.1723 75.5031 75.0555 75.5031ZM75.2695 71.7872C75.1139 71.7872 75.0166 71.6705 75.0361 71.5343L75.1528 69.6667C75.1528 69.5305 75.2695 69.4527 75.4057 69.4332C75.5419 69.4332 75.6392 69.55 75.6392 69.6861L75.5224 71.5538C75.503 71.69 75.4057 71.7872 75.2695 71.7872Z" fill="#2196F3"/>
<path d="M73.7911 96.942C73.6355 96.942 73.5382 96.8253 73.5576 96.6891L73.616 95.7164C73.616 95.5802 73.7133 95.5024 73.8689 95.4829C74.0051 95.4829 74.1024 95.5996 74.1024 95.7358L74.044 96.7085C74.0246 96.8447 73.9078 96.942 73.7911 96.942Z" fill="#2196F3"/>
</g>
<defs>
<clipPath id="clip0_54_272">
<rect width="107" height="107" fill="white"/>
</clipPath>
</defs>
</svg>
