<svg width="114" height="114" viewBox="0 0 114 114" fill="none" xmlns="http://www.w3.org/2000/svg">
<g clip-path="url(#clip0_54_378)">
<path d="M1.83871 114H27.5806C28.5919 114 29.4194 113.173 29.4194 112.161V95.6129C29.4194 90.5381 25.3006 86.4194 20.2258 86.4194H19.8397C23.4252 83.5878 24.0319 78.3842 21.1819 74.7987C18.3319 71.2133 13.1468 70.6065 9.56129 73.4565C5.97581 76.3065 5.36903 81.4917 8.21903 85.0771C8.62355 85.5736 9.06484 86.0333 9.56129 86.4194H9.19355C4.11871 86.4194 0 90.5381 0 95.6129V112.161C0 113.173 0.827419 114 1.83871 114ZM14.7097 75.3871C17.2471 75.3871 19.3065 77.4465 19.3065 79.9839C19.3065 82.5213 17.2471 84.5807 14.7097 84.5807C12.1723 84.5807 10.1129 82.5213 10.1129 79.9839C10.1129 77.4465 12.1723 75.3871 14.7097 75.3871ZM3.67742 95.6129C3.67742 92.5607 6.14129 90.0968 9.19355 90.0968H20.2258C23.2781 90.0968 25.7419 92.5607 25.7419 95.6129V110.323H3.67742V95.6129Z" fill="#2196F3"/>
<path d="M40.452 34.9355H73.5488C74.5601 34.9355 75.3875 34.1081 75.3875 33.0968V1.83871C75.3875 0.827419 74.5601 0 73.5488 0H40.452C39.4407 0 38.6133 0.827419 38.6133 1.83871V33.0968C38.6133 34.1081 39.4407 34.9355 40.452 34.9355ZM55.1617 3.67742H58.8391V11.0323H55.1617V3.67742ZM42.2907 3.67742H51.4842V12.871C51.4842 13.8823 52.3117 14.7097 53.323 14.7097H60.6778C61.6891 14.7097 62.5165 13.8823 62.5165 12.871V3.67742H71.7101V31.2581H42.2907V3.67742Z" fill="#2196F3"/>
<path d="M107.454 96.808L111.573 89.0486C114.625 83.2934 112.418 76.1409 106.663 73.0886C100.908 70.0363 93.7556 72.2428 90.7033 77.998C88.883 81.4547 88.883 85.5918 90.7033 89.0486L94.822 96.808C90.8136 98.3893 88.2578 101.405 88.2578 104.806C88.2578 109.955 93.921 114 101.129 114C108.337 114 114 109.955 114 104.806C114 101.405 111.444 98.3893 107.454 96.808ZM93.9578 87.3202C91.8617 83.3486 93.3694 78.4393 97.341 76.3431C101.313 74.247 106.222 75.7547 108.318 79.7263C109.587 82.0983 109.587 84.9483 108.318 87.3386L101.129 100.872L93.9578 87.3202ZM101.129 110.322C96.1459 110.322 91.9352 107.803 91.9352 104.806C91.9352 102.894 93.7739 101.055 96.532 100.062L99.4923 105.671C99.9704 106.572 101.074 106.902 101.975 106.443C102.306 106.277 102.563 106.002 102.747 105.671L105.726 100.062C108.484 101.055 110.322 102.894 110.322 104.806C110.322 107.803 106.112 110.322 101.129 110.322Z" fill="#2196F3"/>
<path d="M106.646 82.7417C106.646 79.6895 104.182 77.2256 101.129 77.2256C98.0772 77.2256 95.6133 79.6895 95.6133 82.7417C95.6133 85.794 98.0772 88.2578 101.129 88.2578C104.182 88.2578 106.646 85.794 106.646 82.7417ZM99.2907 82.7417C99.2907 81.7304 100.118 80.903 101.129 80.903C102.141 80.903 102.968 81.7304 102.968 82.7417C102.968 83.753 102.141 84.5804 101.129 84.5804C100.118 84.5804 99.2907 83.753 99.2907 82.7417Z" fill="#2196F3"/>
<path d="M71.599 61.0266C71.8196 60.236 71.6909 59.3902 71.268 58.6731L69.1903 55.2347C68.2893 53.8005 66.4322 53.3225 64.9612 54.1315L64.4832 54.3889C63.7661 53.8741 62.9938 53.4512 62.2032 53.1018V52.6973C62.1848 50.9873 60.7874 49.6083 59.059 49.6266H54.9219C53.2119 49.6083 51.8145 50.9873 51.7961 52.6973V53.1018C50.987 53.4512 50.2332 53.8741 49.5161 54.3705L49.038 54.1131C47.567 53.3041 45.7099 53.7821 44.809 55.2163L42.7312 58.6547C42.3083 59.3534 42.1796 60.1992 42.4003 61.0083C42.6209 61.8173 43.1541 62.4976 43.8896 62.9021L44.2941 63.1228C44.2022 63.9134 44.2022 64.7225 44.2941 65.5315L43.8896 65.7521C43.1541 66.1566 42.6209 66.837 42.4003 67.646C42.1796 68.4366 42.3083 69.2825 42.7312 69.9995L44.809 73.4379C45.7099 74.8721 47.567 75.3502 49.038 74.5412L49.5161 74.2837C50.2332 74.7986 51.0054 75.2215 51.7961 75.5708V75.9754C51.8145 77.6854 53.2119 79.0644 54.9219 79.046H59.059C60.769 79.0644 62.1664 77.6854 62.1848 75.9754V75.5708C62.9938 75.2215 63.7477 74.7986 64.4648 74.3021L64.9428 74.5595C66.4138 75.3686 68.2709 74.8905 69.1719 73.4563L71.2496 70.0179C71.6725 69.3192 71.8012 68.4734 71.5806 67.6644C71.3599 66.8554 70.8267 66.175 70.0912 65.7705L69.6867 65.5499C69.7787 64.7592 69.7787 63.9502 69.6867 63.1412L70.0912 62.9205C70.8451 62.5344 71.3783 61.8541 71.599 61.0266ZM66.1012 64.3547C66.1012 64.7408 66.0645 65.127 66.0277 65.5131C65.8622 66.7634 66.4874 67.977 67.5906 68.5837L67.7928 68.6941L66.3219 71.1212L65.9909 70.9373C64.8877 70.3489 63.5454 70.4408 62.5341 71.1763C61.909 71.636 61.2287 72.0037 60.5116 72.2979C59.3164 72.7576 58.5258 73.8792 58.5074 75.1663V75.387H55.4735V75.1663C55.4551 73.8976 54.6645 72.7576 53.4693 72.2979C52.7522 72.0037 52.0719 71.636 51.4467 71.1763C50.4354 70.4408 49.0932 70.3305 47.9899 70.9373L47.659 71.1212L46.188 68.6941L46.3903 68.5837C47.4935 67.977 48.1187 66.7634 47.9532 65.5131C47.8428 64.7408 47.8428 63.9686 47.9532 63.2147C48.1187 61.9644 47.4935 60.7508 46.3903 60.1441L46.188 60.0337L47.659 57.6066L47.9899 57.7905C49.0932 58.3789 50.4354 58.287 51.4467 57.5515C52.0719 57.0918 52.7522 56.7241 53.4693 56.4299C54.6645 55.9702 55.4551 54.8486 55.4735 53.5615V53.3225H58.5258V53.5431C58.5441 54.8118 59.3348 55.9518 60.5299 56.4115C61.247 56.7057 61.9274 57.0734 62.5525 57.5331C63.5638 58.2686 64.9061 58.3605 66.0093 57.7721L66.3403 57.5883L67.8112 60.0154L67.609 60.1257C66.5058 60.7325 65.8806 61.946 66.0461 63.1963C66.0828 63.5825 66.1012 63.9686 66.1012 64.3547Z" fill="#2196F3"/>
<path d="M56.9999 57.9193C53.4512 57.9193 50.5645 60.8061 50.5645 64.3548C50.5645 67.9035 53.4512 70.7903 56.9999 70.7903C60.5486 70.7903 63.4354 67.9035 63.4354 64.3548C63.4354 60.8061 60.5486 57.9193 56.9999 57.9193ZM56.9999 67.1129C55.4738 67.1129 54.2419 65.8809 54.2419 64.3548C54.2419 62.8287 55.4738 61.5967 56.9999 61.5967C58.5261 61.5967 59.758 62.8287 59.758 64.3548C59.758 65.8809 58.5261 67.1129 56.9999 67.1129Z" fill="#2196F3"/>
<path d="M43.964 109.458L46.8875 107.233L43.4859 102.784C57.2211 106.994 72.133 104.549 83.8088 96.1828L81.6575 93.2041C71.0298 100.835 57.4601 103.115 44.9201 99.3822L49.8479 97.8377L48.7446 94.3257L38.0433 97.6722C37.0688 97.9664 36.5356 98.996 36.8298 99.9706C36.885 100.173 36.9953 100.375 37.124 100.541L43.964 109.458Z" fill="#2196F3"/>
<path d="M99.2351 56.7426L95.9622 52.5136L93.0571 54.7568L99.9154 63.6378C100.265 64.0975 100.798 64.3549 101.368 64.3549H101.46C102.067 64.3365 102.618 64.0055 102.931 63.5091L108.944 54.0213L105.836 52.0539L102.931 56.6507C102.343 43.4671 96.0725 31.1846 85.7574 22.9471L83.459 25.8155C92.91 33.3726 98.6651 44.6439 99.2351 56.7426Z" fill="#2196F3"/>
<path d="M11.4 64.5938L15.0407 64.1158C14.82 62.369 14.7097 60.6038 14.7097 58.8387C14.6913 47.88 18.9571 37.3442 26.5878 29.4745L25.65 34.77L29.2723 35.4135L31.2213 24.3629C31.4052 23.37 30.7249 22.4138 29.732 22.23C29.5113 22.1932 29.3091 22.1932 29.0884 22.23L18.0378 24.179L18.6813 27.8013L23.9952 26.8635C15.6658 35.4135 11.0139 46.8871 11.0323 58.8387C11.0323 60.7693 11.1426 62.6816 11.4 64.5938Z" fill="#2196F3"/>
</g>
<defs>
<clipPath id="clip0_54_378">
<rect width="114" height="114" fill="white"/>
</clipPath>
</defs>
</svg>
