<svg width="90" height="114" viewBox="0 0 90 114" fill="none" xmlns="http://www.w3.org/2000/svg">
<g clip-path="url(#clip0_54_230)">
<path fill-rule="evenodd" clip-rule="evenodd" d="M22.008 7.39209H5.4C2.412 7.39209 0 9.81609 0 12.7921V108.6C0 111.588 2.412 114 5.4 114H83.832C86.82 114 89.232 111.588 89.232 108.6V12.7921C89.232 9.81609 86.82 7.39209 83.832 7.39209C76.644 7.39209 61.224 7.39209 61.224 7.39209C60.228 7.39209 59.424 8.19609 59.424 9.19209C59.424 10.1881 60.228 10.9921 61.224 10.9921C61.224 10.9921 76.656 10.9921 83.832 10.9921C84.828 10.9921 85.632 11.7961 85.632 12.7921V108.6C85.632 109.596 84.828 110.4 83.832 110.4H5.4C4.404 110.4 3.6 109.596 3.6 108.6V12.7921C3.6 11.7961 4.404 10.9921 5.4 10.9921H22.008C23.004 10.9921 23.808 10.1881 23.808 9.19209C23.808 8.19609 23.004 7.39209 22.008 7.39209Z" fill="#2196F3"/>
<path fill-rule="evenodd" clip-rule="evenodd" d="M14.4123 32.6642H46.3563C47.3523 32.6642 48.1563 31.8602 48.1563 30.8642C48.1563 29.8682 47.3523 29.0642 46.3563 29.0642H14.4123C13.4163 29.0642 12.6123 29.8682 12.6123 30.8642C12.6123 31.8482 13.4163 32.6642 14.4123 32.6642Z" fill="#2196F3"/>
<path fill-rule="evenodd" clip-rule="evenodd" d="M14.4123 41.8678H32.4603C33.4563 41.8678 34.2603 41.0638 34.2603 40.0678C34.2603 39.0718 33.4563 38.2678 32.4603 38.2678H14.4123C13.4163 38.2678 12.6123 39.0718 12.6123 40.0678C12.6123 41.0518 13.4163 41.8678 14.4123 41.8678Z" fill="#2196F3"/>
<path fill-rule="evenodd" clip-rule="evenodd" d="M14.4123 61.8839H46.3563C47.3523 61.8839 48.1563 61.0799 48.1563 60.0839C48.1563 59.0879 47.3523 58.2839 46.3563 58.2839H14.4123C13.4163 58.2839 12.6123 59.0879 12.6123 60.0839C12.6123 61.0679 13.4163 61.8839 14.4123 61.8839Z" fill="#2196F3"/>
<path fill-rule="evenodd" clip-rule="evenodd" d="M14.4123 71.088H32.4603C33.4563 71.088 34.2603 70.284 34.2603 69.288C34.2603 68.292 33.4563 67.488 32.4603 67.488H14.4123C13.4163 67.488 12.6123 68.292 12.6123 69.288C12.6123 70.272 13.4163 71.088 14.4123 71.088Z" fill="#2196F3"/>
<path fill-rule="evenodd" clip-rule="evenodd" d="M14.4123 91.1042H46.3563C47.3523 91.1042 48.1563 90.3002 48.1563 89.3042C48.1563 88.3082 47.3523 87.5042 46.3563 87.5042H14.4123C13.4163 87.5042 12.6123 88.3082 12.6123 89.3042C12.6123 90.3002 13.4163 91.1042 14.4123 91.1042Z" fill="#2196F3"/>
<path fill-rule="evenodd" clip-rule="evenodd" d="M14.4123 100.308H32.4603C33.4563 100.308 34.2603 99.5043 34.2603 98.5083C34.2603 97.5123 33.4563 96.7083 32.4603 96.7083H14.4123C13.4163 96.7083 12.6123 97.5123 12.6123 98.5083C12.6123 99.5043 13.4163 100.308 14.4123 100.308Z" fill="#2196F3"/>
<path fill-rule="evenodd" clip-rule="evenodd" d="M64.4156 29.0642H60.2156C59.0996 29.0642 58.0316 29.5082 57.2516 30.3002C56.4596 31.0922 56.0156 32.1602 56.0156 33.2762C56.0156 35.8322 56.0156 39.8642 56.0156 42.4202C56.0156 43.5362 56.4596 44.6042 57.2516 45.3842C58.0436 46.1762 59.1116 46.6202 60.2156 46.6202C62.7716 46.6202 66.8036 46.6202 69.3596 46.6202C70.4756 46.6202 71.5436 46.1762 72.3236 45.3842C73.1156 44.5922 73.5596 43.5242 73.5596 42.4202V38.2202C73.5596 37.2242 72.7556 36.4202 71.7596 36.4202C70.7636 36.4202 69.9596 37.2242 69.9596 38.2202V42.4202C69.9596 42.5762 69.8996 42.7322 69.7796 42.8402C69.6716 42.9482 69.5156 43.0202 69.3596 43.0202H60.2156C60.0596 43.0202 59.9036 42.9602 59.7956 42.8402C59.6876 42.7322 59.6156 42.5762 59.6156 42.4202V33.2762C59.6156 33.1202 59.6756 32.9642 59.7956 32.8562C59.9036 32.7482 60.0596 32.6762 60.2156 32.6762H64.4156C65.4116 32.6762 66.2156 31.8722 66.2156 30.8762C66.2156 29.8682 65.4116 29.0642 64.4156 29.0642Z" fill="#2196F3"/>
<path fill-rule="evenodd" clip-rule="evenodd" d="M64.4156 58.2839H60.2156C59.0996 58.2839 58.0316 58.7279 57.2516 59.5199C56.4596 60.3119 56.0156 61.3799 56.0156 62.4839C56.0156 65.0399 56.0156 69.0719 56.0156 71.6279C56.0156 72.7439 56.4596 73.8119 57.2516 74.5919C58.0436 75.3839 59.1116 75.8279 60.2156 75.8279C62.7716 75.8279 66.8036 75.8279 69.3596 75.8279C70.4756 75.8279 71.5436 75.3839 72.3236 74.5919C73.1156 73.7999 73.5596 72.7319 73.5596 71.6279V67.4279C73.5596 66.4319 72.7556 65.6279 71.7596 65.6279C70.7636 65.6279 69.9596 66.4319 69.9596 67.4279V71.6279C69.9596 71.7839 69.8996 71.9399 69.7796 72.0479C69.6716 72.1559 69.5156 72.2279 69.3596 72.2279H60.2156C60.0596 72.2279 59.9036 72.1679 59.7956 72.0479C59.6876 71.9399 59.6156 71.7839 59.6156 71.6279V62.4839C59.6156 62.3279 59.6756 62.1719 59.7956 62.0639C59.9036 61.9559 60.0596 61.8839 60.2156 61.8839H64.4156C65.4116 61.8839 66.2156 61.0799 66.2156 60.0839C66.2156 59.0879 65.4116 58.2839 64.4156 58.2839Z" fill="#2196F3"/>
<path fill-rule="evenodd" clip-rule="evenodd" d="M64.4156 87.5042H60.2156C59.0996 87.5042 58.0316 87.9481 57.2516 88.7401C56.4596 89.5321 56.0156 90.6002 56.0156 91.7042C56.0156 94.2601 56.0156 98.2922 56.0156 100.848C56.0156 101.964 56.4596 103.032 57.2516 103.812C58.0436 104.604 59.1116 105.048 60.2156 105.048C62.7716 105.048 66.8036 105.048 69.3596 105.048C70.4756 105.048 71.5436 104.604 72.3236 103.812C73.1156 103.02 73.5596 101.952 73.5596 100.848V96.6482C73.5596 95.6522 72.7556 94.8482 71.7596 94.8482C70.7636 94.8482 69.9596 95.6522 69.9596 96.6482V100.848C69.9596 101.004 69.8996 101.16 69.7796 101.268C69.6716 101.376 69.5156 101.448 69.3596 101.448H60.2156C60.0596 101.448 59.9036 101.388 59.7956 101.268C59.6876 101.16 59.6156 101.004 59.6156 100.848V91.7042C59.6156 91.5482 59.6756 91.3922 59.7956 91.2842C59.9036 91.1762 60.0596 91.1042 60.2156 91.1042H64.4156C65.4116 91.1042 66.2156 90.3002 66.2156 89.3042C66.2156 88.3082 65.4116 87.5042 64.4156 87.5042Z" fill="#2196F3"/>
<path fill-rule="evenodd" clip-rule="evenodd" d="M66.0599 39.108L76.7279 28.44C77.4359 27.744 77.4359 26.592 76.7279 25.896C76.0319 25.188 74.8799 25.188 74.1839 25.896L63.5159 36.564C62.8199 37.26 62.8199 38.412 63.5159 39.108C64.2119 39.804 65.3519 39.804 66.0599 39.108Z" fill="#2196F3"/>
<path fill-rule="evenodd" clip-rule="evenodd" d="M66.0599 68.3281L76.7279 57.6601C77.4359 56.9641 77.4359 55.8121 76.7279 55.1161C76.0319 54.4081 74.8799 54.4081 74.1839 55.1161L63.5159 65.7841C62.8199 66.4801 62.8199 67.6321 63.5159 68.3281C64.2119 69.0241 65.3519 69.0241 66.0599 68.3281Z" fill="#2196F3"/>
<path fill-rule="evenodd" clip-rule="evenodd" d="M66.0599 97.5481L76.7279 86.8801C77.4359 86.1721 77.4359 85.0321 76.7279 84.3361C76.0319 83.6281 74.8799 83.6281 74.1839 84.3361L63.5159 95.0041C62.8199 95.7001 62.8199 96.8521 63.5159 97.5481C64.2119 98.2441 65.3519 98.2441 66.0599 97.5481Z" fill="#2196F3"/>
<path fill-rule="evenodd" clip-rule="evenodd" d="M59.0163 4.40404C58.7883 4.40404 58.6083 4.22404 58.6083 3.99604C58.6083 1.78804 56.8203 -0.0119629 54.6003 -0.0119629H34.6203C32.4123 -0.0119629 30.6123 1.77604 30.6123 3.99604C30.6123 4.22404 30.4323 4.40404 30.2043 4.40404C27.9963 4.40404 26.1963 6.19204 26.1963 8.41204V14.184C26.1963 16.5 28.0803 18.384 30.3963 18.384H58.8123C61.1283 18.384 63.0123 16.5 63.0123 14.184V8.41204C63.0243 6.20404 61.2243 4.40404 59.0163 4.40404ZM59.0163 8.01604C59.2443 8.01604 59.4243 8.19604 59.4243 8.42404V14.196C59.4243 14.532 59.1603 14.796 58.8243 14.796H30.4083C30.0723 14.796 29.8083 14.532 29.8083 14.196V8.41204C29.8083 8.19604 29.9883 8.00404 30.2163 8.00404C32.4243 8.00404 34.2243 6.21604 34.2243 3.99604C34.2243 3.76804 34.4043 3.58804 34.6323 3.58804H54.6003C54.8283 3.58804 55.0083 3.76804 55.0083 3.99604C55.0083 6.21604 56.7963 8.01604 59.0163 8.01604Z" fill="#2196F3"/>
</g>
<defs>
<clipPath id="clip0_54_230">
<rect width="89.232" height="114" fill="white"/>
</clipPath>
</defs>
</svg>
