<svg width="121" height="114" viewBox="0 0 121 114" fill="none" xmlns="http://www.w3.org/2000/svg">
<g clip-path="url(#clip0_54_391)">
<path d="M74.931 60.2329C75.2441 60.8203 75.4234 61.4898 75.4234 62.2024C75.4234 63.3513 74.9548 64.3966 74.1968 65.1567L74.1881 65.1654C73.4279 65.9212 72.3849 66.3877 71.2381 66.3877C70.0871 66.3877 69.0418 65.9191 68.2838 65.1611L68.2817 65.1589L68.2795 65.1611C67.5215 64.403 67.0528 63.3578 67.0528 62.2024C67.0528 61.5114 67.2213 60.857 67.5215 60.2804H59.043C59.3431 60.857 59.5116 61.5092 59.5116 62.2024C59.5116 63.3578 59.043 64.4052 58.285 65.1611C57.5269 65.9191 56.4817 66.3877 55.3263 66.3877C54.1753 66.3877 53.13 65.9191 52.372 65.1611L52.3699 65.1589L52.3677 65.1611C51.6097 64.403 51.1411 63.3578 51.1411 62.2024C51.1411 61.4574 51.3376 60.7555 51.6831 60.1465C51.0504 59.9781 50.4997 59.6628 50.0354 59.2416C49.3011 58.5787 48.8173 57.6608 48.5949 56.6825H48.5927L43.6322 36.7885H37.5918C35.6115 36.7885 34.3352 35.8534 33.7478 34.6613C33.5102 34.1775 33.3915 33.6506 33.3893 33.1193C33.3871 32.5989 33.5037 32.0784 33.7327 31.5968C34.3028 30.4047 35.5381 29.4783 37.3824 29.4783H45.0467C46.1675 29.4783 47.2041 29.8454 48.0399 30.4868C48.8735 31.126 49.4998 32.0374 49.7956 33.1237L50.9964 37.5098H78.4986C78.8809 37.5098 79.2718 37.5638 79.654 37.6696C80.4077 37.8769 81.0901 38.2915 81.589 38.8897C82.1073 39.5095 82.4248 40.3064 82.4248 41.2545C82.4248 41.6411 82.3664 42.06 82.2412 42.5114L78.0905 57.4924C77.8054 58.5247 77.3173 59.2244 76.5637 59.6908C76.0885 59.9867 75.5487 60.1551 74.9245 60.2307L74.931 60.2329ZM60.4186 25.9949C60.4596 25.9906 60.4985 25.9906 60.5396 25.9906C60.6303 25.9906 60.721 25.9992 60.8073 26.0165C61.1896 26.0165 61.561 25.9603 61.8958 25.8416C62.589 25.5954 63.1311 25.0339 63.2218 24.1031C63.3729 22.5547 61.8504 22.1811 60.2761 21.7945C57.5248 21.1185 54.6785 20.421 54.7951 16.3135C54.8512 14.3202 55.9116 12.9467 57.3887 12.2016C57.9308 11.9295 58.5268 11.746 59.1488 11.6553V9.74187C59.1488 8.97522 59.7707 8.3511 60.5396 8.3511C61.3062 8.3511 61.9303 8.97306 61.9303 9.74187V11.8453C62.1096 11.8971 62.2888 11.9554 62.4616 12.0224C64.3318 12.7351 65.9126 14.3029 66.2711 16.7389C66.3812 17.4969 65.8564 18.2031 65.0984 18.3133C64.3404 18.4234 63.6342 17.8986 63.5241 17.1406C63.3319 15.8405 62.481 15.0005 61.4725 14.616C60.9823 14.4282 60.464 14.3439 59.9651 14.3591C59.4857 14.3742 59.0278 14.48 58.637 14.6765C58.0258 14.9853 57.5874 15.5576 57.5636 16.3891C57.5118 18.2593 59.2546 18.6869 60.9391 19.1015C63.6969 19.7796 66.3618 20.434 65.9795 24.3622C65.7657 26.5477 64.4743 27.8716 62.8201 28.4568C62.5329 28.5583 62.2348 28.6361 61.9303 28.69V30.8669C61.9303 31.6336 61.3084 32.2577 60.5396 32.2577C59.7729 32.2577 59.1488 31.6357 59.1488 30.8669V28.5777C58.786 28.487 58.434 28.3661 58.0971 28.2171C56.3046 27.4288 54.9138 25.8653 54.8793 23.6906C54.8663 22.9261 55.4775 22.2977 56.242 22.2847C57.0065 22.2718 57.6349 22.8829 57.6479 23.6474C57.663 24.5847 58.3411 25.2909 59.2157 25.6753C59.5958 25.8437 60.0061 25.9495 60.4165 25.9927L60.4186 25.9949ZM71.061 43.2089C71.1669 42.4509 71.8666 41.9196 72.6246 42.0255C73.3826 42.1313 73.9138 42.831 73.808 43.589L72.3417 54.091C72.2359 54.8491 71.5361 55.3803 70.7781 55.2745C70.0201 55.1687 69.4889 54.469 69.5947 53.711L71.061 43.2089ZM63.2952 43.3493C63.2952 42.5826 63.9171 41.9585 64.686 41.9585C65.4526 41.9585 66.0767 42.5805 66.0767 43.3493V53.9528C66.0767 54.7195 65.4548 55.3436 64.686 55.3436C63.9193 55.3436 63.2952 54.7216 63.2952 53.9528V43.3493ZM54.7584 43.6603C54.6288 42.9044 55.1384 42.1874 55.8921 42.0579C56.648 41.9283 57.365 42.4379 57.4945 43.1916L59.3043 53.6397C59.4338 54.3955 58.9242 55.1125 58.1705 55.2421C57.4146 55.3717 56.6977 54.862 56.5681 54.1083L54.7584 43.6603ZM78.503 40.2892H49.9446V40.2827C49.3356 40.2827 48.7763 39.8788 48.61 39.2612L47.1286 33.8493C46.9968 33.3677 46.7226 32.9682 46.3597 32.6896C46.0013 32.4153 45.5477 32.2577 45.0489 32.2577H37.3845C36.7582 32.2577 36.376 32.4909 36.2335 32.7911C36.1838 32.8926 36.16 33.0049 36.16 33.1193C36.16 33.223 36.186 33.331 36.2356 33.4325C36.3933 33.7543 36.8317 34.0069 37.594 34.0069H43.7963C44.3837 34.0069 44.9323 34.2056 45.375 34.5533C45.8155 34.8967 46.1416 35.3847 46.2842 35.9592L51.2857 56.0174H51.2836L51.2901 56.0498C51.3916 56.5098 51.5946 56.9201 51.8904 57.1857C52.1021 57.3779 52.3871 57.4967 52.7456 57.4967H74.0456C74.566 57.4967 74.9224 57.4514 75.1124 57.3326C75.2355 57.2548 75.3349 57.0713 75.4234 56.7516L79.5741 41.7706C79.6238 41.5892 79.6475 41.4143 79.6475 41.2523C79.6475 40.9997 79.5763 40.8053 79.464 40.6671C79.3322 40.5094 79.14 40.3971 78.9176 40.3367C78.7945 40.3021 78.6541 40.2848 78.5008 40.2848L78.503 40.2892ZM56.3219 61.2069C56.0671 60.952 55.715 60.7944 55.3263 60.7944C54.9333 60.7944 54.5834 60.9499 54.3308 61.2004L54.3264 61.2047C54.0759 61.4552 53.9204 61.8072 53.9204 62.2003C53.9204 62.589 54.0781 62.941 54.3329 63.1958L54.3308 63.198C54.5856 63.4507 54.9376 63.6062 55.3285 63.6062C55.7172 63.6062 56.0692 63.4485 56.3219 63.1937C56.5767 62.9388 56.7344 62.5868 56.7344 62.2003C56.7344 61.8353 56.5983 61.5027 56.3737 61.2544L56.3219 61.2047V61.2069ZM79.4532 103.271V104.308C79.4532 105.286 79.0515 106.176 78.4058 106.824L78.3993 106.83C77.7514 107.476 76.8617 107.875 75.8855 107.875H44.4312C43.4508 107.875 42.561 107.474 41.9153 106.828L41.911 106.824C41.2653 106.178 40.8636 105.286 40.8636 104.308V103.271H3.85485C3.51364 103.271 3.21562 103.381 3.0083 103.561C2.86145 103.686 2.77074 103.848 2.77074 104.012V108.964L3.38406 110.007C3.67129 110.497 3.98443 110.806 4.30837 110.985C4.61287 111.154 4.96056 111.216 5.33201 111.216H114.989C115.358 111.216 115.708 111.152 116.013 110.985C116.337 110.806 116.648 110.497 116.937 110.007L117.55 108.964V104.012C117.55 103.848 117.46 103.688 117.313 103.561C117.105 103.383 116.807 103.271 116.466 103.271H79.4575H79.4532ZM42.7165 103.271V104.308C42.7165 104.781 42.9087 105.208 43.2197 105.519C43.5307 105.83 43.9604 106.022 44.4312 106.022H75.8855C76.3585 106.022 76.7861 105.83 77.0949 105.521L77.0992 105.517C77.4081 105.208 77.6003 104.781 77.6003 104.308V103.271H42.7165ZM3.85485 100.492H8.33599V44.2563C8.33599 42.2414 9.15879 40.4101 10.4848 39.0841C11.8108 37.7581 13.6421 36.9353 15.657 36.9353H16.7843V36.9396L29.4049 37.0541V8.18913C29.3638 8.18265 29.3142 8.18265 29.258 8.18697C29.1565 8.19777 29.0421 8.23233 28.9254 8.29495C28.4654 8.53683 28.0443 9.15879 28.0443 10.2796V35.7519C28.0443 36.2637 27.6297 36.6783 27.1179 36.6783C26.606 36.6783 26.1914 36.2637 26.1914 35.7519V10.2796C26.1914 8.33814 27.0855 7.17629 28.0638 6.66015C28.392 6.48738 28.7376 6.38588 29.0701 6.34917C29.4243 6.31246 29.772 6.35133 30.0787 6.46363C30.7805 6.71846 31.2578 7.29075 31.2578 8.13083V75.2873C31.2578 75.4903 31.3139 75.6739 31.4133 75.8164C31.5148 75.9633 31.6638 76.0799 31.8517 76.1533C32.0417 76.2268 32.2318 76.2397 32.4045 76.1965C32.5795 76.1533 32.7436 76.0561 32.8775 75.9093L34.2056 74.4257C34.4756 74.1233 34.7887 73.8922 35.1386 73.7368C35.4927 73.5791 35.8728 73.497 36.2723 73.497C36.6719 73.497 37.0519 73.577 37.4061 73.7368C37.756 73.8922 38.0691 74.1233 38.3391 74.4257L41.5201 77.9782C41.613 78.0818 41.7166 78.1596 41.8311 78.2114C41.9391 78.2589 42.0665 78.2848 42.2133 78.2848C42.3602 78.2848 42.4876 78.2611 42.5956 78.2114C42.7079 78.1617 42.8115 78.084 42.9066 77.9782L46.0876 74.4257C46.3576 74.1233 46.6707 73.8922 47.0206 73.7368C47.3747 73.5791 47.7548 73.497 48.1544 73.497C48.5539 73.497 48.934 73.577 49.2881 73.7368C49.638 73.8922 49.9511 74.1233 50.2211 74.4257L53.4021 77.9782C53.495 78.0818 53.5987 78.1596 53.7131 78.2114C53.8211 78.2589 53.9485 78.2848 54.0954 78.2848C54.2422 78.2848 54.3696 78.2611 54.4776 78.2114C54.5899 78.1617 54.6936 78.084 54.7886 77.9782L57.9697 74.4257C58.2396 74.1233 58.5527 73.8922 58.9026 73.7368C59.2568 73.5791 59.6369 73.497 60.0364 73.497C60.4359 73.497 60.816 73.577 61.1702 73.7368C61.52 73.8922 61.8331 74.1233 62.1031 74.4257L65.2842 77.9782C65.377 78.0818 65.4807 78.1596 65.5951 78.2114C65.7031 78.2589 65.8305 78.2848 65.9774 78.2848C66.1242 78.2848 66.2516 78.2611 66.3596 78.2114C66.4719 78.1617 66.5756 78.084 66.6706 77.9782L69.8517 74.4257C70.1216 74.1233 70.4348 73.8922 70.7846 73.7368C71.1388 73.5791 71.5189 73.497 71.9184 73.497C72.3179 73.497 72.698 73.577 73.0522 73.7368C73.402 73.8922 73.7152 74.1233 73.9851 74.4257L77.1662 77.9782C77.259 78.0818 77.3627 78.1596 77.4772 78.2114C77.5851 78.2589 77.7125 78.2848 77.8594 78.2848C78.0063 78.2848 78.1337 78.2611 78.2416 78.2114C78.3539 78.1617 78.4576 78.084 78.5526 77.9782L81.7337 74.4257C82.0036 74.1233 82.3168 73.8922 82.6666 73.7368C83.0208 73.5791 83.4009 73.497 83.8004 73.497C84.1999 73.497 84.58 73.577 84.9342 73.7368C85.284 73.8922 85.5972 74.1233 85.8671 74.4257L87.1953 75.9093C87.3292 76.0583 87.4933 76.1555 87.6682 76.1987C87.841 76.2397 88.031 76.2268 88.2211 76.1555C88.409 76.0842 88.5601 75.9654 88.6595 75.8186C88.7588 75.6739 88.815 75.4925 88.815 75.2895V8.33599C88.815 6.55001 88.0872 4.93032 86.9124 3.75551C85.7376 2.5807 84.1157 1.85292 82.3319 1.85292H30.3356C28.1048 1.85292 26.0143 2.6714 24.5631 4.47681C23.2609 6.0965 22.4445 8.52819 22.4445 11.8993V35.8599C22.4445 36.3717 22.0299 36.7863 21.5181 36.7863C21.0063 36.7863 20.5916 36.3717 20.5916 35.8599V11.8993C20.5916 8.07468 21.5677 5.25426 23.1226 3.31928C24.9583 1.03444 27.5649 0 30.3335 0H82.3297C84.6254 0 86.7115 0.937258 88.2211 2.44681C89.7306 3.95635 90.6679 6.04251 90.6679 8.33815V36.9418C90.696 36.9396 90.7262 36.9396 90.7564 36.9396H104.662C106.677 36.9396 108.508 37.7624 109.834 39.0884C111.16 40.4144 111.983 42.2457 111.983 44.2606V100.496H116.464C117.483 100.496 118.423 100.865 119.114 101.457C119.863 102.103 120.33 103.006 120.33 104.014V109.335C120.33 109.635 120.235 109.914 120.073 110.141L119.328 111.411C118.762 112.372 118.09 113.013 117.352 113.421C116.592 113.84 115.797 114 114.993 114H5.33633C4.53296 114 3.73824 113.84 2.97806 113.421C2.23949 113.013 1.5657 112.372 1.00205 111.411L0.194362 110.035C0.0647874 109.815 0.00431916 109.573 0.00431916 109.335H0V104.014C0 103.006 0.46647 102.103 1.21584 101.457C1.90475 100.863 2.84417 100.496 3.86565 100.496L3.85485 100.492ZM11.1154 100.492H109.204V44.2563C109.204 43.0081 108.692 41.8721 107.869 41.0493C107.044 40.2244 105.91 39.7147 104.662 39.7147H90.7564C90.7262 39.7147 90.6981 39.7147 90.6679 39.7125V44.103H104.135C104.647 44.103 105.061 44.5176 105.061 45.0294V96.8443C105.061 97.3561 104.647 97.7707 104.135 97.7707H16.1861C15.6742 97.7707 15.2596 97.3561 15.2596 96.8443V45.0294C15.2596 44.5176 15.6742 44.103 16.1861 44.103H29.407V39.8248L16.7864 39.7104V39.7147H15.6591C14.4109 39.7147 13.2749 40.2265 12.4521 41.0493C11.6293 41.8721 11.1175 43.0081 11.1175 44.2563V100.492H11.1154ZM90.6657 45.9537V75.2873C90.6657 75.8683 90.4908 76.4103 90.1777 76.866C89.8667 77.3173 89.4218 77.6737 88.8776 77.8832C88.3355 78.0905 87.7676 78.1207 87.232 77.9911C86.7007 77.8616 86.2084 77.5722 85.8196 77.1381L84.4915 75.6545C84.3986 75.5508 84.295 75.4731 84.1805 75.4212C84.0725 75.3737 83.9451 75.3478 83.7982 75.3478C83.6514 75.3478 83.524 75.3716 83.416 75.4212C83.3037 75.4709 83.2001 75.5486 83.105 75.6545L79.924 79.207C79.654 79.5093 79.3409 79.7404 78.991 79.8959C78.6368 80.0535 78.2568 80.1356 77.8572 80.1356C77.4577 80.1356 77.0776 80.0557 76.7235 79.8959C76.3736 79.7404 76.0605 79.5093 75.7905 79.207L72.6095 75.6545C72.5166 75.5508 72.4129 75.4731 72.2985 75.4212C72.1905 75.3737 72.0631 75.3478 71.9162 75.3478C71.7694 75.3478 71.642 75.3716 71.534 75.4212C71.4217 75.4709 71.318 75.5486 71.223 75.6545L68.0419 79.207C67.772 79.5093 67.4589 79.7404 67.109 79.8959C66.7548 80.0535 66.3747 80.1356 65.9752 80.1356C65.5757 80.1356 65.1956 80.0557 64.8414 79.8959C64.4916 79.7404 64.1785 79.5093 63.9085 79.207L60.7274 75.6545C60.6346 75.5508 60.5309 75.4731 60.4165 75.4212C60.3085 75.3737 60.1811 75.3478 60.0342 75.3478C59.8874 75.3478 59.7599 75.3716 59.652 75.4212C59.5397 75.4709 59.436 75.5486 59.341 75.6545L56.1599 79.207C55.89 79.5093 55.5768 79.7404 55.227 79.8959C54.8728 80.0535 54.4927 80.1356 54.0932 80.1356C53.6937 80.1356 53.3136 80.0557 52.9594 79.8959C52.6096 79.7404 52.2964 79.5093 52.0265 79.207L48.8454 75.6545C48.7526 75.5508 48.6489 75.4731 48.5344 75.4212C48.4265 75.3737 48.299 75.3478 48.1522 75.3478C48.0053 75.3478 47.8779 75.3716 47.7699 75.4212C47.6576 75.4709 47.554 75.5486 47.459 75.6545L44.2779 79.207C44.008 79.5093 43.6948 79.7404 43.345 79.8959C42.9908 80.0535 42.6107 80.1356 42.2112 80.1356C41.8117 80.1356 41.4316 80.0557 41.0774 79.8959C40.7276 79.7404 40.4144 79.5093 40.1445 79.207L36.9634 75.6545C36.8705 75.5508 36.7669 75.4731 36.6524 75.4212C36.5444 75.3737 36.417 75.3478 36.2702 75.3478C36.1233 75.3478 35.9959 75.3716 35.8879 75.4212C35.7756 75.4709 35.672 75.5486 35.577 75.6545L34.2488 77.1381C33.8601 77.5722 33.3677 77.8616 32.8364 77.9911C32.3009 78.1207 31.7329 78.0883 31.1908 77.8832C30.6466 77.6758 30.2018 77.3195 29.8908 76.866C29.5776 76.4103 29.4027 75.8661 29.4027 75.2873V45.9537H17.1082V95.9157H103.204V45.9537H101.703H90.6614H90.6657ZM72.2315 61.2069C71.9767 60.952 71.6247 60.7944 71.236 60.7944C70.8429 60.7944 70.4931 60.9499 70.2404 61.2004L70.2361 61.2047C69.9856 61.4552 69.8301 61.8072 69.8301 62.2003C69.8301 62.589 69.9877 62.941 70.2426 63.1958L70.2404 63.198C70.4952 63.4507 70.8472 63.6062 71.2381 63.6062C71.629 63.6062 71.981 63.4507 72.2315 63.2002L72.2358 63.1958C72.4864 62.9453 72.6419 62.5933 72.6419 62.2024C72.6419 61.8137 72.4842 61.4617 72.2315 61.2069Z" fill="#2196F3"/>
</g>
<defs>
<clipPath id="clip0_54_391">
<rect width="120.33" height="114" fill="white"/>
</clipPath>
</defs>
</svg>
