<svg width="96" height="95" viewBox="0 0 96 95" fill="none" xmlns="http://www.w3.org/2000/svg">
<g clip-path="url(#clip0_54_397)">
<path d="M50.03 82.85H42.33C40.62 82.85 39.24 84.24 39.24 85.94V87.17C39.24 88.88 40.63 90.26 42.33 90.26H50.03C51.74 90.26 53.12 88.87 53.12 87.17V85.94C53.12 84.24 51.74 82.85 50.03 82.85ZM50.78 87.17C50.78 87.58 50.44 87.92 50.03 87.92H42.33C41.92 87.92 41.58 87.58 41.58 87.17V85.94C41.58 85.53 41.92 85.19 42.33 85.19H50.03C50.44 85.19 50.78 85.53 50.78 85.94V87.17ZM39.88 6.16C39.88 5.51 40.4 4.99 41.05 4.99H51.31C51.96 4.99 52.48 5.51 52.48 6.16C52.48 6.81 51.96 7.33 51.31 7.33H41.05C40.41 7.33 39.88 6.81 39.88 6.16ZM33.48 62.79H58.88C59.77 62.79 60.56 62.44 61.16 61.78C61.76 61.12 62.02 60.3 61.93 59.41L59.95 40.21C59.79 38.64 58.48 37.46 56.9 37.46H53.54V35.33C53.54 31.27 50.24 27.97 46.18 27.97C42.12 27.97 38.82 31.27 38.82 35.33V37.46H35.46C33.88 37.46 32.57 38.64 32.41 40.21L30.43 59.41C30.34 60.3 30.61 61.12 31.2 61.78C31.81 62.44 32.59 62.79 33.48 62.79ZM41.16 35.33C41.16 32.56 43.41 30.31 46.18 30.31C48.95 30.31 51.2 32.56 51.2 35.33V37.46H41.16V35.33ZM34.74 40.45C34.78 40.08 35.09 39.8 35.46 39.8H38.82V43.32C38.82 43.97 39.34 44.49 39.99 44.49C40.64 44.49 41.16 43.97 41.16 43.32V39.8H51.2V43.32C51.2 43.97 51.72 44.49 52.37 44.49C53.02 44.49 53.54 43.97 53.54 43.32V39.8H56.9C57.27 39.8 57.58 40.08 57.62 40.45L59.6 59.65C59.62 59.87 59.57 60.04 59.42 60.21C59.27 60.38 59.11 60.45 58.88 60.45H33.48C33.25 60.45 33.09 60.38 32.94 60.21C32.79 60.04 32.73 59.88 32.76 59.65L34.74 40.45ZM78.98 56.02C77.29 56.02 75.67 56.27 74.13 56.73V5.98C74.13 2.68 71.45 0 68.15 0H24.21C21.03 0 18.43 2.49 18.25 5.62H4.16C1.87 5.62 0 7.49 0 9.78V25.94C0 28.23 1.87 30.1 4.16 30.1H18.23V88.66C18.23 91.96 20.91 94.64 24.21 94.64H68.15C71.22 94.64 73.75 92.32 74.09 89.34C75.64 89.81 77.28 90.06 78.98 90.06C88.37 90.06 96 82.42 96 73.04C96 63.66 88.36 56.02 78.98 56.02ZM24.21 2.34H68.15C70.16 2.34 71.79 3.97 71.79 5.98V57.64C70.84 58.09 69.93 58.61 69.09 59.22V13.08C69.09 11.37 67.7 9.99 66 9.99H33.4V9.79C33.4 7.5 31.53 5.63 29.24 5.63H20.61C20.79 3.79 22.33 2.34 24.21 2.34ZM25.62 30.12C26.04 30.16 26.39 30.32 26.71 30.64L29.87 33.8C30.27 34.2 30.79 34.41 31.33 34.41C31.6 34.41 31.87 34.36 32.12 34.25C32.9 33.93 33.4 33.18 33.4 32.34V12.32H65.99C66.4 12.32 66.74 12.66 66.74 13.07V61.23C63.78 64.29 61.95 68.45 61.95 73.04C61.95 74.94 62.28 76.76 62.85 78.47H26.37C25.96 78.47 25.62 78.13 25.62 77.72V30.12ZM2.34 25.94V9.78C2.34 8.78 3.16 7.96 4.16 7.96H29.24C30.24 7.96 31.06 8.78 31.06 9.78V31.67L28.37 28.97C27.57 28.17 26.56 27.75 25.43 27.75H4.16C3.16 27.76 2.34 26.94 2.34 25.94ZM71.79 88.66C71.79 90.67 70.16 92.3 68.15 92.3H24.21C22.2 92.3 20.57 90.67 20.57 88.66V30.1H23.27V77.72C23.27 79.43 24.66 80.81 26.36 80.81H63.84C65.56 84.15 68.36 86.85 71.78 88.45V88.66H71.79ZM78.98 87.72C70.89 87.72 64.3 81.13 64.3 73.04C64.3 64.95 70.89 58.36 78.98 58.36C87.07 58.36 93.66 64.95 93.66 73.04C93.66 81.14 87.07 87.72 78.98 87.72ZM82.77 70.71C85.03 70.71 86.87 68.87 86.87 66.61C86.87 64.35 85.03 62.51 82.77 62.51C80.51 62.51 78.67 64.35 78.67 66.61C78.67 66.94 78.72 67.25 78.79 67.56L74.44 70.07C73.7 69.37 72.72 68.94 71.63 68.94C69.37 68.94 67.53 70.78 67.53 73.04C67.53 75.3 69.37 77.14 71.63 77.14C72.72 77.14 73.71 76.71 74.44 76.01L78.79 78.52C78.72 78.83 78.67 79.14 78.67 79.47C78.67 81.73 80.51 83.57 82.77 83.57C85.03 83.57 86.87 81.73 86.87 79.47C86.87 77.21 85.03 75.37 82.77 75.37C81.68 75.37 80.69 75.8 79.96 76.5L75.61 73.99C75.68 73.68 75.73 73.37 75.73 73.04C75.73 72.71 75.68 72.4 75.61 72.09L79.96 69.58C80.7 70.28 81.68 70.71 82.77 70.71ZM82.77 64.84C83.74 64.84 84.53 65.63 84.53 66.6C84.53 67.57 83.74 68.36 82.77 68.36C81.8 68.36 81.01 67.57 81.01 66.6C81.01 65.63 81.8 64.84 82.77 64.84ZM71.62 74.81C70.65 74.81 69.86 74.02 69.86 73.05C69.86 72.08 70.65 71.29 71.62 71.29C72.59 71.29 73.38 72.08 73.38 73.05C73.39 74.02 72.6 74.81 71.62 74.81ZM82.77 77.72C83.74 77.72 84.53 78.51 84.53 79.48C84.53 80.45 83.74 81.24 82.77 81.24C81.8 81.24 81.01 80.45 81.01 79.48C81.01 78.51 81.8 77.72 82.77 77.72ZM24.21 13.8H21.99L22.56 11.66C22.73 11.04 22.36 10.39 21.73 10.23C21.11 10.06 20.46 10.43 20.3 11.06L19.56 13.81H16L16.57 11.67C16.74 11.05 16.37 10.4 15.74 10.24C15.12 10.07 14.47 10.44 14.31 11.07L13.57 13.82H10.73C10.08 13.82 9.56 14.34 9.56 14.99C9.56 15.64 10.08 16.16 10.73 16.16H12.95L12.03 19.6H9.19C8.54 19.6 8.02 20.12 8.02 20.77C8.02 21.42 8.54 21.94 9.19 21.94H11.41L10.84 24.08C10.67 24.7 11.04 25.35 11.67 25.51C12.29 25.68 12.94 25.31 13.1 24.68L13.84 21.93H17.4L16.83 24.07C16.66 24.69 17.03 25.34 17.66 25.5C17.76 25.53 17.86 25.54 17.96 25.54C18.48 25.54 18.95 25.2 19.09 24.67L19.83 21.92H22.67C23.32 21.92 23.84 21.4 23.84 20.75C23.84 20.1 23.32 19.58 22.67 19.58H20.45L21.37 16.14H24.21C24.86 16.14 25.38 15.62 25.38 14.97C25.38 14.33 24.86 13.8 24.21 13.8ZM18.02 19.58H14.46L15.38 16.14H18.94L18.02 19.58Z" fill="#2196F3"/>
</g>
<defs>
<clipPath id="clip0_54_397">
<rect width="96" height="94.64" fill="white"/>
</clipPath>
</defs>
</svg>
