<svg width="115" height="114" viewBox="0 0 115 114" fill="none" xmlns="http://www.w3.org/2000/svg">
<g clip-path="url(#clip0_54_250)">
<path d="M112.281 110.561H106.525V65.7971C106.525 63.8965 104.968 62.3398 103.067 62.3398H93.311C91.4104 62.3398 89.8537 63.8965 89.8537 65.7971V110.561H79.156V84.4592C79.156 82.5586 77.5993 81.002 75.6987 81.002H65.9423C64.0417 81.002 62.485 82.5586 62.485 84.4592V110.561H51.7873V95.0845C51.7873 93.1839 50.2307 91.6272 48.33 91.6272H38.5736C36.673 91.6272 35.1163 93.1839 35.1163 95.0845V110.561H29.3602C28.4009 110.561 27.6406 111.339 27.6406 112.28C27.6406 113.222 28.419 114 29.3602 114H36.854H50.0677H64.2227H77.4364H91.5914H104.805H112.299C113.258 114 114.019 113.222 114.019 112.28C114.019 111.339 113.24 110.561 112.281 110.561ZM38.5555 110.561V95.0845H48.3119V110.561H38.5555ZM65.9242 110.561V84.4592H75.6806V110.561H65.9242ZM93.2929 110.561V65.7971H103.049V110.561H93.2929Z" fill="#2196F3"/>
<path d="M30.0476 72.422C30.2648 73.1461 30.9346 73.6529 31.6948 73.6529H41.9581C42.7183 73.6529 43.3881 73.1461 43.6053 72.422L45.0352 67.6796C47.7685 66.9555 50.3931 65.8695 52.8368 64.4395L57.1991 66.7926C57.8688 67.1547 58.7015 67.0279 59.2445 66.4849L66.503 59.2264C67.0461 58.6834 67.1728 57.8507 66.8107 57.181L64.4576 52.8187C65.8876 50.375 66.9736 47.7504 67.6977 45.0171L72.4401 43.6053C73.1642 43.3881 73.671 42.7183 73.671 41.9581V31.6948C73.671 30.9346 73.1642 30.2648 72.4401 30.0476L67.6977 28.6358C66.9736 25.9025 65.8876 23.2779 64.4576 20.8342L66.8107 16.4719C67.1728 15.8022 67.0461 14.9695 66.503 14.4265L59.2445 7.16799C58.7015 6.62496 57.8688 6.49825 57.1991 6.86027L52.8368 9.2134C50.3931 7.78342 47.7685 6.69736 45.0352 5.97332L43.6053 1.23087C43.3881 0.506828 42.7183 0 41.9581 0H31.6948C30.9346 0 30.2648 0.506828 30.0476 1.23087L28.6177 5.95522C25.8482 6.69736 23.1874 7.78342 20.8161 9.1953L16.4538 6.84217C15.7841 6.48015 14.9514 6.60686 14.4084 7.14989L7.14989 14.4084C6.60686 14.9514 6.48015 15.7841 6.84217 16.4538L9.1953 20.798C7.76532 23.2417 6.67926 25.8663 5.95522 28.6177L1.23087 30.0295C0.506828 30.2467 0 30.9165 0 31.6767V41.94C0 42.7002 0.506828 43.37 1.23087 43.5872L5.97332 44.999C6.69736 47.7323 7.78342 50.3569 9.2134 52.8006L6.86027 57.1629C6.49825 57.8326 6.62496 58.6653 7.16799 59.2083L14.4265 66.4668C14.9695 67.0098 15.8022 67.1184 16.4719 66.7745L20.8342 64.4214C23.3141 65.8695 25.9749 66.9555 28.6358 67.6615L30.0476 72.422ZM20.0378 60.946L15.947 63.1543L10.4986 57.7059L12.7069 53.6151C12.9965 53.0721 12.9784 52.3842 12.6526 51.8593C11.0054 49.1985 9.81073 46.3204 9.05049 43.1165C8.90568 42.6821 8.57987 42.3201 8.18164 42.1029C8.09114 42.0667 8.00064 42.0305 7.91013 41.9943L3.45729 40.6548V32.9619L7.91013 31.6224C8.00064 31.5862 8.09114 31.55 8.18164 31.5138C8.50746 31.3509 8.79708 31.0613 8.95999 30.7355C9.01429 30.6088 9.06859 30.4821 9.1048 30.3554C9.79263 27.3144 10.9873 24.4182 12.6164 21.8117C12.9784 21.2868 12.9965 20.5808 12.7069 20.0197L10.4986 15.9289L15.947 10.4805L20.074 12.7069C20.617 12.9784 21.2687 12.9422 21.7755 12.6345C24.4363 10.9692 27.3144 9.77453 30.3735 9.06859C30.9708 8.92379 31.4595 8.47126 31.6405 7.87393L32.98 3.42109H40.6729L42.0305 7.91013C42.2296 8.48936 42.7002 8.92379 43.2795 9.05049C46.3204 9.75643 49.2166 10.9511 52.0222 12.6888C52.5291 12.9422 53.1264 12.9241 53.6332 12.6707L57.724 10.4624L63.1724 15.9108L60.9641 20.0016C60.9098 20.0921 60.8736 20.1826 60.8555 20.2731C60.7288 20.6351 60.7288 21.0333 60.8555 21.3773C60.8917 21.504 60.9641 21.6307 61.0365 21.7393C62.7018 24.4001 63.8965 27.2782 64.6024 30.3372C64.7472 30.9346 65.1997 31.4233 65.7971 31.6043L70.2499 32.9438V40.6367L65.7609 41.9943C65.1816 42.1934 64.7472 42.664 64.6205 43.2614C63.9146 46.3023 62.7199 49.1985 60.9822 52.0041C60.7288 52.511 60.7469 53.1083 61.0003 53.6151L63.2086 57.7059L57.7602 63.1543L53.6332 60.9279C53.0902 60.6564 52.4386 60.6926 51.9317 61.0003C49.2709 62.6475 46.3928 63.8603 43.3338 64.5662C43.2071 64.6024 43.0803 64.6386 42.9536 64.711C42.5373 64.9282 42.1934 65.3084 42.0667 65.7609L40.7272 70.2137H33.0343L31.6767 65.7247C31.4957 65.1454 31.007 64.711 30.4097 64.5843C27.3687 63.8784 24.4725 62.6837 21.8117 61.0184C21.2506 60.6745 20.5989 60.6383 20.0378 60.946Z" fill="#2196F3"/>
<path d="M57.3617 36.8176C57.3617 25.4864 48.1483 16.2729 36.8171 16.2729C25.4859 16.2729 16.2725 25.4864 16.2725 36.8176C16.2725 48.1488 25.504 57.3622 36.8352 57.3622C48.1664 57.3622 57.3617 48.1488 57.3617 36.8176ZM19.7479 36.8176C19.7479 27.4051 27.4046 19.7302 36.8352 19.7302C46.2477 19.7302 53.9225 27.387 53.9225 36.8176C53.9225 46.2482 46.2658 53.9049 36.8352 53.9049C27.4046 53.9049 19.7479 46.2301 19.7479 36.8176Z" fill="#2196F3"/>
<path d="M36.8355 26.3008C38.2651 26.3008 39.424 25.1419 39.424 23.7123C39.424 22.2828 38.2651 21.1239 36.8355 21.1239C35.406 21.1239 34.2471 22.2828 34.2471 23.7123C34.2471 25.1419 35.406 26.3008 36.8355 26.3008Z" fill="#2196F3"/>
<path d="M25.7395 25.7215C24.7258 26.7352 24.7258 28.3824 25.7395 29.3779C26.2463 29.8848 26.9161 30.1382 27.5677 30.1382C28.2193 30.1382 28.8891 29.8848 29.3959 29.3779C30.4095 28.3643 30.4095 26.7171 29.3959 25.7215C28.4003 24.7079 26.7531 24.7079 25.7395 25.7215Z" fill="#2196F3"/>
<path d="M23.73 39.4059C25.1596 39.4059 26.3185 38.247 26.3185 36.8174C26.3185 35.3879 25.1596 34.229 23.73 34.229C22.3005 34.229 21.1416 35.3879 21.1416 36.8174C21.1416 38.247 22.3005 39.4059 23.73 39.4059Z" fill="#2196F3"/>
<path d="M25.7395 44.2389C24.7258 45.2525 24.7258 46.8997 25.7395 47.9134C26.2463 48.4202 26.9161 48.6736 27.5677 48.6736C28.2193 48.6736 28.8891 48.4202 29.3959 47.9134C30.4095 46.8997 30.4095 45.2525 29.3959 44.2389C28.3822 43.2433 26.7531 43.2433 25.7395 44.2389Z" fill="#2196F3"/>
<path d="M36.8355 52.511C38.2651 52.511 39.424 51.3521 39.424 49.9225C39.424 48.493 38.2651 47.3341 36.8355 47.3341C35.406 47.3341 34.2471 48.493 34.2471 49.9225C34.2471 51.3521 35.406 52.511 36.8355 52.511Z" fill="#2196F3"/>
<path d="M46.0855 48.6735C46.7552 48.6735 47.4069 48.4201 47.9137 47.9133C48.9274 46.8996 48.9274 45.2524 47.9137 44.2388C46.9001 43.2251 45.2529 43.2251 44.2573 44.2388C43.2437 45.2524 43.2437 46.8996 44.2573 47.9133C44.7641 48.4201 45.4339 48.6735 46.0855 48.6735Z" fill="#2196F3"/>
<path d="M49.9224 39.4059C51.352 39.4059 52.5109 38.247 52.5109 36.8174C52.5109 35.3879 51.352 34.229 49.9224 34.229C48.4929 34.229 47.334 35.3879 47.334 36.8174C47.334 38.247 48.4929 39.4059 49.9224 39.4059Z" fill="#2196F3"/>
<path d="M46.0855 30.1564C46.7552 30.1564 47.4069 29.903 47.9137 29.3961C48.9274 28.3825 48.9274 26.7353 47.9137 25.7397C46.9001 24.7261 45.2529 24.7261 44.2573 25.7397C43.2437 26.7534 43.2437 28.4006 44.2573 29.3961C44.7641 29.903 45.4339 30.1564 46.0855 30.1564Z" fill="#2196F3"/>
<path d="M38.5554 35.3333V31.7674C38.5554 30.8081 37.7771 30.0479 36.8358 30.0479C35.8765 30.0479 35.1162 30.8262 35.1162 31.7674V36.8176C35.1162 37.2701 35.2972 37.7227 35.623 38.0304L40.3655 42.7728C40.7094 43.1168 41.1438 43.2797 41.5783 43.2797C42.0127 43.2797 42.4652 43.1168 42.791 42.7728C43.4608 42.1031 43.4608 40.9989 42.791 40.3292L39.2794 36.7995L38.5554 35.3333Z" fill="#2196F3"/>
<path d="M87.7719 49.1802L93.9444 47.8407C79.6084 64.0411 59.7335 75.8249 39.8586 79.6804C38.9174 79.8614 38.32 80.7664 38.501 81.7077C38.6639 82.5403 39.388 83.1015 40.2025 83.1015C40.3111 83.1015 40.4197 83.0834 40.5283 83.0653C61.0368 79.083 81.5271 66.9735 96.3337 50.3387L95.7907 56.2577C95.7001 57.199 96.4061 58.0497 97.3473 58.1402C97.4016 58.1402 97.4559 58.1402 97.5102 58.1402C98.3972 58.1402 99.1393 57.4705 99.2298 56.5654L100.262 45.2161C100.298 44.8722 100.207 44.5464 100.044 44.2568C100.044 44.2568 100.044 44.2387 100.026 44.2387C99.9358 44.0757 99.8091 43.9128 99.6643 43.768C99.6462 43.7499 99.6281 43.7499 99.61 43.7318C99.61 43.7318 99.61 43.7137 99.5919 43.7137C99.429 43.587 99.2479 43.4965 99.0488 43.4422C98.9583 43.406 98.8678 43.406 98.7592 43.3879C98.5782 43.3698 98.4153 43.3517 98.2343 43.3698C98.1981 43.3698 98.18 43.3698 98.1438 43.3698L87.0117 45.7772C86.0704 45.9763 85.4912 46.8995 85.6903 47.8407C85.8894 48.782 86.8307 49.3793 87.7719 49.1802Z" fill="#2196F3"/>
</g>
<defs>
<clipPath id="clip0_54_250">
<rect width="114.018" height="114" fill="white"/>
</clipPath>
</defs>
</svg>
