<svg width="62" height="32" viewBox="0 0 62 32" fill="none" xmlns="http://www.w3.org/2000/svg">
<g clip-path="url(#clip0_197_7)">
<path d="M25.1013 0H4.9113C2.19823 0 0 2.16046 0 4.82691V23.4438C0 24.4397 0.403146 25.3955 1.11955 26.0996L6.0036 30.9024C6.71728 31.6065 7.68973 32 8.70032 32H29.988H57.0887C59.8018 32 62 29.8395 62 27.1731V4.82691C62 2.16046 59.8018 0 57.0887 0H25.1013Z" fill="#1D60AB"/>
<path d="M19.4898 21.7653H18.0489H15.3685C14.821 21.7653 14.3715 21.337 14.3606 20.7962L14.2735 17.1124C14.2735 16.229 15.2132 16.0817 15.2296 16.079H18.0325H18.0352H19.4817C20.0482 16.079 20.5086 15.6293 20.5086 15.0724V11.3646C20.5086 10.8024 20.0455 10.3473 19.4735 10.3473H18.0325H15.3903C14.8319 10.3473 14.377 9.9082 14.3633 9.36206L14.2762 5.59799C14.2653 5.04917 13.8077 4.61279 13.2492 4.61279H11.8001H9.29951C8.72748 4.61279 8.2644 5.06791 8.2644 5.63011V10.0099C8.2644 10.2776 8.37064 10.5347 8.56404 10.7221L12.3939 14.4835C12.6908 14.7753 12.7807 15.2331 12.5683 15.5891C12.3994 15.8675 12.1025 16.0308 11.7838 16.0308H9.28044C8.71931 16.0308 8.2644 16.4779 8.2644 17.0294V21.4333C8.2644 21.6957 8.37064 21.9474 8.55859 22.1348L13.7205 27.208C13.9084 27.3927 14.1645 27.4971 14.4342 27.4971H18.0489H19.4898C20.051 27.4971 20.5059 27.05 20.5059 26.4985V22.7639C20.5059 22.2124 20.051 21.7653 19.4898 21.7653Z" fill="white"/>
<path d="M11.585 15.6318C12.0399 15.6318 12.2687 15.0937 11.95 14.7751L7.87495 10.7058C7.6761 10.5077 7.40642 10.3953 7.12041 10.3953H5.67126H3.59833C3.26601 10.3953 2.99634 10.6603 2.99634 10.9869V14.9518C2.99634 15.3266 3.30415 15.6291 3.6855 15.6291H10.1304H11.585V15.6318Z" fill="white"/>
<path d="M58.0148 21.6474H56.947C56.9442 21.6474 56.9415 21.6474 56.9388 21.6474H56.5765C56.5792 21.6474 56.582 21.6474 56.5847 21.6474H56.5765H55.5441C55.5414 21.6474 55.5387 21.6474 55.536 21.6474H54.0868H53.8199C53.2724 21.6474 52.8256 21.219 52.812 20.6809L52.7276 16.9972V16.9865C52.6894 16.4269 52.2209 15.9932 51.6543 15.9691C51.0251 15.9451 50.3005 15.9156 50.2351 15.9156H50.1589C50.0036 15.9156 49.8456 15.8888 49.7094 15.8165C49.1456 15.514 49.0747 14.8046 49.4888 14.3977L53.3459 10.6041C53.5393 10.4167 53.6455 10.1597 53.6455 9.89201V5.51219C53.6455 4.94999 53.1825 4.49487 52.6104 4.49487H51.5317H51.1695H50.2297H48.7805C48.2221 4.49487 47.7672 4.93393 47.7536 5.48006L47.6692 9.24146C47.6556 9.7876 47.2007 10.2267 46.6422 10.2267H44H42.559C41.987 10.2267 41.5239 10.6818 41.5239 11.244V14.9545C41.5239 15.4498 41.8889 15.8621 42.3711 15.9451C42.4283 15.9558 42.4882 15.9611 42.5509 15.9611H44H45.7733C46.3399 15.9611 46.8002 16.4109 46.803 16.9677L46.8329 21.3181C46.8329 21.5805 46.9392 21.8321 47.1298 22.0168L52.2917 27.09C52.4824 27.2748 52.7385 27.3792 53.0054 27.3792H54.0105H56.5765H58.0175C58.5786 27.3792 59.0335 26.9321 59.0335 26.3806V22.646C59.0308 22.0945 58.5759 21.6474 58.0148 21.6474Z" fill="white"/>
<path d="M50.3687 15.5114H51.5754H56.8217H58.3607C58.7421 15.5114 59.0499 15.2089 59.0499 14.8341V10.8692C59.0499 10.5426 58.7802 10.2776 58.4479 10.2776H57.2712H56.9089H56.0372H54.8305C54.5472 10.2776 54.2748 10.39 54.076 10.5881L50.0009 14.6574C49.6849 14.9733 49.9138 15.5114 50.3687 15.5114Z" fill="white"/>
<mask id="mask0_197_7" style="mask-type:luminance" maskUnits="userSpaceOnUse" x="24" y="10" width="16" height="9">
<path d="M28.0594 10.1143C26.8227 10.1143 25.6732 10.7487 25.0331 11.7902L24.9568 11.9106C23.8781 13.9185 25.0277 15.3882 25.0277 15.3882L26.8119 18.2849L26.8609 18.3545C26.9072 18.1323 26.9916 17.9155 27.1088 17.7147L28.1139 16.0067C28.5089 15.3347 29.2416 14.9171 30.0316 14.9171H32.0391C32.4368 14.9171 32.8209 15.0215 33.1532 15.2142H36.8605C36.8605 15.2142 38.5385 15.1955 39.6744 16.0709L37.0403 11.7902C36.4002 10.7487 35.2507 10.1143 34.014 10.1143H28.0594Z" fill="white"/>
</mask>
<g mask="url(#mask0_197_7)">
<path d="M39.6771 10.1143H23.8782V18.3572H39.6771V10.1143Z" fill="url(#paint0_linear_197_7)"/>
</g>
<mask id="mask1_197_7" style="mask-type:luminance" maskUnits="userSpaceOnUse" x="21" y="12" width="12" height="16">
<path d="M21.8215 17.0054C21.1405 18.111 21.1405 19.5005 21.8215 20.6061L25.0331 25.8212C25.6541 26.8305 26.7492 27.457 27.9423 27.4971C29.1354 27.4596 30.2331 26.8305 30.8515 25.8212L32.8754 22.531C32.8699 22.5337 32.8645 22.5364 32.8617 22.5364C32.829 22.5497 32.7936 22.5631 32.7609 22.5738C32.7528 22.5765 32.7473 22.5792 32.7364 22.5819C32.7065 22.5926 32.6765 22.6006 32.6465 22.6086C32.6302 22.614 32.6111 22.6193 32.5948 22.622C32.5675 22.6301 32.5376 22.6381 32.5131 22.6408C32.4994 22.6461 32.4831 22.6488 32.4695 22.6515C32.4259 22.6595 32.3823 22.6675 32.3387 22.6729C32.3306 22.6756 32.3251 22.6756 32.3142 22.6756C32.2843 22.6782 32.2516 22.6836 32.2189 22.6836C32.2053 22.6863 32.1889 22.6863 32.1726 22.6863C32.1263 22.689 32.0854 22.6916 32.0391 22.6916H30.0315C29.2389 22.6916 28.5088 22.2767 28.1139 21.602L27.1087 19.894C27.0597 19.811 27.0161 19.7227 26.9807 19.6343C26.9616 19.5888 26.9426 19.546 26.929 19.5005C26.8363 19.2354 26.8009 18.957 26.8173 18.6839C26.6892 18.4778 25.4008 16.4003 24.7253 15.3295C24.0116 14.2024 24.3657 12.8745 24.3657 12.8745L21.8215 17.0054Z" fill="white"/>
</mask>
<g mask="url(#mask1_197_7)">
<path d="M32.8782 12.8745H21.1379V27.4944H32.8782V12.8745Z" fill="url(#paint1_linear_197_7)"/>
</g>
<mask id="mask2_197_7" style="mask-type:luminance" maskUnits="userSpaceOnUse" x="27" y="15" width="14" height="13">
<path d="M33.4338 15.4043C33.6436 15.5703 33.8206 15.7737 33.9596 16.0066L34.9647 17.7147C35.3624 18.3893 35.3624 19.2192 34.9647 19.8939L33.9596 21.6019C33.709 22.0276 33.3249 22.3488 32.8782 22.5282L30.8543 25.8184C30.2332 26.8277 29.1382 27.4568 27.9451 27.4943C27.9832 27.4943 28.0213 27.497 28.0595 27.497H34.0195C35.2562 27.497 36.4057 26.8598 37.0458 25.8184L40.2546 20.6033C40.9138 19.5298 40.9329 18.1966 40.3146 17.1096L40.2519 17.0052C40.1321 16.8098 39.9931 16.6277 39.8406 16.4618C39.8351 16.4537 39.827 16.4484 39.8188 16.4403C39.3285 15.9933 38.3914 15.4016 36.8769 15.4016H33.4338V15.4043Z" fill="white"/>
</mask>
<g mask="url(#mask2_197_7)">
<path d="M40.9327 15.4045H27.9421V27.4972H40.9327V15.4045Z" fill="url(#paint2_linear_197_7)"/>
</g>
</g>
<defs>
<linearGradient id="paint0_linear_197_7" x1="24.4929" y1="14.2398" x2="39.6755" y2="14.2398" gradientUnits="userSpaceOnUse">
<stop stop-color="white"/>
<stop offset="1" stop-color="#E6E7E5"/>
</linearGradient>
<linearGradient id="paint1_linear_197_7" x1="27.0071" y1="12.8747" x2="27.0071" y2="27.4935" gradientUnits="userSpaceOnUse">
<stop stop-color="white"/>
<stop offset="1" stop-color="#E6E7E5"/>
</linearGradient>
<linearGradient id="paint2_linear_197_7" x1="27.9426" y1="21.4515" x2="40.7639" y2="21.4515" gradientUnits="userSpaceOnUse">
<stop stop-color="white"/>
<stop offset="1" stop-color="#E6E7E5"/>
</linearGradient>
<clipPath id="clip0_197_7">
<rect width="62" height="32" fill="white"/>
</clipPath>
</defs>
</svg>
