<svg width="233" height="69" viewBox="0 0 233 69" fill="none" xmlns="http://www.w3.org/2000/svg">
<path fill-rule="evenodd" clip-rule="evenodd" d="M104.864 5.47312V9.8714L100.627 14.1061V5.47292C100.627 5.10581 100.925 4.80817 101.292 4.80817H104.199C104.566 4.80836 104.864 5.10581 104.864 5.47312Z" fill="#222222"/>
<path fill-rule="evenodd" clip-rule="evenodd" d="M104.863 32.8144V36.8996H100.626V32.1107L100.723 32.1182L100.929 32.1338L101.339 32.1644C101.476 32.1759 101.613 32.197 101.75 32.2126L102.16 32.2606L102.98 32.3924C103.609 32.5071 104.236 32.6494 104.863 32.8144Z" fill="#222222"/>
<path fill-rule="evenodd" clip-rule="evenodd" d="M104.864 16.6905V25.6067C104.105 25.5574 103.346 25.5447 102.587 25.5656C101.932 25.5878 101.278 25.6363 100.627 25.7172V20.8508L99.5911 21.868H94.2292L116.5 -1.52588e-05L138.771 21.868H133.41L116.5 5.26454L104.864 16.6905Z" fill="#222222"/>
<path fill-rule="evenodd" clip-rule="evenodd" d="M117.177 19.8898H119.339C120.134 19.8898 120.779 19.2448 120.779 18.4493V16.2887H117.177V19.8898H117.177Z" fill="#222222"/>
<path fill-rule="evenodd" clip-rule="evenodd" d="M120.78 15.1943V13.0336C120.78 12.238 120.135 11.5932 119.339 11.5932H117.178V15.1943H120.78Z" fill="#222222"/>
<path fill-rule="evenodd" clip-rule="evenodd" d="M116.015 11.5934H113.853C113.057 11.5934 112.412 12.2382 112.412 13.0338V15.1945H116.015V11.5934Z" fill="#222222"/>
<path fill-rule="evenodd" clip-rule="evenodd" d="M116.015 19.8898H113.853C113.057 19.8898 112.412 19.2448 112.412 18.4493V16.2887H116.015V19.8898Z" fill="#222222"/>
<path fill-rule="evenodd" clip-rule="evenodd" d="M138.941 32.6471C139.132 32.6214 138.755 32.9927 137.608 33.4934C136.195 34.1106 134.654 34.384 133.109 34.5194C131.182 34.693 129.242 34.5565 127.337 34.2373C125.428 33.9176 123.554 33.4097 121.71 32.8292C119.866 32.2492 118.05 31.5895 116.229 30.9435C115.326 30.623 114.421 30.307 113.513 29.9989C113.062 29.8457 112.609 29.6969 112.156 29.5515C111.93 29.479 111.703 29.4091 111.476 29.3387C111.25 29.2684 111.023 29.1995 110.796 29.1314C109.894 28.8608 108.984 28.6181 108.069 28.3996C107.956 28.3725 107.843 28.3443 107.73 28.3196L107.386 28.245L107.044 28.1714L106.7 28.1045L106.357 28.037L106.014 27.9762L105.671 27.916L105.327 27.8635C104.414 27.724 103.494 27.6278 102.571 27.5828C101.65 27.538 100.727 27.544 99.8069 27.6077C97.9203 27.7386 95.8366 28.2859 94.0331 28.5539C95.5115 27.3533 97.8387 26.7237 99.7012 26.4063C100.653 26.2441 101.615 26.1503 102.58 26.1207C103.542 26.0913 104.505 26.1225 105.464 26.2075L105.821 26.2391C105.822 26.2393 105.824 26.2395 105.826 26.2395L106.181 26.279C106.182 26.279 106.182 26.279 106.182 26.279L106.538 26.3193C106.539 26.3193 106.539 26.3195 106.54 26.3195C106.66 26.3343 106.78 26.3512 106.899 26.3682L107.254 26.4187C107.256 26.4189 107.257 26.4191 107.258 26.4193L107.613 26.4766C107.613 26.4766 107.613 26.4766 107.613 26.4766L107.967 26.5346C108.087 26.5541 108.205 26.578 108.324 26.5993C109.274 26.7706 110.215 26.9889 111.151 27.2286C111.385 27.2886 111.62 27.349 111.853 27.4145C112.086 27.4798 112.318 27.544 112.55 27.6111C113.014 27.7455 113.477 27.8834 113.939 28.0259C114.862 28.3108 115.779 28.6163 116.694 28.9268C118.513 29.5436 120.323 30.1868 122.147 30.7908C123.938 31.3843 125.748 31.9369 127.588 32.3623C130.758 33.0951 133.669 33.3247 136.895 32.9192C137.473 32.8474 138.126 32.7562 138.941 32.6471Z" fill="#69C5D3"/>
<path fill-rule="evenodd" clip-rule="evenodd" d="M89.845 34.3901C90.0567 34.1072 90.2751 33.8321 90.4964 33.5587L90.5798 33.4565L90.6657 33.3596L90.8388 33.1679C90.9549 33.0408 91.0705 32.9111 91.1884 32.7856C91.2474 32.7232 91.3051 32.6571 91.3657 32.5979L91.5477 32.4197L91.9156 32.068L92.1007 31.8917C92.1633 31.835 92.2274 31.7829 92.291 31.7283L92.6751 31.4054C93.7085 30.5604 94.8232 29.8743 95.9853 29.3627C97.1474 28.8508 98.3555 28.516 99.5725 28.3445C99.7248 28.3169 99.8768 28.3074 100.029 28.2906L100.487 28.246C100.525 28.2428 100.563 28.2385 100.601 28.2359L100.716 28.231L100.944 28.2211L101.402 28.2018C101.707 28.1972 102.011 28.2024 102.317 28.2057L103.228 28.2567C103.53 28.2859 103.833 28.3165 104.135 28.3518L104.586 28.4165L104.812 28.4491C104.887 28.4598 104.962 28.4702 105.037 28.4854L105.485 28.5691L105.709 28.6111L105.821 28.6323L105.933 28.6567C106.229 28.7229 106.527 28.7858 106.822 28.861C108.004 29.1521 109.165 29.5281 110.31 29.9495C112.599 30.7947 114.814 31.8343 117.006 32.8413C119.198 33.851 121.371 34.8318 123.552 35.6163C123.825 35.7107 124.097 35.8102 124.37 35.9006C124.643 35.9886 124.915 36.0849 125.188 36.1688C125.461 36.2505 125.734 36.3379 126.006 36.4153L126.415 36.5306C126.552 36.5683 126.688 36.6105 126.825 36.6429C127.916 36.932 129.007 37.1643 130.1 37.3193C131.192 37.4732 132.288 37.5447 133.384 37.5009L133.795 37.4847C133.932 37.4746 134.068 37.4602 134.205 37.4484L134.617 37.4128L135.027 37.354C135.164 37.3347 135.301 37.3175 135.438 37.2964L135.847 37.2178C135.984 37.191 136.122 37.1675 136.258 37.1379C136.394 37.1032 136.53 37.068 136.667 37.0357C137.758 36.7629 138.844 36.3733 139.92 35.8694L140.325 35.6803L140.427 35.6329L140.526 35.5794L140.726 35.4732L141.127 35.2619C141.194 35.2255 141.263 35.1932 141.329 35.1555L141.528 35.0392C141.66 34.9611 141.793 34.8845 141.927 34.8077L142.128 34.6922C142.196 34.6557 142.262 34.6131 142.328 34.5712C142.591 34.4039 142.857 34.2383 143.128 34.0772L143.155 34.1309C142.944 34.4118 142.729 34.6881 142.51 34.9624C142.403 35.1038 142.287 35.2281 142.174 35.3584C142.06 35.4878 141.945 35.6173 141.83 35.7454L141.657 35.9385C141.598 36.0016 141.538 36.0606 141.478 36.121L141.118 36.4818L140.936 36.6618L140.845 36.7512L140.752 36.8349L140.376 37.1697C139.366 38.0519 138.281 38.8002 137.141 39.3822C136.999 39.4563 136.856 39.5273 136.712 39.599C136.568 39.6655 136.423 39.7259 136.277 39.7896L135.84 39.9779C135.694 40.0332 135.546 40.0847 135.398 40.138L134.954 40.2949L134.505 40.4248C134.355 40.4666 134.206 40.5112 134.055 40.5511L133.603 40.6508C132.393 40.9125 131.167 41.022 129.948 40.9964C128.729 40.9723 127.518 40.8102 126.328 40.5515C126.179 40.5223 126.031 40.486 125.883 40.4492L125.439 40.3403C125.291 40.3059 125.145 40.2615 124.998 40.2207L124.558 40.0959C124.411 40.0561 124.266 40.0075 124.12 39.9629L123.683 39.8263C123.393 39.732 123.105 39.6292 122.816 39.5309C120.513 38.7173 118.28 37.7203 116.073 36.7341C113.868 35.7448 111.689 34.7578 109.514 33.8978C107.34 33.0404 105.168 32.3074 102.981 31.9079L102.161 31.776L101.75 31.7281C101.613 31.7125 101.476 31.6916 101.339 31.6799L100.929 31.6493L100.723 31.6337L100.62 31.6258C100.586 31.6239 100.552 31.6239 100.518 31.6229L100.107 31.6108C99.9706 31.6073 99.833 31.5984 99.6967 31.6039C98.6017 31.6014 97.5068 31.6989 96.4134 31.9089C95.3198 32.1175 94.2284 32.4418 93.1401 32.8734L92.7318 33.0392C92.6634 33.0671 92.5947 33.0933 92.5266 33.1223L92.324 33.2155L91.9168 33.4026L91.7113 33.494C91.6425 33.5244 91.5764 33.5621 91.5088 33.5958C91.3746 33.6661 91.2379 33.7322 91.1019 33.8009L90.8969 33.9027L90.7936 33.9529L90.6925 34.0085C90.423 34.1577 90.1503 34.3048 89.871 34.4445L89.845 34.3901Z" fill="#69C5D3"/>
<path d="M221.754 49.3156H225.149L229.564 59.7058V49.3156H233V68.1338H229.564L225.174 57.8004V68.1338H221.754V49.3156ZM209.89 58.751C209.89 60.6477 210.112 62.0145 210.554 62.8422C210.998 63.6702 211.6 64.0862 212.362 64.0862C213.143 64.0862 213.752 63.679 214.179 62.8685C214.609 62.0537 214.823 60.5994 214.823 58.4925C214.823 56.7229 214.598 55.4305 214.152 54.616C213.702 53.7968 213.097 53.3895 212.329 53.3895C211.595 53.3895 211.003 53.8055 210.559 54.6335C210.113 55.4613 209.89 56.8368 209.89 58.751ZM206.257 58.7379C206.257 55.6671 206.791 53.2756 207.863 51.5672C208.934 49.8543 210.425 49.0003 212.337 49.0003C214.297 49.0003 215.806 49.8415 216.867 51.5191C217.928 53.2012 218.456 55.5579 218.456 58.5847C218.456 60.7836 218.226 62.5839 217.763 63.9902C217.3 65.3965 216.629 66.4915 215.755 67.2756C214.878 68.0597 213.787 68.4494 212.48 68.4494C211.154 68.4494 210.055 68.1121 209.183 67.4375C208.315 66.7585 207.608 65.6898 207.068 64.2268C206.528 62.7678 206.257 60.9367 206.257 58.7379ZM199.159 49.3156H202.809V68.1338H199.159V49.3156ZM185.007 49.3156H196.073V53.9675H192.357V68.1335H188.723V53.9675H185.007V49.3156ZM179.337 60.9587L178.052 54.1952L176.761 60.9587H179.337ZM180.107 65.0325H175.986L175.394 68.1338H171.68L176.111 49.3156H180.093L184.505 68.1338H180.696L180.107 65.0325ZM162.467 56.9639H164.005C164.169 56.9639 164.492 56.8763 164.969 56.7053C165.21 56.6309 165.408 56.4336 165.559 56.1139C165.712 55.7942 165.789 55.4305 165.789 55.0189C165.789 54.4099 165.668 53.9414 165.427 53.6173C165.186 53.2887 164.734 53.1266 164.068 53.1266H162.468V56.9639H162.467ZM158.817 68.1338V49.3156H164.879C166.002 49.3156 166.862 49.469 167.454 49.78C168.049 50.0865 168.529 50.6604 168.893 51.4928C169.257 52.3296 169.438 53.35 169.438 54.5504C169.438 55.593 169.299 56.4954 169.019 57.2531C168.742 58.0152 168.359 58.6286 167.868 59.1015C167.558 59.3993 167.131 59.649 166.591 59.8461C167.024 60.0782 167.339 60.306 167.536 60.5382C167.668 60.6916 167.862 61.0245 168.117 61.5281C168.369 62.0318 168.539 62.4217 168.624 62.6978L170.392 68.1338H166.281L164.338 62.3954C164.092 61.6508 163.872 61.1689 163.681 60.9455C163.418 60.6565 163.119 60.5119 162.787 60.5119H162.467V68.1338H158.817ZM146.937 58.751C146.937 60.6477 147.159 62.0145 147.601 62.8422C148.045 63.6702 148.647 64.0862 149.409 64.0862C150.19 64.0862 150.799 63.679 151.226 62.8685C151.656 62.0537 151.87 60.5994 151.87 58.4925C151.87 56.7229 151.645 55.4305 151.199 54.616C150.749 53.7968 150.144 53.3895 149.376 53.3895C148.642 53.3895 148.05 53.8055 147.606 54.6335C147.16 55.4613 146.937 56.8368 146.937 58.751ZM143.304 58.7379C143.304 55.6671 143.838 53.2756 144.91 51.5672C145.981 49.8543 147.472 49.0003 149.385 49.0003C151.344 49.0003 152.854 49.8415 153.914 51.5191C154.975 53.2012 155.503 55.5579 155.503 58.5847C155.503 60.7836 155.273 62.5839 154.81 63.9902C154.347 65.3962 153.676 66.4915 152.802 67.2756C151.925 68.0597 150.834 68.4494 149.527 68.4494C148.201 68.4494 147.102 68.1121 146.23 67.4375C145.362 66.7585 144.655 65.6898 144.115 64.2268C143.575 62.7678 143.304 60.9367 143.304 58.7379ZM137.51 60.4331L140.7 61.9706C140.487 63.3985 140.149 64.5945 139.686 65.5493C139.226 66.5085 138.656 67.2314 137.971 67.7177C137.289 68.204 136.42 68.4491 135.365 68.4491C134.082 68.4491 133.038 68.1513 132.224 67.5599C131.413 66.9641 130.715 65.9173 130.125 64.4235C129.536 62.9297 129.24 61.0114 129.24 58.6808C129.24 55.5708 129.758 53.179 130.794 51.5057C131.832 49.8368 133.299 49 135.195 49C136.677 49 137.845 49.4775 138.694 50.4367C139.541 51.3959 140.174 52.8678 140.585 54.8567L137.379 55.9912C137.267 55.4217 137.149 55.0057 137.025 54.7428C136.82 54.3004 136.571 53.9587 136.277 53.7221C135.981 53.4811 135.653 53.3628 135.288 53.3628C134.46 53.3628 133.827 53.8928 133.389 54.9486C133.057 55.7327 132.89 56.968 132.89 58.6457C132.89 60.7306 133.088 62.1544 133.485 62.9297C133.882 63.7007 134.439 64.0862 135.157 64.0862C135.853 64.0862 136.379 63.7753 136.735 63.1488C137.091 62.5269 137.349 61.6201 137.51 60.4331ZM116.486 49.3156H126.219V53.3368H120.136V56.3329H125.776V60.1702H120.136V63.876H126.4V68.1338H116.486V49.3156ZM106.073 53.5734V63.8497H106.966C107.728 63.8497 108.27 63.7138 108.594 63.4468C108.914 63.1751 109.166 62.7066 109.35 62.0364C109.533 61.3618 109.624 60.2756 109.624 58.7686C109.624 56.7756 109.421 55.4132 109.013 54.6775C108.604 53.9417 107.927 53.5736 106.982 53.5736H106.073V53.5734ZM102.439 49.3156H107.846C108.909 49.3156 109.772 49.5478 110.427 50.0078C111.082 50.4721 111.624 51.1335 112.055 51.9964C112.482 52.8636 112.792 53.8667 112.983 55.0145C113.178 56.1622 113.274 57.3755 113.274 58.6588C113.274 60.6694 113.131 62.2288 112.844 63.337C112.559 64.4452 112.161 65.374 111.652 66.1229C111.142 66.8719 110.597 67.3714 110.013 67.6211C109.216 67.9628 108.492 68.1335 107.846 68.1335H102.439V49.3156ZM81.9356 49.3156H85.3308L89.7452 59.7058V49.3156H93.1815V68.1338H89.7452L85.3552 57.8004V68.1338H81.9353V49.3156H81.9356ZM74.2787 60.9587L72.9934 54.1952L71.7027 60.9587H74.2787ZM75.0487 65.0325H70.9272L70.3353 68.1338H66.6221L71.053 49.3156H75.0347L79.4463 68.1338H75.6373L75.0487 65.0325ZM54.0739 49.3156H58.113L60.4941 55.6495L62.8645 49.3156H66.8816L62.311 60.2534V68.1338H58.661V60.2534L54.0739 49.3156ZM49.0311 60.9587L47.7458 54.1952L46.4552 60.9587H49.0311ZM49.8012 65.0325H45.6798L45.0878 68.1338H41.3747L45.8056 49.3156H49.7872L54.1992 68.1338H50.3902L49.8012 65.0325ZM27.5714 49.3156H31.2049V56.4248L35.0166 49.3156H39.853L35.5564 56.3856L40.0504 68.1338H35.5757L33.0929 60.4068L31.2049 63.5519V68.1338H27.5714V49.3156ZM15.2808 49.3156H18.9143V63.508H24.603V68.1338H15.2808V49.3156ZM7.6566 60.9587L6.3713 54.1952L5.08079 60.9587H7.6566ZM8.42651 65.0325H4.3051L3.71311 68.1338H0L4.43086 49.3156H8.41251L12.8244 68.1338H9.01548L8.42651 65.0325Z" fill="#222222"/>
</svg>
