<svg width="210" height="73" viewBox="0 0 210 73" fill="none" xmlns="http://www.w3.org/2000/svg">
<g clip-path="url(#clip0_648_425)">
<path d="M46.7643 0.321934L0 72.6781C0.97629 72.6781 16.9081 72.6781 16.9081 72.6781L26.9273 55.8828H51.0661L50.3339 73H66.5586V0.321934H46.7643ZM34.9329 42.4527L52.9271 12.276L51.6396 42.3677C46.9596 42.4163 39.6923 42.477 34.9329 42.4527Z" fill="#626366"/>
<path d="M69.6949 72.6781V0H89.8126L105.067 50.7137L118.693 15.8294H140.11L140.134 72.8724H124.691L124.532 31.0089L110.119 72.8724H98.4589L82.6735 18.7329V72.6781H69.6949Z" fill="#FFF100"/>
<path d="M207.748 45.3076C206.247 42.8293 203.843 40.752 200.548 39.0755C197.656 37.6055 193.098 36.1538 186.874 34.7142C186.685 34.6899 186.496 34.6656 186.313 34.6413C184.641 34.4165 183.054 34.0096 181.541 33.475C180.784 33.2381 180.089 32.9769 179.424 32.7097C179.052 32.5335 178.728 32.3574 178.49 32.1752C176.849 31.3491 175.336 30.3711 173.926 29.3203C168.862 24.3637 171.51 17.7732 173.889 13.8796H176.233L198.266 14.5781L124.666 0.0789642L118.93 13.8917H143.13V72.8724H157.732V13.8917H171.546C166.958 17.4452 164.352 21.1747 162.912 23.9203C162.284 25.0258 161.783 26.1495 161.46 27.3097C161.308 27.7896 161.246 28.0629 161.246 28.0629L161.283 28.0751C161.051 29.0955 160.899 30.1342 160.899 31.2033C160.899 35.601 162.54 39.2152 165.829 42.0518C169.087 44.8885 174.542 47.1663 182.194 48.8732C186.868 49.8937 189.846 50.9809 191.127 52.135C192.408 53.2831 193.055 54.589 193.055 56.0468C193.055 57.5836 192.384 58.9321 191.029 60.0923C189.681 61.2525 187.765 61.8356 185.275 61.8356C181.938 61.8356 179.369 60.6997 177.575 58.4219C176.471 57.0187 175.738 54.9717 175.378 52.2869L158.781 53.3195C159.27 58.9928 161.362 63.67 165.06 67.351C168.758 71.0319 175.403 72.8724 185.007 72.8724C190.474 72.8724 195.008 72.0889 198.602 70.5156C202.196 68.9424 204.996 66.6403 206.998 63.5971C208.999 60.5539 210 57.2313 210 53.6293C210 50.5618 209.249 47.7859 207.748 45.3076Z" fill="#626366"/>
</g>
<defs>
<clipPath id="clip0_648_425">
<rect width="210" height="73" fill="white"/>
</clipPath>
</defs>
</svg>
