<svg width="221" height="42" viewBox="0 0 221 42" fill="none" xmlns="http://www.w3.org/2000/svg">
<g clip-path="url(#clip0_648_444)">
<path d="M188.528 0.344421H187.118L176.647 20.8648L166.061 0.344421H164.519L161.569 22.8312C161.259 25.0735 160.871 26.0685 160.414 27.0274H163.349C163.118 26.1925 163.195 24.6029 163.457 22.6356L165.282 8.87748L174.666 27.0258H175.761L185.16 8.89125L186.908 22.3696C187.109 23.8804 187.105 25.7094 186.85 27.0274H192.724C192.108 25.6607 191.879 25.0564 191.571 22.8135L188.528 0.344421Z" fill="#58595B"/>
<path d="M55.214 0C46.663 0 39.9592 6.02629 39.9592 13.8142C39.9592 21.591 46.663 27.6179 55.214 27.6179C63.765 27.6179 70.4706 21.5913 70.4706 13.8142C70.4706 6.02629 63.765 0 55.214 0ZM55.6459 25.5621C49.735 25.5621 45.0353 20.5106 44.7885 13.8145C44.5436 7.10884 48.445 2.05856 54.7821 2.05856C60.6991 2.05856 65.3911 7.10884 65.6397 13.8145C65.8844 20.5106 61.5532 25.5621 55.6459 25.5621Z" fill="#58595B"/>
<path d="M214.956 27.0258H221C219.955 26.0198 218.86 24.5139 218.111 22.6635L208.619 0.349319H207.477L197.815 23.2843C197.079 24.996 196.4 26.0391 195.585 27.0261H198.324L202.012 18.1131H211.288L214.956 27.0258ZM202.768 16.2974L206.669 6.89178L210.544 16.2974H202.768Z" fill="#58595B"/>
<path d="M14.0532 11.4886C16.0128 10.5561 17.7347 8.98891 17.7347 6.64746C17.7347 3.97568 16.4892 2.30317 14.1633 1.3192C12.7013 0.702 10.2812 0.432587 7.91106 0.432587C3.44445 0.432587 0.0234876 0.432587 0.0234876 0.432587C0.506967 1.21144 0.759535 2.34113 0.759535 3.89057C0.759535 6.84401 0.759535 20.5434 0.759535 23.4276C0.759535 25.3649 0.477989 26.2773 0 27.0261C0 27.0261 1.48887 27.0261 8.52998 27.0261C11.1835 27.0261 14.296 26.5176 15.7867 25.7822C18.2246 24.5745 19.7287 22.3668 19.7287 19.1005C19.7287 14.5731 16.3694 12.4931 14.0532 11.4886ZM5.22219 2.19479C5.6349 2.17061 6.26784 2.16847 7.10638 2.16847C7.83358 2.16847 9.03115 2.24776 9.65586 2.40175C11.7292 2.92007 13.1604 4.30663 13.1604 6.66491C13.1604 8.88512 11.7466 10.1413 9.9496 10.4269C9.525 10.4927 8.32377 10.5913 7.88788 10.5913C6.88889 10.5913 5.94207 10.5809 5.22249 10.5613V2.19479H5.22219ZM10.5374 25.0735C10.0131 25.1828 8.70141 25.2924 8.31218 25.2924C7.92265 25.2924 5.72793 25.2832 5.22676 25.2676V12.3618C5.58884 12.3575 7.11431 12.3354 7.59871 12.3354C8.08463 12.3354 9.37675 12.4126 10.0866 12.5666C13.1567 13.2343 15.0272 15.3768 14.9866 19.1893C14.9805 22.1403 13.5017 24.4367 10.5374 25.0735Z" fill="#58595B"/>
<path d="M115.342 25.2054L115.353 12.4163H124.759L125.395 10.6005H115.353L115.361 2.25143C115.361 2.25143 122.04 2.25143 122.649 2.25143C124.257 2.25143 125.603 2.41675 127.231 3.30643L125.924 0.433197H110.166C110.62 1.21205 110.861 2.34175 110.861 3.89118C110.861 6.84462 110.861 20.544 110.861 23.4282C110.861 25.3656 110.597 26.2779 110.142 27.0267H127.449L128.805 24.1376C127.167 24.9966 125.526 25.2061 123.705 25.2061C122.946 25.2054 115.342 25.2054 115.342 25.2054Z" fill="#58595B"/>
<path d="M92.8379 0.956109C91.4469 0.619036 88.8492 0.436264 87.997 0.436264C87.4241 0.436264 77.261 0.436264 77.261 0.436264C77.7219 1.21144 77.9629 2.34083 77.9629 3.89027C77.9629 6.84371 77.9629 20.5431 77.9629 23.4273C77.9629 25.3646 77.7005 26.277 77.2415 27.0274C77.2415 27.0274 86.2207 27.0274 87.2972 27.0274C88.377 27.0274 90.5409 26.8969 91.7983 26.7148C99.3351 25.6607 103.725 20.638 103.725 13.9158C103.724 7.3507 99.2524 2.53952 92.8379 0.956109ZM90.0511 25.0649C89.3007 25.177 87.6944 25.2312 86.8689 25.2312C84.6916 25.2312 83.3065 25.2394 82.4621 25.1672V2.37206C83.3068 2.34389 85.1101 2.29185 86.1265 2.29185C87.4476 2.29185 90.0547 2.53952 91.5009 3.05417C95.8443 4.6039 98.7738 8.46601 98.7738 13.8469C98.7741 19.8968 96.1222 24.204 90.0511 25.0649Z" fill="#58595B"/>
<path d="M33.2154 0.432587H27.3737C27.8364 1.21144 28.0738 2.34113 28.0738 3.89057C28.0738 6.84401 28.0738 20.5434 28.0738 23.4276C28.0738 25.3649 27.8099 26.2773 27.3545 27.0261H33.198C32.7329 26.2488 32.494 25.1191 32.494 23.5645C32.494 20.6104 32.494 6.91718 32.494 4.03691C32.494 2.09254 32.7585 1.18174 33.2154 0.432587Z" fill="#58595B"/>
<path d="M145.344 14.6258C148.843 14.2752 153.138 12.3413 153.138 7.83625C153.138 3.47145 150.3 1.67802 147.11 0.945396C144.649 0.374423 141.78 0.436572 140.052 0.436572C139.543 0.436572 134.56 0.436572 134.56 0.436572C135.023 1.21175 135.261 2.34114 135.261 3.89057C135.261 6.84402 135.261 20.5434 135.261 23.4276C135.261 25.365 134.999 26.2773 134.541 27.0261H140.52C139.925 25.9972 139.759 24.7768 139.759 23.4515V2.2346C140.507 2.22266 142.579 2.1403 144.11 2.49177C147.562 3.2746 148.561 5.49848 148.561 7.90973C148.561 10.9066 146.679 14.3735 141.296 13.1945L140.692 13.5885C145.234 20.5908 149.192 24.73 152.131 27.0255H158.91C154.183 23.8948 149.092 19.4216 145.344 14.6258Z" fill="#58595B"/>
<path d="M1.39615 39.4283L4.34492 39.4341V40.3459L0.0268555 40.3416L0.0308209 33.1746H1.40195L1.39615 39.4283Z" fill="#58595B"/>
<path d="M7.62748 40.348L6.40308 40.3456L9.63522 33.1605H10.453L13.3765 40.3544H11.9571L11.2357 38.5784H8.40471L7.62748 40.348ZM9.86674 35.148L8.75947 37.739H10.902L9.86674 35.148Z" fill="#58595B"/>
<path d="M16.2613 33.1887H18.5567C20.1648 33.1908 21.1598 33.9102 21.1598 34.8465C21.1598 35.7499 20.4229 36.2759 19.864 36.4669C20.9957 36.5863 21.8385 37.3517 21.8385 38.253C21.8367 39.4801 20.4421 40.359 18.9764 40.359L16.2537 40.3544L16.2613 33.1887ZM20.3927 38.2956C20.3927 37.6199 19.8366 37.1236 18.7339 37.1236H17.615L17.6114 39.5297H18.6683C19.7518 39.5318 20.3927 39.0169 20.3927 38.2956ZM18.294 36.2933C19.1847 36.2933 19.7789 35.8222 19.7789 35.0831C19.7908 34.4693 19.3064 34.0186 18.2821 34.0134H17.619L17.615 36.2933H18.294Z" fill="#58595B"/>
<path d="M32.6887 36.7887C32.6887 39.0462 30.8761 40.5078 28.664 40.5078C26.3476 40.5054 24.6428 39.0631 24.6467 36.7823C24.651 34.6539 26.3284 33.0567 28.6735 33.0567C31.1574 33.0588 32.6887 34.6067 32.6887 36.7887ZM26.1121 36.7841C26.1066 38.3997 27.0922 39.5998 28.664 39.6031C30.2356 39.6059 31.2269 38.4012 31.2269 36.7887C31.2269 35.1762 30.2395 33.962 28.6698 33.962C27.0959 33.9589 26.1121 35.1401 26.1121 36.7841Z" fill="#58595B"/>
<path d="M40.3833 40.4845L38.1654 37.149H37.3421V40.37H35.9709L35.9746 33.2052H38.1885C40.1035 33.2052 41.0309 34.1497 41.0293 35.0562C41.0293 36.0438 40.1151 36.721 39.5036 36.8827L41.9298 40.3762L40.3833 40.4845ZM38.0656 36.3096C39.1723 36.3132 39.6735 35.708 39.6735 35.16C39.6735 34.581 39.2013 34.0443 38.079 34.0443H37.3442V36.3096H38.0656Z" fill="#58595B"/>
<path d="M44.989 40.3798H43.7625L46.9964 33.1908H47.8157L50.7358 40.3857L49.3202 40.3826L48.5954 38.6085L45.7681 38.6078L44.989 40.3798ZM47.2298 35.1802L46.1231 37.7693H48.2599L47.2298 35.1802Z" fill="#58595B"/>
<path d="M51.8506 33.2174L58.2767 33.2226V34.1442H55.7541L55.7505 40.3909L54.3812 40.3872L54.3845 34.1442L51.8506 34.1383V33.2174Z" fill="#58595B"/>
<path d="M68.1022 36.8162C68.0964 39.0763 66.2879 40.536 64.0758 40.5335C61.7554 40.5335 60.0548 39.0903 60.0566 36.8135C60.0566 34.6851 61.738 33.0855 64.0813 33.0855C66.5673 33.0888 68.1022 34.6389 68.1022 36.8162ZM61.5205 36.8132C61.5162 38.4241 62.5039 39.6295 64.0758 39.6295C65.6433 39.6319 66.6368 38.4291 66.6368 36.8159C66.6384 35.2062 65.6534 33.9902 64.0813 33.988C62.5076 33.988 61.5205 35.1658 61.5205 36.8132Z" fill="#58595B"/>
<path d="M71.3789 40.4016L71.3884 33.2334H72.7424L72.7366 40.4016H71.3789Z" fill="#58595B"/>
<path d="M80.7572 40.5185L78.5356 37.1812L77.7141 37.1803L77.7102 40.4049H76.343L76.3488 33.2364L78.5606 33.2376C80.4738 33.2395 81.4035 34.1836 81.4035 35.0877C81.4035 36.0754 80.4854 36.7516 79.8793 36.9148L82.3 40.4108L80.7572 40.5185ZM78.441 36.3438C79.544 36.3481 80.0434 35.742 80.0434 35.1949C80.0458 34.615 79.5752 34.0777 78.4548 34.0777H77.7157L77.7138 36.3435H78.441V36.3438Z" fill="#58595B"/>
<path d="M89.9698 40.4144L85.168 40.4105L85.1796 33.241L89.8316 33.2447V34.1595L86.5415 34.1558V36.2655H88.944V37.1803L86.5415 37.1772V39.4978L89.9701 39.5043V40.4144H89.9698Z" fill="#58595B"/>
<path d="M97.9117 33.2508L100.37 33.2554C102.93 33.256 104.677 34.6098 104.677 36.8248C104.677 38.8895 102.648 40.4261 100.365 40.4249H97.9038L97.9117 33.2508ZM100.403 39.5122C101.773 39.5122 103.21 38.4364 103.21 36.8248C103.211 34.9778 101.825 34.1702 100.384 34.1702L99.2771 34.1665L99.2737 39.5092L100.403 39.5122Z" fill="#58595B"/>
<path d="M112.749 40.4328H107.959L107.963 33.2618L112.611 33.264V34.1775L109.332 34.1757L109.329 36.2814H111.735L111.732 37.1983H109.329V39.5177L112.75 39.5202V40.4328H112.749Z" fill="#58595B"/>
<path d="M120.223 40.5498L118.001 37.213H117.183V40.4368H115.818L115.822 33.2686H118.034C119.942 33.2728 120.871 34.2158 120.871 35.1205C120.867 36.1075 119.949 36.7844 119.345 36.9473L121.768 40.4395L120.223 40.5498ZM117.908 36.3766C119.011 36.3766 119.513 35.7756 119.513 35.2267C119.515 34.649 119.039 34.1059 117.925 34.1059H117.183V36.3723L117.908 36.3766Z" fill="#58595B"/>
<path d="M132.496 40.4481H131.162L131.073 35.6121L128.793 40.5182H127.941L125.754 35.7058L125.559 40.4429H124.427L124.744 33.2735H126.028L128.522 38.8445L131.084 33.2777L132.322 33.2787L132.496 40.4481Z" fill="#58595B"/>
<path d="M136.444 40.4542H135.219L138.451 33.2621L139.274 33.2643L142.193 40.457H140.775L140.052 38.6813H137.219L136.444 40.4542ZM138.688 35.2509L137.579 37.8422H139.717L138.688 35.2509Z" fill="#58595B"/>
<path d="M143.308 33.2885L149.733 33.297V34.2192L147.208 34.2155L147.203 40.4607H145.835L145.845 34.2155L143.308 34.2133V33.2885Z" fill="#58595B"/>
<path d="M159.558 36.8922C159.558 39.15 157.743 40.6092 155.534 40.6058C153.213 40.6058 151.511 39.1635 151.511 36.8864C151.511 34.7574 153.193 33.1565 155.539 33.1565C158.026 33.1605 159.559 34.7087 159.558 36.8922ZM152.977 36.8867C152.973 38.4992 153.964 39.7045 155.536 39.7045C157.104 39.7082 158.093 38.5034 158.093 36.8867C158.097 35.28 157.108 34.0652 155.539 34.0615C153.968 34.0615 152.977 35.2405 152.977 36.8867Z" fill="#58595B"/>
<path d="M164.205 39.5627H167.158V40.4775L162.84 40.4726L162.843 33.3056H164.212L164.205 39.5627Z" fill="#58595B"/>
<path d="M177.261 36.905C177.257 39.1635 175.45 40.6217 173.234 40.6217C170.916 40.6202 169.216 39.1785 169.216 36.901C169.22 34.7711 170.901 33.1709 173.24 33.1743C175.73 33.1746 177.261 34.7261 177.261 36.905ZM170.682 36.9029C170.682 38.5132 171.669 39.7161 173.238 39.7213C174.808 39.7213 175.798 38.5194 175.798 36.905C175.798 35.2916 174.811 34.0789 173.24 34.0777C171.672 34.078 170.682 35.2567 170.682 36.9029Z" fill="#58595B"/>
<path d="M184.412 40.6315C181.947 40.6278 180.224 38.9921 180.224 36.9081C180.227 34.8235 181.974 33.1798 184.405 33.1798C185.936 33.1828 186.688 33.5285 187.043 33.6675L186.64 34.5489C186.38 34.4405 185.625 34.1383 184.462 34.1383C182.928 34.1362 181.685 35.3825 181.685 36.9102C181.685 38.5974 183.02 39.6739 184.551 39.6739C185.371 39.6739 185.682 39.5854 185.978 39.4914V37.4065L187.324 37.4074L187.321 40.0939C186.942 40.2565 186.017 40.6315 184.412 40.6315Z" fill="#58595B"/>
<path d="M190.514 40.4962L190.522 33.3252L191.871 33.3286L191.867 40.4962H190.514Z" fill="#58595B"/>
<path d="M203.112 40.9882L202.662 42L197.997 40.5115C196.167 39.8689 195.166 38.7882 195.166 36.9203C195.169 34.7914 196.849 33.1942 199.189 33.1942C201.678 33.1988 203.212 34.743 203.212 36.9277C203.212 38.6247 202.03 40.0226 200.555 40.3541L203.112 40.9882ZM196.631 36.9228C196.63 38.5325 197.615 39.7495 199.186 39.7495C200.763 39.7495 201.746 38.5386 201.749 36.928C201.749 35.314 200.763 34.1004 199.186 34.0991C197.622 34.0949 196.631 35.3078 196.631 36.9228Z" fill="#58595B"/>
<path d="M212.673 38.1272C212.671 39.2768 211.767 40.6539 209.468 40.6502C207.389 40.6483 206.268 39.6515 206.274 38.1667L206.278 33.3362L207.646 33.3423L207.636 38.0384C207.636 39.1601 208.222 39.7161 209.566 39.7161C210.837 39.7161 211.435 38.8996 211.435 38.0384L211.439 33.3448H212.677L212.673 38.1272Z" fill="#58595B"/>
<path d="M221 40.5185H216.21L216.212 33.3482L220.866 33.3524V34.2645L217.577 34.2623L217.576 36.3696L219.978 36.3726V37.2868L217.576 37.281V39.6062L221 39.6071V40.5185H221Z" fill="#58595B"/>
</g>
<defs>
<clipPath id="clip0_648_444">
<rect width="221" height="42" fill="white"/>
</clipPath>
</defs>
</svg>
