<svg width="225" height="44" viewBox="0 0 225 44" fill="none" xmlns="http://www.w3.org/2000/svg">
<g clip-path="url(#clip0_648_433)">
<path d="M65.7664 9.74772C65.7664 8.92685 66.4692 8.22726 67.2938 8.22726H67.7249C68.4277 8.22726 68.8588 8.58172 69.2899 9.12274L85.9517 30.2692V9.67309C85.9517 8.85223 86.617 8.15263 87.4792 8.15263C88.3038 8.15263 88.9692 8.85223 88.9692 9.67309V34.3269C88.9692 35.1478 88.3788 35.7727 87.5542 35.7727H87.3948C86.7295 35.7727 86.2609 35.381 85.7924 34.8399L68.7839 13.1804V34.3269C68.7839 35.1478 68.1185 35.8474 67.2564 35.8474C66.4317 35.8474 65.7664 35.1478 65.7664 34.3269V9.74772Z" fill="black"/>
<path d="M130.136 25.6892L123.83 11.7252L117.514 25.6892H130.136ZM110.729 33.6833L121.862 9.44922C122.255 8.59105 122.846 8.08734 123.82 8.08734H123.98C124.917 8.08734 125.545 8.59105 125.901 9.44922L137.034 33.6366C137.146 33.9071 137.23 34.187 137.23 34.4109C137.23 35.2317 136.565 35.894 135.74 35.894C135 35.894 134.485 35.3903 134.213 34.7653L131.355 28.4876H116.295L113.437 34.8493C113.165 35.5116 112.65 35.9033 111.947 35.9033C111.16 35.9033 110.532 35.2784 110.532 34.5041C110.541 34.2709 110.579 34.0004 110.729 33.6833Z" fill="black"/>
<path d="M180.984 22.0793V22.0047C180.984 15.8016 176.439 10.7272 170.16 10.7272C163.891 10.7272 159.421 15.7176 159.421 21.9207V21.9953C159.421 28.1984 163.966 33.2728 170.235 33.2728C176.505 33.2728 180.984 28.2824 180.984 22.0793ZM156.207 22.0793V22.0047C156.207 14.477 161.895 7.88213 170.235 7.88213C178.576 7.88213 184.189 14.393 184.189 21.93V22.0047C184.189 29.5323 178.501 36.1272 170.151 36.1272C161.811 36.1272 156.207 29.607 156.207 22.0793Z" fill="black"/>
<path d="M205.246 32.3774C204.89 32.1442 204.655 31.7151 204.655 31.2114C204.655 30.3532 205.321 29.6909 206.145 29.6909C206.539 29.6909 206.886 29.8495 207.082 30.0454C209.669 32.2281 212.255 33.2822 215.741 33.2822C219.424 33.2822 221.851 31.3326 221.851 28.6368V28.5622C221.851 26.025 220.483 24.5792 214.72 23.3759C208.413 22.014 205.508 19.9805 205.508 15.4937V15.4191C205.508 11.1283 209.313 7.96608 214.523 7.96608C218.131 7.96608 220.755 8.86156 223.266 10.6619C223.576 10.8951 223.932 11.3241 223.932 11.9118C223.932 12.7327 223.266 13.395 222.442 13.395C222.086 13.395 221.814 13.3203 221.542 13.1244C219.227 11.4454 216.997 10.7458 214.448 10.7458C210.878 10.7458 208.61 12.6954 208.61 15.1579V15.2326C208.61 17.8071 210.025 19.2529 216.06 20.5402C222.179 21.8647 225 24.0941 225 28.2637V28.3477C225 33.0303 221.083 36.0712 215.629 36.0712C211.637 36.0432 208.31 34.8026 205.246 32.3774Z" fill="black"/>
<path d="M22.1064 8.05936C19.7918 10.8764 18.2924 14.1319 17.6083 17.5272C14.2066 18.2175 10.9361 19.71 8.106 22.0047C10.9361 24.3087 14.2066 25.8011 17.6083 26.4821C18.3017 29.8681 19.8011 33.1236 22.1064 35.9406C24.4211 33.1236 25.9204 29.8681 26.6139 26.4821C30.0156 25.7918 33.2955 24.2993 36.1162 22.0047C33.2861 19.7007 30.0156 18.2082 26.6139 17.5272C25.9111 14.1319 24.4117 10.8764 22.1064 8.05936ZM39.1524 44C33.5204 44 27.8978 41.8639 23.5964 37.5917C23.0623 37.06 22.5656 36.5096 22.097 35.9406C21.6285 36.5096 21.1318 37.06 20.5977 37.5917C16.3057 41.8639 10.6737 44 5.04165 44C3.50479 44 1.9773 43.8414 0.468554 43.5243C-1.02145 36.519 0.965222 28.926 6.42857 23.4878C6.96272 22.9561 7.51562 22.4617 8.07788 21.9953C7.50625 21.5289 6.95335 21.0346 6.42857 20.5122C0.974593 15.074 -1.01208 7.48103 0.477925 0.475726C1.98667 0.158575 3.52353 0 5.05102 0C10.683 0 16.3057 2.1361 20.607 6.40831C21.1412 6.94 21.6379 7.49035 22.1064 8.05936C22.575 7.49035 23.0716 6.94 23.6058 6.40831C27.8884 2.1361 33.5204 0 39.1524 0C40.6893 0 42.2262 0.158575 43.7255 0.475726C45.2155 7.48103 43.2289 15.074 37.7655 20.5122C37.2314 21.0439 36.6785 21.5383 36.1162 21.9953C36.6878 22.4617 37.2407 22.9561 37.7655 23.4878C43.2289 28.926 45.2155 36.519 43.7255 43.5243C42.2168 43.8414 40.6893 44 39.1524 44Z" fill="#FFE5A0"/>
<path d="M22.1065 35.95C19.7918 33.1329 18.2924 29.8775 17.599 26.4914C14.1973 25.8012 10.9268 24.3087 8.09668 22.014C10.9268 19.71 14.1973 18.2175 17.599 17.5366C18.2924 14.1505 19.7918 10.8951 22.1065 8.0687C24.4211 10.8857 25.9205 14.1412 26.614 17.5366C30.0157 18.2268 33.2862 19.7193 36.1163 22.014C33.2862 24.318 30.0157 25.8105 26.614 26.4914C25.9111 29.8681 24.4118 33.1329 22.1065 35.95Z" fill="#FFD663"/>
<path d="M26.6046 17.5179C25.1239 17.2194 23.6152 17.0702 22.1064 17.0795C20.5977 17.0702 19.0889 17.2194 17.5989 17.5179C17.2991 18.9917 17.1491 20.5029 17.1585 22.0047C17.1491 23.5065 17.2991 25.0083 17.5989 26.4914C19.0796 26.7899 20.5883 26.9392 22.0971 26.9298C23.6058 26.9392 25.1146 26.7899 26.6046 26.4914C26.9044 25.0083 27.0544 23.5065 27.045 22.0047C27.0544 20.5029 26.9044 19.0011 26.6046 17.5179Z" fill="#FFCB1B"/>
</g>
<defs>
<clipPath id="clip0_648_433">
<rect width="225" height="44" fill="white"/>
</clipPath>
</defs>
</svg>
