<svg width="24" height="24" viewBox="0 0 24 24" fill="none" xmlns="http://www.w3.org/2000/svg">
<circle cx="12" cy="12" r="11.5" transform="matrix(-1 0 0 1 24 0)" fill="white" stroke="#F0F0F0"/>
<g clip-path="url(#clip0_12_814)">
<circle cx="12" cy="12" r="8" fill="#0076B2"/>
<path d="M8.14165 10.8527H9.92308V16.5845H8.14165V10.8527ZM9.03286 8C9.23718 8 9.43691 8.0606 9.60679 8.17414C9.77666 8.28767 9.90904 8.44904 9.98719 8.63783C10.0653 8.82662 10.0857 9.03434 10.0458 9.23472C10.0059 9.4351 9.9074 9.61914 9.76285 9.76355C9.61831 9.90796 9.43418 10.0062 9.23376 10.046C9.03334 10.0857 8.82563 10.0651 8.63692 9.98681C8.44821 9.90849 8.28696 9.77595 8.17359 9.60597C8.06022 9.43599 7.99981 9.2362 8 9.03187C8.00026 8.75811 8.10919 8.49566 8.30287 8.30217C8.49654 8.10868 8.7591 8 9.03286 8ZM11.0405 10.8527H12.7482V11.6396H12.7718C13.0099 11.1891 13.5902 10.714 14.4568 10.714C16.2609 10.71 16.5954 11.8973 16.5954 13.4368V16.5845H14.8139V13.7958C14.8139 13.1318 14.8021 12.277 13.8883 12.277C12.9744 12.277 12.819 13.001 12.819 13.7525V16.5845H11.0405V10.8527Z" fill="white"/>
</g>
<defs>
<clipPath id="clip0_12_814">
<rect width="16" height="16" fill="white" transform="translate(4 4)"/>
</clipPath>
</defs>
</svg>
