<svg width="142" height="59" viewBox="0 0 142 59" fill="none" xmlns="http://www.w3.org/2000/svg">
<path d="M41.812 44.2962H38.1429H31.3495C29.9606 44.2962 28.8267 43.1936 28.7953 41.8121L28.5779 32.364C28.5779 30.0898 30.9778 29.717 31.003 29.7107H38.0893C38.0925 29.7107 38.0925 29.7107 38.0956 29.7107H41.7616C43.1978 29.7138 44.3631 28.5548 44.3631 27.1263V17.6C44.3631 16.1715 43.2009 15.0093 41.7616 15.0093H38.0925H31.3967C29.9826 15.0093 28.8267 13.8878 28.7953 12.4844L28.5716 2.83272C28.5401 1.42617 27.3843 0.304688 25.9702 0.304688H22.3011H15.9423C14.5061 0.304688 13.3408 1.46376 13.3408 2.89537V14.1447C13.3408 14.8307 13.6117 15.4886 14.103 15.9741L23.8789 25.7009C24.7765 26.5937 24.7765 28.0379 23.8789 28.9276C23.4475 29.3536 22.868 29.5948 22.257 29.5979H15.895C14.4809 29.5979 13.3408 30.7319 13.3408 32.1385V43.4536C13.3408 44.1271 13.6085 44.7724 14.0872 45.2486L27.1701 58.2615C27.6488 58.7377 28.2976 59.004 28.9779 59.004H38.1397H41.8088C43.2198 59.004 44.3631 57.8668 44.3631 56.4634V46.8399C44.3662 45.4365 43.223 44.2962 41.812 44.2962Z" fill="white"/>
<path d="M21.7565 28.5655C22.9092 28.5655 23.4919 27.184 22.6825 26.3696L12.3585 15.9285C11.8577 15.421 11.168 15.1328 10.4499 15.1328H6.77765H1.51174C0.677135 15.1328 0 15.8063 0 16.6333V26.8457C0 27.7949 0.774769 28.5655 1.72906 28.5655H18.0842H21.7565Z" fill="white"/>
<path d="M139.445 43.9947H136.715C136.708 43.9947 136.699 43.9947 136.693 43.9947H135.776C135.783 43.9947 135.792 43.9947 135.798 43.9947H135.776H133.159C133.153 43.9947 133.146 43.9947 133.14 43.9947H129.468H128.794C127.405 43.9947 126.274 42.892 126.24 41.5105L126.022 32.0625V32.0312C125.928 30.5996 124.74 29.4812 123.301 29.4248C121.704 29.3622 119.871 29.2901 119.704 29.2901H119.522C118.971 29.2901 118.423 29.1272 117.994 28.7826C116.92 27.9149 116.861 26.3392 117.815 25.3931L127.591 15.6663C128.079 15.1839 128.353 14.526 128.353 13.8368V2.59069C128.353 1.16221 127.188 0 125.748 0H122.999C122.999 0 122.999 0 122.996 0H122.079C122.079 0 122.079 0 122.082 0H122.079H119.695H116.023C114.609 0 113.456 1.12148 113.421 2.52803L113.201 12.1797C113.166 13.5831 112.014 14.7046 110.599 14.7046H103.9H100.231C98.7952 14.7046 97.6299 15.8637 97.6299 17.2921V26.8279C97.6299 28.0997 98.5558 29.1585 99.7778 29.3716C99.9258 29.3998 100.077 29.4123 100.234 29.4123H103.907H108.401C109.837 29.4123 111.006 30.5651 111.012 31.9936L111.091 43.152C111.091 43.8255 111.358 44.4708 111.84 44.947L124.923 57.9537C124.926 57.9568 124.926 57.9568 124.929 57.96C125.399 58.4267 126.032 58.6961 126.696 58.6961H129.276H135.776H139.445C140.856 58.6961 142 57.559 142 56.1556V46.5321C142 45.1318 140.856 43.9947 139.445 43.9947Z" fill="white"/>
<path d="M120.042 28.2609H123.1H136.397H139.455C140.409 28.2609 141.184 27.4902 141.184 26.541V16.3287C141.184 15.5016 140.507 14.8281 139.672 14.8281H137.534H136.617H136.614H134.406H131.348C130.63 14.8281 129.94 15.1132 129.44 15.6207L119.116 26.0649C118.306 26.8794 118.889 28.2609 120.042 28.2609Z" fill="white"/>
<path d="M85.7659 27.4666H76.3679C75.5238 26.9779 74.5538 26.7085 73.5428 26.7085H68.4564C66.4502 26.7085 64.5952 27.7736 63.5936 29.4997L61.0489 33.8823C60.7465 34.4023 60.5355 34.9568 60.419 35.5269L60.2961 35.3483L55.7735 27.9177C55.7735 27.9177 52.8602 24.146 55.5908 18.996C55.594 18.996 55.594 18.9929 55.594 18.9929L55.783 18.6827C57.4081 16.0137 60.315 14.3848 63.4519 14.3848H78.5536C81.6905 14.3848 84.6006 16.0169 86.2225 18.6859L92.8994 29.6657C90.0177 27.4196 85.7659 27.4666 85.7659 27.4666Z" fill="white"/>
<path d="M75.6653 46.2283L70.5348 54.6645C68.9632 57.252 66.1822 58.8653 63.1587 58.9625C60.1352 58.8653 57.3574 57.252 55.7827 54.6676L47.6444 41.2944C45.9154 38.4562 45.9154 34.8976 47.6444 32.0594L54.0914 21.4648C54.0914 21.4648 53.1907 24.87 55.0016 27.7614C56.7181 30.5056 59.9841 35.8342 60.3053 36.3636C60.2644 37.0685 60.3588 37.7827 60.5919 38.4594C60.6266 38.5753 60.6706 38.6881 60.721 38.804C60.8124 39.0295 60.9226 39.2519 61.0486 39.4681L63.5933 43.8506C64.5949 45.5798 66.4499 46.6449 68.4561 46.6449H73.5425C73.6559 46.6449 73.7661 46.6418 73.8795 46.6324C73.9205 46.6324 73.9614 46.6293 73.9992 46.623C74.0811 46.6199 74.1598 46.6105 74.2385 46.6011C74.2606 46.598 74.2795 46.598 74.2984 46.5917C74.4086 46.5792 74.522 46.5604 74.6322 46.5384C74.6669 46.5322 74.7047 46.5259 74.7393 46.5134C74.8086 46.5008 74.881 46.4852 74.9503 46.4633C74.9944 46.4539 75.0385 46.4413 75.0826 46.4288C75.1582 46.41 75.2338 46.3849 75.3094 46.3599C75.3314 46.3536 75.3503 46.3473 75.3692 46.3379C75.4574 46.3098 75.5424 46.2784 75.6275 46.244C75.6401 46.2408 75.6527 46.2346 75.6653 46.2283Z" fill="white"/>
<path d="M94.3568 41.2919L86.2217 54.6651C84.5998 57.3372 81.6897 58.9693 78.5528 58.9693H63.4511C63.3535 58.9693 63.2558 58.9662 63.1582 58.9631C66.1817 58.8659 68.9627 57.2526 70.5343 54.6651L75.6647 46.2289C76.7985 45.7684 77.7717 44.9414 78.4048 43.8512L80.9495 39.4687C81.9542 37.7426 81.9542 35.6124 80.9495 33.8832L78.4048 29.5006C78.0552 28.8992 77.6017 28.376 77.0725 27.9531H85.7966C89.6358 27.9531 92.0105 29.4756 93.2545 30.619C93.2734 30.6378 93.2923 30.6535 93.308 30.6723C93.6954 31.0983 94.045 31.5619 94.3505 32.0631L94.5111 32.3294C96.0796 35.1175 96.0292 38.5414 94.3568 41.2919Z" fill="white"/>
</svg>
