<svg width="152" height="110" viewBox="0 0 152 110" fill="none" xmlns="http://www.w3.org/2000/svg">
<rect width="151.161" height="110" rx="16" fill="white"/>
<g opacity="0.65">
<path d="M116 51.3429V55.0229C115.995 63.6486 113.202 72.0416 108.037 78.9502C102.873 85.8588 95.6131 90.9128 87.3414 93.3585C79.0697 95.8042 70.229 95.5105 62.1379 92.5212C54.0467 89.532 47.1386 84.0073 42.4438 76.7712C37.7491 69.535 35.5192 60.9752 36.0867 52.3682C36.6542 43.7612 39.9888 35.5682 45.5931 29.0112C51.1974 22.4542 58.7711 17.8844 67.1848 15.9835C75.5984 14.0825 84.4011 14.9522 92.28 18.4629" stroke="#00AB55" stroke-width="5" stroke-linecap="round" stroke-linejoin="round"/>
<path d="M116 23.0229L76 63.063L64 51.063" stroke="#00AB55" stroke-width="5" stroke-linecap="round" stroke-linejoin="round"/>
</g>
</svg>
