<svg width="152" height="110" viewBox="0 0 152 110" fill="none" xmlns="http://www.w3.org/2000/svg">
<rect width="151.161" height="110" rx="16" fill="white"/>
<circle cx="23.4194" cy="23.4195" r="14.1935" fill="#2156A3"/>
<path d="M29.3333 23.4194H26.9677L25.1935 28.742L21.6452 18.0968L19.871 23.4194H17.5054" stroke="white" stroke-linecap="round" stroke-linejoin="round"/>
<rect x="9.22583" y="69.5482" width="7.09677" height="26.2581" rx="3.54839" fill="#EAECF2"/>
<rect x="22.7095" y="80.1935" width="7.09677" height="15.6129" rx="3.54839" fill="#EAECF2"/>
<rect x="36.1934" y="73.8063" width="7.09677" height="22" rx="3.54839" fill="#EAECF2"/>
<rect x="49.6772" y="84.4515" width="7.09677" height="11.3548" rx="3.54839" fill="#EAECF2"/>
<rect x="63.1614" y="78.774" width="7.09677" height="17.0323" rx="3.54839" fill="#EAECF2"/>
<rect x="76.645" y="61.0322" width="7.09677" height="34.7742" rx="3.54839" fill="#EAECF2"/>
<rect x="90.1289" y="68.1288" width="7.09677" height="27.6774" rx="3.54839" fill="#EAECF2"/>
<rect x="103.613" y="75.2257" width="7.09677" height="20.5806" rx="3.54839" fill="#F75C4E"/>
<rect x="117.097" y="61.0322" width="7.09677" height="34.7742" rx="3.54839" fill="#F75C4E"/>
<rect x="130.581" y="51.0967" width="7.09677" height="44.7097" rx="3.54839" fill="#1F7CFF"/>
</svg>
