<svg width="152" height="110" viewBox="0 0 152 110" fill="none" xmlns="http://www.w3.org/2000/svg">
<rect width="151.161" height="110" rx="16" fill="white"/>
<path fill-rule="evenodd" clip-rule="evenodd" d="M57.4932 86.6639L63.8961 74.6218C67.4237 76.4327 71.423 77.4547 75.6609 77.4547C89.6419 77.4547 101.025 66.3323 101.445 52.4531L114.974 52.9255C114.223 74.0794 96.8369 90.9975 75.4997 90.9975C69.0137 90.9975 62.8927 89.4343 57.4932 86.6639V86.6639Z" fill="#0AB39C"/>
<path d="M70.165 82.389C70.175 82.189 70.245 82.035 70.375 81.927C70.507 81.817 70.68 81.762 70.894 81.762C71.04 81.762 71.165 81.788 71.269 81.84C71.373 81.89 71.451 81.959 71.503 82.047C71.557 82.133 71.584 82.231 71.584 82.341C71.584 82.467 71.551 82.574 71.485 82.662C71.421 82.748 71.344 82.806 71.254 82.836V82.848C71.37 82.884 71.46 82.948 71.524 83.04C71.59 83.132 71.623 83.25 71.623 83.394C71.623 83.514 71.595 83.621 71.539 83.715C71.485 83.809 71.404 83.883 71.296 83.937C71.19 83.989 71.062 84.015 70.912 84.015C70.686 84.015 70.502 83.958 70.36 83.844C70.218 83.73 70.143 83.562 70.135 83.34H70.543C70.547 83.438 70.58 83.517 70.642 83.577C70.706 83.635 70.793 83.664 70.903 83.664C71.005 83.664 71.083 83.636 71.137 83.58C71.193 83.522 71.221 83.448 71.221 83.358C71.221 83.238 71.183 83.152 71.107 83.1C71.031 83.048 70.913 83.022 70.753 83.022H70.666V82.677H70.753C71.037 82.677 71.179 82.582 71.179 82.392C71.179 82.306 71.153 82.239 71.101 82.191C71.051 82.143 70.978 82.119 70.882 82.119C70.788 82.119 70.715 82.145 70.663 82.197C70.613 82.247 70.584 82.311 70.576 82.389H70.165ZM72.4869 83.526C72.6789 83.366 72.8319 83.233 72.9459 83.127C73.0599 83.019 73.1549 82.907 73.2309 82.791C73.3069 82.675 73.3449 82.561 73.3449 82.449C73.3449 82.347 73.3209 82.267 73.2729 82.209C73.2249 82.151 73.1509 82.122 73.0509 82.122C72.9509 82.122 72.8739 82.156 72.8199 82.224C72.7659 82.29 72.7379 82.381 72.7359 82.497H72.3279C72.3359 82.257 72.4069 82.075 72.5409 81.951C72.6769 81.827 72.8489 81.765 73.0569 81.765C73.2849 81.765 73.4599 81.826 73.5819 81.948C73.7039 82.068 73.7649 82.227 73.7649 82.425C73.7649 82.581 73.7229 82.73 73.6389 82.872C73.5549 83.014 73.4589 83.138 73.3509 83.244C73.2429 83.348 73.1019 83.474 72.9279 83.622H73.8129V83.97H72.3309V83.658L72.4869 83.526ZM74.7116 84.021C74.6356 84.021 74.5726 83.998 74.5226 83.952C74.4746 83.904 74.4506 83.845 74.4506 83.775C74.4506 83.705 74.4746 83.647 74.5226 83.601C74.5726 83.553 74.6356 83.529 74.7116 83.529C74.7856 83.529 74.8466 83.553 74.8946 83.601C74.9426 83.647 74.9666 83.705 74.9666 83.775C74.9666 83.845 74.9426 83.904 74.8946 83.952C74.8466 83.998 74.7856 84.021 74.7116 84.021ZM75.6569 82.878C75.6569 82.532 75.7189 82.261 75.8429 82.065C75.9689 81.869 76.1769 81.771 76.4669 81.771C76.7569 81.771 76.9639 81.869 77.0879 82.065C77.2139 82.261 77.2769 82.532 77.2769 82.878C77.2769 83.226 77.2139 83.499 77.0879 83.697C76.9639 83.895 76.7569 83.994 76.4669 83.994C76.1769 83.994 75.9689 83.895 75.8429 83.697C75.7189 83.499 75.6569 83.226 75.6569 82.878ZM76.8629 82.878C76.8629 82.73 76.8529 82.606 76.8329 82.506C76.8149 82.404 76.7769 82.321 76.7189 82.257C76.6629 82.193 76.5789 82.161 76.4669 82.161C76.3549 82.161 76.2699 82.193 76.2119 82.257C76.1559 82.321 76.1179 82.404 76.0979 82.506C76.0799 82.606 76.0709 82.73 76.0709 82.878C76.0709 83.03 76.0799 83.158 76.0979 83.262C76.1159 83.364 76.1539 83.447 76.2119 83.511C76.2699 83.573 76.3549 83.604 76.4669 83.604C76.5789 83.604 76.6639 83.573 76.7219 83.511C76.7799 83.447 76.8179 83.364 76.8359 83.262C76.8539 83.158 76.8629 83.03 76.8629 82.878ZM77.9483 82.35C77.9483 82.198 77.9923 82.079 78.0803 81.993C78.1703 81.907 78.2853 81.864 78.4253 81.864C78.5653 81.864 78.6793 81.907 78.7673 81.993C78.8573 82.079 78.9023 82.198 78.9023 82.35C78.9023 82.504 78.8573 82.624 78.7673 82.71C78.6793 82.796 78.5653 82.839 78.4253 82.839C78.2853 82.839 78.1703 82.796 78.0803 82.71C77.9923 82.624 77.9483 82.504 77.9483 82.35ZM79.8743 81.9L78.6953 84H78.2873L79.4633 81.9H79.8743ZM78.4223 82.116C78.3123 82.116 78.2573 82.194 78.2573 82.35C78.2573 82.508 78.3123 82.587 78.4223 82.587C78.4763 82.587 78.5183 82.568 78.5483 82.53C78.5783 82.49 78.5933 82.43 78.5933 82.35C78.5933 82.194 78.5363 82.116 78.4223 82.116ZM79.2653 83.547C79.2653 83.393 79.3093 83.274 79.3973 83.19C79.4873 83.104 79.6023 83.061 79.7423 83.061C79.8823 83.061 79.9953 83.104 80.0813 83.19C80.1693 83.274 80.2133 83.393 80.2133 83.547C80.2133 83.701 80.1693 83.821 80.0813 83.907C79.9953 83.993 79.8823 84.036 79.7423 84.036C79.6003 84.036 79.4853 83.993 79.3973 83.907C79.3093 83.821 79.2653 83.701 79.2653 83.547ZM79.7393 83.313C79.6253 83.313 79.5683 83.391 79.5683 83.547C79.5683 83.705 79.6253 83.784 79.7393 83.784C79.8513 83.784 79.9073 83.705 79.9073 83.547C79.9073 83.391 79.8513 83.313 79.7393 83.313Z" fill="white"/>
<path fill-rule="evenodd" clip-rule="evenodd" d="M39.1327 36.0586C37.1158 40.8023 36 46.0214 36 51.5012C36 66.7155 44.6016 79.9207 57.2071 86.5191L63.6104 74.4763C55.4352 70.149 49.8653 61.5562 49.8653 51.6624C49.8653 48.1389 50.5717 44.7805 51.8506 41.721L39.1327 36.0586V36.0586Z" fill="#F7B84B"/>
<path d="M48.291 75.526C48.483 75.366 48.636 75.233 48.75 75.127C48.864 75.019 48.959 74.907 49.035 74.791C49.111 74.675 49.149 74.561 49.149 74.449C49.149 74.347 49.125 74.267 49.077 74.209C49.029 74.151 48.955 74.122 48.855 74.122C48.755 74.122 48.678 74.156 48.624 74.224C48.57 74.29 48.542 74.381 48.54 74.497H48.132C48.14 74.257 48.211 74.075 48.345 73.951C48.481 73.827 48.653 73.765 48.861 73.765C49.089 73.765 49.264 73.826 49.386 73.948C49.508 74.068 49.569 74.227 49.569 74.425C49.569 74.581 49.527 74.73 49.443 74.872C49.359 75.014 49.263 75.138 49.155 75.244C49.047 75.348 48.906 75.474 48.732 75.622H49.617V75.97H48.135V75.658L48.291 75.526ZM50.2877 74.389C50.2977 74.189 50.3677 74.035 50.4977 73.927C50.6297 73.817 50.8027 73.762 51.0167 73.762C51.1627 73.762 51.2877 73.788 51.3917 73.84C51.4957 73.89 51.5737 73.959 51.6257 74.047C51.6797 74.133 51.7067 74.231 51.7067 74.341C51.7067 74.467 51.6737 74.574 51.6077 74.662C51.5437 74.748 51.4667 74.806 51.3767 74.836V74.848C51.4927 74.884 51.5827 74.948 51.6467 75.04C51.7127 75.132 51.7457 75.25 51.7457 75.394C51.7457 75.514 51.7177 75.621 51.6617 75.715C51.6077 75.809 51.5267 75.883 51.4187 75.937C51.3127 75.989 51.1847 76.015 51.0347 76.015C50.8087 76.015 50.6247 75.958 50.4827 75.844C50.3407 75.73 50.2657 75.562 50.2577 75.34H50.6657C50.6697 75.438 50.7027 75.517 50.7647 75.577C50.8287 75.635 50.9157 75.664 51.0257 75.664C51.1277 75.664 51.2057 75.636 51.2597 75.58C51.3157 75.522 51.3437 75.448 51.3437 75.358C51.3437 75.238 51.3057 75.152 51.2297 75.1C51.1537 75.048 51.0357 75.022 50.8757 75.022H50.7887V74.677H50.8757C51.1597 74.677 51.3017 74.582 51.3017 74.392C51.3017 74.306 51.2757 74.239 51.2237 74.191C51.1737 74.143 51.1007 74.119 51.0047 74.119C50.9107 74.119 50.8377 74.145 50.7857 74.197C50.7357 74.247 50.7067 74.311 50.6987 74.389H50.2877ZM52.7116 76.021C52.6356 76.021 52.5726 75.998 52.5226 75.952C52.4746 75.904 52.4506 75.845 52.4506 75.775C52.4506 75.705 52.4746 75.647 52.5226 75.601C52.5726 75.553 52.6356 75.529 52.7116 75.529C52.7856 75.529 52.8466 75.553 52.8946 75.601C52.9426 75.647 52.9666 75.705 52.9666 75.775C52.9666 75.845 52.9426 75.904 52.8946 75.952C52.8466 75.998 52.7856 76.021 52.7116 76.021ZM54.0229 74.842C53.8229 74.738 53.7229 74.577 53.7229 74.359C53.7229 74.251 53.7499 74.153 53.8039 74.065C53.8599 73.975 53.9429 73.904 54.0529 73.852C54.1649 73.798 54.3009 73.771 54.4609 73.771C54.6209 73.771 54.7559 73.798 54.8659 73.852C54.9779 73.904 55.0609 73.975 55.1149 74.065C55.1709 74.153 55.1989 74.251 55.1989 74.359C55.1989 74.469 55.1719 74.566 55.1179 74.65C55.0639 74.732 54.9919 74.796 54.9019 74.842C55.0119 74.89 55.0979 74.96 55.1599 75.052C55.2219 75.144 55.2529 75.253 55.2529 75.379C55.2529 75.515 55.2179 75.634 55.1479 75.736C55.0799 75.836 54.9859 75.913 54.8659 75.967C54.7459 76.021 54.6109 76.048 54.4609 76.048C54.3109 76.048 54.1759 76.021 54.0559 75.967C53.9379 75.913 53.8439 75.836 53.7739 75.736C53.7059 75.634 53.6719 75.515 53.6719 75.379C53.6719 75.253 53.7029 75.144 53.7649 75.052C53.8269 74.958 53.9129 74.888 54.0229 74.842ZM54.7909 74.419C54.7909 74.321 54.7609 74.245 54.7009 74.191C54.6429 74.137 54.5629 74.11 54.4609 74.11C54.3609 74.11 54.2809 74.137 54.2209 74.191C54.1629 74.245 54.1339 74.322 54.1339 74.422C54.1339 74.512 54.1639 74.584 54.2239 74.638C54.2859 74.692 54.3649 74.719 54.4609 74.719C54.5569 74.719 54.6359 74.692 54.6979 74.638C54.7599 74.582 54.7909 74.509 54.7909 74.419ZM54.4609 75.025C54.3469 75.025 54.2539 75.054 54.1819 75.112C54.1119 75.17 54.0769 75.253 54.0769 75.361C54.0769 75.461 54.1109 75.543 54.1789 75.607C54.2489 75.669 54.3429 75.7 54.4609 75.7C54.5789 75.7 54.6719 75.668 54.7399 75.604C54.8079 75.54 54.8419 75.459 54.8419 75.361C54.8419 75.255 54.8069 75.173 54.7369 75.115C54.6669 75.055 54.5749 75.025 54.4609 75.025ZM55.9366 74.35C55.9366 74.198 55.9806 74.079 56.0686 73.993C56.1586 73.907 56.2736 73.864 56.4136 73.864C56.5536 73.864 56.6676 73.907 56.7556 73.993C56.8456 74.079 56.8906 74.198 56.8906 74.35C56.8906 74.504 56.8456 74.624 56.7556 74.71C56.6676 74.796 56.5536 74.839 56.4136 74.839C56.2736 74.839 56.1586 74.796 56.0686 74.71C55.9806 74.624 55.9366 74.504 55.9366 74.35ZM57.8626 73.9L56.6836 76H56.2756L57.4516 73.9H57.8626ZM56.4106 74.116C56.3006 74.116 56.2456 74.194 56.2456 74.35C56.2456 74.508 56.3006 74.587 56.4106 74.587C56.4646 74.587 56.5066 74.568 56.5366 74.53C56.5666 74.49 56.5816 74.43 56.5816 74.35C56.5816 74.194 56.5246 74.116 56.4106 74.116ZM57.2536 75.547C57.2536 75.393 57.2976 75.274 57.3856 75.19C57.4756 75.104 57.5906 75.061 57.7306 75.061C57.8706 75.061 57.9836 75.104 58.0696 75.19C58.1576 75.274 58.2016 75.393 58.2016 75.547C58.2016 75.701 58.1576 75.821 58.0696 75.907C57.9836 75.993 57.8706 76.036 57.7306 76.036C57.5886 76.036 57.4736 75.993 57.3856 75.907C57.2976 75.821 57.2536 75.701 57.2536 75.547ZM57.7276 75.313C57.6136 75.313 57.5566 75.391 57.5566 75.547C57.5566 75.705 57.6136 75.784 57.7276 75.784C57.8396 75.784 57.8956 75.705 57.8956 75.547C57.8956 75.391 57.8396 75.313 57.7276 75.313Z" fill="white"/>
<path fill-rule="evenodd" clip-rule="evenodd" d="M39.2598 35.7597C42.4797 28.3558 47.9021 22.1309 54.6999 17.9121L62.0806 29.7237C57.6274 32.4865 54.0777 36.5675 51.9766 41.4216L39.2598 35.7597V35.7597Z" fill="#F06548"/>
<path d="M46.645 30.385C46.661 30.473 46.697 30.541 46.753 30.589C46.811 30.635 46.888 30.658 46.984 30.658C47.108 30.658 47.198 30.607 47.254 30.505C47.31 30.401 47.338 30.227 47.338 29.983C47.292 30.047 47.227 30.097 47.143 30.133C47.061 30.169 46.972 30.187 46.876 30.187C46.748 30.187 46.632 30.161 46.528 30.109C46.426 30.055 46.345 29.976 46.285 29.872C46.225 29.766 46.195 29.638 46.195 29.488C46.195 29.266 46.261 29.09 46.393 28.96C46.525 28.828 46.705 28.762 46.933 28.762C47.217 28.762 47.417 28.853 47.533 29.035C47.651 29.217 47.71 29.491 47.71 29.857C47.71 30.117 47.687 30.33 47.641 30.496C47.597 30.662 47.52 30.788 47.41 30.874C47.302 30.96 47.154 31.003 46.966 31.003C46.818 31.003 46.692 30.975 46.588 30.919C46.484 30.861 46.404 30.786 46.348 30.694C46.294 30.6 46.263 30.497 46.255 30.385H46.645ZM46.963 29.845C47.067 29.845 47.149 29.813 47.209 29.749C47.269 29.685 47.299 29.599 47.299 29.491C47.299 29.373 47.267 29.282 47.203 29.218C47.141 29.152 47.056 29.119 46.948 29.119C46.84 29.119 46.754 29.153 46.69 29.221C46.628 29.287 46.597 29.375 46.597 29.485C46.597 29.591 46.627 29.678 46.687 29.746C46.749 29.812 46.841 29.845 46.963 29.845ZM48.6709 31.021C48.5949 31.021 48.5319 30.998 48.4819 30.952C48.4339 30.904 48.4099 30.845 48.4099 30.775C48.4099 30.705 48.4339 30.647 48.4819 30.601C48.5319 30.553 48.5949 30.529 48.6709 30.529C48.7449 30.529 48.8059 30.553 48.8539 30.601C48.9019 30.647 48.9259 30.705 48.9259 30.775C48.9259 30.845 48.9019 30.904 48.8539 30.952C48.8059 30.998 48.7449 31.021 48.6709 31.021ZM50.1022 30.385C50.1182 30.473 50.1542 30.541 50.2102 30.589C50.2682 30.635 50.3452 30.658 50.4412 30.658C50.5652 30.658 50.6552 30.607 50.7112 30.505C50.7672 30.401 50.7952 30.227 50.7952 29.983C50.7492 30.047 50.6842 30.097 50.6002 30.133C50.5182 30.169 50.4292 30.187 50.3332 30.187C50.2052 30.187 50.0892 30.161 49.9852 30.109C49.8832 30.055 49.8022 29.976 49.7422 29.872C49.6822 29.766 49.6522 29.638 49.6522 29.488C49.6522 29.266 49.7182 29.09 49.8502 28.96C49.9822 28.828 50.1622 28.762 50.3902 28.762C50.6742 28.762 50.8742 28.853 50.9902 29.035C51.1082 29.217 51.1672 29.491 51.1672 29.857C51.1672 30.117 51.1442 30.33 51.0982 30.496C51.0542 30.662 50.9772 30.788 50.8672 30.874C50.7592 30.96 50.6112 31.003 50.4232 31.003C50.2752 31.003 50.1492 30.975 50.0452 30.919C49.9412 30.861 49.8612 30.786 49.8052 30.694C49.7512 30.6 49.7202 30.497 49.7122 30.385H50.1022ZM50.4202 29.845C50.5242 29.845 50.6062 29.813 50.6662 29.749C50.7262 29.685 50.7562 29.599 50.7562 29.491C50.7562 29.373 50.7242 29.282 50.6602 29.218C50.5982 29.152 50.5132 29.119 50.4052 29.119C50.2972 29.119 50.2112 29.153 50.1472 29.221C50.0852 29.287 50.0542 29.375 50.0542 29.485C50.0542 29.591 50.0842 29.678 50.1442 29.746C50.2062 29.812 50.2982 29.845 50.4202 29.845ZM51.8462 29.35C51.8462 29.198 51.8902 29.079 51.9782 28.993C52.0682 28.907 52.1832 28.864 52.3232 28.864C52.4632 28.864 52.5772 28.907 52.6652 28.993C52.7552 29.079 52.8002 29.198 52.8002 29.35C52.8002 29.504 52.7552 29.624 52.6652 29.71C52.5772 29.796 52.4632 29.839 52.3232 29.839C52.1832 29.839 52.0682 29.796 51.9782 29.71C51.8902 29.624 51.8462 29.504 51.8462 29.35ZM53.7722 28.9L52.5932 31H52.1852L53.3612 28.9H53.7722ZM52.3202 29.116C52.2102 29.116 52.1552 29.194 52.1552 29.35C52.1552 29.508 52.2102 29.587 52.3202 29.587C52.3742 29.587 52.4162 29.568 52.4462 29.53C52.4762 29.49 52.4912 29.43 52.4912 29.35C52.4912 29.194 52.4342 29.116 52.3202 29.116ZM53.1632 30.547C53.1632 30.393 53.2072 30.274 53.2952 30.19C53.3852 30.104 53.5002 30.061 53.6402 30.061C53.7802 30.061 53.8932 30.104 53.9792 30.19C54.0672 30.274 54.1112 30.393 54.1112 30.547C54.1112 30.701 54.0672 30.821 53.9792 30.907C53.8932 30.993 53.7802 31.036 53.6402 31.036C53.4982 31.036 53.3832 30.993 53.2952 30.907C53.2072 30.821 53.1632 30.701 53.1632 30.547ZM53.6372 30.313C53.5232 30.313 53.4662 30.391 53.4662 30.547C53.4662 30.705 53.5232 30.784 53.6372 30.784C53.7492 30.784 53.8052 30.705 53.8052 30.547C53.8052 30.391 53.7492 30.313 53.6372 30.313Z" fill="white"/>
<path fill-rule="evenodd" clip-rule="evenodd" d="M114.985 52.6054C114.995 52.2381 115 51.8694 115 51.4997C115 29.7382 97.4024 12.0869 75.6613 12V25.865C89.908 25.865 101.457 37.4142 101.457 51.6609C101.457 51.8186 101.456 51.9759 101.453 52.1329L114.985 52.6054V52.6054Z" fill="#405189"/>
<path d="M79.291 20.526C79.483 20.366 79.636 20.233 79.75 20.127C79.864 20.019 79.959 19.907 80.035 19.791C80.111 19.675 80.149 19.561 80.149 19.449C80.149 19.347 80.125 19.267 80.077 19.209C80.029 19.151 79.955 19.122 79.855 19.122C79.755 19.122 79.678 19.156 79.624 19.224C79.57 19.29 79.542 19.381 79.54 19.497H79.132C79.14 19.257 79.211 19.075 79.345 18.951C79.481 18.827 79.653 18.765 79.861 18.765C80.089 18.765 80.264 18.826 80.386 18.948C80.508 19.068 80.569 19.227 80.569 19.425C80.569 19.581 80.527 19.73 80.443 19.872C80.359 20.014 80.263 20.138 80.155 20.244C80.047 20.348 79.906 20.474 79.732 20.622H80.617V20.97H79.135V20.658L79.291 20.526ZM82.7517 19.176H81.7797V19.689C81.8217 19.637 81.8817 19.595 81.9597 19.563C82.0377 19.529 82.1207 19.512 82.2087 19.512C82.3687 19.512 82.4997 19.547 82.6017 19.617C82.7037 19.687 82.7777 19.777 82.8237 19.887C82.8697 19.995 82.8927 20.111 82.8927 20.235C82.8927 20.465 82.8267 20.65 82.6947 20.79C82.5647 20.93 82.3787 21 82.1367 21C81.9087 21 81.7267 20.943 81.5907 20.829C81.4547 20.715 81.3777 20.566 81.3597 20.382H81.7677C81.7857 20.462 81.8257 20.526 81.8877 20.574C81.9517 20.622 82.0327 20.646 82.1307 20.646C82.2487 20.646 82.3377 20.609 82.3977 20.535C82.4577 20.461 82.4877 20.363 82.4877 20.241C82.4877 20.117 82.4567 20.023 82.3947 19.959C82.3347 19.893 82.2457 19.86 82.1277 19.86C82.0437 19.86 81.9737 19.881 81.9177 19.923C81.8617 19.965 81.8217 20.021 81.7977 20.091H81.3957V18.807H82.7517V19.176ZM83.8463 21.021C83.7703 21.021 83.7073 20.998 83.6573 20.952C83.6093 20.904 83.5853 20.845 83.5853 20.775C83.5853 20.705 83.6093 20.647 83.6573 20.601C83.7073 20.553 83.7703 20.529 83.8463 20.529C83.9203 20.529 83.9813 20.553 84.0293 20.601C84.0773 20.647 84.1013 20.705 84.1013 20.775C84.1013 20.845 84.0773 20.904 84.0293 20.952C83.9813 20.998 83.9203 21.021 83.8463 21.021ZM85.9256 19.359C85.9056 19.275 85.8706 19.212 85.8206 19.17C85.7726 19.128 85.7026 19.107 85.6106 19.107C85.4726 19.107 85.3706 19.163 85.3046 19.275C85.2406 19.385 85.2076 19.565 85.2056 19.815C85.2536 19.735 85.3236 19.673 85.4156 19.629C85.5076 19.583 85.6076 19.56 85.7156 19.56C85.8456 19.56 85.9606 19.588 86.0606 19.644C86.1606 19.7 86.2386 19.782 86.2946 19.89C86.3506 19.996 86.3786 20.124 86.3786 20.274C86.3786 20.416 86.3496 20.543 86.2916 20.655C86.2356 20.765 86.1526 20.851 86.0426 20.913C85.9326 20.975 85.8016 21.006 85.6496 21.006C85.4416 21.006 85.2776 20.96 85.1576 20.868C85.0396 20.776 84.9566 20.648 84.9086 20.484C84.8626 20.318 84.8396 20.114 84.8396 19.872C84.8396 19.506 84.9026 19.23 85.0286 19.044C85.1546 18.856 85.3536 18.762 85.6256 18.762C85.8356 18.762 85.9986 18.819 86.1146 18.933C86.2306 19.047 86.2976 19.189 86.3156 19.359H85.9256ZM85.6196 19.905C85.5136 19.905 85.4246 19.936 85.3526 19.998C85.2806 20.06 85.2446 20.15 85.2446 20.268C85.2446 20.386 85.2776 20.479 85.3436 20.547C85.4116 20.615 85.5066 20.649 85.6286 20.649C85.7366 20.649 85.8216 20.616 85.8836 20.55C85.9476 20.484 85.9796 20.395 85.9796 20.283C85.9796 20.167 85.9486 20.075 85.8866 20.007C85.8266 19.939 85.7376 19.905 85.6196 19.905ZM87.0626 19.35C87.0626 19.198 87.1066 19.079 87.1946 18.993C87.2846 18.907 87.3996 18.864 87.5396 18.864C87.6796 18.864 87.7936 18.907 87.8816 18.993C87.9716 19.079 88.0166 19.198 88.0166 19.35C88.0166 19.504 87.9716 19.624 87.8816 19.71C87.7936 19.796 87.6796 19.839 87.5396 19.839C87.3996 19.839 87.2846 19.796 87.1946 19.71C87.1066 19.624 87.0626 19.504 87.0626 19.35ZM88.9886 18.9L87.8096 21H87.4016L88.5776 18.9H88.9886ZM87.5366 19.116C87.4266 19.116 87.3716 19.194 87.3716 19.35C87.3716 19.508 87.4266 19.587 87.5366 19.587C87.5906 19.587 87.6326 19.568 87.6626 19.53C87.6926 19.49 87.7076 19.43 87.7076 19.35C87.7076 19.194 87.6506 19.116 87.5366 19.116ZM88.3796 20.547C88.3796 20.393 88.4236 20.274 88.5116 20.19C88.6016 20.104 88.7166 20.061 88.8566 20.061C88.9966 20.061 89.1096 20.104 89.1956 20.19C89.2836 20.274 89.3276 20.393 89.3276 20.547C89.3276 20.701 89.2836 20.821 89.1956 20.907C89.1096 20.993 88.9966 21.036 88.8566 21.036C88.7146 21.036 88.5996 20.993 88.5116 20.907C88.4236 20.821 88.3796 20.701 88.3796 20.547ZM88.8536 20.313C88.7396 20.313 88.6826 20.391 88.6826 20.547C88.6826 20.705 88.7396 20.784 88.8536 20.784C88.9656 20.784 89.0216 20.705 89.0216 20.547C89.0216 20.391 88.9656 20.313 88.8536 20.313Z" fill="white"/>
<path fill-rule="evenodd" clip-rule="evenodd" d="M62.3556 29.5566L54.9745 17.7444C60.9133 14.1255 67.8822 12.0298 75.3384 12V25.867C70.5922 25.9251 66.1545 27.265 62.3556 29.5566V29.5566Z" fill="#299CDB"/>
<path d="M63.525 19.842C63.325 19.738 63.225 19.577 63.225 19.359C63.225 19.251 63.252 19.153 63.306 19.065C63.362 18.975 63.445 18.904 63.555 18.852C63.667 18.798 63.803 18.771 63.963 18.771C64.123 18.771 64.258 18.798 64.368 18.852C64.48 18.904 64.563 18.975 64.617 19.065C64.673 19.153 64.701 19.251 64.701 19.359C64.701 19.469 64.674 19.566 64.62 19.65C64.566 19.732 64.494 19.796 64.404 19.842C64.514 19.89 64.6 19.96 64.662 20.052C64.724 20.144 64.755 20.253 64.755 20.379C64.755 20.515 64.72 20.634 64.65 20.736C64.582 20.836 64.488 20.913 64.368 20.967C64.248 21.021 64.113 21.048 63.963 21.048C63.813 21.048 63.678 21.021 63.558 20.967C63.44 20.913 63.346 20.836 63.276 20.736C63.208 20.634 63.174 20.515 63.174 20.379C63.174 20.253 63.205 20.144 63.267 20.052C63.329 19.958 63.415 19.888 63.525 19.842ZM64.293 19.419C64.293 19.321 64.263 19.245 64.203 19.191C64.145 19.137 64.065 19.11 63.963 19.11C63.863 19.11 63.783 19.137 63.723 19.191C63.665 19.245 63.636 19.322 63.636 19.422C63.636 19.512 63.666 19.584 63.726 19.638C63.788 19.692 63.867 19.719 63.963 19.719C64.059 19.719 64.138 19.692 64.2 19.638C64.262 19.582 64.293 19.509 64.293 19.419ZM63.963 20.025C63.849 20.025 63.756 20.054 63.684 20.112C63.614 20.17 63.579 20.253 63.579 20.361C63.579 20.461 63.613 20.543 63.681 20.607C63.751 20.669 63.845 20.7 63.963 20.7C64.081 20.7 64.174 20.668 64.242 20.604C64.31 20.54 64.344 20.459 64.344 20.361C64.344 20.255 64.309 20.173 64.239 20.115C64.169 20.055 64.077 20.025 63.963 20.025ZM65.7207 21.021C65.6447 21.021 65.5817 20.998 65.5317 20.952C65.4837 20.904 65.4597 20.845 65.4597 20.775C65.4597 20.705 65.4837 20.647 65.5317 20.601C65.5817 20.553 65.6447 20.529 65.7207 20.529C65.7947 20.529 65.8557 20.553 65.9037 20.601C65.9517 20.647 65.9757 20.705 65.9757 20.775C65.9757 20.845 65.9517 20.904 65.9037 20.952C65.8557 20.998 65.7947 21.021 65.7207 21.021ZM68.058 19.131L67.26 21H66.834L67.638 19.179H66.612V18.819H68.058V19.131ZM68.6616 19.35C68.6616 19.198 68.7056 19.079 68.7936 18.993C68.8836 18.907 68.9986 18.864 69.1386 18.864C69.2786 18.864 69.3926 18.907 69.4806 18.993C69.5706 19.079 69.6156 19.198 69.6156 19.35C69.6156 19.504 69.5706 19.624 69.4806 19.71C69.3926 19.796 69.2786 19.839 69.1386 19.839C68.9986 19.839 68.8836 19.796 68.7936 19.71C68.7056 19.624 68.6616 19.504 68.6616 19.35ZM70.5876 18.9L69.4086 21H69.0006L70.1766 18.9H70.5876ZM69.1356 19.116C69.0256 19.116 68.9706 19.194 68.9706 19.35C68.9706 19.508 69.0256 19.587 69.1356 19.587C69.1896 19.587 69.2316 19.568 69.2616 19.53C69.2916 19.49 69.3066 19.43 69.3066 19.35C69.3066 19.194 69.2496 19.116 69.1356 19.116ZM69.9786 20.547C69.9786 20.393 70.0226 20.274 70.1106 20.19C70.2006 20.104 70.3156 20.061 70.4556 20.061C70.5956 20.061 70.7086 20.104 70.7946 20.19C70.8826 20.274 70.9266 20.393 70.9266 20.547C70.9266 20.701 70.8826 20.821 70.7946 20.907C70.7086 20.993 70.5956 21.036 70.4556 21.036C70.3136 21.036 70.1986 20.993 70.1106 20.907C70.0226 20.821 69.9786 20.701 69.9786 20.547ZM70.4526 20.313C70.3386 20.313 70.2816 20.391 70.2816 20.547C70.2816 20.705 70.3386 20.784 70.4526 20.784C70.5646 20.784 70.6206 20.705 70.6206 20.547C70.6206 20.391 70.5646 20.313 70.4526 20.313Z" fill="white"/>
</svg>
