<svg width="150" height="110" viewBox="0 0 150 110" fill="none" xmlns="http://www.w3.org/2000/svg">
<rect width="150" height="110" rx="16" fill="white"/>
<g opacity="0.65">
<path d="M115 51.3429V55.0229C114.995 63.6486 112.202 72.0416 107.037 78.9502C101.873 85.8588 94.6131 90.9128 86.3414 93.3585C78.0697 95.8042 69.229 95.5105 61.1379 92.5212C53.0467 89.532 46.1386 84.0073 41.4438 76.7712C36.7491 69.535 34.5192 60.9752 35.0867 52.3682C35.6542 43.7612 38.9888 35.5682 44.5931 29.0112C50.1974 22.4542 57.7711 17.8844 66.1848 15.9835C74.5984 14.0825 83.4011 14.9522 91.28 18.4629" stroke="#00AB55" stroke-width="5" stroke-linecap="round" stroke-linejoin="round"/>
<path d="M115 23.0234L75 63.0634L63 51.0634" stroke="#00AB55" stroke-width="5" stroke-linecap="round" stroke-linejoin="round"/>
</g>
</svg>
