<svg width="152" height="110" viewBox="0 0 152 110" fill="none" xmlns="http://www.w3.org/2000/svg">
<rect width="151.161" height="110" rx="16" fill="white"/>
<circle cx="23.4191" cy="23.4201" r="14.1935" fill="#2156A3"/>
<path d="M29.3331 23.421H26.9675L25.1933 28.7435L21.6449 18.0984L19.8707 23.421H17.5051" stroke="white" stroke-linecap="round" stroke-linejoin="round"/>
<rect x="9.22559" y="69.5488" width="7.09677" height="26.2581" rx="3.54839" fill="#EAECF2"/>
<rect x="22.709" y="80.1953" width="7.09677" height="15.6129" rx="3.54839" fill="#EAECF2"/>
<rect x="36.1934" y="73.8066" width="7.09677" height="22" rx="3.54839" fill="#EAECF2"/>
<rect x="49.6768" y="84.4531" width="7.09677" height="11.3548" rx="3.54839" fill="#EAECF2"/>
<rect x="63.1611" y="78.7754" width="7.09677" height="17.0323" rx="3.54839" fill="#EAECF2"/>
<rect x="76.6445" y="61.0332" width="7.09677" height="34.7742" rx="3.54839" fill="#EAECF2"/>
<rect x="90.1289" y="68.1289" width="7.09677" height="27.6774" rx="3.54839" fill="#EAECF2"/>
<rect x="103.612" y="75.2266" width="7.09677" height="20.5806" rx="3.54839" fill="#F75C4E"/>
<rect x="117.097" y="61.0332" width="7.09677" height="34.7742" rx="3.54839" fill="#F75C4E"/>
<rect x="130.58" y="51.0977" width="7.09677" height="44.7097" rx="3.54839" fill="#1F7CFF"/>
</svg>
