<svg width="152" height="110" viewBox="0 0 152 110" fill="none" xmlns="http://www.w3.org/2000/svg">
<rect width="151.161" height="110" rx="16" fill="white"/>
<g clip-path="url(#clip0_55_158)">
<path d="M24 27C24 23.134 27.134 20 31 20H97.9286C101.795 20 104.929 23.134 104.929 27V61.0766H24V27Z" fill="#EDF6F3"/>
<path d="M80.6572 32.2422C80.6594 39.1086 80.6482 45.9749 80.6775 52.8413C80.6797 53.5673 80.4588 53.7448 79.7714 53.7289C77.8623 53.6856 75.9487 53.6811 74.0396 53.7311C73.2868 53.7516 73.0434 53.5627 73.0479 52.7571C73.0817 45.918 73.0682 39.0812 73.0682 32.2422C75.5971 32.2422 78.1283 32.2422 80.6572 32.2422Z" fill="#0AB39C"/>
<path d="M24.0299 61.0523C50.7554 61.0496 77.4809 61.0469 104.209 61.0469C104.446 61.0469 104.681 61.0822 104.918 61.1013C104.92 61.1502 104.926 61.1992 104.934 61.2482C102.454 62.7443 100.389 64.6377 98.9583 67.1948C97.7567 69.3411 97.2662 71.6669 97.0482 74.0771C88.5548 74.0771 80.0614 74.0744 71.568 74.0744C68.8376 74.0717 66.11 74.0717 63.3797 74.069C61.3415 74.0663 59.3033 74.0663 57.2651 74.0635C48.2376 74.0663 39.2101 74.0826 30.1827 74.0608C26.7166 74.0527 24.0544 71.4031 24.0108 67.9592C23.9809 65.6578 24.0217 63.3564 24.0299 61.0523Z" fill="#0AB39C"/>
<path d="M125.142 67.7305C126.155 69.2294 126.545 70.9622 126.744 72.695C127.659 80.6546 121.981 88.0593 114.011 89.0686C107.572 89.8846 102.078 86.9848 98.9611 81.5469C98.8821 81.4082 98.8739 81.2259 98.833 81.0627C100.8 80.0779 102.768 79.0959 104.735 78.1112C105.247 78.7776 105.694 79.5094 106.28 80.1024C108.653 82.5017 112.651 83.1165 115.575 81.5877C118.839 79.8794 120.493 76.479 119.888 72.8855C119.757 72.1074 119.31 71.4464 119.24 70.6657C121.207 69.6864 123.174 68.7071 125.142 67.7305Z" fill="#2156A3"/>
<path d="M104.733 78.1101C102.765 79.0948 100.798 80.0768 98.8305 81.0616C97.8087 79.6389 97.5089 77.9713 97.2364 76.3038C97.1165 75.5693 97.1056 74.8212 97.043 74.0786C97.261 71.6684 97.7542 69.3425 98.9531 67.1962C100.384 64.6391 102.452 62.743 104.929 61.2496C107.155 60.2676 109.414 59.4324 111.915 59.631C111.913 61.8535 111.91 64.0733 111.907 66.2958C107.684 66.6875 104.863 69.0351 104.051 72.8707C103.67 74.6852 104.098 76.4153 104.733 78.1101Z" fill="#F7B84B"/>
<path d="M90.7498 47.1807C90.7498 49.0951 90.7335 51.0095 90.7592 52.9216C90.7662 53.4787 90.6562 53.7424 90.0009 53.7309C87.8733 53.6943 85.7434 53.7011 83.6158 53.7287C83.0564 53.7355 82.8528 53.5819 82.8575 53.0065C82.8786 49.1226 82.8786 45.2365 82.8598 41.3527C82.8575 40.8162 83.0564 40.6718 83.5737 40.6764C85.7317 40.697 87.8897 40.7039 90.0477 40.6741C90.6656 40.6649 90.7662 40.9194 90.7592 41.4421C90.7358 43.3542 90.7498 45.2686 90.7498 47.1807Z" fill="#F7B84B"/>
<path d="M57.2647 74.0664C59.3029 74.0691 61.3411 74.0691 63.3793 74.0718C63.3738 75.3667 63.8616 76.5664 64.1341 77.8068C64.8616 81.112 65.6654 84.4008 66.4393 87.6979C62.3384 87.6924 58.2347 87.687 54.1338 87.6815C55.1365 83.4406 56.1393 79.2023 57.1366 74.9614C57.2047 74.6676 57.2238 74.3656 57.2647 74.0664Z" fill="#0AB39C"/>
<path d="M54.1342 87.6805C58.2351 87.6859 62.3387 87.6913 66.4397 87.6968C69.2326 87.6968 72.0256 87.6968 74.8186 87.6968C77.023 87.6913 79.2302 87.6832 81.4346 87.6859C82.6472 87.6859 83.3311 88.2164 83.3556 89.1521C83.3829 90.1478 82.6799 90.7544 81.4455 90.7544C73.7423 90.7598 66.0418 90.7571 58.3386 90.7571C54.6737 90.7571 51.0087 90.7462 47.3438 90.7626C46.401 90.768 45.7634 90.4035 45.5399 89.4731C45.311 88.5102 46.0604 87.6995 47.2103 87.6913C49.5182 87.6696 51.8262 87.6805 54.1342 87.6805Z" fill="#0AB39C"/>
<path d="M74.816 87.6963C72.023 87.6963 69.23 87.6963 66.437 87.6963C65.6632 84.3993 64.8621 81.1105 64.1318 77.8053C63.8593 76.5676 63.3715 75.3679 63.377 74.0703C66.1073 74.073 68.8349 74.073 71.5652 74.0758C72.6497 78.6132 73.7342 83.1561 74.816 87.6963Z" fill="#0AA28D"/>
<path d="M92.6744 49.7692C92.6744 48.6553 92.6885 47.5392 92.6674 46.4254C92.658 45.9937 92.8079 45.8394 93.2691 45.8438C95.5143 45.8617 97.7596 45.8573 100.007 45.8461C100.419 45.8438 100.571 45.9825 100.569 46.3784C100.557 48.662 100.56 50.9479 100.567 53.2338C100.569 53.5872 100.433 53.7303 100.056 53.7281C97.7807 53.7192 95.5073 53.7147 93.2316 53.7326C92.7306 53.737 92.6651 53.5022 92.6697 53.113C92.6838 51.9969 92.6744 50.8831 92.6744 49.7692Z" fill="#2156A3"/>
<path d="M111.912 66.2911C111.915 64.0686 111.918 61.8488 111.921 59.6263C117.673 59.5502 121.842 62.2569 124.853 66.9847C124.994 67.2051 125.049 67.4798 125.144 67.7301C123.177 68.7067 121.207 69.686 119.24 70.6626C119.144 70.5674 119.027 70.4885 118.959 70.377C117.357 67.7274 114.956 66.4543 111.912 66.2911Z" fill="#0AB39C"/>
<path d="M59.0761 35.1978C59.4383 33.8997 59.7954 32.6016 60.1675 31.306C60.3783 30.5703 60.6834 29.8989 61.5789 29.8097C62.6381 29.7057 63.2259 30.0773 63.4492 31.1598C64.042 34.0112 64.5877 36.8724 65.1284 39.7361C65.2574 40.4124 64.6323 41.3116 63.9477 41.4082C63.1838 41.5172 62.6008 41.158 62.4049 40.4025C62.1296 39.3372 61.9311 38.2522 61.6707 37.0384C61.063 37.8881 61.0704 38.8641 60.7157 39.6989C60.6214 39.9219 60.5892 40.1721 60.4974 40.4C60.2022 41.1357 59.6813 41.5717 58.8578 41.4776C58.0641 41.3884 57.5977 40.8731 57.3745 40.1374C57.0545 39.092 56.7544 38.0392 56.2757 37.0161C56.0797 38.059 55.9036 39.1069 55.6853 40.1473C55.5142 40.9549 54.775 41.5519 54.1474 41.4454C53.2569 41.2967 52.7435 40.5635 52.9171 39.58C53.2917 37.4372 53.7059 35.2993 54.1003 33.159C54.1995 32.6165 54.3062 32.0739 54.3806 31.529C54.5145 30.5232 55.0726 29.8642 55.8664 29.8122C56.8511 29.7478 57.4266 30.2383 57.7342 31.3333C58.1013 32.6313 58.5031 33.922 58.8876 35.2151C58.9521 35.2077 59.0141 35.2027 59.0761 35.1978Z" fill="#2156A3"/>
<path d="M48.7954 45.0284C54.1151 45.0284 59.4373 45.0284 64.7571 45.0284C65.9294 45.0284 66.5058 45.4752 66.5082 46.3784C66.5107 47.2671 65.9098 47.7404 64.7423 47.7404C54.1004 47.7428 43.461 47.738 32.819 47.7477C32.0808 47.7477 31.4897 47.5617 31.188 46.8469C30.9256 46.2262 31.1978 45.7505 31.6271 45.3062C31.9483 44.9753 32.3481 45.0309 32.7405 45.0309C38.0922 45.0284 43.4438 45.0284 48.7954 45.0284Z" fill="#2156A3"/>
<path d="M46.0295 38.5451C46.0295 39.1847 46.0605 39.6737 46.0224 40.1578C45.9603 40.9283 45.3522 41.5161 44.6653 41.4667C43.914 41.4099 43.3893 40.9505 43.3798 40.1874C43.3368 37.1102 43.3321 34.0329 43.3869 30.9557C43.3989 30.3062 43.9092 29.8567 44.5937 29.837C45.574 29.8123 46.5637 29.7431 47.5344 29.8542C49.0131 30.0271 50.0458 30.8742 50.5109 32.3832C51.0237 34.0379 50.4871 35.3987 49.223 36.3668C48.424 36.9793 48.7627 37.3324 49.2063 37.8288C49.6285 38.3006 50.1102 38.7105 50.4465 39.2736C50.8639 39.9701 50.7327 40.5875 50.208 41.0987C49.6523 41.6396 49.0251 41.6025 48.4407 41.0962C47.5988 40.3701 47.098 39.3008 46.0295 38.5451ZM46.0438 33.4624C46.0295 33.9761 45.9126 34.5269 46.6902 34.4553C47.3103 34.396 47.9566 34.2725 47.9566 33.502C47.9566 32.8821 47.4581 32.6326 46.8428 32.5931C46.1607 32.5487 45.9174 32.8228 46.0438 33.4624Z" fill="#2156A3"/>
<path d="M31.0856 35.567C31.1278 33.2056 32.2112 31.4308 34.3356 30.4251C36.2539 29.5156 38.2292 29.5599 40.0779 30.7382C40.7612 31.1745 40.9873 32.052 40.627 32.6534C40.2096 33.3485 39.3673 33.5482 38.6094 33.1365C37.2229 32.3823 35.8066 32.4932 34.8549 33.4299C33.7368 34.5317 33.5629 35.8701 34.358 37.2825C35.2252 38.8256 37.2825 39.1633 38.6417 37.9604C39.2132 37.4551 39.7971 37.2357 40.4804 37.6794C41.0668 38.0615 41.3277 38.6802 41.0643 39.2791C40.7711 39.9496 40.1723 40.45 39.5139 40.8148C35.8762 42.8336 31.1129 40.0704 31.0881 35.9318C31.0831 35.8134 31.0856 35.6902 31.0856 35.567Z" fill="#2156A3"/>
<path d="M41.2222 51.0159C44.1431 51.0159 47.0639 51.0038 49.9872 51.0207C51.2327 51.028 51.8628 51.9884 51.3328 53.0214C51.0715 53.5318 50.6148 53.7302 50.0556 53.7302C44.2139 53.7302 38.3698 53.7375 32.5281 53.723C31.6513 53.7205 31.0432 53.0722 31.0872 52.3029C31.1287 51.5699 31.7393 51.0183 32.5501 51.0159C35.4416 51.0135 38.3307 51.0159 41.2222 51.0159Z" fill="#2156A3"/>
<path d="M111.912 66.291C114.959 66.4542 117.357 67.7273 118.959 70.3742C119.027 70.4857 119.144 70.5646 119.239 70.6598C119.31 71.4406 119.757 72.1016 119.888 72.8796C120.496 76.4731 118.839 79.8735 115.575 81.5819C112.651 83.1134 108.653 82.4986 106.28 80.0966C105.694 79.5035 105.245 78.7718 104.735 78.1053C104.1 76.4106 103.672 74.6804 104.057 72.8606C104.869 69.0331 107.689 66.6827 111.912 66.291Z" fill="#FEFEFD"/>
</g>
<defs>
<clipPath id="clip0_55_158">
<rect width="103" height="71" fill="white" transform="translate(24 20)"/>
</clipPath>
</defs>
</svg>
