<svg width="152" height="110" viewBox="0 0 152 110" fill="none" xmlns="http://www.w3.org/2000/svg">
<rect width="151.161" height="110" rx="16" fill="white"/>
<g clip-path="url(#clip0_491_338)">
<path d="M91.8649 53.3183C92.6719 53.3183 93.4807 53.2914 94.2859 53.3273C94.8233 53.3524 95.1127 53.1999 95.3427 52.6617C96.1281 50.8319 97.9183 49.8721 99.933 50.1089C101.711 50.317 103.215 51.7432 103.594 53.5802C104.033 55.7024 102.818 57.8444 100.771 58.5584C98.6947 59.2831 96.3816 58.4256 95.4703 56.4487C95.1181 55.6827 94.6921 55.5248 93.9408 55.5499C92.3502 55.602 90.7578 55.5786 89.1654 55.5589C88.7232 55.5535 88.5453 55.6881 88.477 56.1473C88.1355 58.431 87.2746 60.5066 85.8152 62.3059C85.4683 62.7329 85.648 62.9589 85.9464 63.2549C88.2074 65.4973 90.4594 67.7469 92.7151 69.9929C93.3495 70.6262 94.0001 71.2451 94.6148 71.8981C94.9132 72.2138 95.1252 72.2479 95.5153 71.9968C100.949 68.4968 107.945 71.5591 108.894 77.9437C109.732 83.5784 105.273 87.7458 100.553 87.8731C96.4912 87.9826 92.4383 85.0889 91.7373 80.4857C91.4156 78.3688 91.8523 76.3722 93.0619 74.589C93.3711 74.1334 93.3064 73.8876 92.9415 73.5234C90.0946 70.6944 87.2566 67.8564 84.4492 64.9879C83.9981 64.5268 83.7339 64.5519 83.2504 64.9233C81.5268 66.2454 79.5588 67.0347 77.411 67.3307C76.852 67.4079 76.6615 67.5891 76.6741 68.1667C76.7136 69.8476 76.7082 71.5303 76.6759 73.2113C76.6651 73.7423 76.8394 73.9934 77.3301 74.2069C79.1616 75.0052 80.1231 76.7704 79.8985 78.7922C79.7008 80.5646 78.2737 82.0823 76.4404 82.4662C74.316 82.9111 72.1718 81.7038 71.4529 79.6569C70.7142 77.5508 71.5949 75.2402 73.6025 74.3145C74.3016 73.9916 74.4796 73.6095 74.458 72.8955C74.4059 71.2828 74.431 69.6664 74.449 68.0537C74.4544 67.6249 74.3502 67.4258 73.8757 67.3541C71.4026 66.9827 69.1937 65.996 67.2993 64.3528C66.9183 64.0227 66.6901 64.0676 66.3611 64.4174C62.4214 68.6206 58.4728 72.8166 54.5115 77.0001C54.1431 77.3894 54.0927 77.671 54.3731 78.1554C55.8092 80.631 55.4245 83.7829 53.4816 85.889C51.5316 88.0041 48.424 88.5925 45.7676 87.3493C43.2316 86.1617 41.6751 83.3129 42.0562 80.5503C42.4498 77.6943 44.6299 75.3909 47.4247 74.8814C48.9345 74.607 50.3903 74.8115 51.7149 75.5649C52.281 75.8878 52.5506 75.7587 52.9407 75.3371C56.6629 71.3294 60.4013 67.3361 64.1415 63.3446C65.1336 62.2862 65.1354 62.2969 64.3931 61.0268C63.5358 59.5594 62.9427 57.9951 62.7432 56.2998C62.6785 55.7616 62.4772 55.532 61.893 55.5446C60.2575 55.5822 58.6201 55.584 56.9828 55.5446C56.3861 55.5302 56.0734 55.6988 55.8181 56.2675C55.0399 58.0005 53.4421 58.9279 51.4579 58.7647C49.6929 58.6194 48.4492 57.6417 47.804 56.002C46.9395 53.8062 47.9783 51.3629 50.1081 50.4336C52.2846 49.4846 54.7865 50.3798 55.7912 52.5469C56.0788 53.1658 56.4149 53.3416 57.0583 53.3237C58.6705 53.2788 60.2863 53.2896 61.9002 53.3201C62.4304 53.329 62.6731 53.1604 62.736 52.6258C62.9642 50.6489 63.6868 48.8478 64.8101 47.2189C65.1174 46.774 65.0114 46.548 64.6753 46.2143C61.7457 43.3099 58.8268 40.3948 55.9224 37.4635C55.5755 37.1136 55.3329 37.0903 54.8961 37.3164C49.9032 39.9122 44.0098 37.3989 42.4372 32.0242C40.8556 26.6191 45.0091 21.0453 50.6527 21.0328C54.2149 21.0256 56.9037 22.6186 58.5033 25.7562C60.1461 28.9763 59.7776 32.1426 57.5993 35.0452C57.2794 35.4722 57.3135 35.6713 57.6676 36.0211C60.5199 38.8448 63.3578 41.681 66.1832 44.5316C66.5427 44.894 66.7601 44.9334 67.1663 44.5818C69.0391 42.9529 71.2157 41.9519 73.678 41.611C74.2387 41.5339 74.476 41.3276 74.458 40.7123C74.4131 39.0762 74.4149 37.4383 74.4562 35.8023C74.4706 35.2175 74.2729 34.9394 73.7445 34.699C72.0083 33.9115 71.1258 32.3364 71.2211 30.3433C71.2948 28.77 72.4846 27.2129 74.041 26.6478C76.2859 25.8352 78.6745 26.881 79.6109 29.0894C80.5006 31.1865 79.5767 33.6693 77.4649 34.6577C76.861 34.9412 76.6525 35.2569 76.6723 35.9153C76.7226 37.5514 76.7064 39.1892 76.6795 40.8253C76.6723 41.3043 76.8358 41.5196 77.3014 41.5823C79.8122 41.9214 82.0283 42.9332 83.9478 44.58C84.309 44.8904 84.5139 44.7666 84.7799 44.4831C87.5298 41.5608 90.2851 38.6439 93.0404 35.7251C94.2715 34.4209 95.4937 33.1078 96.741 31.8197C97.0484 31.5022 97.14 31.2798 96.8866 30.851C95.4865 28.4848 95.6662 25.7221 97.3162 23.5282C98.8241 21.5243 101.569 20.5359 104.04 21.1996C106.774 21.9333 108.465 23.747 108.907 26.5294C109.306 29.0463 108.452 31.2062 106.376 32.7382C104.22 34.3295 101.865 34.4891 99.4675 33.2926C98.9499 33.0342 98.6965 33.0665 98.3029 33.4917C94.4009 37.7003 90.4792 41.8891 86.5395 46.0636C86.1189 46.5103 86.0902 46.8117 86.4407 47.3158C87.5784 48.9429 88.211 50.7835 88.4842 52.7388C88.5507 53.2107 88.7412 53.3308 89.1762 53.3201C90.0712 53.3021 90.9681 53.3183 91.8649 53.3183ZM75.4789 65.1511C81.4118 65.0668 86.2483 60.6232 86.243 54.3767C86.2394 48.5626 81.7623 43.8355 75.6892 43.7638C69.7167 43.6938 64.8838 48.2737 64.8892 54.47C64.8945 60.4079 69.4795 64.9556 75.4789 65.1511Z" fill="#2196F3" fill-opacity="0.7"/>
<path d="M75.5581 60.9488C73.8776 60.9488 72.1989 60.9524 70.5184 60.9488C69.3915 60.947 69.0465 60.5829 69.0662 59.4437C69.1219 56.2918 72.0102 53.3981 75.1717 53.3264C78.6513 53.2475 81.3131 55.3284 81.9799 58.6616C82.0446 58.9881 82.0626 59.3289 82.0643 59.6626C82.0661 60.5362 81.6725 60.9417 80.799 60.947C79.0521 60.956 77.3051 60.947 75.5581 60.9488Z" fill="#FFC444"/>
<path d="M75.599 45.7852C77.4521 45.7942 78.8504 47.2186 78.8414 49.0896C78.8324 50.9374 77.3999 52.3438 75.5325 52.3331C73.6831 52.3241 72.2884 50.8997 72.292 49.0251C72.2974 47.1809 73.7298 45.7762 75.599 45.7852Z" fill="#FFC444"/>
</g>
<defs>
<clipPath id="clip0_491_338">
<rect width="67" height="67" fill="white" transform="translate(42 21)"/>
</clipPath>
</defs>
</svg>
