<svg width="152" height="110" viewBox="0 0 152 110" fill="none" xmlns="http://www.w3.org/2000/svg">
<rect width="151.161" height="110" rx="16" fill="white"/>
<path d="M25.689 95.0087C25.689 95.2327 25.633 95.4474 25.521 95.6527C25.409 95.8534 25.2433 96.0214 25.024 96.1567C24.8093 96.292 24.5503 96.369 24.247 96.3877V96.9547H23.869V96.3877C23.4443 96.3504 23.099 96.215 22.833 95.9817C22.567 95.7437 22.4317 95.4427 22.427 95.0787H23.106C23.1247 95.2747 23.197 95.445 23.323 95.5897C23.4537 95.7344 23.6357 95.8254 23.869 95.8627V94.1127C23.5563 94.0334 23.3043 93.9517 23.113 93.8677C22.9217 93.7837 22.7583 93.653 22.623 93.4757C22.4877 93.2984 22.42 93.0604 22.42 92.7617C22.42 92.3837 22.5507 92.071 22.812 91.8237C23.078 91.5764 23.4303 91.4387 23.869 91.4107V90.8297H24.247V91.4107C24.6437 91.4434 24.9633 91.5717 25.206 91.7957C25.4487 92.015 25.5887 92.302 25.626 92.6567H24.947C24.9237 92.4934 24.8513 92.3464 24.73 92.2157C24.6087 92.0804 24.4477 91.9917 24.247 91.9497V93.6577C24.555 93.737 24.8047 93.8187 24.996 93.9027C25.192 93.982 25.3553 94.1104 25.486 94.2877C25.6213 94.465 25.689 94.7054 25.689 95.0087ZM23.071 92.7267C23.071 92.9554 23.1387 93.1304 23.274 93.2517C23.4093 93.373 23.6077 93.4734 23.869 93.5527V91.9357C23.6263 91.959 23.4327 92.0384 23.288 92.1737C23.1433 92.3044 23.071 92.4887 23.071 92.7267ZM24.247 95.8697C24.499 95.8417 24.695 95.7507 24.835 95.5967C24.9797 95.4427 25.052 95.2584 25.052 95.0437C25.052 94.815 24.982 94.64 24.842 94.5187C24.702 94.3927 24.5037 94.2924 24.247 94.2177V95.8697ZM26.7885 93.7627C26.7885 92.96 26.9192 92.3347 27.1805 91.8867C27.4418 91.434 27.8992 91.2077 28.5525 91.2077C29.2012 91.2077 29.6562 91.434 29.9175 91.8867C30.1788 92.3347 30.3095 92.96 30.3095 93.7627C30.3095 94.5794 30.1788 95.214 29.9175 95.6667C29.6562 96.1194 29.2012 96.3457 28.5525 96.3457C27.8992 96.3457 27.4418 96.1194 27.1805 95.6667C26.9192 95.214 26.7885 94.5794 26.7885 93.7627ZM29.6795 93.7627C29.6795 93.3567 29.6515 93.0137 29.5955 92.7337C29.5442 92.449 29.4345 92.2204 29.2665 92.0477C29.1032 91.875 28.8652 91.7887 28.5525 91.7887C28.2352 91.7887 27.9925 91.875 27.8245 92.0477C27.6612 92.2204 27.5515 92.449 27.4955 92.7337C27.4442 93.0137 27.4185 93.3567 27.4185 93.7627C27.4185 94.1827 27.4442 94.535 27.4955 94.8197C27.5515 95.1044 27.6612 95.333 27.8245 95.5057C27.9925 95.6784 28.2352 95.7647 28.5525 95.7647C28.8652 95.7647 29.1032 95.6784 29.2665 95.5057C29.4345 95.333 29.5442 95.1044 29.5955 94.8197C29.6515 94.535 29.6795 94.1827 29.6795 93.7627ZM33.431 96.3457L31.926 94.6517V96.3457H31.289V91.1657H31.926V94.2107L33.403 92.5097H34.292L32.486 94.4207L34.299 96.3457H33.431Z" fill="#ADB5BD"/>
<path d="M15.689 76.0087C15.689 76.2327 15.633 76.4474 15.521 76.6527C15.409 76.8534 15.2433 77.0214 15.024 77.1567C14.8093 77.292 14.5503 77.369 14.247 77.3877V77.9547H13.869V77.3877C13.4443 77.3504 13.099 77.215 12.833 76.9817C12.567 76.7437 12.4317 76.4427 12.427 76.0787H13.106C13.1247 76.2747 13.197 76.445 13.323 76.5897C13.4537 76.7344 13.6357 76.8254 13.869 76.8627V75.1127C13.5563 75.0334 13.3043 74.9517 13.113 74.8677C12.9217 74.7837 12.7583 74.653 12.623 74.4757C12.4877 74.2984 12.42 74.0604 12.42 73.7617C12.42 73.3837 12.5507 73.071 12.812 72.8237C13.078 72.5764 13.4303 72.4387 13.869 72.4107V71.8297H14.247V72.4107C14.6437 72.4434 14.9633 72.5717 15.206 72.7957C15.4487 73.015 15.5887 73.302 15.626 73.6567H14.947C14.9237 73.4934 14.8513 73.3464 14.73 73.2157C14.6087 73.0804 14.4477 72.9917 14.247 72.9497V74.6577C14.555 74.737 14.8047 74.8187 14.996 74.9027C15.192 74.982 15.3553 75.1104 15.486 75.2877C15.6213 75.465 15.689 75.7054 15.689 76.0087ZM13.071 73.7267C13.071 73.9554 13.1387 74.1304 13.274 74.2517C13.4093 74.373 13.6077 74.4734 13.869 74.5527V72.9357C13.6263 72.959 13.4327 73.0384 13.288 73.1737C13.1433 73.3044 13.071 73.4887 13.071 73.7267ZM14.247 76.8697C14.499 76.8417 14.695 76.7507 14.835 76.5967C14.9797 76.4427 15.052 76.2584 15.052 76.0437C15.052 75.815 14.982 75.64 14.842 75.5187C14.702 75.3927 14.5037 75.2924 14.247 75.2177V76.8697ZM17.7075 75.9877C17.7542 76.2537 17.8615 76.459 18.0295 76.6037C18.2022 76.7484 18.4332 76.8207 18.7225 76.8207C19.1098 76.8207 19.3945 76.669 19.5765 76.3657C19.7632 76.0624 19.8518 75.5514 19.8425 74.8327C19.7445 75.0427 19.5812 75.2084 19.3525 75.3297C19.1238 75.4464 18.8695 75.5047 18.5895 75.5047C18.2768 75.5047 17.9968 75.4417 17.7495 75.3157C17.5068 75.185 17.3155 74.996 17.1755 74.7487C17.0355 74.5014 16.9655 74.2027 16.9655 73.8527C16.9655 73.3534 17.1102 72.952 17.3995 72.6487C17.6888 72.3407 18.0995 72.1867 18.6315 72.1867C19.2848 72.1867 19.7422 72.399 20.0035 72.8237C20.2695 73.2484 20.4025 73.8807 20.4025 74.7207C20.4025 75.3087 20.3488 75.794 20.2415 76.1767C20.1388 76.5594 19.9615 76.851 19.7095 77.0517C19.4622 77.2524 19.1215 77.3527 18.6875 77.3527C18.2115 77.3527 17.8405 77.2244 17.5745 76.9677C17.3085 76.711 17.1568 76.3844 17.1195 75.9877H17.7075ZM18.6945 74.9657C19.0072 74.9657 19.2638 74.87 19.4645 74.6787C19.6652 74.4827 19.7655 74.219 19.7655 73.8877C19.7655 73.5377 19.6675 73.2554 19.4715 73.0407C19.2755 72.826 19.0002 72.7187 18.6455 72.7187C18.3188 72.7187 18.0575 72.8214 17.8615 73.0267C17.6702 73.232 17.5745 73.5027 17.5745 73.8387C17.5745 74.1794 17.6702 74.4524 17.8615 74.6577C18.0528 74.863 18.3305 74.9657 18.6945 74.9657ZM21.7057 77.3877C21.5843 77.3877 21.4817 77.3457 21.3977 77.2617C21.3137 77.1777 21.2717 77.075 21.2717 76.9537C21.2717 76.8324 21.3137 76.7297 21.3977 76.6457C21.4817 76.5617 21.5843 76.5197 21.7057 76.5197C21.8223 76.5197 21.9203 76.5617 21.9997 76.6457C22.0837 76.7297 22.1257 76.8324 22.1257 76.9537C22.1257 77.075 22.0837 77.1777 21.9997 77.2617C21.9203 77.3457 21.8223 77.3877 21.7057 77.3877ZM22.8904 76.8347C23.4831 76.3587 23.9474 75.969 24.2834 75.6657C24.6194 75.3577 24.9017 75.038 25.1304 74.7067C25.3637 74.3707 25.4804 74.0417 25.4804 73.7197C25.4804 73.4164 25.4057 73.1784 25.2564 73.0057C25.1117 72.8284 24.8761 72.7397 24.5494 72.7397C24.2321 72.7397 23.9847 72.84 23.8074 73.0407C23.6347 73.2367 23.5414 73.5004 23.5274 73.8317H22.9114C22.9301 73.309 23.0887 72.9054 23.3874 72.6207C23.6861 72.336 24.0711 72.1937 24.5424 72.1937C25.0231 72.1937 25.4034 72.3267 25.6834 72.5927C25.9681 72.8587 26.1104 73.225 26.1104 73.6917C26.1104 74.079 25.9937 74.457 25.7604 74.8257C25.5317 75.1897 25.2704 75.5117 24.9764 75.7917C24.6824 76.067 24.3067 76.389 23.8494 76.7577H26.2574V77.2897H22.8904V76.8347ZM30.3208 72.8377H27.8638V74.4337C27.9711 74.2844 28.1298 74.163 28.3398 74.0697C28.5498 73.9717 28.7761 73.9227 29.0188 73.9227C29.4061 73.9227 29.7211 74.0044 29.9638 74.1677C30.2064 74.3264 30.3791 74.534 30.4818 74.7907C30.5891 75.0427 30.6428 75.311 30.6428 75.5957C30.6428 75.9317 30.5798 76.2327 30.4538 76.4987C30.3278 76.7647 30.1341 76.9747 29.8728 77.1287C29.6161 77.2827 29.2964 77.3597 28.9138 77.3597C28.4238 77.3597 28.0271 77.2337 27.7238 76.9817C27.4204 76.7297 27.2361 76.3937 27.1708 75.9737H27.7938C27.8544 76.2397 27.9828 76.4474 28.1788 76.5967C28.3748 76.746 28.6221 76.8207 28.9208 76.8207C29.2894 76.8207 29.5671 76.711 29.7538 76.4917C29.9404 76.2677 30.0338 75.9737 30.0338 75.6097C30.0338 75.2457 29.9404 74.9657 29.7538 74.7697C29.5671 74.569 29.2918 74.4687 28.9278 74.4687C28.6804 74.4687 28.4634 74.5294 28.2768 74.6507C28.0948 74.7674 27.9618 74.9284 27.8778 75.1337H27.2758V72.2777H30.3208V72.8377ZM33.8363 77.3457L32.3313 75.6517V77.3457H31.6943V72.1657H32.3313V75.2107L33.8083 73.5097H34.6973L32.8913 75.4207L34.7043 77.3457H33.8363Z" fill="#ADB5BD"/>
<path d="M16.689 56.0087C16.689 56.2327 16.633 56.4474 16.521 56.6527C16.409 56.8534 16.2433 57.0214 16.024 57.1567C15.8093 57.292 15.5503 57.369 15.247 57.3877V57.9547H14.869V57.3877C14.4443 57.3504 14.099 57.215 13.833 56.9817C13.567 56.7437 13.4317 56.4427 13.427 56.0787H14.106C14.1247 56.2747 14.197 56.445 14.323 56.5897C14.4537 56.7344 14.6357 56.8254 14.869 56.8627V55.1127C14.5563 55.0334 14.3043 54.9517 14.113 54.8677C13.9217 54.7837 13.7583 54.653 13.623 54.4757C13.4877 54.2984 13.42 54.0604 13.42 53.7617C13.42 53.3837 13.5507 53.071 13.812 52.8237C14.078 52.5764 14.4303 52.4387 14.869 52.4107V51.8297H15.247V52.4107C15.6437 52.4434 15.9633 52.5717 16.206 52.7957C16.4487 53.015 16.5887 53.302 16.626 53.6567H15.947C15.9237 53.4934 15.8513 53.3464 15.73 53.2157C15.6087 53.0804 15.4477 52.9917 15.247 52.9497V54.6577C15.555 54.737 15.8047 54.8187 15.996 54.9027C16.192 54.982 16.3553 55.1104 16.486 55.2877C16.6213 55.465 16.689 55.7054 16.689 56.0087ZM14.071 53.7267C14.071 53.9554 14.1387 54.1304 14.274 54.2517C14.4093 54.373 14.6077 54.4734 14.869 54.5527V52.9357C14.6263 52.959 14.4327 53.0384 14.288 53.1737C14.1433 53.3044 14.071 53.4887 14.071 53.7267ZM15.247 56.8697C15.499 56.8417 15.695 56.7507 15.835 56.5967C15.9797 56.4427 16.052 56.2584 16.052 56.0437C16.052 55.815 15.982 55.64 15.842 55.5187C15.702 55.3927 15.5037 55.2924 15.247 55.2177V56.8697ZM17.8205 52.8657V52.2847H19.1365V57.3457H18.4925V52.8657H17.8205ZM21.3547 54.7137C21.0933 54.611 20.8927 54.4617 20.7527 54.2657C20.6127 54.0697 20.5427 53.8317 20.5427 53.5517C20.5427 53.2997 20.6057 53.0734 20.7317 52.8727C20.8577 52.6674 21.0443 52.5064 21.2917 52.3897C21.5437 52.2684 21.847 52.2077 22.2017 52.2077C22.5563 52.2077 22.8573 52.2684 23.1047 52.3897C23.3567 52.5064 23.5457 52.6674 23.6717 52.8727C23.8023 53.0734 23.8677 53.2997 23.8677 53.5517C23.8677 53.8224 23.7953 54.0604 23.6507 54.2657C23.506 54.4664 23.3077 54.6157 23.0557 54.7137C23.345 54.8024 23.5737 54.9587 23.7417 55.1827C23.9143 55.402 24.0007 55.668 24.0007 55.9807C24.0007 56.284 23.926 56.55 23.7767 56.7787C23.6273 57.0027 23.415 57.1777 23.1397 57.3037C22.869 57.425 22.5563 57.4857 22.2017 57.4857C21.847 57.4857 21.5343 57.425 21.2637 57.3037C20.9977 57.1777 20.79 57.0027 20.6407 56.7787C20.4913 56.55 20.4167 56.284 20.4167 55.9807C20.4167 55.668 20.5007 55.3997 20.6687 55.1757C20.8367 54.9517 21.0653 54.7977 21.3547 54.7137ZM23.2517 53.6287C23.2517 53.344 23.1583 53.1247 22.9717 52.9707C22.785 52.8167 22.5283 52.7397 22.2017 52.7397C21.8797 52.7397 21.6253 52.8167 21.4387 52.9707C21.252 53.1247 21.1587 53.3464 21.1587 53.6357C21.1587 53.897 21.2543 54.107 21.4457 54.2657C21.6417 54.4244 21.8937 54.5037 22.2017 54.5037C22.5143 54.5037 22.7663 54.4244 22.9577 54.2657C23.1537 54.1024 23.2517 53.89 23.2517 53.6287ZM22.2017 54.9937C21.8563 54.9937 21.574 55.0754 21.3547 55.2387C21.1353 55.3974 21.0257 55.6377 21.0257 55.9597C21.0257 56.2584 21.1307 56.4987 21.3407 56.6807C21.5553 56.8627 21.8423 56.9537 22.2017 56.9537C22.561 56.9537 22.8457 56.8627 23.0557 56.6807C23.2657 56.4987 23.3707 56.2584 23.3707 55.9597C23.3707 55.647 23.2633 55.409 23.0487 55.2457C22.834 55.0777 22.5517 54.9937 22.2017 54.9937ZM25.3547 57.3877C25.2334 57.3877 25.1307 57.3457 25.0467 57.2617C24.9627 57.1777 24.9207 57.075 24.9207 56.9537C24.9207 56.8324 24.9627 56.7297 25.0467 56.6457C25.1307 56.5617 25.2334 56.5197 25.3547 56.5197C25.4714 56.5197 25.5694 56.5617 25.6487 56.6457C25.7327 56.7297 25.7747 56.8324 25.7747 56.9537C25.7747 57.075 25.7327 57.1777 25.6487 57.2617C25.5694 57.3457 25.4714 57.3877 25.3547 57.3877ZM29.9434 52.8377H27.4864V54.4337C27.5938 54.2844 27.7524 54.163 27.9624 54.0697C28.1724 53.9717 28.3988 53.9227 28.6414 53.9227C29.0288 53.9227 29.3438 54.0044 29.5864 54.1677C29.8291 54.3264 30.0018 54.534 30.1044 54.7907C30.2118 55.0427 30.2654 55.311 30.2654 55.5957C30.2654 55.9317 30.2024 56.2327 30.0764 56.4987C29.9504 56.7647 29.7568 56.9747 29.4954 57.1287C29.2388 57.2827 28.9191 57.3597 28.5364 57.3597C28.0464 57.3597 27.6498 57.2337 27.3464 56.9817C27.0431 56.7297 26.8588 56.3937 26.7934 55.9737H27.4164C27.4771 56.2397 27.6054 56.4474 27.8014 56.5967C27.9974 56.746 28.2448 56.8207 28.5434 56.8207C28.9121 56.8207 29.1898 56.711 29.3764 56.4917C29.5631 56.2677 29.6564 55.9737 29.6564 55.6097C29.6564 55.2457 29.5631 54.9657 29.3764 54.7697C29.1898 54.569 28.9144 54.4687 28.5504 54.4687C28.3031 54.4687 28.0861 54.5294 27.8994 54.6507C27.7174 54.7674 27.5844 54.9284 27.5004 55.1337H26.8984V52.2777H29.9434V52.8377ZM33.5589 57.3457L32.0539 55.6517V57.3457H31.4169V52.1657H32.0539V55.2107L33.5309 53.5097H34.4199L32.6139 55.4207L34.4269 57.3457H33.5589Z" fill="#ADB5BD"/>
<path d="M11.689 36.0087C11.689 36.2327 11.633 36.4474 11.521 36.6527C11.409 36.8534 11.2433 37.0214 11.024 37.1567C10.8093 37.292 10.5503 37.369 10.247 37.3877V37.9547H9.869V37.3877C9.44433 37.3504 9.099 37.215 8.833 36.9817C8.567 36.7437 8.43167 36.4427 8.427 36.0787H9.106C9.12467 36.2747 9.197 36.445 9.323 36.5897C9.45367 36.7344 9.63567 36.8254 9.869 36.8627V35.1127C9.55633 35.0334 9.30433 34.9517 9.113 34.8677C8.92167 34.7837 8.75833 34.653 8.623 34.4757C8.48767 34.2984 8.42 34.0604 8.42 33.7617C8.42 33.3837 8.55067 33.071 8.812 32.8237C9.078 32.5764 9.43033 32.4387 9.869 32.4107V31.8297H10.247V32.4107C10.6437 32.4434 10.9633 32.5717 11.206 32.7957C11.4487 33.015 11.5887 33.302 11.626 33.6567H10.947C10.9237 33.4934 10.8513 33.3464 10.73 33.2157C10.6087 33.0804 10.4477 32.9917 10.247 32.9497V34.6577C10.555 34.737 10.8047 34.8187 10.996 34.9027C11.192 34.982 11.3553 35.1104 11.486 35.2877C11.6213 35.465 11.689 35.7054 11.689 36.0087ZM9.071 33.7267C9.071 33.9554 9.13867 34.1304 9.274 34.2517C9.40933 34.373 9.60767 34.4734 9.869 34.5527V32.9357C9.62633 32.959 9.43267 33.0384 9.288 33.1737C9.14333 33.3044 9.071 33.4887 9.071 33.7267ZM10.247 36.8697C10.499 36.8417 10.695 36.7507 10.835 36.5967C10.9797 36.4427 11.052 36.2584 11.052 36.0437C11.052 35.815 10.982 35.64 10.842 35.5187C10.702 35.3927 10.5037 35.2924 10.247 35.2177V36.8697ZM12.9115 36.8347C13.5042 36.3587 13.9685 35.969 14.3045 35.6657C14.6405 35.3577 14.9228 35.038 15.1515 34.7067C15.3848 34.3707 15.5015 34.0417 15.5015 33.7197C15.5015 33.4164 15.4268 33.1784 15.2775 33.0057C15.1328 32.8284 14.8972 32.7397 14.5705 32.7397C14.2532 32.7397 14.0058 32.84 13.8285 33.0407C13.6558 33.2367 13.5625 33.5004 13.5485 33.8317H12.9325C12.9512 33.309 13.1098 32.9054 13.4085 32.6207C13.7072 32.336 14.0922 32.1937 14.5635 32.1937C15.0442 32.1937 15.4245 32.3267 15.7045 32.5927C15.9892 32.8587 16.1315 33.225 16.1315 33.6917C16.1315 34.079 16.0148 34.457 15.7815 34.8257C15.5528 35.1897 15.2915 35.5117 14.9975 35.7917C14.7035 36.067 14.3278 36.389 13.8705 36.7577H16.2785V37.2897H12.9115V36.8347ZM20.3299 32.7817L18.3839 37.3457H17.7399L19.7139 32.8447H17.0119V32.2987H20.3299V32.7817ZM21.5441 37.3877C21.4228 37.3877 21.3201 37.3457 21.2361 37.2617C21.1521 37.1777 21.1101 37.075 21.1101 36.9537C21.1101 36.8324 21.1521 36.7297 21.2361 36.6457C21.3201 36.5617 21.4228 36.5197 21.5441 36.5197C21.6608 36.5197 21.7588 36.5617 21.8381 36.6457C21.9221 36.7297 21.9641 36.8324 21.9641 36.9537C21.9641 37.075 21.9221 37.1777 21.8381 37.2617C21.7588 37.3457 21.6608 37.3877 21.5441 37.3877ZM26.0209 32.7817L24.0749 37.3457H23.4309L25.4049 32.8447H22.7029V32.2987H26.0209V32.7817ZM30.1542 32.8377H27.6972V34.4337C27.8045 34.2844 27.9632 34.163 28.1732 34.0697C28.3832 33.9717 28.6095 33.9227 28.8522 33.9227C29.2395 33.9227 29.5545 34.0044 29.7972 34.1677C30.0398 34.3264 30.2125 34.534 30.3152 34.7907C30.4225 35.0427 30.4762 35.311 30.4762 35.5957C30.4762 35.9317 30.4132 36.2327 30.2872 36.4987C30.1612 36.7647 29.9675 36.9747 29.7062 37.1287C29.4495 37.2827 29.1298 37.3597 28.7472 37.3597C28.2572 37.3597 27.8605 37.2337 27.5572 36.9817C27.2538 36.7297 27.0695 36.3937 27.0042 35.9737H27.6272C27.6878 36.2397 27.8162 36.4474 28.0122 36.5967C28.2082 36.746 28.4555 36.8207 28.7542 36.8207C29.1228 36.8207 29.4005 36.711 29.5872 36.4917C29.7738 36.2677 29.8672 35.9737 29.8672 35.6097C29.8672 35.2457 29.7738 34.9657 29.5872 34.7697C29.4005 34.569 29.1252 34.4687 28.7612 34.4687C28.5138 34.4687 28.2968 34.5294 28.1102 34.6507C27.9282 34.7674 27.7952 34.9284 27.7112 35.1337H27.1092V32.2777H30.1542V32.8377ZM33.7697 37.3457L32.2647 35.6517V37.3457H31.6277V32.1657H32.2647V35.2107L33.7417 33.5097H34.6307L32.8247 35.4207L34.6377 37.3457H33.7697Z" fill="#ADB5BD"/>
<rect x="37.9121" y="96.1504" width="105.643" height="0.731092" fill="#F3F6F9"/>
<rect x="37.9121" y="75.6816" width="105.643" height="0.365546" fill="#F3F6F9"/>
<rect x="37.9121" y="55.5762" width="105.643" height="0.365546" fill="#F3F6F9"/>
<rect x="37.9121" y="35.4707" width="105.643" height="0.365546" fill="#F3F6F9"/>
<rect x="37.9121" y="15" width="105.643" height="0.365546" fill="#F3F6F9"/>
<rect x="102.248" y="56.6719" width="20.8361" height="39.479" fill="#F7B84B"/>
<path d="M110.88 77.8242V77.3042H111.92V80.9492H111.345V77.8242H110.88ZM113.518 79.0442C113.172 78.8709 112.998 78.5976 112.998 78.2242C112.998 78.0442 113.043 77.8792 113.133 77.7292C113.223 77.5792 113.358 77.4609 113.538 77.3742C113.718 77.2842 113.938 77.2392 114.198 77.2392C114.455 77.2392 114.673 77.2842 114.853 77.3742C115.037 77.4609 115.173 77.5792 115.263 77.7292C115.353 77.8792 115.398 78.0442 115.398 78.2242C115.398 78.4109 115.35 78.5759 115.253 78.7192C115.16 78.8592 115.035 78.9676 114.878 79.0442C115.068 79.1142 115.218 79.2292 115.328 79.3892C115.438 79.5459 115.493 79.7309 115.493 79.9442C115.493 80.1609 115.438 80.3526 115.328 80.5192C115.218 80.6859 115.065 80.8142 114.868 80.9042C114.672 80.9942 114.448 81.0392 114.198 81.0392C113.948 81.0392 113.725 80.9942 113.528 80.9042C113.335 80.8142 113.183 80.6859 113.073 80.5192C112.963 80.3526 112.908 80.1609 112.908 79.9442C112.908 79.7276 112.963 79.5409 113.073 79.3842C113.183 79.2276 113.332 79.1142 113.518 79.0442ZM114.853 78.2942C114.853 78.1076 114.795 77.9642 114.678 77.8642C114.562 77.7642 114.402 77.7142 114.198 77.7142C113.998 77.7142 113.84 77.7642 113.723 77.8642C113.607 77.9642 113.548 78.1092 113.548 78.2992C113.548 78.4659 113.608 78.6026 113.728 78.7092C113.852 78.8126 114.008 78.8642 114.198 78.8642C114.388 78.8642 114.545 78.8109 114.668 78.7042C114.792 78.5976 114.853 78.4609 114.853 78.2942ZM114.198 79.2942C113.978 79.2942 113.798 79.3492 113.658 79.4592C113.522 79.5659 113.453 79.7209 113.453 79.9242C113.453 80.1142 113.52 80.2692 113.653 80.3892C113.787 80.5059 113.968 80.5642 114.198 80.5642C114.425 80.5642 114.603 80.5042 114.733 80.3842C114.867 80.2642 114.933 80.1109 114.933 79.9242C114.933 79.7242 114.865 79.5692 114.728 79.4592C114.595 79.3492 114.418 79.2942 114.198 79.2942Z" fill="white"/>
<rect x="79.584" y="69.8318" width="20.8361" height="26.3193" fill="#0AB39C"/>
<path d="M88.2162 84.0386V83.5186H89.2562V87.1636H88.6812V84.0386H88.2162ZM90.5543 86.3886C90.8743 86.1119 91.1259 85.8852 91.3093 85.7086C91.4959 85.5286 91.6509 85.3419 91.7743 85.1486C91.8976 84.9552 91.9593 84.7619 91.9593 84.5686C91.9593 84.3686 91.9109 84.2119 91.8143 84.0986C91.7209 83.9852 91.5726 83.9286 91.3693 83.9286C91.1726 83.9286 91.0193 83.9919 90.9093 84.1186C90.8026 84.2419 90.7459 84.4086 90.7393 84.6186H90.1893C90.1993 84.2386 90.3126 83.9486 90.5293 83.7486C90.7493 83.5452 91.0276 83.4436 91.3643 83.4436C91.7276 83.4436 92.0109 83.5436 92.2143 83.7436C92.4209 83.9436 92.5243 84.2102 92.5243 84.5436C92.5243 84.7836 92.4626 85.0152 92.3393 85.2386C92.2193 85.4586 92.0743 85.6569 91.9043 85.8336C91.7376 86.0069 91.5243 86.2086 91.2643 86.4386L91.0393 86.6386H92.6243V87.1136H90.1943V86.6986L90.5543 86.3886Z" fill="white"/>
<rect x="56" y="15.3672" width="20.8361" height="80.7857" fill="#405189"/>
<path d="M63.29 57.6007C63.31 57.2907 63.4283 57.049 63.645 56.8757C63.865 56.7024 64.145 56.6157 64.485 56.6157C64.7183 56.6157 64.92 56.6574 65.09 56.7407C65.26 56.824 65.3883 56.9374 65.475 57.0807C65.5617 57.224 65.605 57.3857 65.605 57.5657C65.605 57.7724 65.55 57.949 65.44 58.0957C65.33 58.2424 65.1983 58.3407 65.045 58.3907V58.4107C65.2417 58.4707 65.395 58.5807 65.505 58.7407C65.615 58.8974 65.67 59.099 65.67 59.3457C65.67 59.5424 65.625 59.7174 65.535 59.8707C65.445 60.024 65.3117 60.1457 65.135 60.2357C64.9583 60.3224 64.7467 60.3657 64.5 60.3657C64.14 60.3657 63.8433 60.274 63.61 60.0907C63.38 59.904 63.2567 59.6374 63.24 59.2907H63.79C63.8033 59.4674 63.8717 59.6124 63.995 59.7257C64.1183 59.8357 64.285 59.8907 64.495 59.8907C64.6983 59.8907 64.855 59.8357 64.965 59.7257C65.075 59.6124 65.13 59.4674 65.13 59.2907C65.13 59.0574 65.055 58.8924 64.905 58.7957C64.7583 58.6957 64.5317 58.6457 64.225 58.6457H64.095V58.1757H64.23C64.5 58.1724 64.705 58.1274 64.845 58.0407C64.9883 57.954 65.06 57.8174 65.06 57.6307C65.06 57.4707 65.0083 57.344 64.905 57.2507C64.8017 57.154 64.655 57.1057 64.465 57.1057C64.2783 57.1057 64.1333 57.154 64.03 57.2507C63.9267 57.344 63.865 57.4607 63.845 57.6007H63.29ZM68.7788 57.1407L67.3888 60.3457H66.8138L68.2188 57.2007H66.3688V56.7157H68.7788V57.1407Z" fill="white"/>
<path d="M23.689 16.663C23.689 16.887 23.633 17.1017 23.521 17.307C23.409 17.5077 23.2433 17.6757 23.024 17.811C22.8093 17.9463 22.5503 18.0233 22.247 18.042V18.609H21.869V18.042C21.4443 18.0047 21.099 17.8693 20.833 17.636C20.567 17.398 20.4317 17.097 20.427 16.733H21.106C21.1247 16.929 21.197 17.0993 21.323 17.244C21.4537 17.3887 21.6357 17.4797 21.869 17.517V15.767C21.5563 15.6877 21.3043 15.606 21.113 15.522C20.9217 15.438 20.7583 15.3073 20.623 15.13C20.4877 14.9527 20.42 14.7147 20.42 14.416C20.42 14.038 20.5507 13.7253 20.812 13.478C21.078 13.2307 21.4303 13.093 21.869 13.065V12.484H22.247V13.065C22.6437 13.0977 22.9633 13.226 23.206 13.45C23.4487 13.6693 23.5887 13.9563 23.626 14.311H22.947C22.9237 14.1477 22.8513 14.0007 22.73 13.87C22.6087 13.7347 22.4477 13.646 22.247 13.604V15.312C22.555 15.3913 22.8047 15.473 22.996 15.557C23.192 15.6363 23.3553 15.7647 23.486 15.942C23.6213 16.1193 23.689 16.3597 23.689 16.663ZM21.071 14.381C21.071 14.6097 21.1387 14.7847 21.274 14.906C21.4093 15.0273 21.6077 15.1277 21.869 15.207V13.59C21.6263 13.6133 21.4327 13.6927 21.288 13.828C21.1433 13.9587 21.071 14.143 21.071 14.381ZM22.247 17.524C22.499 17.496 22.695 17.405 22.835 17.251C22.9797 17.097 23.052 16.9127 23.052 16.698C23.052 16.4693 22.982 16.2943 22.842 16.173C22.702 16.047 22.5037 15.9467 22.247 15.872V17.524ZM24.9745 14.213C25.0072 13.7837 25.1728 13.4477 25.4715 13.205C25.7702 12.9623 26.1575 12.841 26.6335 12.841C26.9508 12.841 27.2238 12.8993 27.4525 13.016C27.6858 13.128 27.8608 13.282 27.9775 13.478C28.0988 13.674 28.1595 13.8957 28.1595 14.143C28.1595 14.4323 28.0755 14.682 27.9075 14.892C27.7442 15.102 27.5295 15.2373 27.2635 15.298V15.333C27.5668 15.4077 27.8072 15.5547 27.9845 15.774C28.1618 15.9933 28.2505 16.2803 28.2505 16.635C28.2505 16.901 28.1898 17.1413 28.0685 17.356C27.9472 17.566 27.7652 17.7317 27.5225 17.853C27.2798 17.9743 26.9882 18.035 26.6475 18.035C26.1528 18.035 25.7468 17.9067 25.4295 17.65C25.1122 17.3887 24.9348 17.02 24.8975 16.544H25.5135C25.5462 16.824 25.6605 17.0527 25.8565 17.23C26.0525 17.4073 26.3138 17.496 26.6405 17.496C26.9672 17.496 27.2145 17.412 27.3825 17.244C27.5552 17.0713 27.6415 16.8497 27.6415 16.579C27.6415 16.229 27.5248 15.977 27.2915 15.823C27.0582 15.669 26.7058 15.592 26.2345 15.592H26.0735V15.06H26.2415C26.6708 15.0553 26.9952 14.9853 27.2145 14.85C27.4338 14.71 27.5435 14.4953 27.5435 14.206C27.5435 13.9587 27.4618 13.7603 27.2985 13.611C27.1398 13.4617 26.9112 13.387 26.6125 13.387C26.3232 13.387 26.0898 13.4617 25.9125 13.611C25.7352 13.7603 25.6302 13.961 25.5975 14.213H24.9745ZM32.4256 13.436L30.4796 18H29.8356L31.8096 13.499H29.1076V12.953H32.4256V13.436ZM35.5789 18L34.0739 16.306V18H33.4369V12.82H34.0739V15.865L35.5509 14.164H36.4399L34.6339 16.075L36.4469 18H35.5789Z" fill="#ADB5BD"/>
</svg>
