<svg width="152" height="110" viewBox="0 0 152 110" fill="none" xmlns="http://www.w3.org/2000/svg">
<rect width="151.161" height="110" rx="16" fill="white"/>
<path fill-rule="evenodd" clip-rule="evenodd" d="M57.4932 90.6639L63.8961 78.6218C67.4237 80.4327 71.423 81.4547 75.6609 81.4547C89.6419 81.4547 101.025 70.3323 101.445 56.4531L114.974 56.9255C114.223 78.0794 96.8369 94.9975 75.4997 94.9975C69.0137 94.9975 62.8927 93.4343 57.4932 90.6639V90.6639Z" fill="#0AB39C"/>
<path d="M70.165 86.389C70.175 86.189 70.245 86.035 70.375 85.927C70.507 85.817 70.68 85.762 70.894 85.762C71.04 85.762 71.165 85.788 71.269 85.84C71.373 85.89 71.451 85.959 71.503 86.047C71.557 86.133 71.584 86.231 71.584 86.341C71.584 86.467 71.551 86.574 71.485 86.662C71.421 86.748 71.344 86.806 71.254 86.836V86.848C71.37 86.884 71.46 86.948 71.524 87.04C71.59 87.132 71.623 87.25 71.623 87.394C71.623 87.514 71.595 87.621 71.539 87.715C71.485 87.809 71.404 87.883 71.296 87.937C71.19 87.989 71.062 88.015 70.912 88.015C70.686 88.015 70.502 87.958 70.36 87.844C70.218 87.73 70.143 87.562 70.135 87.34H70.543C70.547 87.438 70.58 87.517 70.642 87.577C70.706 87.635 70.793 87.664 70.903 87.664C71.005 87.664 71.083 87.636 71.137 87.58C71.193 87.522 71.221 87.448 71.221 87.358C71.221 87.238 71.183 87.152 71.107 87.1C71.031 87.048 70.913 87.022 70.753 87.022H70.666V86.677H70.753C71.037 86.677 71.179 86.582 71.179 86.392C71.179 86.306 71.153 86.239 71.101 86.191C71.051 86.143 70.978 86.119 70.882 86.119C70.788 86.119 70.715 86.145 70.663 86.197C70.613 86.247 70.584 86.311 70.576 86.389H70.165ZM72.4869 87.526C72.6789 87.366 72.8319 87.233 72.9459 87.127C73.0599 87.019 73.1549 86.907 73.2309 86.791C73.3069 86.675 73.3449 86.561 73.3449 86.449C73.3449 86.347 73.3209 86.267 73.2729 86.209C73.2249 86.151 73.1509 86.122 73.0509 86.122C72.9509 86.122 72.8739 86.156 72.8199 86.224C72.7659 86.29 72.7379 86.381 72.7359 86.497H72.3279C72.3359 86.257 72.4069 86.075 72.5409 85.951C72.6769 85.827 72.8489 85.765 73.0569 85.765C73.2849 85.765 73.4599 85.826 73.5819 85.948C73.7039 86.068 73.7649 86.227 73.7649 86.425C73.7649 86.581 73.7229 86.73 73.6389 86.872C73.5549 87.014 73.4589 87.138 73.3509 87.244C73.2429 87.348 73.1019 87.474 72.9279 87.622H73.8129V87.97H72.3309V87.658L72.4869 87.526ZM74.7116 88.021C74.6356 88.021 74.5726 87.998 74.5226 87.952C74.4746 87.904 74.4506 87.845 74.4506 87.775C74.4506 87.705 74.4746 87.647 74.5226 87.601C74.5726 87.553 74.6356 87.529 74.7116 87.529C74.7856 87.529 74.8466 87.553 74.8946 87.601C74.9426 87.647 74.9666 87.705 74.9666 87.775C74.9666 87.845 74.9426 87.904 74.8946 87.952C74.8466 87.998 74.7856 88.021 74.7116 88.021ZM75.6569 86.878C75.6569 86.532 75.7189 86.261 75.8429 86.065C75.9689 85.869 76.1769 85.771 76.4669 85.771C76.7569 85.771 76.9639 85.869 77.0879 86.065C77.2139 86.261 77.2769 86.532 77.2769 86.878C77.2769 87.226 77.2139 87.499 77.0879 87.697C76.9639 87.895 76.7569 87.994 76.4669 87.994C76.1769 87.994 75.9689 87.895 75.8429 87.697C75.7189 87.499 75.6569 87.226 75.6569 86.878ZM76.8629 86.878C76.8629 86.73 76.8529 86.606 76.8329 86.506C76.8149 86.404 76.7769 86.321 76.7189 86.257C76.6629 86.193 76.5789 86.161 76.4669 86.161C76.3549 86.161 76.2699 86.193 76.2119 86.257C76.1559 86.321 76.1179 86.404 76.0979 86.506C76.0799 86.606 76.0709 86.73 76.0709 86.878C76.0709 87.03 76.0799 87.158 76.0979 87.262C76.1159 87.364 76.1539 87.447 76.2119 87.511C76.2699 87.573 76.3549 87.604 76.4669 87.604C76.5789 87.604 76.6639 87.573 76.7219 87.511C76.7799 87.447 76.8179 87.364 76.8359 87.262C76.8539 87.158 76.8629 87.03 76.8629 86.878ZM77.9483 86.35C77.9483 86.198 77.9923 86.079 78.0803 85.993C78.1703 85.907 78.2853 85.864 78.4253 85.864C78.5653 85.864 78.6793 85.907 78.7673 85.993C78.8573 86.079 78.9023 86.198 78.9023 86.35C78.9023 86.504 78.8573 86.624 78.7673 86.71C78.6793 86.796 78.5653 86.839 78.4253 86.839C78.2853 86.839 78.1703 86.796 78.0803 86.71C77.9923 86.624 77.9483 86.504 77.9483 86.35ZM79.8743 85.9L78.6953 88H78.2873L79.4633 85.9H79.8743ZM78.4223 86.116C78.3123 86.116 78.2573 86.194 78.2573 86.35C78.2573 86.508 78.3123 86.587 78.4223 86.587C78.4763 86.587 78.5183 86.568 78.5483 86.53C78.5783 86.49 78.5933 86.43 78.5933 86.35C78.5933 86.194 78.5363 86.116 78.4223 86.116ZM79.2653 87.547C79.2653 87.393 79.3093 87.274 79.3973 87.19C79.4873 87.104 79.6023 87.061 79.7423 87.061C79.8823 87.061 79.9953 87.104 80.0813 87.19C80.1693 87.274 80.2133 87.393 80.2133 87.547C80.2133 87.701 80.1693 87.821 80.0813 87.907C79.9953 87.993 79.8823 88.036 79.7423 88.036C79.6003 88.036 79.4853 87.993 79.3973 87.907C79.3093 87.821 79.2653 87.701 79.2653 87.547ZM79.7393 87.313C79.6253 87.313 79.5683 87.391 79.5683 87.547C79.5683 87.705 79.6253 87.784 79.7393 87.784C79.8513 87.784 79.9073 87.705 79.9073 87.547C79.9073 87.391 79.8513 87.313 79.7393 87.313Z" fill="white"/>
<path fill-rule="evenodd" clip-rule="evenodd" d="M39.1327 40.0586C37.1158 44.8023 36 50.0214 36 55.5012C36 70.7155 44.6016 83.9207 57.2071 90.5191L63.6104 78.4763C55.4352 74.149 49.8653 65.5562 49.8653 55.6624C49.8653 52.1389 50.5717 48.7805 51.8506 45.721L39.1327 40.0586V40.0586Z" fill="#F7B84B"/>
<path d="M48.291 79.526C48.483 79.366 48.636 79.233 48.75 79.127C48.864 79.019 48.959 78.907 49.035 78.791C49.111 78.675 49.149 78.561 49.149 78.449C49.149 78.347 49.125 78.267 49.077 78.209C49.029 78.151 48.955 78.122 48.855 78.122C48.755 78.122 48.678 78.156 48.624 78.224C48.57 78.29 48.542 78.381 48.54 78.497H48.132C48.14 78.257 48.211 78.075 48.345 77.951C48.481 77.827 48.653 77.765 48.861 77.765C49.089 77.765 49.264 77.826 49.386 77.948C49.508 78.068 49.569 78.227 49.569 78.425C49.569 78.581 49.527 78.73 49.443 78.872C49.359 79.014 49.263 79.138 49.155 79.244C49.047 79.348 48.906 79.474 48.732 79.622H49.617V79.97H48.135V79.658L48.291 79.526ZM50.2877 78.389C50.2977 78.189 50.3677 78.035 50.4977 77.927C50.6297 77.817 50.8027 77.762 51.0167 77.762C51.1627 77.762 51.2877 77.788 51.3917 77.84C51.4957 77.89 51.5737 77.959 51.6257 78.047C51.6797 78.133 51.7067 78.231 51.7067 78.341C51.7067 78.467 51.6737 78.574 51.6077 78.662C51.5437 78.748 51.4667 78.806 51.3767 78.836V78.848C51.4927 78.884 51.5827 78.948 51.6467 79.04C51.7127 79.132 51.7457 79.25 51.7457 79.394C51.7457 79.514 51.7177 79.621 51.6617 79.715C51.6077 79.809 51.5267 79.883 51.4187 79.937C51.3127 79.989 51.1847 80.015 51.0347 80.015C50.8087 80.015 50.6247 79.958 50.4827 79.844C50.3407 79.73 50.2657 79.562 50.2577 79.34H50.6657C50.6697 79.438 50.7027 79.517 50.7647 79.577C50.8287 79.635 50.9157 79.664 51.0257 79.664C51.1277 79.664 51.2057 79.636 51.2597 79.58C51.3157 79.522 51.3437 79.448 51.3437 79.358C51.3437 79.238 51.3057 79.152 51.2297 79.1C51.1537 79.048 51.0357 79.022 50.8757 79.022H50.7887V78.677H50.8757C51.1597 78.677 51.3017 78.582 51.3017 78.392C51.3017 78.306 51.2757 78.239 51.2237 78.191C51.1737 78.143 51.1007 78.119 51.0047 78.119C50.9107 78.119 50.8377 78.145 50.7857 78.197C50.7357 78.247 50.7067 78.311 50.6987 78.389H50.2877ZM52.7116 80.021C52.6356 80.021 52.5726 79.998 52.5226 79.952C52.4746 79.904 52.4506 79.845 52.4506 79.775C52.4506 79.705 52.4746 79.647 52.5226 79.601C52.5726 79.553 52.6356 79.529 52.7116 79.529C52.7856 79.529 52.8466 79.553 52.8946 79.601C52.9426 79.647 52.9666 79.705 52.9666 79.775C52.9666 79.845 52.9426 79.904 52.8946 79.952C52.8466 79.998 52.7856 80.021 52.7116 80.021ZM54.0229 78.842C53.8229 78.738 53.7229 78.577 53.7229 78.359C53.7229 78.251 53.7499 78.153 53.8039 78.065C53.8599 77.975 53.9429 77.904 54.0529 77.852C54.1649 77.798 54.3009 77.771 54.4609 77.771C54.6209 77.771 54.7559 77.798 54.8659 77.852C54.9779 77.904 55.0609 77.975 55.1149 78.065C55.1709 78.153 55.1989 78.251 55.1989 78.359C55.1989 78.469 55.1719 78.566 55.1179 78.65C55.0639 78.732 54.9919 78.796 54.9019 78.842C55.0119 78.89 55.0979 78.96 55.1599 79.052C55.2219 79.144 55.2529 79.253 55.2529 79.379C55.2529 79.515 55.2179 79.634 55.1479 79.736C55.0799 79.836 54.9859 79.913 54.8659 79.967C54.7459 80.021 54.6109 80.048 54.4609 80.048C54.3109 80.048 54.1759 80.021 54.0559 79.967C53.9379 79.913 53.8439 79.836 53.7739 79.736C53.7059 79.634 53.6719 79.515 53.6719 79.379C53.6719 79.253 53.7029 79.144 53.7649 79.052C53.8269 78.958 53.9129 78.888 54.0229 78.842ZM54.7909 78.419C54.7909 78.321 54.7609 78.245 54.7009 78.191C54.6429 78.137 54.5629 78.11 54.4609 78.11C54.3609 78.11 54.2809 78.137 54.2209 78.191C54.1629 78.245 54.1339 78.322 54.1339 78.422C54.1339 78.512 54.1639 78.584 54.2239 78.638C54.2859 78.692 54.3649 78.719 54.4609 78.719C54.5569 78.719 54.6359 78.692 54.6979 78.638C54.7599 78.582 54.7909 78.509 54.7909 78.419ZM54.4609 79.025C54.3469 79.025 54.2539 79.054 54.1819 79.112C54.1119 79.17 54.0769 79.253 54.0769 79.361C54.0769 79.461 54.1109 79.543 54.1789 79.607C54.2489 79.669 54.3429 79.7 54.4609 79.7C54.5789 79.7 54.6719 79.668 54.7399 79.604C54.8079 79.54 54.8419 79.459 54.8419 79.361C54.8419 79.255 54.8069 79.173 54.7369 79.115C54.6669 79.055 54.5749 79.025 54.4609 79.025ZM55.9366 78.35C55.9366 78.198 55.9806 78.079 56.0686 77.993C56.1586 77.907 56.2736 77.864 56.4136 77.864C56.5536 77.864 56.6676 77.907 56.7556 77.993C56.8456 78.079 56.8906 78.198 56.8906 78.35C56.8906 78.504 56.8456 78.624 56.7556 78.71C56.6676 78.796 56.5536 78.839 56.4136 78.839C56.2736 78.839 56.1586 78.796 56.0686 78.71C55.9806 78.624 55.9366 78.504 55.9366 78.35ZM57.8626 77.9L56.6836 80H56.2756L57.4516 77.9H57.8626ZM56.4106 78.116C56.3006 78.116 56.2456 78.194 56.2456 78.35C56.2456 78.508 56.3006 78.587 56.4106 78.587C56.4646 78.587 56.5066 78.568 56.5366 78.53C56.5666 78.49 56.5816 78.43 56.5816 78.35C56.5816 78.194 56.5246 78.116 56.4106 78.116ZM57.2536 79.547C57.2536 79.393 57.2976 79.274 57.3856 79.19C57.4756 79.104 57.5906 79.061 57.7306 79.061C57.8706 79.061 57.9836 79.104 58.0696 79.19C58.1576 79.274 58.2016 79.393 58.2016 79.547C58.2016 79.701 58.1576 79.821 58.0696 79.907C57.9836 79.993 57.8706 80.036 57.7306 80.036C57.5886 80.036 57.4736 79.993 57.3856 79.907C57.2976 79.821 57.2536 79.701 57.2536 79.547ZM57.7276 79.313C57.6136 79.313 57.5566 79.391 57.5566 79.547C57.5566 79.705 57.6136 79.784 57.7276 79.784C57.8396 79.784 57.8956 79.705 57.8956 79.547C57.8956 79.391 57.8396 79.313 57.7276 79.313Z" fill="white"/>
<path fill-rule="evenodd" clip-rule="evenodd" d="M39.2598 39.7597C42.4797 32.3558 47.9021 26.1309 54.6999 21.9121L62.0806 33.7237C57.6274 36.4865 54.0777 40.5675 51.9766 45.4216L39.2598 39.7597V39.7597Z" fill="#F06548"/>
<path d="M46.645 34.385C46.661 34.473 46.697 34.541 46.753 34.589C46.811 34.635 46.888 34.658 46.984 34.658C47.108 34.658 47.198 34.607 47.254 34.505C47.31 34.401 47.338 34.227 47.338 33.983C47.292 34.047 47.227 34.097 47.143 34.133C47.061 34.169 46.972 34.187 46.876 34.187C46.748 34.187 46.632 34.161 46.528 34.109C46.426 34.055 46.345 33.976 46.285 33.872C46.225 33.766 46.195 33.638 46.195 33.488C46.195 33.266 46.261 33.09 46.393 32.96C46.525 32.828 46.705 32.762 46.933 32.762C47.217 32.762 47.417 32.853 47.533 33.035C47.651 33.217 47.71 33.491 47.71 33.857C47.71 34.117 47.687 34.33 47.641 34.496C47.597 34.662 47.52 34.788 47.41 34.874C47.302 34.96 47.154 35.003 46.966 35.003C46.818 35.003 46.692 34.975 46.588 34.919C46.484 34.861 46.404 34.786 46.348 34.694C46.294 34.6 46.263 34.497 46.255 34.385H46.645ZM46.963 33.845C47.067 33.845 47.149 33.813 47.209 33.749C47.269 33.685 47.299 33.599 47.299 33.491C47.299 33.373 47.267 33.282 47.203 33.218C47.141 33.152 47.056 33.119 46.948 33.119C46.84 33.119 46.754 33.153 46.69 33.221C46.628 33.287 46.597 33.375 46.597 33.485C46.597 33.591 46.627 33.678 46.687 33.746C46.749 33.812 46.841 33.845 46.963 33.845ZM48.6709 35.021C48.5949 35.021 48.5319 34.998 48.4819 34.952C48.4339 34.904 48.4099 34.845 48.4099 34.775C48.4099 34.705 48.4339 34.647 48.4819 34.601C48.5319 34.553 48.5949 34.529 48.6709 34.529C48.7449 34.529 48.8059 34.553 48.8539 34.601C48.9019 34.647 48.9259 34.705 48.9259 34.775C48.9259 34.845 48.9019 34.904 48.8539 34.952C48.8059 34.998 48.7449 35.021 48.6709 35.021ZM50.1022 34.385C50.1182 34.473 50.1542 34.541 50.2102 34.589C50.2682 34.635 50.3452 34.658 50.4412 34.658C50.5652 34.658 50.6552 34.607 50.7112 34.505C50.7672 34.401 50.7952 34.227 50.7952 33.983C50.7492 34.047 50.6842 34.097 50.6002 34.133C50.5182 34.169 50.4292 34.187 50.3332 34.187C50.2052 34.187 50.0892 34.161 49.9852 34.109C49.8832 34.055 49.8022 33.976 49.7422 33.872C49.6822 33.766 49.6522 33.638 49.6522 33.488C49.6522 33.266 49.7182 33.09 49.8502 32.96C49.9822 32.828 50.1622 32.762 50.3902 32.762C50.6742 32.762 50.8742 32.853 50.9902 33.035C51.1082 33.217 51.1672 33.491 51.1672 33.857C51.1672 34.117 51.1442 34.33 51.0982 34.496C51.0542 34.662 50.9772 34.788 50.8672 34.874C50.7592 34.96 50.6112 35.003 50.4232 35.003C50.2752 35.003 50.1492 34.975 50.0452 34.919C49.9412 34.861 49.8612 34.786 49.8052 34.694C49.7512 34.6 49.7202 34.497 49.7122 34.385H50.1022ZM50.4202 33.845C50.5242 33.845 50.6062 33.813 50.6662 33.749C50.7262 33.685 50.7562 33.599 50.7562 33.491C50.7562 33.373 50.7242 33.282 50.6602 33.218C50.5982 33.152 50.5132 33.119 50.4052 33.119C50.2972 33.119 50.2112 33.153 50.1472 33.221C50.0852 33.287 50.0542 33.375 50.0542 33.485C50.0542 33.591 50.0842 33.678 50.1442 33.746C50.2062 33.812 50.2982 33.845 50.4202 33.845ZM51.8462 33.35C51.8462 33.198 51.8902 33.079 51.9782 32.993C52.0682 32.907 52.1832 32.864 52.3232 32.864C52.4632 32.864 52.5772 32.907 52.6652 32.993C52.7552 33.079 52.8002 33.198 52.8002 33.35C52.8002 33.504 52.7552 33.624 52.6652 33.71C52.5772 33.796 52.4632 33.839 52.3232 33.839C52.1832 33.839 52.0682 33.796 51.9782 33.71C51.8902 33.624 51.8462 33.504 51.8462 33.35ZM53.7722 32.9L52.5932 35H52.1852L53.3612 32.9H53.7722ZM52.3202 33.116C52.2102 33.116 52.1552 33.194 52.1552 33.35C52.1552 33.508 52.2102 33.587 52.3202 33.587C52.3742 33.587 52.4162 33.568 52.4462 33.53C52.4762 33.49 52.4912 33.43 52.4912 33.35C52.4912 33.194 52.4342 33.116 52.3202 33.116ZM53.1632 34.547C53.1632 34.393 53.2072 34.274 53.2952 34.19C53.3852 34.104 53.5002 34.061 53.6402 34.061C53.7802 34.061 53.8932 34.104 53.9792 34.19C54.0672 34.274 54.1112 34.393 54.1112 34.547C54.1112 34.701 54.0672 34.821 53.9792 34.907C53.8932 34.993 53.7802 35.036 53.6402 35.036C53.4982 35.036 53.3832 34.993 53.2952 34.907C53.2072 34.821 53.1632 34.701 53.1632 34.547ZM53.6372 34.313C53.5232 34.313 53.4662 34.391 53.4662 34.547C53.4662 34.705 53.5232 34.784 53.6372 34.784C53.7492 34.784 53.8052 34.705 53.8052 34.547C53.8052 34.391 53.7492 34.313 53.6372 34.313Z" fill="white"/>
<path fill-rule="evenodd" clip-rule="evenodd" d="M114.985 56.6054C114.995 56.2381 115 55.8694 115 55.4997C115 33.7382 97.4025 16.0869 75.6614 16V29.865C89.9081 29.865 101.457 41.4142 101.457 55.6609C101.457 55.8186 101.456 55.9759 101.453 56.1329L114.985 56.6054V56.6054Z" fill="#405189"/>
<path d="M79.291 24.526C79.483 24.366 79.636 24.233 79.75 24.127C79.864 24.019 79.959 23.907 80.035 23.791C80.111 23.675 80.149 23.561 80.149 23.449C80.149 23.347 80.125 23.267 80.077 23.209C80.029 23.151 79.955 23.122 79.855 23.122C79.755 23.122 79.678 23.156 79.624 23.224C79.57 23.29 79.542 23.381 79.54 23.497H79.132C79.14 23.257 79.211 23.075 79.345 22.951C79.481 22.827 79.653 22.765 79.861 22.765C80.089 22.765 80.264 22.826 80.386 22.948C80.508 23.068 80.569 23.227 80.569 23.425C80.569 23.581 80.527 23.73 80.443 23.872C80.359 24.014 80.263 24.138 80.155 24.244C80.047 24.348 79.906 24.474 79.732 24.622H80.617V24.97H79.135V24.658L79.291 24.526ZM82.7517 23.176H81.7797V23.689C81.8217 23.637 81.8817 23.595 81.9597 23.563C82.0377 23.529 82.1207 23.512 82.2087 23.512C82.3687 23.512 82.4997 23.547 82.6017 23.617C82.7037 23.687 82.7777 23.777 82.8237 23.887C82.8697 23.995 82.8927 24.111 82.8927 24.235C82.8927 24.465 82.8267 24.65 82.6947 24.79C82.5647 24.93 82.3787 25 82.1367 25C81.9087 25 81.7267 24.943 81.5907 24.829C81.4547 24.715 81.3777 24.566 81.3597 24.382H81.7677C81.7857 24.462 81.8257 24.526 81.8877 24.574C81.9517 24.622 82.0327 24.646 82.1307 24.646C82.2487 24.646 82.3377 24.609 82.3977 24.535C82.4577 24.461 82.4877 24.363 82.4877 24.241C82.4877 24.117 82.4567 24.023 82.3947 23.959C82.3347 23.893 82.2457 23.86 82.1277 23.86C82.0437 23.86 81.9737 23.881 81.9177 23.923C81.8617 23.965 81.8217 24.021 81.7977 24.091H81.3957V22.807H82.7517V23.176ZM83.8463 25.021C83.7703 25.021 83.7073 24.998 83.6573 24.952C83.6093 24.904 83.5853 24.845 83.5853 24.775C83.5853 24.705 83.6093 24.647 83.6573 24.601C83.7073 24.553 83.7703 24.529 83.8463 24.529C83.9203 24.529 83.9813 24.553 84.0293 24.601C84.0773 24.647 84.1013 24.705 84.1013 24.775C84.1013 24.845 84.0773 24.904 84.0293 24.952C83.9813 24.998 83.9203 25.021 83.8463 25.021ZM85.9256 23.359C85.9056 23.275 85.8706 23.212 85.8206 23.17C85.7726 23.128 85.7026 23.107 85.6106 23.107C85.4726 23.107 85.3706 23.163 85.3046 23.275C85.2406 23.385 85.2076 23.565 85.2056 23.815C85.2536 23.735 85.3236 23.673 85.4156 23.629C85.5076 23.583 85.6076 23.56 85.7156 23.56C85.8456 23.56 85.9606 23.588 86.0606 23.644C86.1606 23.7 86.2386 23.782 86.2946 23.89C86.3506 23.996 86.3786 24.124 86.3786 24.274C86.3786 24.416 86.3496 24.543 86.2916 24.655C86.2356 24.765 86.1526 24.851 86.0426 24.913C85.9326 24.975 85.8016 25.006 85.6496 25.006C85.4416 25.006 85.2776 24.96 85.1576 24.868C85.0396 24.776 84.9566 24.648 84.9086 24.484C84.8626 24.318 84.8396 24.114 84.8396 23.872C84.8396 23.506 84.9026 23.23 85.0286 23.044C85.1546 22.856 85.3536 22.762 85.6256 22.762C85.8356 22.762 85.9986 22.819 86.1146 22.933C86.2306 23.047 86.2976 23.189 86.3156 23.359H85.9256ZM85.6196 23.905C85.5136 23.905 85.4246 23.936 85.3526 23.998C85.2806 24.06 85.2446 24.15 85.2446 24.268C85.2446 24.386 85.2776 24.479 85.3436 24.547C85.4116 24.615 85.5066 24.649 85.6286 24.649C85.7366 24.649 85.8216 24.616 85.8836 24.55C85.9476 24.484 85.9796 24.395 85.9796 24.283C85.9796 24.167 85.9486 24.075 85.8866 24.007C85.8266 23.939 85.7376 23.905 85.6196 23.905ZM87.0626 23.35C87.0626 23.198 87.1066 23.079 87.1946 22.993C87.2846 22.907 87.3996 22.864 87.5396 22.864C87.6796 22.864 87.7936 22.907 87.8816 22.993C87.9716 23.079 88.0166 23.198 88.0166 23.35C88.0166 23.504 87.9716 23.624 87.8816 23.71C87.7936 23.796 87.6796 23.839 87.5396 23.839C87.3996 23.839 87.2846 23.796 87.1946 23.71C87.1066 23.624 87.0626 23.504 87.0626 23.35ZM88.9886 22.9L87.8096 25H87.4016L88.5776 22.9H88.9886ZM87.5366 23.116C87.4266 23.116 87.3716 23.194 87.3716 23.35C87.3716 23.508 87.4266 23.587 87.5366 23.587C87.5906 23.587 87.6326 23.568 87.6626 23.53C87.6926 23.49 87.7076 23.43 87.7076 23.35C87.7076 23.194 87.6506 23.116 87.5366 23.116ZM88.3796 24.547C88.3796 24.393 88.4236 24.274 88.5116 24.19C88.6016 24.104 88.7166 24.061 88.8566 24.061C88.9966 24.061 89.1096 24.104 89.1956 24.19C89.2836 24.274 89.3276 24.393 89.3276 24.547C89.3276 24.701 89.2836 24.821 89.1956 24.907C89.1096 24.993 88.9966 25.036 88.8566 25.036C88.7146 25.036 88.5996 24.993 88.5116 24.907C88.4236 24.821 88.3796 24.701 88.3796 24.547ZM88.8536 24.313C88.7396 24.313 88.6826 24.391 88.6826 24.547C88.6826 24.705 88.7396 24.784 88.8536 24.784C88.9656 24.784 89.0216 24.705 89.0216 24.547C89.0216 24.391 88.9656 24.313 88.8536 24.313Z" fill="white"/>
<path fill-rule="evenodd" clip-rule="evenodd" d="M62.3558 33.5566L54.9746 21.7444C60.9134 18.1255 67.8823 16.0298 75.3385 16V29.867C70.5923 29.9251 66.1547 31.265 62.3558 33.5566V33.5566Z" fill="#299CDB"/>
<path d="M63.525 23.842C63.325 23.738 63.225 23.577 63.225 23.359C63.225 23.251 63.252 23.153 63.306 23.065C63.362 22.975 63.445 22.904 63.555 22.852C63.667 22.798 63.803 22.771 63.963 22.771C64.123 22.771 64.258 22.798 64.368 22.852C64.48 22.904 64.563 22.975 64.617 23.065C64.673 23.153 64.701 23.251 64.701 23.359C64.701 23.469 64.674 23.566 64.62 23.65C64.566 23.732 64.494 23.796 64.404 23.842C64.514 23.89 64.6 23.96 64.662 24.052C64.724 24.144 64.755 24.253 64.755 24.379C64.755 24.515 64.72 24.634 64.65 24.736C64.582 24.836 64.488 24.913 64.368 24.967C64.248 25.021 64.113 25.048 63.963 25.048C63.813 25.048 63.678 25.021 63.558 24.967C63.44 24.913 63.346 24.836 63.276 24.736C63.208 24.634 63.174 24.515 63.174 24.379C63.174 24.253 63.205 24.144 63.267 24.052C63.329 23.958 63.415 23.888 63.525 23.842ZM64.293 23.419C64.293 23.321 64.263 23.245 64.203 23.191C64.145 23.137 64.065 23.11 63.963 23.11C63.863 23.11 63.783 23.137 63.723 23.191C63.665 23.245 63.636 23.322 63.636 23.422C63.636 23.512 63.666 23.584 63.726 23.638C63.788 23.692 63.867 23.719 63.963 23.719C64.059 23.719 64.138 23.692 64.2 23.638C64.262 23.582 64.293 23.509 64.293 23.419ZM63.963 24.025C63.849 24.025 63.756 24.054 63.684 24.112C63.614 24.17 63.579 24.253 63.579 24.361C63.579 24.461 63.613 24.543 63.681 24.607C63.751 24.669 63.845 24.7 63.963 24.7C64.081 24.7 64.174 24.668 64.242 24.604C64.31 24.54 64.344 24.459 64.344 24.361C64.344 24.255 64.309 24.173 64.239 24.115C64.169 24.055 64.077 24.025 63.963 24.025ZM65.7207 25.021C65.6447 25.021 65.5817 24.998 65.5317 24.952C65.4837 24.904 65.4597 24.845 65.4597 24.775C65.4597 24.705 65.4837 24.647 65.5317 24.601C65.5817 24.553 65.6447 24.529 65.7207 24.529C65.7947 24.529 65.8557 24.553 65.9037 24.601C65.9517 24.647 65.9757 24.705 65.9757 24.775C65.9757 24.845 65.9517 24.904 65.9037 24.952C65.8557 24.998 65.7947 25.021 65.7207 25.021ZM68.058 23.131L67.26 25H66.834L67.638 23.179H66.612V22.819H68.058V23.131ZM68.6616 23.35C68.6616 23.198 68.7056 23.079 68.7936 22.993C68.8836 22.907 68.9986 22.864 69.1386 22.864C69.2786 22.864 69.3926 22.907 69.4806 22.993C69.5706 23.079 69.6156 23.198 69.6156 23.35C69.6156 23.504 69.5706 23.624 69.4806 23.71C69.3926 23.796 69.2786 23.839 69.1386 23.839C68.9986 23.839 68.8836 23.796 68.7936 23.71C68.7056 23.624 68.6616 23.504 68.6616 23.35ZM70.5876 22.9L69.4086 25H69.0006L70.1766 22.9H70.5876ZM69.1356 23.116C69.0256 23.116 68.9706 23.194 68.9706 23.35C68.9706 23.508 69.0256 23.587 69.1356 23.587C69.1896 23.587 69.2316 23.568 69.2616 23.53C69.2916 23.49 69.3066 23.43 69.3066 23.35C69.3066 23.194 69.2496 23.116 69.1356 23.116ZM69.9786 24.547C69.9786 24.393 70.0226 24.274 70.1106 24.19C70.2006 24.104 70.3156 24.061 70.4556 24.061C70.5956 24.061 70.7086 24.104 70.7946 24.19C70.8826 24.274 70.9266 24.393 70.9266 24.547C70.9266 24.701 70.8826 24.821 70.7946 24.907C70.7086 24.993 70.5956 25.036 70.4556 25.036C70.3136 25.036 70.1986 24.993 70.1106 24.907C70.0226 24.821 69.9786 24.701 69.9786 24.547ZM70.4526 24.313C70.3386 24.313 70.2816 24.391 70.2816 24.547C70.2816 24.705 70.3386 24.784 70.4526 24.784C70.5646 24.784 70.6206 24.705 70.6206 24.547C70.6206 24.391 70.5646 24.313 70.4526 24.313Z" fill="white"/>
</svg>
