<svg width="152" height="110" viewBox="0 0 152 110" fill="none" xmlns="http://www.w3.org/2000/svg">
<rect width="151.161" height="110" rx="16" fill="white"/>
<g clip-path="url(#clip0_55_101)">
<path d="M37.5469 14.0113C64.4027 14.009 91.2586 14.009 118.114 14C118.646 14 119 14.009 118.998 14.7323C118.975 31.2782 118.975 47.8264 118.971 64.3723C118.971 64.3994 118.966 64.4287 118.966 64.4557C118.601 64.4489 118.236 64.4377 117.871 64.4354C91.4636 64.4354 65.0539 64.4354 38.6464 64.4332C38.2814 64.4332 37.9164 64.4151 37.5536 64.4061C37.5514 47.6078 37.5491 30.8096 37.5469 14.0113ZM81.7208 42.8692C81.6194 42.8579 81.5541 42.894 81.5428 43.0021C81.5293 47.2135 81.518 51.4272 81.5045 55.6386C80.3554 55.6543 79.2062 55.6656 78.0571 55.6859C77.1108 55.7039 76.6083 56.1095 76.6128 56.8418C76.6173 57.5697 77.122 57.982 78.0706 57.982C90.4722 57.9865 102.876 57.9843 115.278 57.982C116.222 57.982 116.753 57.5742 116.781 56.8734C116.808 56.1501 116.24 55.6994 115.269 55.6859C114.09 55.6701 112.914 55.6589 111.736 55.6453C111.736 45.4582 111.736 35.2688 111.733 25.0817C111.733 24.8564 111.727 24.6333 111.733 24.408C111.74 24.1443 111.661 23.9686 111.359 23.9866C110.413 24.0384 109.46 23.8649 108.52 24.0812C107.82 24.0722 107.11 24.124 106.418 24.0429C105.569 23.9438 105.42 24.284 105.42 25.0704C105.445 35.2621 105.433 45.4537 105.431 55.6453C103.543 55.6453 101.653 55.6476 99.7644 55.6476C99.7644 52.1415 99.7644 48.6353 99.7621 45.1292C99.7621 41.9588 99.7509 38.7907 99.7734 35.6203C99.7779 35.0841 99.6427 34.8677 99.0749 34.9038C98.2367 34.9579 97.394 34.9421 96.5536 34.9556C95.8799 34.9466 95.2017 34.9894 94.537 34.9173C93.7101 34.8294 93.4487 35.0705 93.4532 35.9561C93.4915 42.5199 93.4667 49.0815 93.4622 55.6453C91.574 55.6476 89.6836 55.6476 87.7954 55.6498C87.7954 51.6435 87.7796 47.6349 87.8067 43.6285C87.8112 43.0134 87.6692 42.7745 87.0203 42.8264C86.2137 42.8895 85.398 42.8602 84.5846 42.8714C83.6315 42.8714 82.6761 42.8714 81.7208 42.8692ZM57.6071 19.106C57.357 19.0744 57.1069 19.0496 56.859 19.0136C55.7617 18.8536 55.7617 18.8536 55.7617 19.969C55.7617 22.9591 55.7595 25.9492 55.764 28.9393C55.764 29.2277 55.791 29.5184 55.809 29.8992C56.4782 29.5477 57.0438 29.2525 57.6071 28.9574C60.0856 27.6752 62.5619 26.3863 65.0449 25.1132C65.455 24.9037 65.4572 24.6603 65.2342 24.3111C63.4384 21.4764 60.9756 19.631 57.6071 19.106ZM66.1174 39.9985C68.4405 37.1391 68.9181 32.1007 67.1764 28.9033C67.0232 28.6239 66.915 28.4774 66.559 28.6689C64.0332 30.0322 61.4961 31.3706 58.9613 32.7181C58.3867 32.9772 57.8099 33.2364 57.0686 33.8042C59.333 35.9741 61.5479 38.0719 63.7358 40.2035C65.0471 41.4834 65.0269 41.5059 66.1174 39.9985ZM52.8799 44.496C55.284 44.4172 57.2961 43.3987 59.1302 41.9228C59.5764 41.5645 59.6169 41.3369 59.1731 40.8975C56.9221 38.66 54.7207 36.3729 52.4766 34.1241C52.0665 33.714 51.8975 33.2994 51.8997 32.7181C51.9133 29.4598 51.8885 26.2016 51.875 22.9433C51.4829 22.2065 50.8971 22.7112 50.4284 22.7631C45.0455 23.3624 40.3003 28.3737 40.9853 34.7438C41.6364 40.8232 46.8706 45.0346 52.8799 44.496ZM96.0782 22.2651C95.97 22.5625 95.7312 22.6774 95.5396 22.8284C91.1189 26.3368 86.6936 29.8406 82.2683 33.3445C81.0133 34.3382 79.747 35.3184 78.51 36.3324C77.9196 36.8168 77.8498 37.4613 78.2892 37.957C78.7556 38.482 79.2986 38.5 79.8687 38.117C79.9858 38.0381 80.094 37.948 80.2021 37.8624C85.0893 33.9912 89.9743 30.12 94.8614 26.2489C95.7762 25.5256 96.6933 24.8068 97.7726 23.9573C97.7298 24.7324 97.6914 25.307 97.6712 25.8816C97.6441 26.6455 98.0272 27.1322 98.6829 27.1863C99.3521 27.2403 99.8545 26.828 99.9176 26.0934C100.046 24.6108 100.147 23.1258 100.24 21.6409C100.287 20.8703 99.8838 20.4106 99.1357 20.3047C97.6351 20.0952 96.1322 19.8946 94.6249 19.7369C93.8182 19.6513 93.2504 20.0749 93.2459 20.7396C93.2391 21.4629 93.647 21.8415 94.3725 21.9654C94.9358 22.0578 95.5329 22.0082 96.0782 22.2651ZM59.4772 59.3137C62.2554 59.3137 65.0336 59.316 67.8118 59.3092C68.116 59.3092 68.4359 59.2934 68.7221 59.2033C69.1953 59.0523 69.4386 58.6895 69.4454 58.1825C69.4521 57.6778 69.2156 57.3353 68.7604 57.128C68.4652 56.9928 68.1565 57.0198 67.8501 57.0198C62.2374 57.0176 56.6269 57.0176 51.0142 57.0221C50.7371 57.0221 50.4487 57.0356 50.1873 57.1122C49.6668 57.2655 49.4009 57.6688 49.4122 58.1893C49.4235 58.7076 49.7006 59.1064 50.2301 59.2326C50.5253 59.3024 50.8407 59.3114 51.1449 59.3114C53.9209 59.3159 56.699 59.3137 59.4772 59.3137ZM59.3826 50.8008C62.2487 50.8008 65.1125 50.8053 67.9785 50.7985C68.97 50.7963 69.4386 50.429 69.4431 49.6899C69.4476 48.944 68.97 48.5655 67.9966 48.5655C65.3288 48.561 62.6588 48.5632 59.991 48.5632C56.9289 48.5632 53.8668 48.561 50.8069 48.5655C49.9102 48.5677 49.3221 49.0567 49.4145 49.7552C49.5181 50.5326 50.0363 50.8075 50.7889 50.8053C53.6527 50.794 56.5188 50.8008 59.3826 50.8008ZM59.3826 55.0302C59.5786 55.0302 59.7769 55.0302 59.9729 55.0302C62.67 55.0302 65.3671 55.037 68.0619 55.0257C69.0285 55.0212 69.5535 54.5277 69.4274 53.7503C69.3057 52.9955 68.7762 52.7792 68.0777 52.7814C64.5672 52.7882 61.0545 52.7837 57.544 52.7837C55.2683 52.7837 52.9925 52.7769 50.7191 52.7882C49.8538 52.7927 49.2883 53.3582 49.4257 54.0658C49.5677 54.8049 50.0859 55.0347 50.7889 55.0324C53.6527 55.0234 56.5188 55.0279 59.3826 55.0302ZM43.9212 57.0198C43.3308 57.0198 42.7427 56.9996 42.1547 57.0244C41.4427 57.0559 40.9582 57.4187 40.9492 58.1555C40.9402 58.9013 41.4359 59.2799 42.1389 59.3002C43.3173 59.334 44.4957 59.3362 45.6742 59.2979C46.4245 59.2731 46.8751 58.7864 46.8346 58.1307C46.7872 57.3759 46.3096 57.0514 45.6066 57.0244C45.0433 57.0018 44.4822 57.0198 43.9212 57.0198ZM43.8874 50.794C44.5047 50.794 45.1199 50.8165 45.735 50.7872C46.4312 50.7557 46.8368 50.3659 46.8255 49.6651C46.8143 48.9666 46.3907 48.5835 45.7012 48.57C44.498 48.5475 43.2925 48.552 42.0871 48.5677C41.3908 48.5768 40.9627 48.9756 40.9469 49.6561C40.9312 50.3366 41.3322 50.7557 42.0375 50.785C42.6549 50.8143 43.27 50.794 43.8874 50.794ZM43.8761 55.0212V55.0189C44.5205 55.0189 45.1672 55.0527 45.8093 55.0099C46.465 54.9671 46.8323 54.5638 46.83 53.9058C46.8278 53.2456 46.4357 52.8287 45.7981 52.8039C44.5385 52.7566 43.2768 52.7656 42.0172 52.7994C41.3683 52.8175 40.965 53.2343 40.9492 53.8743C40.9334 54.5593 41.3255 54.9806 42.0285 55.0144C42.6436 55.0437 43.261 55.0212 43.8761 55.0212Z" fill="#E9F4FD" fill-opacity="0.5"/>
<path d="M37.5534 64.4062C37.9184 64.4153 38.2834 64.4333 38.6462 64.4333C65.0536 64.4355 91.4634 64.4355 117.871 64.4355C118.236 64.4355 118.601 64.4491 118.966 64.4558C118.973 67.7659 118.959 71.0782 119 74.3883C119.006 75.0238 118.768 75.0981 118.225 75.0981C112.389 75.0801 106.553 75.0891 100.717 75.0869C94.3475 75.0846 87.9799 75.0778 81.6101 75.0711C79.1226 75.0666 76.6351 75.0598 74.1453 75.0553C72.8858 75.0598 71.6285 75.0643 70.3689 75.0666C61.3359 75.0733 52.3006 75.0823 43.2675 75.0846C41.3613 75.0846 39.4551 75.0531 37.5511 75.035C37.4587 71.5176 37.7517 67.9912 37.3799 64.4784C37.4362 64.4558 37.4948 64.431 37.5534 64.4062ZM76.5021 66.8128C75.1187 66.5559 74.0777 67.0944 73.3522 68.2459C72.7032 69.2734 72.7911 70.7087 73.5617 71.6461C74.3684 72.6285 75.3868 73.104 76.6824 72.7254C78.1109 72.4798 79.0753 71.2675 79.0573 69.7375C79.0392 68.1985 78.0095 67.0223 76.5021 66.8128Z" fill="#1F4C9B"/>
<path d="M37.5537 64.4055C37.4951 64.4303 37.4388 64.4529 37.3802 64.4776C35.9269 64.4709 34.4736 64.4619 33.0225 64.4551C33.0135 64.1464 33 63.8377 33 63.529C33 47.3842 33 31.2393 33 15.0922C33 14.0062 33 14.0039 34.0928 14.0039C35.2442 14.0039 36.3956 14.0062 37.547 14.0084C37.5492 30.809 37.5515 47.6072 37.5537 64.4055Z" fill="#E9F4FD" fill-opacity="0.5"/>
<path d="M81.5704 88.5234C83.4518 88.5257 85.3355 88.5234 87.2169 88.5347C89.8441 88.5482 91.8202 90.5334 91.8382 93.1765C91.845 94.2153 91.8112 95.2563 91.8517 96.295C91.8742 96.8403 91.7188 97.0138 91.1577 97.0026C89.5016 96.9665 87.8433 96.989 86.1849 96.989C79.2744 96.989 72.3616 96.9891 65.451 96.9868C65.1423 96.9868 64.8359 96.962 64.5272 96.9485C64.5272 95.6596 64.5497 94.3685 64.5227 93.0796C64.4844 91.2274 65.3564 89.9475 66.9426 89.089C67.177 88.9628 67.4992 88.929 67.56 88.5843C68.5109 88.564 69.4617 88.546 70.4148 88.5257C74.1326 88.5234 77.8526 88.5234 81.5704 88.5234Z" fill="#1F4C9B"/>
<path d="M81.5698 88.5226C77.852 88.5226 74.132 88.5226 70.4142 88.5226C70.421 84.176 70.43 79.8272 70.4345 75.4806C70.4345 75.3431 70.3917 75.2057 70.3691 75.0682C71.6287 75.0637 72.886 75.0592 74.1455 75.0547C74.0847 76.3436 74.2424 77.6167 74.4835 78.874C75.2969 83.0854 77.4419 86.2941 81.4977 88.0269C81.5225 88.1936 81.545 88.3581 81.5698 88.5226Z" fill="#1F4C9B"/>
<path d="M81.4982 88.0288C77.4425 86.2938 75.2974 83.0874 74.484 78.876C74.2407 77.6186 74.0852 76.3455 74.146 75.0566C76.6336 75.0611 79.1233 75.0679 81.6109 75.0724C81.4734 75.3946 81.5252 75.7371 81.523 76.0706C81.5117 80.0544 81.5072 84.0405 81.4982 88.0288Z" fill="#1F4C9B"/>
<path d="M33.0225 64.4551C34.4758 64.4618 35.9291 64.4709 37.3801 64.4776C37.7519 67.9905 37.459 71.5169 37.5514 75.0343C36.0891 75.032 34.629 75.0275 33.1667 75.0253C33.1216 74.9757 33.0765 74.9239 33.0337 74.8743C33.0292 71.3997 33.0247 67.9274 33.0225 64.4551Z" fill="#1F4C9B"/>
<path d="M67.5622 88.5826C67.5014 88.9273 67.1792 88.9612 66.9449 89.0873C65.3586 89.9458 64.4866 91.2257 64.5249 93.0779C64.552 94.3668 64.5294 95.6579 64.5294 96.9468C63.2654 96.9558 62.0036 96.9671 60.7395 96.9716C60.4714 96.9716 60.147 97.0482 60.165 96.5908C60.2191 95.1622 60.0185 93.7201 60.2686 92.3028C60.6472 90.1599 62.3709 88.6524 64.5317 88.5646C65.5389 88.524 66.5505 88.5736 67.5622 88.5826Z" fill="#1F4C9B"/>
<path d="M33.0341 74.875C33.0791 74.9246 33.1242 74.9764 33.167 75.026C33.0431 75.0462 33.0115 74.9854 33.0341 74.875Z" fill="#1F4C9B"/>
<path d="M51.8772 22.9414C51.8885 26.1997 51.9133 29.4579 51.902 32.7162C51.8998 33.2953 52.0688 33.7121 52.4788 34.1222C54.7208 36.3688 56.9244 38.6559 59.1753 40.8956C59.617 41.335 59.5764 41.5626 59.1325 41.9209C57.3007 43.3968 55.2886 44.4153 52.8822 44.4941C50.3789 43.9511 48.1392 42.9574 46.3885 40.9835C43.9235 38.203 42.914 35.0123 43.7252 31.38C44.7121 26.95 47.4925 24.1447 51.8772 22.9414Z" fill="#54A0FE"/>
<path d="M108.521 24.0835C109.46 23.8672 110.415 24.0384 111.36 23.9889C111.661 23.9731 111.743 24.1488 111.734 24.4102C111.727 24.6356 111.734 24.8586 111.734 25.084C111.734 35.2711 111.734 45.4605 111.736 55.6476C110.668 55.6476 109.602 55.6476 108.534 55.6476C108.53 45.127 108.525 34.6064 108.521 24.0835Z" fill="#F36F56"/>
<path d="M108.52 24.0841C108.525 34.6069 108.529 45.1276 108.534 55.6504C107.499 55.6482 106.465 55.6482 105.433 55.6459C105.435 45.4543 105.447 35.2627 105.422 25.071C105.42 24.2846 105.571 23.9466 106.42 24.0435C107.11 24.1269 107.819 24.0773 108.52 24.0841Z" fill="#F36F56"/>
<path d="M105.434 55.6448C106.468 55.6471 107.502 55.6471 108.534 55.6493C109.602 55.6493 110.668 55.6493 111.736 55.6493C112.915 55.6629 114.091 55.6719 115.269 55.6899C116.243 55.7034 116.81 56.1518 116.781 56.8774C116.754 57.5782 116.22 57.986 115.278 57.986C102.877 57.9883 90.4727 57.9883 78.0711 57.986C77.1225 57.986 76.6178 57.5736 76.6133 56.8458C76.6088 56.1158 77.1113 55.7079 78.0576 55.6899C79.2067 55.6696 80.3559 55.6584 81.505 55.6426C82.5347 55.6448 83.5644 55.6471 84.5919 55.6493C85.6599 55.6493 86.7279 55.6516 87.7937 55.6516C89.6819 55.6493 91.5723 55.6493 93.4605 55.6471C94.4947 55.6471 95.5266 55.6493 96.5609 55.6493C97.6289 55.6493 98.6946 55.6493 99.7626 55.6493C101.655 55.6471 103.544 55.6471 105.434 55.6448Z" fill="#557BC6"/>
<path d="M96.0786 22.266C95.5333 22.0091 94.9362 22.0587 94.3707 21.9641C93.6474 21.8424 93.2395 21.4616 93.2441 20.7383C93.2486 20.0736 93.8141 19.6499 94.623 19.7356C96.1304 19.8956 97.6333 20.0938 99.1339 20.3034C99.8842 20.4071 100.288 20.869 100.238 21.6396C100.146 23.1245 100.044 24.6094 99.9158 26.0921C99.8527 26.8267 99.3525 27.239 98.681 27.185C98.0276 27.1331 97.6423 26.6464 97.6693 25.8803C97.6896 25.3057 97.7279 24.7334 97.7707 23.956C96.6914 24.8055 95.7744 25.5243 94.8596 26.2476C89.9724 30.1187 85.0875 33.9899 80.2003 37.861C80.0899 37.9489 79.9817 38.0391 79.8668 38.1157C79.2968 38.4965 78.7515 38.4807 78.2873 37.9557C77.848 37.46 77.9178 36.8155 78.5081 36.3311C79.7452 35.3171 81.0114 34.3369 82.2665 33.3432C86.6918 29.8393 91.117 26.3355 95.5378 22.8271C95.7316 22.6761 95.9727 22.5612 96.0786 22.266Z" fill="#1F4C9B"/>
<path d="M99.7645 55.6483C98.6965 55.6483 97.6307 55.6483 96.5627 55.6483C96.5605 48.751 96.5582 41.8537 96.5537 34.9541C97.3942 34.9406 98.2368 34.9564 99.075 34.9023C99.6428 34.8662 99.778 35.0825 99.7735 35.6188C99.751 38.7892 99.7623 41.9573 99.7623 45.1277C99.7645 48.6361 99.7645 52.1422 99.7645 55.6483Z" fill="#FFC444"/>
<path d="M96.5555 34.9553C96.5578 41.8526 96.56 48.75 96.5645 55.6495C95.5326 55.6495 94.4984 55.6473 93.4642 55.6473C93.4687 49.0835 93.4934 42.5196 93.4551 35.958C93.4506 35.0725 93.7097 34.8314 94.5389 34.9193C95.2036 34.9891 95.8818 34.9463 96.5555 34.9553Z" fill="#FFC444"/>
<path d="M58.9609 32.7194C61.4958 31.372 64.0329 30.0335 66.5587 28.6703C66.917 28.4765 67.0251 28.623 67.1761 28.9046C68.9178 32.102 68.4401 37.1404 66.1171 39.9998C65.8107 39.8939 65.6236 39.6371 65.4118 39.4185C63.776 37.7353 62.1447 36.0476 60.5156 34.3598C59.9929 33.8168 59.4792 33.2647 58.9609 32.7194Z" fill="#F36F56"/>
<path d="M51.877 22.9409C47.4922 24.1442 44.714 26.9495 43.7226 31.3818C42.9115 35.0118 43.9187 38.2047 46.3859 40.9853C48.1366 42.9592 50.3763 43.9551 52.8796 44.4959C46.8704 45.0367 41.6384 40.8231 40.985 34.7459C40.3 28.3736 45.0453 23.3623 50.4304 22.7607C50.8968 22.7088 51.4849 22.2064 51.877 22.9409Z" fill="#3E9BEE"/>
<path d="M57.6074 19.1055C60.9737 19.6305 63.4387 21.4759 65.2345 24.3083C65.4553 24.6576 65.4553 24.8987 65.0452 25.1105C62.5622 26.3859 60.0859 27.6725 57.6074 28.9569C57.6074 25.6716 57.6074 22.3885 57.6074 19.1055Z" fill="#FFC444"/>
<path d="M59.4778 59.3133C56.6996 59.3133 53.9214 59.3155 51.1432 59.311C50.8368 59.311 50.5236 59.302 50.2284 59.2321C49.6967 59.106 49.4218 58.7071 49.4105 58.1889C49.3992 57.6684 49.6651 57.265 50.1856 57.1118C50.4492 57.0352 50.7376 57.0217 51.0125 57.0217C56.6252 57.0172 62.2357 57.0172 67.8484 57.0194C68.1548 57.0194 68.4635 56.9946 68.7587 57.1276C69.2161 57.3349 69.4504 57.6774 69.4437 58.1821C69.4369 58.6891 69.1936 59.0519 68.7204 59.2028C68.4342 59.293 68.1143 59.3088 67.8101 59.3088C65.0342 59.3155 62.256 59.3133 59.4778 59.3133Z" fill="#557BC6"/>
<path d="M59.3823 50.8006C56.5162 50.8006 53.6524 50.7938 50.7864 50.8051C50.036 50.8073 49.5155 50.5347 49.4119 49.7551C49.3195 49.0565 49.9054 48.5653 50.8044 48.5653C53.8665 48.5608 56.9286 48.5631 59.9884 48.5631C62.6562 48.5631 65.3262 48.5608 67.994 48.5653C68.9674 48.5676 69.4451 48.9461 69.4406 49.6897C69.4361 50.4288 68.9674 50.7961 67.976 50.7983C65.1122 50.8051 62.2484 50.8006 59.3823 50.8006Z" fill="#1F4C9B"/>
<path d="M59.3829 55.0298C56.5169 55.0298 53.6531 55.023 50.787 55.0343C50.084 55.0365 49.568 54.8067 49.4238 54.0676C49.2864 53.3578 49.8542 52.7945 50.7171 52.79C52.9929 52.7787 55.2686 52.7855 57.5421 52.7855C61.0526 52.7855 64.5653 52.79 68.0758 52.7832C68.7743 52.781 69.3015 52.9973 69.4254 53.7521C69.5516 54.5295 69.0266 55.023 68.06 55.0275C65.3629 55.0365 62.6658 55.032 59.971 55.032C59.7772 55.0298 59.5812 55.0298 59.3829 55.0298Z" fill="#1F4C9B"/>
<path d="M87.7955 55.6507C86.7275 55.6507 85.6594 55.6484 84.5937 55.6484C84.5914 51.3897 84.5892 47.131 84.5869 42.8723C85.3981 42.861 86.2137 42.8903 87.0226 42.8272C87.6715 42.7754 87.8135 43.0142 87.809 43.6294C87.7819 47.6357 87.7955 51.6421 87.7955 55.6507Z" fill="#54A0FE"/>
<path d="M84.587 42.8711C84.5892 47.1298 84.5915 51.3885 84.5937 55.6473C83.564 55.645 82.5365 55.6428 81.5068 55.6405C81.5181 51.4291 81.5316 47.2154 81.5429 43.004C81.6015 42.959 81.6623 42.9139 81.7209 42.8711C82.6762 42.8711 83.6316 42.8711 84.587 42.8711Z" fill="#3E9BEE"/>
<path d="M57.6071 19.105C57.6071 22.3881 57.6071 25.6711 57.6071 28.9542C57.0438 29.2493 56.4782 29.5445 55.809 29.896C55.791 29.513 55.764 29.2246 55.764 28.9361C55.7617 25.946 55.7617 22.9559 55.7617 19.9658C55.7617 18.8504 55.7617 18.8527 56.859 19.0104C57.1069 19.0487 57.357 19.0735 57.6071 19.105Z" fill="#FFC444"/>
<path d="M58.9613 32.7207C59.4796 33.2683 59.9933 33.8181 60.5161 34.3611C62.1451 36.0511 63.7764 37.7365 65.4122 39.4197C65.624 39.6383 65.8111 39.8952 66.1175 40.0011C65.0247 41.5063 65.0472 41.486 63.7336 40.2061C61.548 38.0768 59.3309 35.9767 57.0664 33.8068C57.8122 33.239 58.3868 32.9798 58.9613 32.7207Z" fill="#F36F56"/>
<path d="M43.9216 57.0195C44.4827 57.0195 45.0437 57.0015 45.6047 57.024C46.3077 57.0511 46.7877 57.3756 46.8327 58.1304C46.8733 58.7861 46.4204 59.2728 45.6723 59.2976C44.4962 59.3359 43.3155 59.3337 42.1371 59.2999C41.4341 59.2796 40.9384 58.9033 40.9474 58.1552C40.9564 57.4184 41.4408 57.0533 42.1528 57.024C42.7409 56.9993 43.3313 57.0195 43.9216 57.0195Z" fill="#557BC6"/>
<path d="M43.8877 50.7947C43.2703 50.7947 42.6552 50.815 42.0401 50.788C41.3348 50.7587 40.936 50.3373 40.9496 49.6591C40.9653 48.9786 41.3934 48.5797 42.0897 48.5707C43.2951 48.5527 44.4983 48.5504 45.7038 48.573C46.3955 48.5865 46.8169 48.9696 46.8281 49.6681C46.8394 50.3688 46.4316 50.7587 45.7376 50.7902C45.1202 50.8173 44.5028 50.7947 43.8877 50.7947Z" fill="#1F4C9B"/>
<path d="M43.8759 55.0203C43.2585 55.0203 42.6412 55.0428 42.026 55.0135C41.323 54.9797 40.931 54.5584 40.9467 53.8734C40.9625 53.2312 41.3658 52.8166 42.0148 52.7985C43.2743 52.7625 44.5383 52.7557 45.7956 52.8031C46.4333 52.8278 46.8253 53.2424 46.8276 53.9049C46.8298 54.5629 46.4648 54.9662 45.8069 55.009C45.1647 55.0518 44.5181 55.018 43.8736 55.018C43.8759 55.018 43.8759 55.018 43.8759 55.0203Z" fill="#1F4C9B"/>
<path d="M81.721 42.8692C81.6624 42.9142 81.6016 42.9593 81.543 43.0021C81.5542 42.8939 81.6196 42.8579 81.721 42.8692Z" fill="#54A0FE"/>
<path d="M76.5026 66.8127C78.0099 67.0223 79.0397 68.1985 79.0554 69.7375C79.0735 71.2652 78.1068 72.4798 76.6806 72.7254C76.604 72.6488 76.5386 72.5429 76.4462 72.5001C74.6211 71.6528 74.1254 68.8362 75.8874 67.4549C76.1105 67.2792 76.453 67.1733 76.5026 66.8127Z" fill="#E9F4FD"/>
<path d="M76.5024 66.8126C76.4528 67.1731 76.1103 67.2791 75.8872 67.4526C74.1252 68.8338 74.6209 71.6504 76.446 72.4977C76.5384 72.5405 76.6037 72.6464 76.6804 72.723C75.3848 73.1038 74.3663 72.6261 73.5597 71.6437C72.7891 70.7063 72.7012 69.271 73.3501 68.2435C74.0779 67.0965 75.1189 66.5557 76.5024 66.8126Z" fill="#CFE7F3"/>
</g>
<defs>
<clipPath id="clip0_55_101">
<rect width="86" height="83" fill="white" transform="translate(33 14)"/>
</clipPath>
</defs>
</svg>
